<svg xmlns="http://www.w3.org/2000/svg" viewBox="0 0 67.02 67.02"><defs><style>.cls-1{fill:#008588;}</style></defs><title>180924_S&amp;amp;S_Website Landing page</title><g id="Layer_1" data-name="Layer 1"><path class="cls-1" d="M33.51,16.71A16.67,16.67,0,1,0,50.18,33.37,16.89,16.89,0,0,0,33.51,16.71Zm0,29.48A12.82,12.82,0,1,1,46.33,33.37,12.83,12.83,0,0,1,33.51,46.19Z"/><path class="cls-1" d="M52.18,12.21A2.77,2.77,0,1,0,55,15,2.77,2.77,0,0,0,52.18,12.21Z"/><path class="cls-1" d="M67,19.05A18.86,18.86,0,0,0,61.79,5.37C58.4,1.85,53.63,0,48,0H19.05C7.48,0,0,7.48,0,19.05V47.83c0,5.75,1.9,10.61,5.5,14.08A19.21,19.21,0,0,0,19.19,67H47.83c5.58,0,10.36-1.76,13.84-5.11S67,53.72,67,48ZM63.46,48A15,15,0,0,1,59,59.17a15.86,15.86,0,0,1-11.15,4H19.19a15.84,15.84,0,0,1-11.14-4c-2.8-2.8-4.2-6.6-4.2-11.34V19.05c0-4.58,1.44-8.44,4.17-11.17s6.57-4,11.17-4H48.11c4.58,0,8.44,1.44,11.17,4.17a15.91,15.91,0,0,1,4.18,11Z"/></g></svg>