<?xml version="1.0" standalone="no"?>
<!DOCTYPE svg PUBLIC "-//W3C//DTD SVG 1.1//EN" "http://www.w3.org/Graphics/SVG/1.1/DTD/svg11.dtd" >
<svg>
<metadata>
Created by FontForge 20090622 at Tue Nov  6 06:42:56 2018
 By deploy user
Copyright &#194;&#169; 2014 by Brian Brubaker. All rights reserved.
</metadata>
<defs>
<font id="Herschel-Whole" horiz-adv-x="0" >
  <font-face 
    font-family="Herschel-Whole"
    font-weight="400"
    font-stretch="condensed"
    units-per-em="1000"
    panose-1="0 0 7 6 0 0 0 0 0 0"
    ascent="770"
    descent="-230"
    x-height="500"
    cap-height="700"
    bbox="-1042 -540 1408 1150"
    underline-thickness="50"
    underline-position="-50"
    unicode-range="U+0020-U+FB02"
  />
<missing-glyph horiz-adv-x="349" 
d="M329 700v-700h-309v700h309zM243 79v542h-137v-542h137z" />
    <glyph glyph-name="fi" unicode="fi" horiz-adv-x="412" 
d="M68 69v334h-1q-18 0 -34 -7.5t-23 -23.5q-3 12 -3 23q0 32 17.5 51.5t42.5 19.5h1v108q0 59 29.5 93.5t79.5 34.5q18 0 34 -3.5t21 -3.5q9 0 18 5q2 -15 -3 -27t-5 -16q0 -6 4 -21t4 -32q0 -25 -9 -51q0 34 -13.5 54.5t-35.5 20.5q-21 0 -33 -14.5t-12 -41.5v-108l135 1
q21 0 33.5 4.5t23.5 13.5q11 7 19 10.5t21 3.5q-19 -24 -19 -84v-344q0 -52 30 -69q-30 -3 -48 5t-21 8t-21 -8t-49 -5q31 16 31 69v344h-135v-344q0 -52 30 -69q-30 -3 -48.5 5t-21.5 8t-20 -8t-49 -5q30 19 30 69zM296.5 583.5q-12.5 13.5 -12.5 35.5q0 21 12.5 35
t33.5 14t33.5 -14t12.5 -35t-12.5 -35t-33.5 -14t-33.5 13.5z" />
    <glyph glyph-name="fl" unicode="fl" horiz-adv-x="431" 
d="M252 673q-4 -12 -4 -16t4 -20.5t4 -33.5q0 -23 -8 -50q0 36 -14.5 56.5t-39.5 20.5q-22 0 -34.5 -15t-12.5 -43v-92h26q44 0 58 27l1 -12q0 -19 -6 -32.5t-6 -15.5q0 -3 6 -17t6 -32l-1 -12q-15 28 -58 28h-26v-345q0 -52 30 -69q-30 -3 -48.5 5t-21.5 8t-20 -8t-49 -5
q30 19 30 69v346q-44 -3 -61 -27q-1 5 -1 14q0 33 17.5 53t44.5 23v96q0 58 30.5 93t80.5 35q21 0 37.5 -4.5t21.5 -4.5q8 0 17 5q1 -13 -3 -25zM385 26.5q8 -16.5 24 -26.5q-61 -2 -86 18.5t-25 65.5v538q0 34 -8 51t-23 27q60 2 85 -18.5t25 -65.5v-538q0 -35 8 -51.5z
" />
    <glyph glyph-name="f_f.liga" unicode="ff" horiz-adv-x="465" 
d="M380.5 615q-12.5 -15 -12.5 -43v-92h29q44 0 58 27l1 -12q0 -19 -6 -32.5t-6 -15.5q0 -3 6 -17t6 -32l-1 -12q-15 28 -58 28h-29v-345q0 -52 30 -69q-30 -3 -48 5t-21 8t-21 -8t-49 -5q30 19 30 69v351h-143v-351q0 -53 30 -69q-31 -3 -49 5t-21 8t-20 -8t-50 -5
q30 18 30 69v346q-44 -3 -59 -27q-4 38 13 61.5t46 28.5v96q0 58 30.5 93t81.5 35q20 0 36.5 -4.5t22.5 -4.5q8 0 17 5q1 -13 -3.5 -25t-4.5 -16t4.5 -21t4.5 -35q0 -23 -8 -48q0 36 -14.5 56.5t-40.5 20.5q-22 0 -34 -15t-12 -43v-98h143v100q0 58 30.5 93t81.5 35
q20 0 36.5 -4.5t21.5 -4.5q8 0 17 5q2 -13 -2.5 -25t-4.5 -16t4.5 -20.5t4.5 -33.5q0 -24 -9 -50q0 36 -14.5 56.5t-39.5 20.5q-22 0 -34.5 -15z" />
    <glyph glyph-name="f_f_l.liga" unicode="ffl" horiz-adv-x="652" 
d="M473.5 673q-4.5 -12 -4.5 -16t4.5 -20.5t4.5 -33.5q0 -24 -9 -50q0 36 -14.5 56.5t-39.5 20.5q-22 0 -34.5 -15t-12.5 -43v-92h26q44 0 58 27l1 -12q0 -19 -6 -32.5t-6 -15.5q0 -3 6 -17t6 -32l-1 -12q-15 28 -58 28h-26v-345q0 -52 30 -69q-30 -3 -48 5t-21 8t-21 -8
t-49 -5q30 19 30 69v351h-143v-351q0 -53 30 -69q-31 -3 -49 5t-21 8t-20 -8t-50 -5q30 18 30 69v346q-44 -3 -59 -27q-4 38 13 61.5t46 28.5v96q0 58 30.5 93t81.5 35q20 0 36.5 -4.5t22.5 -4.5q8 0 17 5q1 -13 -3.5 -25t-4.5 -16t4.5 -21t4.5 -35q0 -23 -8 -48
q0 36 -14.5 56.5t-40.5 20.5q-22 0 -34 -15t-12 -43v-98h143v100q0 58 30.5 93t81.5 35q20 0 36.5 -4.5t21.5 -4.5q8 0 17 5q2 -13 -2.5 -25zM606 26.5q8 -16.5 24 -26.5q-61 -2 -86 18.5t-25 65.5v538q0 34 -8 51t-23 27q60 2 85 -18.5t25 -65.5v-538q0 -35 8 -51.5z" />
    <glyph glyph-name=".notdef" horiz-adv-x="349" 
d="M329 700v-700h-309v700h309zM243 79v542h-137v-542h137z" />
    <glyph glyph-name=".null" 
 />
    <glyph glyph-name="nonmarkingreturn" horiz-adv-x="333" 
 />
    <glyph glyph-name="space" unicode=" " horiz-adv-x="150" 
 />
    <glyph glyph-name="exclam" unicode="!" horiz-adv-x="179" 
d="M81 208l-10 88q-14 118 -21.5 191t-7.5 120q0 51 11 77.5t37 26.5q26 -1 36.5 -27.5t10.5 -77.5q0 -45 -6.5 -112.5t-20.5 -185.5q-16 -140 -20 -185q-3 31 -9 85zM59 10q-13 14 -13 35q0 20 13 34t34 14q20 0 33 -14t13 -34q0 -21 -13 -35t-33 -14q-21 0 -34 14z" />
    <glyph glyph-name="quotedbl" unicode="&#x22;" horiz-adv-x="221" 
d="M54.5 445q-2.5 18 -6.5 38q-3 17 -10 64t-10 74.5t-3 43.5q0 24 9.5 37.5t24.5 13.5t25 -13.5t10 -37.5q0 -25 -8 -80t-19 -122q-1 -10 -8 -51zM156.5 445q-2.5 18 -6.5 38q-3 17 -10 64t-10 74.5t-3 43.5q0 24 9.5 37.5t24.5 13.5t25 -13.5t10 -37.5q0 -25 -8 -80
t-19 -122q-1 -10 -8 -51z" />
    <glyph glyph-name="numbersign" unicode="#" horiz-adv-x="506" 
d="M477.5 474q-5.5 -13 -5.5 -17t5.5 -16.5t4.5 -29.5q-16 16 -54 16h-47l-19 -162h46q38 0 54 16q1 -17 -4.5 -30t-5.5 -17q0 -3 5.5 -16t4.5 -30q-16 16 -54 16h-53l-17 -148q-2 -14 -2 -21q0 -26 17 -35q-4 -1 -11 -1q-12 0 -25 4.5t-18 4.5q-4 0 -17 -4.5t-29 -4.5
q-10 0 -15 1q16 6 22.5 18.5t8.5 37.5l17 148h-93l-17 -148q-1 -7 -1 -21q0 -26 16 -35q-4 -1 -11 -1q-12 0 -25 4.5t-18 4.5q-4 0 -17 -4.5t-29 -4.5q-9 0 -14 1q16 6 22.5 19t8.5 37l17 148h-47q-38 0 -54 -16q-1 17 4.5 30t5.5 16q0 4 -5.5 17t-4.5 30q16 -16 54 -16h54
l18 162h-52q-38 0 -54 -16q-1 17 4.5 29.5t5.5 16.5t-5.5 17t-4.5 30q16 -16 54 -16h59l18 156q1 7 1 21q0 27 -17 35q4 1 11 1q12 0 25 -4.5t18 -4.5q4 0 17 4.5t29 4.5q10 0 15 -1q-15 -6 -21.5 -18.5t-8.5 -37.5l-18 -156h93l18 156q1 6 1 19q0 27 -17 37q4 1 11 1
q11 0 24 -4.5t18 -4.5q4 0 17.5 4.5t29.5 4.5q10 0 15 -1q-16 -6 -21.5 -18.5t-8.5 -37.5l-18 -156h40q38 0 54 16q1 -17 -4.5 -30zM293 265l19 162h-93l-19 -162h93z" />
    <glyph glyph-name="dollar" unicode="$" horiz-adv-x="332" 
d="M281 105.5q-37 -41.5 -96 -49.5v-11q0 -15 6 -25.5t20 -19.5q-19 -2 -29.5 2.5t-13.5 4.5t-13.5 -4.5t-29.5 -2.5q15 9 20.5 19t5.5 26v10q-18 2 -48 11q-17 7 -28 7q-12 0 -21 -8q-2 12 -2 17q0 10 3 21.5t3 15.5t-2.5 11t-3.5 11q-14 37 -14 66q0 50 36 96
q-9 -30 -9 -56q0 -48 25.5 -80.5t60.5 -36.5v196l-12 9q-44 34 -64.5 52.5t-35 45.5t-14.5 64q0 56 34.5 95.5t91.5 43.5v19q0 16 -5.5 26t-20.5 19q19 2 29.5 -2.5t13.5 -4.5t13.5 4.5t29.5 2.5q-14 -9 -20 -19.5t-6 -25.5v-19q8 -1 29 -6q17 -5 27 -5q14 0 28 10
q0 -15 -5 -29.5t-5 -18.5t5 -25t5 -43q0 -38 -17 -76q2 20 2 28q0 43 -20 66.5t-49 28.5v-177l3 -2l17 -13q38 -28 60.5 -48.5t37.5 -49t15 -65.5q0 -64 -37 -105.5zM112 455q13 -19 39 -40v150q-24 -6 -38 -24t-14 -43q0 -24 13 -43zM225.5 258q-13.5 20 -40.5 42v-167
q26 7 40 28.5t14 49.5q0 27 -13.5 47z" />
    <glyph glyph-name="percent" unicode="%" horiz-adv-x="607" 
d="M61 331q-29 54 -29 161t29 161t79 54q51 0 79.5 -54t28.5 -161t-28.5 -161t-79.5 -54q-50 0 -79 54zM138.5 26.5q14.5 18.5 27.5 49.5l211 561q8 21 8 35q0 18 -14 28q5 1 13 1q14 0 27 -5t16 -5t17.5 5.5t35.5 5.5q6 0 24 -2q-21 -8 -36 -26.5t-27 -49.5l-211 -561
q-8 -21 -8 -35q0 -18 14 -28q-5 -1 -13 -1q-14 0 -27.5 5t-16.5 5t-17.5 -5.5t-35.5 -5.5q-5 0 -23 2q21 8 35.5 26.5zM176 381.5q11 42.5 11 110.5t-11 110.5t-36 42.5q-24 0 -35 -42.5t-11 -110.5t11 -110.5t35 -42.5q25 0 36 42.5zM388 49q-29 54 -29 161t29 161t79 54
q51 0 79.5 -54t28.5 -161t-28.5 -161t-79.5 -54q-50 0 -79 54zM503 99.5q11 42.5 11 110.5t-11 110.5t-36 42.5q-24 0 -35 -42.5t-11 -110.5t11 -110.5t35 -42.5q25 0 36 42.5z" />
    <glyph glyph-name="ampersand" unicode="&#x26;" horiz-adv-x="521" 
d="M501 56q-6 -26 -30.5 -43.5t-54.5 -17.5q-22 0 -42.5 10.5t-36.5 32.5q-47 -43 -122 -43q-58 0 -102 27t-68.5 75t-24.5 107t26.5 110.5t72.5 85.5q-27 44 -39.5 77t-12.5 68q0 70 42 115t111 45q24 0 58 -9q24 -6 31 -6q14 0 27 9q0 -15 -6 -30t-6 -21q0 -3 4 -21
q12 -38 12 -74q0 -29 -9 -70q-8 76 -35.5 110t-67.5 34q-33 0 -54 -20t-21 -59q0 -31 12.5 -59.5t46.5 -86.5l116 -200q11 57 11 136q0 50 -40 72q5 1 15 1q21 0 40 -7.5t24 -7.5q6 0 24 7.5t40 7.5q10 0 16 -1q-18 -11 -29 -29.5t-11 -42.5q0 -149 -35 -231l12 -21
q26 -46 64 -46q21 0 42 16zM291 113l-132 220q-54 -44 -54 -129q0 -53 31.5 -89.5t78.5 -36.5t76 35z" />
    <glyph glyph-name="quotesingle" unicode="'" horiz-adv-x="109" 
d="M49.5 445q-2.5 18 -6.5 38q-3 17 -10 64t-10 74.5t-3 43.5q0 24 9.5 37.5t24.5 13.5t25 -13.5t10 -37.5q0 -25 -8 -80t-19 -122q-1 -10 -8 -51z" />
    <glyph glyph-name="parenleft" unicode="(" horiz-adv-x="211" 
d="M36.5 524.5q27.5 83.5 78 145.5t117.5 92q-65 -62 -101 -175.5t-36 -236.5q0 -119 36 -229t101 -173q-67 31 -117.5 91.5t-78 141t-27.5 169.5q0 91 27.5 174.5z" />
    <glyph glyph-name="parenright" unicode=")" horiz-adv-x="214" 
d="M175.5 180q-27.5 -81 -78 -141.5t-118.5 -90.5q65 63 101.5 173t36.5 229q0 122 -36.5 235.5t-101.5 176.5q67 -30 118 -92.5t78.5 -145.5t27.5 -174q0 -89 -27.5 -170z" />
    <glyph glyph-name="asterisk" unicode="*" horiz-adv-x="327" 
d="M50 534q0 14 10 27q7 9 36 32q38 29 56 49q-26 5 -72 5q-5 0 -22 1t-27 4q-14 4 -22.5 13t-8.5 22q0 3 2 11q3 11 12 17t21 6q8 0 17 -3q15 -6 41 -25q36 -26 64 -39q-4 27 -17 71q-11 35 -11 49q0 18 9.5 29.5t25.5 11.5q15 0 24.5 -12t9.5 -29q0 -14 -11 -49
q-13 -44 -17 -71q20 9 40 22.5t27 17.5q28 20 38 24q8 3 16 3q12 0 21.5 -6.5t12.5 -17.5q2 -8 2 -10q0 -12 -8.5 -21t-21.5 -14q-11 -3 -27.5 -4t-21.5 -1q-41 0 -73 -6q18 -19 56 -48q29 -21 37 -32q10 -13 10 -27q0 -16 -14 -27q-9 -6 -20 -6q-19 0 -33 19q-8 11 -19 46
q-14 42 -28 68q-13 -24 -28 -67q-10 -33 -20 -46q-14 -20 -34 -20q-10 0 -19 6q-13 9 -13 27z" />
    <glyph glyph-name="plus" unicode="+" horiz-adv-x="391" 
d="M371 379q0 -18 -4.5 -30t-4.5 -15t4.5 -15.5t4.5 -29.5q0 -9 -1 -15q-9 14 -21 19t-31 5h-86v-103q0 -18 5 -30t18 -21q-6 -1 -15 -1q-17 0 -29 4.5t-15 4.5t-15 -4.5t-28 -4.5q-11 0 -17 1q13 9 18.5 21t5.5 30v103h-87q-19 0 -31 -5t-21 -19q-1 5 -1 13q0 15 4.5 29.5
t4.5 17.5t-4.5 15t-4.5 30q0 9 1 15q9 -14 21 -19t31 -5h87v102q0 19 -5.5 32t-18.5 21q21 2 38.5 -3.5t21.5 -5.5t18.5 5.5t40.5 3.5q-23 -15 -23 -53v-102h86q19 0 31 5t21 19q1 -6 1 -15z" />
    <glyph glyph-name="comma" unicode="," horiz-adv-x="144" 
d="M33 -124q63 54 63 132q-4 -6 -13.5 -10t-17.5 -4q-19 0 -31.5 13.5t-12.5 34.5t13.5 35t34.5 14t35.5 -18.5t14.5 -49.5q0 -46 -22.5 -87t-60.5 -65z" />
    <glyph glyph-name="hyphen" unicode="-" horiz-adv-x="237" 
d="M12 208q0 14 4.5 24.5t4.5 12.5t-4.5 12.5t-4.5 24.5q0 8 1 12q14 -19 54 -19h103q40 0 54 19q1 -4 1 -12q0 -14 -4.5 -24.5t-4.5 -12.5t4.5 -12.5t4.5 -24.5q0 -8 -1 -12q-15 19 -54 19h-103q-39 0 -54 -19q-1 4 -1 12z" />
    <glyph glyph-name="period" unicode="." horiz-adv-x="143" 
d="M38 10q-13 14 -13 35q0 20 13 34t34 14q20 0 33 -14t13 -34q0 -21 -13 -35t-33 -14q-21 0 -34 14z" />
    <glyph glyph-name="slash" unicode="/" horiz-adv-x="267" 
d="M-17.5 -60.5q10.5 14.5 16.5 38.5l188 753q3 14 3 24q0 20 -13 32l11 1q17 0 32 -6.5t19 -6.5q3 0 19.5 6.5t40.5 6.5l14 -1q-19 -13 -31 -27.5t-17 -37.5l-188 -753q-2 -7 -2 -20q0 -23 16 -36l-11 -1q-18 0 -33 6.5t-18 6.5t-20.5 -6.5t-40.5 -6.5l-14 1
q18 12 28.5 26.5z" />
    <glyph glyph-name="zero" unicode="0" horiz-adv-x="408" 
d="M75.5 82q-45.5 89 -45.5 268t45.5 268t128.5 89t128.5 -89t45.5 -268t-45.5 -268t-128.5 -89t-128.5 89zM272 151q21 75 21 199t-21 199t-68 75t-68 -75t-21 -199t21 -199t68 -75t68 75z" />
    <glyph glyph-name="one" unicode="1" horiz-adv-x="258" 
d="M96 74l1 456q-15 -9 -33 -18.5t-36 -14.5l-10 19q53 31 82 75t45 114h37v-631q0 -53 42 -74q-6 -1 -17 -1q-23 0 -43 7t-25 7q-4 0 -24 -7t-44 -7q-11 0 -17 1q42 21 42 74z" />
    <glyph glyph-name="two" unicode="2" horiz-adv-x="364" 
d="M26 63q0 76 19.5 133.5t46.5 96t70 86.5t62.5 81t19.5 77q0 42 -23 67.5t-63 25.5q-41 0 -69.5 -33t-34.5 -98q-12 35 -12 67q0 25 9 59q5 17 5 24t-6 20.5t-5 31.5q14 -9 32 -9q10 0 36 6q3 1 20.5 5t37.5 4q70 0 114.5 -45.5t44.5 -116.5q0 -45 -13.5 -81t-34 -63.5
t-53.5 -64.5q-38 -43 -61.5 -75t-39.5 -77t-16 -102h110q51 0 79 39.5t27 98.5q11 -34 11 -65q0 -22 -4 -38.5t-12 -38.5q-9 -23 -9 -36q0 -11 3 -23t8 -19q-66 11 -161 11q-87 0 -152 -11q14 17 14 63z" />
    <glyph glyph-name="three" unicode="3" horiz-adv-x="362" 
d="M102 5q-25 7 -39 7q-17 0 -34 -11q-1 16 4 29.5t5 20.5q0 6 -6 28q-12 38 -12 66q0 35 13 71q1 -74 36.5 -109t84.5 -35q47 0 75 35.5t28 92.5q0 63 -32 101t-85 38q-41 0 -55 -30l-1 12q0 19 6 32.5t6 16.5t-6 16t-6 32l1 12q14 -28 53 -28q43 0 69.5 34.5t26.5 90.5
q0 46 -24 74t-63 28t-66.5 -33.5t-33.5 -98.5q-12 35 -12 67q0 24 9 60q5 15 5 24q0 7 -6 20t-5 31q14 -9 31 -9q10 0 36 6q36 9 57 9q45 0 81 -21.5t56.5 -60.5t20.5 -89q0 -97 -65 -161q40 -26 64 -70.5t24 -102.5q0 -61 -22.5 -107.5t-62.5 -72t-92 -25.5q-28 0 -64 10z
" />
    <glyph glyph-name="four" unicode="4" horiz-adv-x="399" 
d="M385 270q0 -21 -7 -36.5t-7 -19.5t7 -19.5t7 -36.5q0 -6 -2 -20q-10 22 -27 30t-47 8v-102q0 -30 8.5 -47.5t24.5 -26.5q-28 -3 -49 5t-24 8q-4 0 -25 -8t-49 -5q34 19 34 74v105h-217q119 330 117 549q23 -20 51 -34.5t52 -19.5q-34 -189 -121 -423h118v206q29 39 49 75
t31 78v-358q30 0 47.5 8.5t26.5 29.5q2 -14 2 -20z" />
    <glyph glyph-name="five" unicode="5" horiz-adv-x="376" 
d="M104 4q-28 6 -38 6q-18 0 -33 -9q-2 14 -2 18q0 8 2.5 18.5t2.5 14.5q0 9 -6 22q-1 3 -7 23t-6 51q0 36 9 73q8 -76 43 -111t89 -35q50 0 79.5 40.5t29.5 103.5q0 67 -31 107t-80 40q-35 0 -64 -15.5t-46 -37.5l23 387q20 -4 61 -7t66 -3t56.5 3t52.5 7q-8 -19 -8 -40
q0 -10 6 -32q7 -26 7 -43q0 -22 -8 -47q-5 39 -22.5 60t-58.5 21h-79l-11 -191q18 12 52 12q47 0 86 -26.5t61.5 -76.5t22.5 -117q0 -66 -22.5 -117t-64 -79.5t-97.5 -28.5q-24 0 -65 9z" />
    <glyph glyph-name="six" unicode="6" horiz-adv-x="398" 
d="M274 697q26 -6 35 -6q17 0 32 11q2 -7 2 -20q0 -7 -3 -17t-3 -15q0 -6 5 -21q12 -36 12 -66q0 -39 -12 -75q-5 69 -34.5 104t-78.5 35q-64 0 -89.5 -69.5t-25.5 -170.5q15 29 42.5 45t58.5 16q46 0 82.5 -28t56.5 -80t20 -120t-20.5 -119t-58 -78.5t-86.5 -27.5
q-79 0 -128.5 75t-49.5 249q0 386 190 386q23 0 53 -8zM149 329q-22 -40 -22 -107t22 -107t61 -40t60.5 39.5t21.5 107.5t-21.5 107.5t-60.5 39.5t-61 -40z" />
    <glyph glyph-name="seven" unicode="7" horiz-adv-x="351" 
d="M103 74l129 544h-129q-41 0 -61.5 -21.5t-26.5 -65.5q-7 27 -7 46t8 45q6 24 6 35q0 20 -10 43q59 -10 157 -10q87 0 163 10l-148 -637q-3 -10 -3 -21q0 -14 5.5 -25.5t15.5 -16.5l-14 -1q-20 0 -36.5 6t-20.5 6t-21.5 -6t-45.5 -6l-18 1q45 22 57 74z" />
    <glyph glyph-name="eight" unicode="8" horiz-adv-x="410" 
d="M112 22q-41 27 -64 74t-23 104q0 62 25.5 106.5t63.5 70.5q-60 59 -60 147q0 50 19.5 91.5t54 65.5t77.5 24t77 -24t53.5 -65.5t19.5 -91.5q0 -44 -15 -82.5t-44 -66.5q38 -27 63.5 -70t25.5 -105q0 -57 -23.5 -104t-64.5 -74t-92 -27q-52 0 -93 27zM260.5 445
q17.5 33 17.5 77q0 47 -21 76t-52 29t-52 -29.5t-21 -74.5q0 -35 13 -60t31.5 -38t36.5 -13q30 0 47.5 33zM274 111.5q27 35.5 27 91.5q0 43 -16.5 73.5t-40.5 46t-48 15.5q-39 0 -63 -41t-24 -94q0 -56 27 -91.5t69 -35.5t69 35.5z" />
    <glyph glyph-name="nine" unicode="9" horiz-adv-x="398" 
d="M124 3q-26 6 -35 6q-17 0 -32 -11q-2 7 -2 20q0 7 3 17t3 15q0 6 -5 21q-12 36 -12 66q0 39 12 75q5 -69 34.5 -104t78.5 -35q64 0 89.5 69.5t25.5 170.5q-15 -29 -42.5 -45t-58.5 -16q-46 0 -82.5 28t-56.5 80t-20 120t20.5 119t58 78.5t86.5 27.5q79 0 128.5 -75
t49.5 -249q0 -386 -190 -386q-23 0 -53 8zM249 371q22 40 22 107t-22 107t-61 40t-60.5 -39.5t-21.5 -107.5t21.5 -107.5t60.5 -39.5t61 40z" />
    <glyph glyph-name="colon" unicode=":" horiz-adv-x="143" 
d="M38 354q-13 14 -13 35q0 20 13 34t34 14q20 0 33 -14t13 -34q0 -21 -13 -35t-33 -14q-21 0 -34 14zM38 83q-13 14 -13 35q0 20 13 34t34 14q20 0 33 -14t13 -34q0 -21 -13 -35t-33 -14q-21 0 -34 14z" />
    <glyph glyph-name="semicolon" unicode=";" horiz-adv-x="144" 
d="M38 292q-13 14 -13 35q0 20 13 34t34 14q20 0 33 -14t13 -34q0 -21 -13 -35t-33 -14q-21 0 -34 14zM33 -124q63 54 63 132q-4 -6 -13.5 -10t-17.5 -4q-19 0 -31.5 13.5t-12.5 34.5t13.5 35t34.5 14t35.5 -18.5t14.5 -49.5q0 -46 -22.5 -87t-60.5 -65z" />
    <glyph glyph-name="less" unicode="&#x3c;" horiz-adv-x="501" 
d="M437 143q-13 10 -41 20l-287 101q-33 13 -50 13t-24 -11q-2 21 4.5 37.5t6.5 20.5t-6.5 20.5t-4.5 38.5q7 -11 24 -11q14 0 50 12l287 100q27 10 40.5 20.5t23.5 30.5q3 -12 3 -23q0 -14 -4 -30.5t-4 -20.5q0 -6 6.5 -21t4.5 -31q-17 9 -29 9q-13 0 -28 -6l-267 -88
l267 -88q15 -6 27 -6q14 0 30 10q2 -16 -4.5 -31.5t-6.5 -21.5q0 -4 4 -20t4 -30q0 -10 -3 -24q-10 20 -23 30z" />
    <glyph glyph-name="equal" unicode="=" horiz-adv-x="470" 
d="M38 369q0 15 5 29t5 18t-5 16t-5 30q0 9 1 14q16 -24 52 -24h288q36 0 52 24q1 -6 1 -15q0 -17 -4.5 -29.5t-4.5 -15.5t4.5 -15t4.5 -29q0 -9 -1 -15q-9 13 -21.5 18t-30.5 5h-288q-18 0 -30.5 -5t-21.5 -18q-1 4 -1 12zM38 201q0 15 5 29.5t5 18.5t-5 16t-5 30q0 9 1 14
q16 -24 52 -24h288q36 0 52 24q1 -6 1 -15q0 -17 -4.5 -29.5t-4.5 -15.5t4.5 -15t4.5 -30q0 -9 -1 -15q-9 14 -21 19t-31 5h-288q-19 0 -31 -5t-21 -19q-1 4 -1 12z" />
    <glyph glyph-name="greater" unicode="&#x3e;" horiz-adv-x="501" 
d="M38 137q0 14 4 30t4 20q0 6 -6.5 21.5t-4.5 31.5q16 -10 30 -10q12 0 27 6l267 88l-267 88q-15 6 -28 6t-29 -9q-2 16 4.5 31t6.5 21q0 4 -4 20.5t-4 30.5q0 11 3 23q10 -20 23.5 -30.5t40.5 -20.5l287 -100q36 -12 50 -12q17 0 24 11q2 -22 -4.5 -38.5t-6.5 -20.5
t6.5 -20.5t4.5 -37.5q-7 11 -24 11t-50 -13l-287 -101q-28 -10 -41 -20t-23 -30q-3 14 -3 24z" />
    <glyph glyph-name="question" unicode="?" horiz-adv-x="319" 
d="M98 229q0 38 15.5 72t47.5 82q32 50 47.5 84t15.5 72q0 45 -21.5 71.5t-60.5 26.5q-42 0 -66 -32t-24 -78q0 -34 13 -64q-43 43 -43 108q0 25 6 52t6 31q0 9 -2 21q-3 14 -2 30q19 -8 30 -8q12 0 31 7q30 12 63 12q70 0 113 -48t43 -129q0 -39 -12.5 -72.5t-30 -59.5
t-48.5 -64q-45 -54 -68 -96t-23 -97q0 -13 1 -20q-31 51 -31 99zM95 5q-13 14 -13 35q0 20 13 34t34 14q20 0 33 -14t13 -34q0 -21 -13 -35t-33 -14q-21 0 -34 14z" />
    <glyph glyph-name="at" unicode="@" horiz-adv-x="703" 
d="M388 339v28q0 39 -18 57.5t-47 18.5q-22 0 -44.5 -12.5t-34.5 -40.5q-3 52 27 86t80 34q47 0 81.5 -33.5t34.5 -109.5v-196q0 -47 15.5 -70t43.5 -23q33 0 50.5 47t17.5 135q0 105 -30.5 182.5t-85 118.5t-124.5 41q-71 0 -125.5 -41t-85 -118.5t-30.5 -182.5
q0 -109 34 -190t93.5 -124t133.5 -43q142 0 231 90q-13 -39 -46.5 -75.5t-83 -60t-109.5 -23.5q-107 0 -182.5 58t-113.5 154.5t-38 213.5q0 115 35.5 209.5t107.5 151.5t179 57q105 0 176.5 -57t106 -151.5t34.5 -209.5q0 -118 -38 -187t-107 -69q-37 0 -65 15t-46 42
q-33 -55 -81 -55q-51 0 -83.5 48.5t-32.5 128.5t32.5 128.5t83.5 48.5q32 0 54 -21zM394 111q-6 24 -6 49v101q-14 25 -41 25q-23 0 -37 -27.5t-14 -75.5t14 -76t37 -28q30 0 47 32z" />
    <glyph glyph-name="A" unicode="A" horiz-adv-x="425" 
d="M402.5 28q10.5 -15 30.5 -28q-20 -2 -33.5 0.5t-26.5 7.5t-18 5t-17.5 -5t-23.5 -7.5t-27 -0.5q20 14 20 43q0 6 -2 20l-25 142h-136l-25 -142q-2 -12 -2 -18q0 -31 26 -45q-18 -2 -30.5 0.5t-25 7.5t-17.5 5t-18 -5t-26.5 -7.5t-33.5 -0.5q20 12 30.5 27.5t15.5 41.5
l108 561q3 18 3 30q0 25 -17 41q21 2 35.5 -1t27.5 -8t17 -5q5 0 18.5 5t27.5 8t35 1q-18 -15 -18 -42q0 -12 3 -29l109 -561q5 -26 15.5 -41zM157 279h110l-55 308z" />
    <glyph glyph-name="B" unicode="B" horiz-adv-x="416" 
d="M137.5 5.5q-23.5 7.5 -28.5 7.5q-6 0 -20 -5t-28 -7.5t-34 -0.5q39 22 39 74v552q0 52 -39 74q20 2 34 -0.5t28 -7.5t20 -5q4 0 20 4q31 11 66 11q48 0 87 -23.5t61.5 -64.5t22.5 -91q0 -94 -75 -150q106 -61 106 -174q0 -59 -25.5 -105t-71 -71t-103.5 -25
q-36 0 -59.5 7.5zM167 401q51 0 82 32t31 84q0 49 -25 77.5t-65 28.5q-19 0 -38 -6v-215zM275.5 106q35.5 31 35.5 93q0 63 -38.5 96.5t-92.5 33.5q-19 0 -28 -2v-246q13 -6 35 -6q53 0 88.5 31z" />
    <glyph glyph-name="C" unicode="C" horiz-adv-x="364" 
d="M84 82q-52 87 -52 266q0 357 194 357q19 0 47 -8q4 -1 13 -3t16 -2q16 0 30 10q0 -18 -6.5 -32.5t-6.5 -20.5t6 -30q4 -16 8 -35.5t4 -40.5q0 -31 -8 -63q-13 143 -97 143q-57 0 -85.5 -67.5t-28.5 -207.5q0 -137 31 -202.5t83 -65.5q93 0 111 189q7 -42 7 -84
q0 -89 -35 -139.5t-97 -50.5q-82 0 -134 87z" />
    <glyph glyph-name="D" unicode="D" horiz-adv-x="419" 
d="M66 74v552q0 52 -39 74q20 2 33.5 -0.5t27 -7.5t19.5 -5t26.5 7t47.5 7q95 0 150.5 -86t55.5 -265q0 -184 -55 -267t-151 -83q-27 0 -47.5 6.5t-26.5 6.5t-19.5 -5t-27 -7.5t-33.5 -0.5q39 22 39 74zM268 138.5q33 62.5 33 211.5q0 145 -33.5 209.5t-86.5 64.5
q-19 0 -29 -6v-536q12 -6 29 -6q54 0 87 62.5z" />
    <glyph glyph-name="E" unicode="E" horiz-adv-x="355" 
d="M342 123q0 -20 -9 -49q-7 -19 -7 -32q0 -28 9 -42q-67 10 -147 10q-94 0 -161 -10q39 24 39 74v552q0 50 -39 74q48 -10 159 -10q89 0 138 10q-9 -12 -9 -34q0 -12 8 -38t8 -44q0 -15 -6 -36q-5 72 -84 72h-89v-214h46q28 0 47 17.5t27 41.5q1 -7 1 -19q0 -25 -8 -47.5
t-8 -27.5t8 -27t8 -47q0 -12 -1 -19q-8 23 -27 40.5t-47 17.5h-46v-255h100q45 0 64 24t21 55q5 -17 5 -37z" />
    <glyph glyph-name="F" unicode="F" horiz-adv-x="342" 
d="M326 643q3 -11 4 -16q9 -23 9 -46q0 -18 -5 -33q-2 28 -20.5 48.5t-64.5 20.5h-97v-228h60q28 0 46.5 17t26.5 41q1 -7 1 -19q0 -25 -8 -47.5t-8 -27.5t8 -27t8 -47q0 -12 -1 -19q-8 23 -26.5 40t-46.5 17h-60v-243q0 -53 39 -74q-21 -2 -35.5 1t-28 8t-18.5 5t-19 -5
t-28.5 -8t-34.5 -1q39 22 39 74v552q0 52 -39 74q48 -10 156 -10q100 0 149 10q-5 -7 -7 -18t-2 -18q0 -10 3 -21z" />
    <glyph glyph-name="G" unicode="G" horiz-adv-x="402" 
d="M360 53q4 -25 14 -48q-31 16 -52 16q-14 0 -28 -5.5t-16 -6.5q-32 -14 -59 -14q-93 0 -140 91t-47 262q0 172 51.5 264.5t147.5 92.5q25 0 51 -8q17 -5 27 -5q14 0 28 10q1 -16 -4.5 -31.5t-5.5 -21.5q0 -4 7.5 -32.5t7.5 -63.5q0 -37 -9 -72q-12 142 -97 142
q-54 0 -86 -68.5t-32 -206.5q0 -136 29 -202.5t77 -66.5q23 0 37.5 11t14.5 31v140q0 52 -39 74q20 2 33.5 -0.5t27 -7.5t18.5 -5t18.5 5t27 7.5t33.5 0.5q-39 -22 -39 -74v-148q0 -35 4 -60z" />
    <glyph glyph-name="H" unicode="H" horiz-adv-x="449" 
d="M423 0q-30 -3 -53.5 5t-28.5 8t-28.5 -8t-53.5 -5q39 24 39 74v260h-146v-260q0 -54 39 -74q-32 -3 -54.5 5t-27.5 8t-28.5 -8t-53.5 -5q39 24 39 74v552q0 50 -39 74q30 3 53.5 -5t28.5 -8t27.5 8t54.5 5q-39 -19 -39 -74v-212h146v212q0 50 -39 74q30 3 53.5 -5
t28.5 -8t28.5 8t53.5 5q-39 -21 -39 -74v-552q0 -53 39 -74z" />
    <glyph glyph-name="I" unicode="I" horiz-adv-x="227" 
d="M72 74v552q0 51 -40 74q30 3 53.5 -5t28.5 -8t27.5 8t54.5 5q-40 -22 -40 -74v-552q0 -52 40 -74q-32 -3 -54.5 5t-27.5 8t-28.5 -8t-53.5 -5q40 23 40 74z" />
    <glyph glyph-name="J" unicode="J" horiz-adv-x="225" 
d="M41 -18q20 47 26.5 98.5t6.5 125.5v420q0 52 -39 74q30 3 53.5 -5t28.5 -8t28.5 8t53.5 5q-39 -22 -39 -74v-436q0 -88 -17.5 -146t-56 -94.5t-104.5 -59.5q39 45 59 92z" />
    <glyph glyph-name="K" unicode="K" horiz-adv-x="427" 
d="M458 0q-32 -2 -49.5 1t-30 7.5t-16.5 4.5q-5 0 -23.5 -7.5t-45.5 -5.5q19 12 19 35q0 13 -4 25l-87 272l-69 -141v-117q0 -54 39 -74q-32 -3 -54.5 5t-27.5 8t-28.5 -8t-53.5 -5q39 24 39 74v552q0 50 -39 74q30 3 53.5 -5t28.5 -8t27.5 8t54.5 5q-17 -8 -28 -27.5
t-11 -46.5v-290l140 298q10 22 10 38q0 20 -14 28q16 2 27 -0.5t23 -7.5t18 -5t19.5 4.5t30 7.5t43.5 1q-47 -20 -68 -68l-102 -216l111 -338q20 -62 68 -78z" />
    <glyph glyph-name="L" unicode="L" horiz-adv-x="324" 
d="M66 74v552q0 52 -39 74q30 3 53.5 -5t28.5 -8t27.5 8t54.5 5q-39 -21 -39 -74v-544h85q45 0 64 25t21 59q4 -20 4 -39q0 -14 -3 -28t-6 -25q-6 -22 -6 -32t2.5 -23t6.5 -19q-67 10 -152 10q-74 0 -141 -10q39 22 39 74z" />
    <glyph glyph-name="M" unicode="M" horiz-adv-x="583" 
d="M56 26.5q10 16.5 10 47.5v553q0 49 -38 73q21 2 35.5 -1t28.5 -8t20 -5q7 0 19 5q31 11 61 9q-38 -25 -38 -73q0 -43 18 -92.5t55 -124.5q48 -105 65 -152q23 64 65 149q38 83 55.5 130t17.5 90q0 47 -39 73q30 2 61 -9q12 -5 19 -5q6 0 20 5t28.5 8t36.5 1
q-38 -23 -38 -73v-553q0 -31 10 -47.5t29 -26.5q-21 -2 -35.5 1t-28 8t-18.5 5t-19 -5t-28.5 -8t-34.5 -1q19 10 29 26.5t10 47.5v328l-11 -25q-49 -105 -82.5 -195.5t-46.5 -185.5q-10 72 -33 145t-46 125.5l-62 135.5l1 -328q0 -31 10 -47.5t29 -26.5q-21 -2 -35.5 1
t-28 8t-18.5 5t-19 -5t-28.5 -8t-34.5 -1q19 10 29 26.5z" />
    <glyph glyph-name="N" unicode="N" horiz-adv-x="457" 
d="M55 28q11 16 11 46v552q0 29 -10.5 44.5t-18.5 22t-10 7.5q20 2 34.5 -1t28.5 -8t19 -5t19 5t28.5 8t34.5 1q-16 -10 -28 -26t-12 -48q0 -52 25 -106t75 -136q38 -62 55 -94v336q0 50 -39 74q30 3 53.5 -5t28.5 -8t27.5 8t54.5 5q-39 -19 -39 -74v-552q0 -54 39 -74
q-32 -3 -54.5 5t-27.5 8t-28.5 -8t-53.5 -5q39 24 39 74q0 59 -28 120t-81 148q-21 34 -45 77v-345q0 -31 10.5 -47.5t28.5 -26.5q-21 -2 -35.5 1t-28 8t-18.5 5t-19 -5t-28.5 -8t-34.5 -1q17 12 28 28z" />
    <glyph glyph-name="O" unicode="O" horiz-adv-x="421" 
d="M78.5 84q-46.5 93 -46.5 266t46.5 266t132.5 93t132 -93t46 -266t-46 -266t-132 -93t-132.5 93zM278.5 152q22.5 75 22.5 198t-22.5 198t-67.5 75t-67.5 -75t-22.5 -198t22.5 -198t67.5 -75t67.5 75z" />
    <glyph glyph-name="P" unicode="P" horiz-adv-x="385" 
d="M348.5 392.5q-29.5 -47.5 -80.5 -72.5t-116 -25v-221q0 -53 39 -74q-32 -3 -54.5 5t-27.5 8t-28.5 -8t-53.5 -5q39 22 39 74v552q0 52 -39 74q20 2 33.5 -0.5t27 -7.5t19.5 -5q5 0 27.5 7.5t57.5 7.5q55 0 97 -26t65.5 -71t23.5 -101q0 -64 -29.5 -111.5zM152 372
q64 0 102 36.5t38 95.5q0 54 -28.5 86.5t-72.5 32.5q-26 0 -39 -6v-245z" />
    <glyph glyph-name="Q" unicode="Q" horiz-adv-x="418" 
d="M399 -2q0 -40 -23 -67t-64 -27q-20 0 -38.5 8t-42.5 24q-25 15 -38.5 21.5t-28.5 6.5q-25 0 -43 -13.5t-28 -38.5q-5 15 -5 28q0 24 11 44.5t31 33.5q-48 37 -73 121.5t-25 210.5q0 173 46.5 266t132.5 93t132 -93t46 -266q0 -145 -33 -234.5t-95 -115.5q4 -2 20 -12
t29 -15t24 -5q44 0 64 44q1 -5 1 -14zM143.5 548q-22.5 -75 -22.5 -198t22.5 -198t67.5 -75t67.5 75t22.5 198t-22.5 198t-67.5 75t-67.5 -75z" />
    <glyph glyph-name="R" unicode="R" horiz-adv-x="411" 
d="M358 182q-1 -16 -1 -47q0 -51 9.5 -83.5t37.5 -51.5q-8 -1 -21 -1q-57 0 -84 31q-26 31 -26 107v44q0 56 -7 85t-32 44t-79 15h-3v-251q0 -53 39 -74q-32 -3 -54.5 5t-27.5 8t-28.5 -8t-53.5 -5q39 22 39 74v552q0 52 -39 74q20 2 33.5 -0.5t27 -7.5t19.5 -5
q5 0 27.5 7.5t57.5 7.5q79 0 127 -52.5t48 -135.5q0 -52 -22.5 -92.5t-64.5 -65.5q79 -31 79 -121zM152 393q60 0 94.5 32t34.5 89q0 49 -25 79t-65 30q-26 0 -39 -6v-224z" />
    <glyph glyph-name="S" unicode="S" horiz-adv-x="360" 
d="M104 5q-22 8 -36 8q-15 0 -27 -11q-2 12 -2 17q0 13 5 27.5t5 19.5q0 6 -7 22q-8 22 -12.5 40t-4.5 42q0 48 23 106q-3 -21 -3 -41q0 -49 17 -85.5t45.5 -56.5t62.5 -20q44 0 66 28t22 68t-24.5 74t-75.5 85q-42 42 -66.5 70.5t-42.5 65t-18 77.5q0 70 41.5 116.5
t110.5 46.5q23 0 57 -9q18 -5 30 -5q16 0 31 11q0 -17 -6.5 -32.5t-6.5 -20.5t5 -20q13 -42 13 -76q0 -29 -9 -68q-4 73 -34 107t-69 34q-37 0 -57 -22t-20 -59q0 -39 25.5 -73t79.5 -86q59 -55 91 -103.5t32 -111.5q0 -79 -45 -128.5t-119 -49.5q-34 0 -77 13z" />
    <glyph glyph-name="T" unicode="T" horiz-adv-x="348" 
d="M131 74v549h-38q-45 0 -63.5 -22t-20.5 -50q-4 17 -4 34q0 20 8 46q6 24 6 36q0 23 -9 36q49 -10 165 -10q117 0 163 10q-9 -13 -9 -36q0 -12 6 -36q8 -26 8 -46q0 -17 -4 -34q-2 28 -20.5 50t-63.5 22h-38v-549q0 -52 39 -74q-21 -2 -35 0.5t-28 7.5t-19 5t-28.5 -8
t-53.5 -5q39 22 39 74z" />
    <glyph glyph-name="U" unicode="U" horiz-adv-x="431" 
d="M99.5 43.5q-43.5 51.5 -43.5 143.5v439q0 52 -39 74q30 3 53.5 -5t28.5 -8t27.5 8t54.5 5q-39 -21 -39 -74v-448q0 -50 19 -76.5t54 -26.5q36 0 55 26t19 77v448q0 52 -39 74q32 3 54.5 -5t27.5 -8t28.5 8t53.5 5q-39 -22 -39 -74v-439q0 -92 -43.5 -143.5t-116.5 -51.5
q-72 0 -115.5 51.5z" />
    <glyph glyph-name="V" unicode="V" horiz-adv-x="415" 
d="M147 45q0 15 -5 40l-104 547q-5 26 -15.5 41.5t-30.5 26.5q20 2 33 -0.5t26.5 -7.5t18.5 -5t22.5 7t35.5 7q8 0 12 -1q-20 -14 -20 -44q0 -5 2 -19l86 -494l86 494q2 14 2 18q0 31 -20 45q4 1 12 1q17 0 34.5 -7t22.5 -7t18 5t26.5 7.5t33.5 0.5q-20 -13 -30.5 -28
t-15.5 -40l-105 -547q-4 -20 -4 -39q0 -30 17 -46q-18 -2 -31.5 1t-27.5 8t-19 5q-4 0 -27 -8.5t-51 -5.5q18 15 18 45z" />
    <glyph glyph-name="W" unicode="W" horiz-adv-x="657" 
d="M611 694q18 7 39 7q10 0 15 -1q-18 -11 -28 -25.5t-14 -37.5l-95 -541q-4 -20 -4 -41q0 -40 21 -55q-17 -2 -30 1t-27 8t-19 5t-18 -5t-25.5 -8t-29.5 -1q16 17 16 48q0 22 -8 54l-75 344l-75 -344q-7 -35 -7 -55q0 -31 15 -47q-17 -2 -29 1t-25 8t-18 5t-28 -8.5
t-49 -5.5q22 15 22 54q0 17 -5 42l-95 541q-4 23 -14 37.5t-29 25.5q5 1 15 1q21 0 39 -7t22 -7q5 0 25 8t44 5q-20 -11 -20 -43q0 -6 2 -20l76 -472q11 51 21 90q35 153 53 241t18 130q0 30 -8.5 47.5t-24.5 27.5q5 1 13 1q19 0 38.5 -7.5t23.5 -7.5t23.5 7.5t38.5 7.5
q8 0 13 -1q-16 -10 -24 -27.5t-8 -47.5q0 -40 17 -125t50 -230q12 -49 24 -106l77 472q2 14 2 19q0 32 -21 44q23 3 43 -5t25 -8q4 0 22 7z" />
    <glyph glyph-name="X" unicode="X" horiz-adv-x="419" 
d="M47 68l117 299l-106 270q-18 42 -55 63q22 2 37 -1t27.5 -7.5t17.5 -4.5t17 5t23.5 7.5t28.5 0.5q-14 -10 -14 -31q0 -17 6 -32l70 -189l71 189q6 15 6 30q0 23 -15 33q17 2 27.5 -0.5t22 -7.5t16.5 -5q4 0 26 8t56 5q-38 -22 -54 -63l-110 -282l112 -287q16 -45 57 -68
q-22 -2 -37 1t-28 7.5t-18 4.5t-17 -5t-23 -7.5t-28 -0.5q14 10 14 33q0 13 -5 30l-80 211l-80 -211q-6 -13 -6 -29q0 -24 15 -34q-17 -2 -28 0.5t-22 7.5t-16 5t-18 -4.5t-28 -7.5t-37 -1q40 22 58 68z" />
    <glyph glyph-name="Y" unicode="Y" horiz-adv-x="390" 
d="M339 691.5q13 4.5 28.5 7.5t39.5 1q-38 -16 -52 -63l-117 -370v-193q0 -52 39 -74q-30 -3 -53.5 5t-28.5 8t-28.5 -8t-53.5 -5q39 22 39 74v193l-117 370q-14 46 -53 63q25 2 40.5 -1t28.5 -7.5t17 -4.5q5 0 17 5t23 7.5t28 0.5q-20 -13 -20 -39q0 -13 4 -24l75 -265
l75 265q4 11 4 24q0 26 -20 39q17 2 28 -0.5t23 -7.5t17 -5q4 0 17 4.5z" />
    <glyph glyph-name="Z" unicode="Z" horiz-adv-x="355" 
d="M33 51l191 567h-106q-45 0 -64 -23t-21 -52q-7 21 -7 40q0 21 10 49q8 24 8 33q0 19 -11 35q61 -10 168 -10q89 0 149 10q-16 -16 -27 -46l-193 -572h114q87 0 91 87q7 -25 7 -47t-11 -55q-7 -21 -7 -32q0 -19 11 -35q-61 10 -175 10q-95 0 -155 -10q20 23 28 51z" />
    <glyph glyph-name="bracketleft" unicode="[" horiz-adv-x="175" 
d="M162 -139h-135v980h135q42 0 58 25q2 -24 -4.5 -39.5t-6.5 -17.5q0 -3 6.5 -19t4.5 -39q-16 25 -58 25h-63v-850h63q42 0 58 25q2 -23 -4.5 -39t-6.5 -19q0 -2 6.5 -17.5t4.5 -39.5q-16 25 -58 25z" />
    <glyph glyph-name="backslash" unicode="\" horiz-adv-x="267" 
d="M299 -88q-23 0 -40.5 6.5t-20.5 6.5t-18 -6.5t-33 -6.5l-11 1q16 13 16 36q0 13 -2 20l-188 753q-5 23 -17 37.5t-31 27.5l14 1q24 0 40.5 -6.5t19.5 -6.5q4 0 19 6.5t32 6.5l11 -1q-13 -12 -13 -32q0 -10 3 -24l188 -753q6 -24 16.5 -38.5t28.5 -26.5z" />
    <glyph glyph-name="bracketright" unicode="]" horiz-adv-x="175" 
d="M-40.5 -124.5q6.5 15.5 6.5 17.5q0 3 -6.5 19t-4.5 39q16 -25 58 -25h63v850h-63q-42 0 -58 -25q-2 23 4.5 39t6.5 19q0 2 -6.5 17.5t-4.5 39.5q16 -25 58 -25h135v-980h-135q-42 0 -58 -25q-2 24 4.5 39.5z" />
    <glyph glyph-name="asciicircum" unicode="^" horiz-adv-x="190" 
d="M95 697q47 -73 111 -120q-32 8 -55 20t-56 34q-32 -21 -56 -33.5t-55 -20.5q65 49 111 120z" />
    <glyph glyph-name="underscore" unicode="_" horiz-adv-x="601" 
d="M16 14q5 13 5 16q0 4 -5 17t-4 30q16 -16 54 -16h469q38 0 54 16q1 -17 -4 -30t-5 -17q0 -3 5 -16t4 -30q-16 16 -54 16h-469q-38 0 -54 -16q-1 17 4 30z" />
    <glyph glyph-name="grave" unicode="`" horiz-adv-x="128" 
d="M82 535l-36 57q-14 23 -24 35.5t-22 20.5q8 2 22 2q11 0 29 -4q10 3 19 3q8 0 13 -1q-2 -6 -2 -10q0 -7 8 -31l23 -62q3 -9 6.5 -15t9.5 -10q-3 -1 -11 -1q-7 0 -15 2q-7 -4 -16 -2q0 9 -4 16z" />
    <glyph glyph-name="a" unicode="a" horiz-adv-x="301" 
d="M265.5 25.5q6.5 -15.5 21.5 -25.5q-36 -2 -59.5 6t-35.5 28q-11 -18 -28 -28t-36 -10q-49 0 -80.5 48.5t-31.5 125.5t32.5 125.5t83.5 48.5q27 0 47 -20v36q0 42 -17.5 62t-45.5 20q-23 0 -43 -16.5t-29 -47.5q-1 58 27 92t75 34q44 0 78.5 -34.5t34.5 -109.5v-282
q0 -37 6.5 -52.5zM179 86v4v161q-14 21 -36 21q-24 0 -37 -28t-13 -74q0 -48 13 -76t37 -28q23 0 36 20z" />
    <glyph glyph-name="b" unicode="b" horiz-adv-x="328" 
d="M242.5 478q28.5 -25 47 -81.5t18.5 -146.5t-18.5 -147t-47 -82t-61.5 -25q-41 0 -68 36q-11 -19 -34 -26.5t-62 -5.5q16 10 22.5 24.5t6.5 49.5v557q0 28 -7 44.5t-23 24.5q31 3 49 -5t21 -8t21 8t48 5q-30 -16 -30 -69v-151q25 23 56 23q33 0 61.5 -25zM210.5 113
q18.5 42 18.5 137t-18.5 136.5t-45.5 41.5q-23 0 -40 -26v-305q17 -26 40 -26q27 0 45.5 42z" />
    <glyph glyph-name="c" unicode="c" horiz-adv-x="272" 
d="M57.5 64q-37.5 68 -37.5 186q0 117 36.5 184.5t111.5 67.5q15 0 32.5 -3.5t23.5 -3.5q13 0 21 6q1 -12 -3.5 -25t-4.5 -17q0 -5 4 -21q8 -26 8 -52q0 -24 -6 -46q-5 43 -24 64.5t-45 21.5q-76 0 -76 -176q0 -89 21.5 -135.5t57.5 -46.5q32 0 50 33t24 81q5 -24 5 -55
q0 -59 -25.5 -95t-72.5 -36q-63 0 -100.5 68z" />
    <glyph glyph-name="d" unicode="d" horiz-adv-x="331" 
d="M288.5 24.5q6.5 -14.5 22.5 -24.5q-38 -2 -61 5.5t-35 26.5q-27 -36 -67 -36q-33 0 -62 25t-47.5 81.5t-18.5 147.5q0 90 18.5 146.5t47.5 81.5t62 25q30 0 55 -22v150q0 53 -30 69q30 3 48.5 -5t21.5 -8t21 8t48 5q-30 -16 -30 -69v-557q0 -35 6.5 -49.5zM203 96v307
q-16 25 -40 25q-26 0 -45 -42t-19 -136q0 -95 19 -137t45 -42q24 0 40 25z" />
    <glyph glyph-name="e" unicode="e" horiz-adv-x="295" 
d="M55.5 61.5q-35.5 64.5 -35.5 188.5q0 254 131 254q67 0 96.5 -66.5t29.5 -207.5h-177q0 -78 19 -122t58 -44q35 0 58 30.5t31 83.5q3 -19 3 -38q0 -59 -27.5 -101t-80.5 -42q-70 0 -105.5 64.5zM197 289q-2 139 -48 139q-44 0 -49 -139h97z" />
    <glyph glyph-name="f" unicode="f" horiz-adv-x="238" 
d="M153.5 615q-12.5 -15 -12.5 -43v-96h29q43 0 58 29l1 -12q0 -19 -6 -32.5t-6 -15.5q0 -3 6 -17t6 -32l-1 -12q-15 29 -58 29h-29v-344q0 -52 30 -69q-30 -3 -48 5t-21 8t-21 -8t-49 -5q30 19 30 69v343q-39 -3 -55 -26q-4 37 11.5 59.5t43.5 28.5v100q0 58 30.5 93
t81.5 35q20 0 36.5 -4.5t21.5 -4.5q8 0 17 5q2 -13 -2.5 -25t-4.5 -16t4.5 -20.5t4.5 -33.5q0 -24 -9 -50q0 36 -14.5 56.5t-39.5 20.5q-22 0 -34.5 -15z" />
    <glyph glyph-name="g" unicode="g" horiz-adv-x="327" 
d="M249 495q23 7 62 5q-16 -10 -22.5 -25t-6.5 -53v-445q0 -171 -160 -171q-28 0 -47 -16q-1 4 -1 12q0 15 6 27q-15 12 -24 32.5t-9 47.5q0 17 2 26q9 -28 28.5 -42t45.5 -14q43 0 61.5 22.5t18.5 75.5v45q-22 -25 -55 -25t-62 25t-47.5 81.5t-18.5 146.5q0 91 18.5 147.5
t47.5 81.5t62 25q41 0 67 -34q11 18 34 25zM203 101v299q-15 28 -40 28q-26 0 -45 -42t-19 -136q0 -93 19 -135t45 -42q25 0 40 28z" />
    <glyph glyph-name="h" unicode="h" horiz-adv-x="342" 
d="M300.5 31q4.5 -19 15.5 -31l-19 -1q-40 0 -60 14.5t-20 48.5v320q0 25 -12 37.5t-31 12.5q-28 0 -46 -31v-332q0 -53 30 -69q-31 -3 -49 5t-21 8t-21 -8t-49 -5q30 18 30 69v562q0 51 -30 69q31 3 49 -5t21 -8t21 8t49 5q-30 -16 -30 -69v-169q29 41 75 41
q38 0 65.5 -27.5t27.5 -82.5v-311q0 -32 4.5 -51z" />
    <glyph glyph-name="i" unicode="i" horiz-adv-x="184" 
d="M58.5 589.5q-12.5 13.5 -12.5 35.5q0 21 12.5 35t33.5 14t33.5 -14t12.5 -35t-12.5 -35t-33.5 -14t-33.5 13.5zM53 69v320q0 28 -5 50.5t-13 33.5q23 3 41 -10q12 20 32.5 31t42.5 9q-9 -11 -14.5 -33.5t-5.5 -50.5v-350q0 -52 30 -69q-30 -3 -48 5t-21 8t-21 -8t-49 -5
q31 16 31 69z" />
    <glyph glyph-name="j" unicode="j" horiz-adv-x="178" 
d="M56 590q-13 14 -13 35t13 35t34 14t33.5 -14t12.5 -35t-12.5 -35t-33.5 -14t-34 14zM36 -71.5q14 76.5 14 190.5v267q0 29 -4.5 51.5t-12.5 32.5q23 3 41 -10q11 20 31.5 31t42.5 9q-19 -24 -19 -84v-308q0 -94 -17 -154.5t-50 -97.5t-85 -63q45 59 59 135.5z" />
    <glyph glyph-name="k" unicode="k" horiz-adv-x="348" 
d="M368 0q-30 -1 -45.5 1.5t-26 7t-14.5 4.5t-21 -7.5t-45 -5.5q20 11 20 35q0 13 -6 29l-62 176l-40 -76v-95q0 -53 30 -69q-31 -3 -49 5t-21 8t-21 -8t-49 -5q30 18 30 69v562q0 51 -30 69q31 3 49 -5t21 -8t21 8t49 5q-30 -16 -30 -69v-354l86 170q9 22 9 31q0 13 -13 22
l11 1q16 0 30.5 -6t18.5 -6t22 6t46 6l18 -1q-23 -10 -38.5 -23.5t-27.5 -36.5l-66 -130l88 -247q17 -46 56 -63z" />
    <glyph glyph-name="l" unicode="l" horiz-adv-x="184" 
d="M51 622q0 34 -8 51t-23 27q60 2 85 -18.5t25 -65.5v-538q0 -35 8 -51.5t24 -26.5q-61 -2 -86 18.5t-25 65.5v538z" />
    <glyph glyph-name="m" unicode="m" horiz-adv-x="496" 
d="M454.5 31q4.5 -19 15.5 -31l-19 -1q-40 0 -60 14.5t-20 48.5v316q0 25 -11.5 37t-27.5 12q-24 0 -41 -27v-3v-315q0 -32 4.5 -51t15.5 -31l-19 -1q-40 0 -60.5 14.5t-20.5 48.5v316q0 25 -11 37t-27 12q-28 0 -45 -33v-325q0 -28 7 -44.5t23 -24.5q-31 -3 -49 5t-21 8
t-21 -8t-49 -5q16 8 23 24.5t7 44.5v362q0 33 -5.5 46.5t-20.5 22.5q42 2 67 -9.5t34 -38.5q11 21 31.5 35.5t47.5 14.5t48 -13t32 -40q10 23 30.5 38t49.5 15q38 0 63 -26.5t25 -78.5v-315q0 -32 4.5 -51z" />
    <glyph glyph-name="n" unicode="n" horiz-adv-x="341" 
d="M299.5 31q4.5 -19 15.5 -31l-19 -1q-40 0 -60.5 14.5t-20.5 48.5v320q0 25 -12 37.5t-30 12.5q-27 0 -45 -28v-335q0 -28 7 -44.5t23 -24.5q-31 -3 -49 5t-21 8t-21 -8t-49 -5q16 8 23 24.5t7 44.5v362q0 33 -5.5 46.5t-20.5 22.5q41 2 66 -8.5t34 -36.5q13 22 33 35
t47 13q38 0 65.5 -27.5t27.5 -82.5v-311q0 -32 4.5 -51z" />
    <glyph glyph-name="o" unicode="o" horiz-adv-x="312" 
d="M55.5 62q-35.5 66 -35.5 187q0 122 35.5 188.5t100.5 66.5t101 -67t36 -188t-36 -187t-101 -66t-100.5 66zM198.5 118.5q14.5 44.5 14.5 129.5q0 86 -14.5 132t-42.5 46t-42.5 -46t-14.5 -132q0 -85 14.5 -129.5t42.5 -44.5t42.5 44.5z" />
    <glyph glyph-name="p" unicode="p" horiz-adv-x="328" 
d="M242.5 478q28.5 -25 47 -82t18.5 -147t-18.5 -146.5t-47 -81.5t-61.5 -25q-31 0 -56 23v-150q0 -53 30 -69q-30 -3 -48 5t-21 8t-21 -8t-49 -5q16 8 23 24.5t7 44.5v557q0 35 -6.5 49.5t-22.5 24.5q40 2 63 -5.5t34 -27.5q26 36 67 36q33 0 61.5 -25zM210.5 112.5
q18.5 41.5 18.5 136.5t-18.5 137t-45.5 42q-23 0 -40 -26v-305q17 -26 40 -26q27 0 45.5 41.5z" />
    <glyph glyph-name="q" unicode="q" horiz-adv-x="328" 
d="M312 -200q-30 -3 -48 5t-21 8t-21.5 -8t-48.5 -5q30 17 30 69v153q-22 -25 -55 -25t-62 25t-47.5 81.5t-18.5 146.5q0 91 18.5 147.5t47.5 81.5t62 25q41 0 67 -34q10 16 28 23.5t48 7.5l20 -1q-16 -10 -22.5 -24.5t-6.5 -49.5v-557q0 -53 30 -69zM203 101v299
q-15 28 -40 28q-26 0 -45 -42t-19 -136q0 -93 19 -135t45 -42q25 0 40 28z" />
    <glyph glyph-name="r" unicode="r" horiz-adv-x="255" 
d="M234 345q1 41 -15.5 62t-41.5 21q-34 0 -49 -30v-329q0 -53 30 -69q-31 -3 -49 5t-21 8t-21 -8t-49 -5q30 16 30 69v356q0 37 -5.5 51.5t-20.5 23.5q36 2 59 -6.5t35 -28.5q10 19 27 29t37 10q32 0 53 -24t21 -63q0 -35 -20 -72z" />
    <glyph glyph-name="s" unicode="s" horiz-adv-x="265" 
d="M85 7q-20 6 -28 6q-13 0 -22 -8q-1 4 -1 12q0 9 3.5 19.5t3.5 13.5q0 4 -6 20q-7 19 -10 30.5t-3 28.5q0 34 15 66q-1 -56 24 -91t66 -35q26 0 40 15t14 40q0 26 -16 47t-55 60q-44 45 -66 77t-22 74q0 53 33.5 86t84.5 33q13 0 38 -5q12 -3 21 -3q13 0 22 8
q2 -14 -3 -26t-5 -16q0 -7 5 -20q9 -27 9 -52q0 -18 -6 -45q-4 40 -24.5 65t-48.5 25q-22 0 -36 -13.5t-14 -38.5q0 -23 16.5 -44.5t50.5 -54.5q45 -43 69 -78t24 -81q0 -54 -34 -89t-89 -35q-18 0 -50 9z" />
    <glyph glyph-name="t" unicode="t" horiz-adv-x="253" 
d="M241 67q0 -30 -21 -50.5t-55 -20.5q-43 0 -68 31.5t-25 85.5v303q-49 -2 -65 -28q-3 40 16 64t49 26v59q0 29 -4.5 51.5t-12.5 32.5q24 3 41 -10q11 20 32 31t43 9q-19 -24 -19 -84v-87h27q43 0 58 24q2 -24 -4.5 -39.5t-6.5 -17.5q0 -3 6.5 -19t4.5 -39q-16 25 -58 25
h-27v-303q0 -29 11 -42t29 -13q16 0 28 13.5t11 41.5q10 -23 10 -44z" />
    <glyph glyph-name="u" unicode="u" horiz-adv-x="341" 
d="M298.5 22.5q5.5 -13.5 20.5 -22.5q-41 -2 -66 9t-34 37q-29 -49 -80 -49q-38 0 -65.5 27.5t-27.5 82.5v311q0 32 -4.5 51t-15.5 31l19 1q40 0 60.5 -14.5t20.5 -48.5v-320q0 -25 12 -37.5t30 -12.5q27 0 45 28v335q0 28 -7 44.5t-23 24.5q31 3 49 -5t21 -8t21 8t49 5
q-16 -8 -23 -24.5t-7 -44.5v-362q0 -33 5.5 -46.5z" />
    <glyph glyph-name="v" unicode="v" horiz-adv-x="317" 
d="M278.5 494.5q15.5 6.5 33.5 6.5l12 -1q-28 -17 -37 -63l-69 -372q-3 -13 -3 -25q0 -28 18 -40l-13 -1q-20 0 -38 6.5t-24 6.5t-24 -6.5t-38 -6.5l-13 1q17 13 17 40q0 7 -2 25l-68 372q-9 47 -37 63l12 1q18 0 33.5 -6.5t20.5 -6.5t20 6.5t30 6.5l10 -1q-17 -11 -17 -43
q0 -6 2 -20l55 -332l54 332q2 14 2 20q0 32 -17 43l10 1q14 0 29 -6.5t21 -6.5q5 0 20.5 6.5z" />
    <glyph glyph-name="w" unicode="w" horiz-adv-x="519" 
d="M475 494.5q16 6.5 34 6.5l12 -1q-28 -16 -37 -63l-70 -380q-2 -16 -2 -22q0 -26 13 -35q-23 -3 -39 5t-20 8q-3 0 -20 -7.5t-37 -5.5q8 9 8 27t-8 47l-50 204l-49 -204q-8 -29 -8 -47t8 -27q-20 -2 -37 5.5t-20 7.5q-4 0 -20 -8t-39 -5q13 9 13 35q0 6 -2 22l-70 380
q-9 47 -37 63l12 1q18 0 34 -6.5t21 -6.5t18.5 6.5t27.5 6.5l10 -1q-16 -9 -16 -38q0 -13 3 -25l53 -306l7 27q28 112 42 177t14 108q0 40 -22 58q20 2 37 -3.5t20 -5.5t21 5.5t37 3.5q-22 -16 -22 -58q0 -43 14 -108t42 -177l7 -27l53 306q3 12 3 25q0 29 -16 38l10 1
q14 0 27.5 -6.5t18.5 -6.5t21 6.5z" />
    <glyph glyph-name="x" unicode="x" horiz-adv-x="340" 
d="M41 56l88 197l-84 191q-16 36 -52 56l15 1q25 0 41 -6.5t19 -6.5t17 6.5t30 6.5l10 -1q-11 -7 -11 -22q0 -11 8 -29l48 -117l50 117q7 18 7 29q0 15 -12 22l10 1q16 0 29.5 -6.5t16.5 -6.5t19 6.5t40 6.5l15 -1q-34 -18 -51 -56l-83 -186l89 -202q16 -36 51 -56l-15 -1
q-24 0 -40.5 6.5t-19.5 6.5t-17 -6.5t-30 -6.5l-10 1q11 7 11 21q0 10 -8 30l-53 128l-54 -128q-7 -16 -7 -28q0 -16 12 -23q-21 -2 -37 5t-19 7t-19 -6.5t-40 -6.5l-15 1q36 20 51 56z" />
    <glyph glyph-name="y" unicode="y" horiz-adv-x="335" 
d="M271 495q18 8 48 5q-30 -16 -30 -69v-463q0 -69 -36 -115.5t-119 -46.5q-33 0 -52 -16q-1 4 -1 12q0 15 6 27q-15 12 -24 32.5t-9 47.5q0 17 2 26q9 -28 28.5 -42t45.5 -14q39 0 59.5 19.5t20.5 65.5v69q-27 -36 -72 -36q-39 0 -65.5 26.5t-26.5 78.5v316q0 32 -4.5 51
t-15.5 31l17 1q39 0 61 -17t22 -59v-304q0 -25 10.5 -37t27.5 -12q25 0 46 27v332q0 53 -30 69q30 3 48.5 -5t21.5 -8t21 8z" />
    <glyph glyph-name="z" unicode="z" horiz-adv-x="276" 
d="M23 49l136 379h-76q-23 0 -39.5 -16t-21.5 -46q-2 20 -2 27q0 22 9 51q6 20 6 28q0 14 -7 28q51 -8 114 -8q82 0 132 8q-14 -22 -24 -49l-136 -377h74q32 0 49 17t23 52q3 -18 3 -32q0 -16 -3 -27t-8 -25q-8 -20 -8 -30q0 -15 7 -29q-51 8 -121 8q-81 0 -131 -8
q13 18 24 49z" />
    <glyph glyph-name="braceleft" unicode="{" horiz-adv-x="232" 
d="M239 -151q-65 0 -107.5 55.5t-42.5 179.5q0 115 -15 178t-54 88q39 25 54 88t15 178q0 124 42.5 179.5t107.5 55.5q15 0 22 -1q-54 -11 -73 -65t-19 -169q0 -96 -20.5 -153.5t-39.5 -77t-43 -35.5q24 -16 43 -35.5t39.5 -77t20.5 -153.5q0 -115 19 -169t73 -65
q-7 -1 -22 -1z" />
    <glyph glyph-name="bar" unicode="|" horiz-adv-x="192" 
d="M52 -126q6 14 6 34v883q0 20 -6 34t-20 24q5 1 13 1q16 0 31.5 -5t19.5 -5t17 5t32 5q9 0 15 -1q-14 -10 -20 -24t-6 -34v-883q0 -20 6 -34t20 -23q-6 -1 -16 -1q-18 0 -31 4.5t-17 4.5t-16.5 -4.5t-29.5 -4.5q-11 0 -18 1q14 9 20 23z" />
    <glyph glyph-name="braceright" unicode="}" horiz-adv-x="232" 
d="M44 -85q19 54 19 169q0 96 20.5 153.5t39.5 77t43 35.5q-24 16 -43 35.5t-39.5 77t-20.5 153.5q0 115 -19 169t-73 65q7 1 22 1q65 0 107.5 -55.5t42.5 -179.5q0 -115 15 -178t54 -88q-39 -25 -54 -88t-15 -178q0 -124 -42.5 -179.5t-107.5 -55.5q-15 0 -22 1
q54 11 73 65z" />
    <glyph glyph-name="asciitilde" unicode="~" horiz-adv-x="556" 
d="M86 267q33 35 92 35q30 0 57 -5.5t64 -15.5q34 -9 55 -13.5t44 -4.5q42 0 70.5 12t48.5 35q-15 -52 -48 -87t-92 -35q-31 0 -56.5 5t-65.5 16q-35 9 -55.5 13.5t-42.5 4.5q-42 0 -69.5 -11t-49.5 -35q15 51 48 86z" />
    <glyph glyph-name="exclamdown" unicode="&#xa1;" horiz-adv-x="179" 
d="M126 692q13 -14 13 -35q0 -20 -13 -34t-33 -14q-21 0 -34 14t-13 34q0 21 13 35t34 14q20 0 33 -14zM110 394q14 -118 20.5 -185.5t6.5 -112.5q0 -51 -10.5 -77.5t-36.5 -27.5q-26 0 -37 26.5t-11 77.5q0 47 7.5 120t21.5 191l10 88t9 85q4 -45 20 -185z" />
    <glyph glyph-name="cent" unicode="&#xa2;" horiz-adv-x="221" 
d="M216 213q0 -16 -4.5 -30.5t-4.5 -17.5q0 -4 4.5 -16t3.5 -24q-8 4 -18 4q-7 0 -18.5 -2.5t-20.5 -3.5v-23q0 -25 18 -38h-6q-9 0 -17.5 2.5t-11.5 2.5q-4 0 -14 -3t-22 -2q18 13 18 38v23q-54 8 -80 57.5t-26 132.5t26 132.5t80 57.5v25q0 24 -18 38q12 1 22 -2t14 -3
t14 3t21 2q-18 -14 -18 -38v-25q10 -1 21.5 -4t18.5 -3q9 0 17 4q1 -12 -3.5 -23.5t-4.5 -15.5q0 -3 4.5 -17.5t4.5 -30.5q0 -21 -6 -40q-13 66 -60 66q-36 0 -50.5 -32.5t-14.5 -93.5t14.5 -93.5t50.5 -32.5q25 0 39.5 16.5t20.5 49.5q6 -19 6 -40z" />
    <glyph glyph-name="sterling" unicode="&#xa3;" horiz-adv-x="414" 
d="M403 162q-1 -26 -16 -56.5t-45 -52.5t-72 -22q-24 0 -48.5 7t-28.5 8q-28 8 -45.5 12t-36.5 4q-38 0 -73 -15q51 64 72 111t21 87q0 21 -4 37h-52q-32 0 -49 -25q-1 4 -1 13q0 15 4 28t4 16t-4 15t-4 27q0 9 1 14q18 -26 49 -26h33q-17 49 -25 80t-8 74q0 78 45 125.5
t118 47.5q53 0 87.5 -37.5t34.5 -90.5q0 -51 -34 -96q5 16 5 38q0 51 -26 81t-68 30q-36 0 -59.5 -26t-23.5 -71q0 -28 7 -57t20 -67l10 -31h86q30 0 48 26q1 -5 1 -14q0 -15 -4.5 -27t-4.5 -15t4.5 -16t4.5 -27q0 -9 -1 -14q-17 25 -48 25h-71q3 -19 3 -39q0 -65 -39 -121
q27 1 67 -11q35 -11 61 -11q74 0 105 62z" />
    <glyph glyph-name="currency" unicode="&#xa4;" horiz-adv-x="618" 
d="M577 96l11 1q-17 -20 -35.5 -28t-21.5 -11t-11 -21.5t-29 -36.5q1 4 1 12q0 29 -26 56l-20 20q-61 -45 -138 -45q-75 0 -137 44l-18 -18q-26 -28 -26 -56q0 -9 1 -13q-21 17 -29 35.5t-11 21.5t-22 11.5t-36 28.5l11 -1q30 0 57 26l19 19q-45 61 -45 138t45 138l-18 18
q-29 26 -57 26q-8 0 -12 -1q17 21 36 29.5t22 11.5t11 21.5t29 35.5l-1 -11q0 -28 26 -58l18 -18q62 44 137 44q76 0 138 -45l20 19q25 26 25 56q0 9 -1 13q21 -17 29.5 -36t11.5 -22t21.5 -11.5t35.5 -28.5q-4 1 -12 1q-26 0 -57 -26l-19 -19q44 -62 44 -137
q0 -76 -45 -138l1 1l20 -20q28 -26 57 -26zM309 128q30 0 58 11.5t49 32.5t32.5 49t11.5 57q0 30 -11.5 58t-33.5 49q-21 22 -49 33.5t-58 11.5q-29 0 -57 -11.5t-49 -32.5t-32.5 -49t-11.5 -58q0 -61 44 -107q46 -44 107 -44z" />
    <glyph glyph-name="yen" unicode="&#xa5;" horiz-adv-x="433" 
d="M405 375q-3 -11 -7.5 -20.5t-4.5 -13.5t4.5 -14t7.5 -21.5t1 -28.5q-21 31 -74 31h-69l-4 -11v-65h73q53 0 74 31q2 -18 -1 -29.5t-7.5 -20.5t-4.5 -13t4.5 -14.5t7.5 -21.5t1 -28q-21 31 -74 31h-73v-93q0 -52 39 -74q-31 -2 -54 5.5t-28 7.5t-28.5 -7.5t-53.5 -5.5
q39 22 39 74v93h-73q-53 0 -74 -31q-3 26 4.5 43t7.5 21t-6.5 17.5t-6.5 32.5l1 13q21 -31 74 -31h73v68l-3 8h-70q-53 0 -74 -31q-3 26 4.5 43t7.5 21t-6.5 17.5t-6.5 33.5l1 12q22 -31 74 -31h48l-90 264q-8 21 -22.5 38t-33.5 25q39 3 61 -5t26 -8q5 0 17.5 5t24.5 7.5
t29 0.5q-19 -12 -19 -41q0 -11 3 -22l72 -239l72 239q4 9 4 22q0 28 -20 41q17 2 28.5 -0.5t24.5 -7.5t19 -5q4 0 26 8t61 5q-39 -16 -56 -63l-90 -264h47q52 0 74 31q2 -18 -1 -29z" />
    <glyph glyph-name="brokenbar" unicode="&#xa6;" horiz-adv-x="192" 
d="M52 466.5q6 13.5 6 33.5v291q0 20 -6 34t-20 24q5 1 13 1q16 0 31.5 -5t19.5 -5t17 5t32 5q9 0 15 -1q-14 -10 -20 -24t-6 -34v-291q0 -20 6 -33.5t20 -23.5q-6 -1 -15 -1q-19 0 -32 5t-17 5t-17 -5t-32 -5q-9 0 -15 1q14 10 20 23.5zM52 -126.5q6 13.5 6 33.5v291
q0 20 -6 34t-20 24q5 1 13 1q16 0 31.5 -5t19.5 -5t17 5t32 5q9 0 15 -1q-14 -10 -20 -24t-6 -34v-291q0 -20 6 -33.5t20 -23.5q-6 -1 -15 -1q-19 0 -32 5t-17 5t-17 -5t-32 -5q-9 0 -15 1q14 10 20 23.5z" />
    <glyph glyph-name="section" unicode="&#xa7;" horiz-adv-x="393" 
d="M320 231q39 -49 39 -112q0 -43 -20 -79.5t-55.5 -57.5t-81.5 -21q-32 0 -74 11q-26 6 -34 6q-16 0 -29 -10q-1 6 -1 15q0 10 2.5 22t2.5 16q0 5 -10 31t-10 65q0 33 10 79q7 -81 45.5 -119.5t85.5 -38.5q37 0 60 22t23 56q0 44 -38 80h-1v1q-20 20 -74 54
q-45 30 -71 51.5t-45 53t-19 73.5t16.5 75.5t46.5 55.5q-42 50 -42 117t41 112.5t109 45.5q28 0 60 -8q20 -5 32 -5q15 0 31 10q0 -17 -5.5 -32t-5.5 -20t7 -30.5t7 -56.5q0 -32 -10 -75q-5 71 -34.5 105.5t-73.5 34.5q-34 0 -53 -22t-19 -56q0 -42 27.5 -71t84.5 -67
q44 -31 70.5 -53.5t45.5 -55t19 -74.5q0 -83 -59 -128zM136 370.5q25 -23.5 78 -57.5q20 -11 41 -26q38 23 38 71q0 36 -25 61t-78 59q-33 22 -37 25q-42 -24 -42 -74q0 -35 25 -58.5z" />
    <glyph glyph-name="dieresis" unicode="&#xa8;" horiz-adv-x="199" 
d="M12 547.5q-10 11.5 -10 29.5q0 19 10 30.5t28 11.5t28.5 -11.5t10.5 -30.5q0 -18 -10.5 -29.5t-28.5 -11.5t-28 11.5zM130.5 547.5q-10.5 11.5 -10.5 29.5q0 19 10.5 30.5t28.5 11.5t28 -11.5t10 -30.5q0 -18 -10 -29.5t-28 -11.5t-28.5 11.5z" />
    <glyph glyph-name="copyright" unicode="&#xa9;" horiz-adv-x="437" 
d="M117 113.5q-42 31.5 -63.5 83.5t-21.5 113t21.5 113.5t63.5 84.5t101 32q60 0 102 -32t63.5 -84.5t21.5 -113.5t-21.5 -113t-63.5 -83.5t-102 -31.5q-59 0 -101 31.5zM323 172.5q39 50.5 39 137.5t-39.5 138.5t-104.5 51.5t-104 -51.5t-39 -138.5t39 -137.5t104 -50.5
q66 0 105 50.5zM156.5 214q-23.5 38 -23.5 95t24 96t69 39q11 0 23.5 -3.5t17.5 -3.5q8 0 15 5v-2q0 -8 -3.5 -14.5t-3.5 -8.5q0 -4 3.5 -15t3.5 -25t-4 -29q-4 32 -16.5 45t-33.5 13q-24 0 -38.5 -26t-14.5 -71q0 -46 15 -71t41 -25q48 0 55 59q2 -14 2 -23
q0 -31 -15.5 -52t-48.5 -21q-44 0 -67.5 38z" />
    <glyph glyph-name="ordfeminine" unicode="&#xaa;" horiz-adv-x="197" 
d="M170 416q4 -9 13 -15q-47 -2 -62 20q-6 -11 -16 -17t-21 -6q-30 0 -49 29t-19 75t19.5 75t50.5 29q15 0 26 -11v18q0 24 -10 35.5t-27 11.5q-13 0 -25 -9.5t-17 -26.5q0 36 17 56t46 20t49.5 -20.5t20.5 -66.5v-166q0 -22 4 -31zM112 458v86q-7 13 -19 13t-18.5 -15
t-6.5 -40q0 -26 6.5 -41t18.5 -15q13 0 19 12z" />
    <glyph glyph-name="guillemotleft" unicode="&#xab;" horiz-adv-x="432" 
d="M181 113l-159 168l159 168q39 41 48 68q4 -23 4 -45q0 -29 -9 -50q8 -16 8 -34q0 -9 -1 -14q-11 1 -19.5 -3.5t-18.5 -14.5l-74 -75l74 -76q11 -10 19.5 -14t18.5 -3q1 -5 1 -14q0 -19 -8 -35q9 -20 9 -50q0 -22 -4 -45q-9 28 -48 69zM345 113l-159 168l159 168
q39 41 48 68q4 -23 4 -45q0 -29 -9 -50q8 -16 8 -34q0 -9 -1 -14q-11 1 -19.5 -3.5t-18.5 -14.5l-74 -75l74 -76q11 -10 19.5 -14t18.5 -3q1 -5 1 -14q0 -19 -8 -35q9 -20 9 -50q0 -22 -4 -45q-9 28 -48 69z" />
    <glyph glyph-name="logicalnot" unicode="&#xac;" horiz-adv-x="616" 
d="M21 288q-3 30 5 53.5t8 28.5t-8 28.5t-5 53.5q20 -39 74 -39h462v-247q0 -54 39 -74q-30 -3 -53.5 5t-28.5 8t-28.5 -8t-53.5 -5q39 20 39 74v161h-376q-54 0 -74 -39z" />
    <glyph glyph-name="uni00AD" unicode="&#xad;" horiz-adv-x="237" 
d="M12 208q0 14 4.5 24.5t4.5 12.5t-4.5 12.5t-4.5 24.5q0 8 1 12q14 -19 54 -19h103q40 0 54 19q1 -4 1 -12q0 -14 -4.5 -24.5t-4.5 -12.5t4.5 -12.5t4.5 -24.5q0 -8 -1 -12q-15 19 -54 19h-103q-39 0 -54 -19q-1 4 -1 12z" />
    <glyph glyph-name="registered" unicode="&#xae;" horiz-adv-x="437" 
d="M319.5 513q42.5 -32 64 -84.5t21.5 -113.5t-21.5 -113.5t-63.5 -84t-102 -31.5q-59 0 -101 31.5t-63.5 84t-21.5 113.5t21.5 113.5t63.5 84.5t101 32t101.5 -32zM323 177.5q39 50.5 39 137.5t-39.5 138.5t-104.5 51.5t-104 -51.5t-39 -138.5t39 -137.5t104 -50.5
q66 0 105 50.5zM289 196q3 -13 19 -22q-36 -1 -50 12.5t-14 46.5q0 26 -2.5 38.5t-12.5 19.5t-33 7v-87q0 -26 19 -36q-14 -1 -25.5 3t-14.5 4q-2 0 -13 -4t-26 -3q19 11 19 36v213q0 23 -19 36q14 1 25 -3t14 -4t13 3.5t23 3.5q37 0 59.5 -23t22.5 -59q0 -44 -38 -66
q31 -15 31 -62q0 -41 3 -54zM196 332q26 0 40.5 12t14.5 34q0 23 -12.5 32.5t-27.5 9.5q-11 0 -15 -3v-85z" />
    <glyph glyph-name="macron" unicode="&#xaf;" horiz-adv-x="188" 
d="M1 551q0 9 3 16.5t3 9.5q0 3 -3 10t-3 16l1 9q7 -8 18.5 -11t29.5 -3h87q18 0 29.5 3t18.5 11l1 -9q0 -10 -3 -16.5t-3 -9.5q0 -2 3 -10t3 -17l-1 -9q-7 8 -18.5 11t-29.5 3h-87q-18 0 -29.5 -3t-18.5 -11z" />
    <glyph glyph-name="degree" unicode="&#xb0;" horiz-adv-x="208" 
d="M37.5 640.5q-27.5 27.5 -27.5 66.5t27.5 66t66.5 27t66.5 -27t27.5 -66t-27.5 -66.5t-66.5 -27.5t-66.5 27.5zM133 677.5q12 12.5 12 29.5t-12 29t-29 12t-29 -12t-12 -29t12 -29.5t29 -12.5t29 12.5z" />
    <glyph glyph-name="plusminus" unicode="&#xb1;" horiz-adv-x="442" 
d="M397 448q0 -18 -4.5 -30t-4.5 -15t4.5 -15.5t4.5 -29.5q0 -9 -1 -15q-9 14 -21 19t-31 5h-86v-103q0 -18 5 -30t18 -21q-6 -1 -15 -1q-17 0 -29 4.5t-15 4.5t-15 -4.5t-28 -4.5q-11 0 -17 1q13 9 18.5 21t5.5 30v103h-87q-19 0 -31 -5t-21 -19q-1 5 -1 13q0 15 4.5 29.5
t4.5 17.5t-4.5 15t-4.5 30q0 9 1 15q9 -14 21 -19t31 -5h87v102q0 19 -5.5 32t-18.5 21q21 2 38.5 -3.5t21.5 -5.5t18.5 5.5t40.5 3.5q-23 -15 -23 -53v-102h86q19 0 31 5t21 19q1 -6 1 -15zM42.5 90.5q5.5 17.5 5.5 21.5t-5.5 18.5t-3.5 40.5q15 -23 53 -23h259
q18 0 30.5 5t21.5 18q1 -6 1 -15q0 -17 -4.5 -29t-4.5 -15t4.5 -15.5t4.5 -29.5q0 -9 -1 -15q-16 24 -52 24h-259q-37 0 -53 -24q-2 21 3.5 38.5z" />
    <glyph glyph-name="uni00B2" unicode="&#xb2;" horiz-adv-x="225" 
d="M20 423q0 45 11.5 79t27 56t40.5 51q24 26 36 46t12 45q0 24 -13.5 39.5t-35.5 15.5t-39.5 -19t-21.5 -58q-8 23 -8 42q0 15 4.5 31t4.5 20t-3 12.5t-3 19.5q8 -5 19 -5q5 0 23 4q25 5 35 5q42 0 69.5 -28.5t27.5 -72.5q0 -39 -15.5 -66.5t-45.5 -59.5q-33 -37 -49.5 -67
t-16.5 -75h62q32 0 48 24.5t16 58.5q7 -22 7 -42q0 -17 -4.5 -31l-5.5 -17q-6 -16 -6 -22q0 -7 2 -14.5t5 -11.5q-42 7 -100 7q-50 0 -91 -7q8 11 8 40z" />
    <glyph glyph-name="uni00B3" unicode="&#xb3;" horiz-adv-x="229" 
d="M66 385q-18 4 -24 4q-13 0 -21 -6q0 11 3 19.5t3 13.5t-5 22.5t-5 34.5q0 16 8 45q1 -44 21.5 -65t48.5 -21q27 0 44 20t17 52q0 35 -18.5 57t-48.5 22q-25 0 -33 -19q-2 19 2.5 28t4.5 11q0 3 -4.5 12.5t-2.5 27.5q8 -18 32 -18t39 19.5t15 51.5q0 25 -13.5 41t-35.5 16
t-39 -18.5t-21 -57.5q-8 21 -8 41q0 15 4.5 31.5t4.5 20.5t-3 12t-3 19q8 -5 19 -5q5 0 21 4q25 5 36 5q42 0 69.5 -29t27.5 -74q0 -58 -39 -97q24 -15 38.5 -41t14.5 -62q0 -55 -31.5 -89t-82.5 -34q-15 0 -35 6z" />
    <glyph glyph-name="acute" unicode="&#xb4;" horiz-adv-x="110" 
d="M9.5 530q3.5 6 6.5 15l23 62q8 24 8 31q0 4 -2 10q5 1 13 1q9 0 19 -3q18 4 29 4q14 0 22 -2q-12 -8 -22 -20.5t-24 -35.5l-36 -57q-4 -7 -4 -16h-4q-6 0 -12 2q-8 -2 -15 -2q-8 0 -11 1q6 4 9.5 10z" />
    <glyph glyph-name="uni00B5" unicode="&#xb5;" horiz-adv-x="345" 
d="M303 22.5q6 -13.5 21 -22.5q-72 -3 -95 34q-12 -17 -30 -27t-38 -10q-11 0 -26 5v-69q0 -52 30 -69l-13 -1q-23 0 -38 6.5t-18 6.5t-18.5 -6.5t-37.5 -6.5l-14 1q30 16 30 69v485q0 32 -4.5 51t-15.5 31l19 1q40 0 60 -14.5t20 -48.5v-326q0 -27 11.5 -39t28.5 -12
q21 0 43 22v348q0 53 -30 69q30 3 48 -5t21 -8t21.5 8t48.5 5q-30 -16 -30 -69v-362q0 -33 6 -46.5z" />
    <glyph glyph-name="paragraph" unicode="&#xb6;" horiz-adv-x="555" 
d="M227 74v232q-52 0 -95 22t-69 67t-26 110q0 93 50 144.5t131 51.5l262 -1q-39 -22 -39 -74v-552q0 -52 39 -74q-30 -3 -53.5 5t-28.5 8q-9 0 -22 -5q-25 -9 -44 -9t-42 9q-12 5 -20 5q-5 0 -28.5 -8t-53.5 -5q39 22 39 74zM227 627q-47 0 -75.5 -31t-28.5 -91
q0 -54 28.5 -85t75.5 -33v240zM355 74v553h-42v-553q0 -35 19 -54q23 20 23 54z" />
    <glyph glyph-name="periodcentered" unicode="&#xb7;" horiz-adv-x="231" 
d="M78 216q-13 14 -13 35q0 20 13 34t34 14q20 0 33 -14t13 -34q0 -21 -13 -35t-33 -14q-21 0 -34 14z" />
    <glyph glyph-name="cedilla" unicode="&#xb8;" horiz-adv-x="600" 
d="M26.5 -160q15.5 -8 32.5 -8q23 0 39 14.5t16 40.5q0 25 -15 38t-38 13q-32 0 -51 -21l40 90h54l-18 -37q18 0 30 -6q24 -5 40 -26t16 -51q0 -43 -26 -67.5t-62 -24.5q-30 0 -54 17.5t-30 50.5q11 -15 26.5 -23z" />
    <glyph glyph-name="uni00B9" unicode="&#xb9;" horiz-adv-x="171" 
d="M63 425l1 268q-24 -14 -46 -20l-6 13q35 20 54 47.5t30 70.5h25v-379q0 -31 27 -44q-21 -2 -37 3t-19 5t-18 -5t-38 -3q27 13 27 44z" />
    <glyph glyph-name="ordmasculine" unicode="&#xba;" horiz-adv-x="210" 
d="M42.5 442q-22.5 39 -22.5 112q0 72 22.5 111t62.5 39t62.5 -39t22.5 -111q0 -73 -22.5 -112t-62.5 -39t-62.5 39zM129 477q9 24 9 74q0 51 -9 76.5t-24 25.5t-24.5 -25.5t-9.5 -76.5q0 -50 9.5 -74t24.5 -24t24 24z" />
    <glyph glyph-name="guillemotright" unicode="&#xbb;" horiz-adv-x="432" 
d="M35 89q0 31 9 50q-8 16 -8 35q0 9 1 14q10 -1 18.5 3t19.5 14l74 76l-74 75q-10 10 -18.5 14.5t-19.5 3.5q-1 5 -1 14q0 18 8 34q-9 21 -9 50q0 22 4 45q9 -27 48 -68l159 -168l-159 -168q-39 -41 -48 -69q-4 23 -4 45zM199 89q0 31 9 50q-8 16 -8 35q0 9 1 14
q10 -1 18.5 3t19.5 14l74 76l-74 75q-10 10 -18.5 14.5t-19.5 3.5q-1 5 -1 14q0 18 8 34q-9 21 -9 50q0 22 4 45q9 -27 48 -68l159 -168l-159 -168q-39 -41 -48 -69q-4 23 -4 45z" />
    <glyph glyph-name="onequarter" unicode="&#xbc;" horiz-adv-x="541" 
d="M62 325l1 268q-24 -14 -46 -20l-6 13q35 20 54 47.5t30 70.5h25v-379q0 -31 27 -44q-21 -2 -37 3t-19 5t-18 -5t-38 -3q27 13 27 44zM134 13.5q-12 9.5 -16 10.5t-18 1.5t-32 9.5q26 4 40 39l209 570q5 15 5 26q0 18 -10 31q18 -4 29.5 -13.5t15.5 -11.5q3 -1 9 -1
q12 0 20 -1t21 -8q-28 -6 -40 -40l-208 -570q-6 -15 -6 -26q0 -16 11 -30q-18 4 -30 13.5zM527.5 140.5q-4.5 -10.5 -4.5 -13.5q0 -4 4.5 -15t4.5 -24q0 -8 -1 -12q-6 13 -15.5 18t-28.5 5v-55q0 -33 21 -44q-18 -2 -31.5 3t-16.5 5q-4 0 -17 -5t-31 -3q20 12 20 44v60h-131
q37 109 58 188.5t17 152.5q14 -17 33.5 -27.5t37.5 -12.5q-11 -62 -50 -176q-19 -56 -25 -76h65v112q18 21 29 42t21 56v-210q18 0 28 5.5t16 18.5q1 -4 1 -12q0 -14 -4.5 -24.5z" />
    <glyph glyph-name="onehalf" unicode="&#xbd;" horiz-adv-x="529" 
d="M62 325l1 268q-24 -14 -46 -20l-6 13q35 20 54 47.5t30 70.5h25v-379q0 -31 27 -44q-21 -2 -37 3t-19 5t-18 -5t-38 -3q27 13 27 44zM134 13.5q-12 9.5 -16 10.5t-18 1.5t-32 9.5q26 4 40 39l209 570q5 15 5 26q0 18 -10 31q18 -4 29.5 -13.5t15.5 -11.5q3 -1 9 -1
q12 0 20 -1t21 -8q-28 -6 -40 -40l-208 -570q-6 -15 -6 -26q0 -16 11 -30q-18 4 -30 13.5zM322 40q0 45 11.5 79t27 56t40.5 51q24 26 36 46t12 45q0 24 -13.5 39.5t-35.5 15.5t-39.5 -19t-21.5 -58q-8 23 -8 42q0 15 4.5 31t4.5 20t-3 12.5t-3 19.5q8 -5 19 -5q5 0 23 4
q25 5 35 5q42 0 69.5 -28.5t27.5 -72.5q0 -39 -15.5 -66.5t-45.5 -59.5q-33 -37 -49.5 -67t-16.5 -75h62q32 0 48 24.5t16 58.5q7 -22 7 -42q0 -17 -4.5 -31l-5.5 -17q-6 -16 -6 -22q0 -7 2 -14.5t5 -11.5q-42 7 -100 7q-50 0 -91 -7q8 11 8 40z" />
    <glyph glyph-name="threequarters" unicode="&#xbe;" horiz-adv-x="597" 
d="M61 285q-18 4 -24 4q-13 0 -21 -6q0 11 3 19.5t3 13.5t-5 22.5t-5 34.5q0 16 8 45q1 -44 21.5 -65t48.5 -21q27 0 44 20t17 52q0 35 -18.5 57t-48.5 22q-25 0 -33 -19q-2 19 2.5 28t4.5 11q0 3 -4.5 12.5t-2.5 27.5q8 -18 32 -18t39 19.5t15 51.5q0 25 -13.5 41t-35.5 16
t-39 -18.5t-21 -57.5q-8 21 -8 41q0 15 4.5 31.5t4.5 20.5t-3 12t-3 19q8 -5 19 -5q5 0 21 4q25 5 36 5q42 0 69.5 -29t27.5 -74q0 -58 -39 -97q24 -15 38.5 -41t14.5 -62q0 -55 -31.5 -89t-82.5 -34q-15 0 -35 6zM190 13.5q-12 9.5 -16 10.5t-18 1.5t-32 9.5q26 4 40 39
l209 570q5 15 5 26q0 18 -10 31q18 -4 29.5 -13.5t15.5 -11.5q3 -1 9 -1q12 0 20 -1t21 -8q-28 -6 -40 -40l-208 -570q-6 -15 -6 -26q0 -16 11 -30q-18 4 -30 13.5zM583.5 140.5q-4.5 -10.5 -4.5 -13.5q0 -4 4.5 -15t4.5 -24q0 -8 -1 -12q-6 13 -15.5 18t-28.5 5v-55
q0 -33 21 -44q-18 -2 -31.5 3t-16.5 5q-4 0 -17 -5t-31 -3q20 12 20 44v60h-131q37 109 58 188.5t17 152.5q14 -17 33.5 -27.5t37.5 -12.5q-11 -62 -50 -176q-19 -56 -25 -76h65v112q18 21 29 42t21 56v-210q18 0 28 5.5t16 18.5q1 -4 1 -12q0 -14 -4.5 -24.5z" />
    <glyph glyph-name="questiondown" unicode="&#xbf;" horiz-adv-x="319" 
d="M237 698q13 -14 13 -35q0 -20 -13 -34t-34 -14q-20 0 -33 14t-13 34q0 21 13 35t33 14q21 0 34 -14zM234 474q0 -38 -15.5 -72t-47.5 -82q-32 -50 -47.5 -84t-15.5 -72q0 -45 21.5 -71.5t60.5 -26.5q42 0 66 32t24 78q0 34 -13 64q43 -43 43 -108q0 -25 -6 -52t-6 -31
q0 -9 2 -21q3 -14 2 -30q-16 8 -30 8q-12 0 -31 -7q-30 -12 -63 -12q-70 0 -113 48t-43 129q0 39 12.5 72.5t30 59.5t48.5 64q45 54 68 96t23 97q0 13 -1 20q31 -51 31 -99z" />
    <glyph glyph-name="Agrave" unicode="&#xc0;" horiz-adv-x="425" 
d="M402.5 28q10.5 -15 30.5 -28q-20 -2 -33.5 0.5t-26.5 7.5t-18 5t-17.5 -5t-23.5 -7.5t-27 -0.5q20 14 20 43q0 6 -2 20l-25 142h-136l-25 -142q-2 -12 -2 -18q0 -31 26 -45q-18 -2 -30.5 0.5t-25 7.5t-17.5 5t-18 -5t-26.5 -7.5t-33.5 -0.5q20 12 30.5 27.5t15.5 41.5
l108 561q3 18 3 30q0 25 -17 41q21 2 35.5 -1t27.5 -8t17 -5q5 0 18.5 5t27.5 8t35 1q-18 -15 -18 -42q0 -12 3 -29l109 -561q5 -26 15.5 -41zM157 279h110l-55 308zM196 735l-36 57q-14 23 -24 35.5t-22 20.5q8 2 22 2q11 0 29 -4q10 3 19 3q8 0 13 -1q-2 -6 -2 -10
q0 -7 8 -31l23 -62q3 -9 6.5 -15t9.5 -10q-3 -1 -11 -1q-7 0 -15 2q-7 -4 -16 -2q0 9 -4 16z" />
    <glyph glyph-name="Aacute" unicode="&#xc1;" horiz-adv-x="425" 
d="M402.5 28q10.5 -15 30.5 -28q-20 -2 -33.5 0.5t-26.5 7.5t-18 5t-17.5 -5t-23.5 -7.5t-27 -0.5q20 14 20 43q0 6 -2 20l-25 142h-136l-25 -142q-2 -12 -2 -18q0 -31 26 -45q-18 -2 -30.5 0.5t-25 7.5t-17.5 5t-18 -5t-26.5 -7.5t-33.5 -0.5q20 12 30.5 27.5t15.5 41.5
l108 561q3 18 3 30q0 25 -17 41q21 2 35.5 -1t27.5 -8t17 -5q5 0 18.5 5t27.5 8t35 1q-18 -15 -18 -42q0 -12 3 -29l109 -561q5 -26 15.5 -41zM157 279h110l-55 308zM195.5 734q3.5 6 6.5 15l23 62q8 24 8 32q0 4 -2 10q5 1 12 1q11 0 20 -4q12 4 27 4t24 -2q-12 -8 -22 -20
t-24 -35l-36 -58q-4 -7 -4 -15h-4q-6 0 -12 2q-6 -3 -16 -3q-7 0 -10 1q6 4 9.5 10z" />
    <glyph glyph-name="Acircumflex" unicode="&#xc2;" horiz-adv-x="425" 
d="M402.5 28q10.5 -15 30.5 -28q-20 -2 -33.5 0.5t-26.5 7.5t-18 5t-17.5 -5t-23.5 -7.5t-27 -0.5q20 14 20 43q0 6 -2 20l-25 142h-136l-25 -142q-2 -12 -2 -18q0 -31 26 -45q-18 -2 -30.5 0.5t-25 7.5t-17.5 5t-18 -5t-26.5 -7.5t-33.5 -0.5q20 12 30.5 27.5t15.5 41.5
l108 561q3 18 3 30q0 25 -17 41q21 2 35.5 -1t27.5 -8t17 -5q5 0 18.5 5t27.5 8t35 1q-18 -15 -18 -42q0 -12 3 -29l109 -561q5 -26 15.5 -41zM157 279h110l-55 308zM126 753l86 99l85 -99q20 -22 39 -30q-14 -2 -21 -2q-18 0 -31 5q-10 -4 -23 -4q-7 0 -10 1q2 4 2 7
q0 5 -8 16l-33 38l-34 -38q-10 -13 -6 -23q-3 -1 -10 -1q-13 0 -23 4q-13 -5 -31 -5q-7 0 -21 2q19 8 39 30z" />
    <glyph glyph-name="Atilde" unicode="&#xc3;" horiz-adv-x="425" 
d="M402.5 28q10.5 -15 30.5 -28q-20 -2 -33.5 0.5t-26.5 7.5t-18 5t-17.5 -5t-23.5 -7.5t-27 -0.5q20 14 20 43q0 6 -2 20l-25 142h-136l-25 -142q-2 -12 -2 -18q0 -31 26 -45q-18 -2 -30.5 0.5t-25 7.5t-17.5 5t-18 -5t-26.5 -7.5t-33.5 -0.5q20 12 30.5 27.5t15.5 41.5
l108 561q3 18 3 30q0 25 -17 41q21 2 35.5 -1t27.5 -8t17 -5q5 0 18.5 5t27.5 8t35 1q-18 -15 -18 -42q0 -12 3 -29l109 -561q5 -26 15.5 -41zM157 279h110l-55 308zM91 744.5q7 7.5 16 20.5q14 22 27 32.5t37 10.5q11 0 21 -4.5t26 -13.5q20 -13 28 -13t12.5 4.5t4.5 10.5
q0 9 -10 16l11 1q16 0 28 -6q13 7 30 7q5 0 19 -2q-11 -4 -18 -12t-16 -22q-14 -21 -26.5 -31.5t-35.5 -10.5q-11 0 -21 4.5t-26 13.5q-20 13 -29 13q-8 0 -12.5 -4t-4.5 -10q0 -9 10 -16l-10 -1q-18 0 -28 6q-11 -7 -29 -7q-6 0 -20 2q9 4 16 11.5z" />
    <glyph glyph-name="Adieresis" unicode="&#xc4;" horiz-adv-x="425" 
d="M402.5 28q10.5 -15 30.5 -28q-20 -2 -33.5 0.5t-26.5 7.5t-18 5t-17.5 -5t-23.5 -7.5t-27 -0.5q20 14 20 43q0 6 -2 20l-25 142h-136l-25 -142q-2 -12 -2 -18q0 -31 26 -45q-18 -2 -30.5 0.5t-25 7.5t-17.5 5t-18 -5t-26.5 -7.5t-33.5 -0.5q20 12 30.5 27.5t15.5 41.5
l108 561q3 18 3 30q0 25 -17 41q21 2 35.5 -1t27.5 -8t17 -5q5 0 18.5 5t27.5 8t35 1q-18 -15 -18 -42q0 -12 3 -29l109 -561q5 -26 15.5 -41zM157 279h110l-55 308zM115.5 743q-11.5 13 -11.5 33q0 21 11.5 34t31.5 13q19 0 30.5 -13t11.5 -34q0 -20 -11.5 -33t-30.5 -13
q-20 0 -31.5 13zM246.5 743q-11.5 13 -11.5 33q0 21 11.5 34t31.5 13t31.5 -13t11.5 -34q0 -20 -11.5 -33t-31.5 -13t-31.5 13z" />
    <glyph glyph-name="Aring" unicode="&#xc5;" horiz-adv-x="425" 
d="M402.5 28q10.5 -15 30.5 -28q-20 -2 -33.5 0.5t-26.5 7.5t-18 5t-17.5 -5t-23.5 -7.5t-27 -0.5q20 14 20 43q0 6 -2 20l-25 142h-136l-25 -142q-2 -12 -2 -18q0 -31 26 -45q-18 -2 -30.5 0.5t-25 7.5t-17.5 5t-18 -5t-26.5 -7.5t-33.5 -0.5q20 12 30.5 27.5t15.5 41.5
l108 561q3 18 3 30q0 25 -17 41q21 2 35.5 -1t27.5 -8t17 -5q5 0 18.5 5t27.5 8t35 1q-18 -15 -18 -42q0 -12 3 -29l109 -561q5 -26 15.5 -41zM157 279h110l-55 308zM155.5 754q-23.5 23 -23.5 56t23.5 56t56.5 23q32 0 55.5 -23t23.5 -56t-23.5 -56t-55.5 -23
q-33 0 -56.5 23zM236.5 785q10.5 10 10.5 25q0 14 -10.5 25t-24.5 11q-15 0 -25 -10.5t-10 -25.5t10 -25t25 -10q14 0 24.5 10z" />
    <glyph glyph-name="AE" unicode="&#xc6;" horiz-adv-x="543" 
d="M535 123q0 -20 -9 -49q-7 -19 -7 -32q0 -28 9 -42q-67 10 -153 10q-76 0 -143 -10q39 22 39 74v147h-130l-22 -147q-2 -14 -2 -20q0 -20 7.5 -32.5t19.5 -21.5q-5 -1 -15 -1q-18 0 -36.5 6t-23.5 6t-24 -6t-40 -6q-12 0 -18 1q18 10 29.5 26.5t16.5 47.5l90 552
q2 14 2 19q0 32 -25 55q26 -6 105.5 -8t139.5 -2q128 0 172 10q-9 -12 -9 -34q0 -12 8 -38t8 -44q0 -15 -6 -36q-5 68 -84 68h-77v-207h38q28 0 46.5 17t26.5 40q1 -7 1 -19q0 -25 -8 -47t-8 -27t8 -27.5t8 -47.5q0 -12 -1 -19q-8 23 -26.5 40t-46.5 17h-38v-254h88
q45 0 64 23.5t21 54.5q5 -17 5 -37zM152 294h119v322h-70z" />
    <glyph glyph-name="Ccedilla" unicode="&#xc7;" horiz-adv-x="364" 
d="M300 -68q16 -21 16 -51q0 -43 -26 -67.5t-62 -24.5q-30 0 -54 17.5t-30 50.5q11 -15 26.5 -23t32.5 -8q23 0 39 14.5t16 40.5q0 25 -15 38t-38 13q-31 0 -51 -21l38 86q-72 13 -116 99.5t-44 251.5q0 357 194 357q19 0 47 -8q4 -1 13 -3t16 -2q16 0 30 10
q0 -18 -6.5 -32.5t-6.5 -20.5t6 -30q4 -16 8 -35.5t4 -40.5q0 -31 -8 -63q-13 143 -97 143q-57 0 -85.5 -67.5t-28.5 -207.5q0 -137 31 -202.5t83 -65.5q93 0 111 189q7 -42 7 -83q0 -78 -27 -127.5t-76 -60.5l-17 -34q18 0 30 -6q24 -5 40 -26z" />
    <glyph glyph-name="Egrave" unicode="&#xc8;" horiz-adv-x="355" 
d="M342 123q0 -20 -9 -49q-7 -19 -7 -32q0 -28 9 -42q-67 10 -147 10q-94 0 -161 -10q39 24 39 74v552q0 50 -39 74q48 -10 159 -10q89 0 138 10q-9 -12 -9 -34q0 -12 8 -38t8 -44q0 -15 -6 -36q-5 72 -84 72h-89v-214h46q28 0 47 17.5t27 41.5q1 -7 1 -19q0 -25 -8 -47.5
t-8 -27.5t8 -27t8 -47q0 -12 -1 -19q-8 23 -27 40.5t-47 17.5h-46v-255h100q45 0 64 24t21 55q5 -17 5 -37zM167 735l-36 57q-14 23 -24 35.5t-22 20.5q8 2 22 2q11 0 29 -4q10 3 19 3q8 0 13 -1q-2 -6 -2 -10q0 -7 8 -31l23 -62q3 -9 6.5 -15t9.5 -10q-3 -1 -11 -1
q-7 0 -15 2q-7 -4 -16 -2q0 9 -4 16z" />
    <glyph glyph-name="Eacute" unicode="&#xc9;" horiz-adv-x="355" 
d="M342 123q0 -20 -9 -49q-7 -19 -7 -32q0 -28 9 -42q-67 10 -147 10q-94 0 -161 -10q39 24 39 74v552q0 50 -39 74q48 -10 159 -10q89 0 138 10q-9 -12 -9 -34q0 -12 8 -38t8 -44q0 -15 -6 -36q-5 72 -84 72h-89v-214h46q28 0 47 17.5t27 41.5q1 -7 1 -19q0 -25 -8 -47.5
t-8 -27.5t8 -27t8 -47q0 -12 -1 -19q-8 23 -27 40.5t-47 17.5h-46v-255h100q45 0 64 24t21 55q5 -17 5 -37zM166.5 734q3.5 6 6.5 15l23 62q8 24 8 32q0 4 -2 10q5 1 12 1q11 0 20 -4q12 4 27 4t24 -2q-12 -8 -22 -20t-24 -35l-36 -58q-4 -7 -4 -15h-4q-6 0 -12 2
q-6 -3 -16 -3q-7 0 -10 1q6 4 9.5 10z" />
    <glyph glyph-name="Ecircumflex" unicode="&#xca;" horiz-adv-x="355" 
d="M342 123q0 -20 -9 -49q-7 -19 -7 -32q0 -28 9 -42q-67 10 -147 10q-94 0 -161 -10q39 24 39 74v552q0 50 -39 74q48 -10 159 -10q89 0 138 10q-9 -12 -9 -34q0 -12 8 -38t8 -44q0 -15 -6 -36q-5 72 -84 72h-89v-214h46q28 0 47 17.5t27 41.5q1 -7 1 -19q0 -25 -8 -47.5
t-8 -27.5t8 -27t8 -47q0 -12 -1 -19q-8 23 -27 40.5t-47 17.5h-46v-255h100q45 0 64 24t21 55q5 -17 5 -37zM97 753l86 99l85 -99q20 -22 39 -30q-14 -2 -21 -2q-18 0 -31 5q-10 -4 -23 -4q-7 0 -10 1q2 4 2 7q0 5 -8 16l-33 38l-34 -38q-10 -13 -6 -23q-3 -1 -10 -1
q-13 0 -23 4q-13 -5 -31 -5q-7 0 -21 2q19 8 39 30z" />
    <glyph glyph-name="Edieresis" unicode="&#xcb;" horiz-adv-x="355" 
d="M342 123q0 -20 -9 -49q-7 -19 -7 -32q0 -28 9 -42q-67 10 -147 10q-94 0 -161 -10q39 24 39 74v552q0 50 -39 74q48 -10 159 -10q89 0 138 10q-9 -12 -9 -34q0 -12 8 -38t8 -44q0 -15 -6 -36q-5 72 -84 72h-89v-214h46q28 0 47 17.5t27 41.5q1 -7 1 -19q0 -25 -8 -47.5
t-8 -27.5t8 -27t8 -47q0 -12 -1 -19q-8 23 -27 40.5t-47 17.5h-46v-255h100q45 0 64 24t21 55q5 -17 5 -37zM86.5 743q-11.5 13 -11.5 33q0 21 11.5 34t31.5 13q19 0 30.5 -13t11.5 -34q0 -20 -11.5 -33t-30.5 -13q-20 0 -31.5 13zM217.5 743q-11.5 13 -11.5 33
q0 21 11.5 34t31.5 13t31.5 -13t11.5 -34q0 -20 -11.5 -33t-31.5 -13t-31.5 13z" />
    <glyph glyph-name="Igrave" unicode="&#xcc;" horiz-adv-x="227" 
d="M72 74v552q0 51 -40 74q30 3 53.5 -5t28.5 -8t27.5 8t54.5 5q-40 -22 -40 -74v-552q0 -52 40 -74q-32 -3 -54.5 5t-27.5 8t-28.5 -8t-53.5 -5q40 23 40 74zM98 735l-36 57q-14 23 -24 35.5t-22 20.5q8 2 22 2q11 0 29 -4q10 3 19 3q8 0 13 -1q-2 -6 -2 -10q0 -7 8 -31
l23 -62q3 -9 6.5 -15t9.5 -10q-3 -1 -11 -1q-7 0 -15 2q-7 -4 -16 -2q0 9 -4 16z" />
    <glyph glyph-name="Iacute" unicode="&#xcd;" horiz-adv-x="227" 
d="M72 74v552q0 51 -40 74q30 3 53.5 -5t28.5 -8t27.5 8t54.5 5q-40 -22 -40 -74v-552q0 -52 40 -74q-32 -3 -54.5 5t-27.5 8t-28.5 -8t-53.5 -5q40 23 40 74zM97.5 734q3.5 6 6.5 15l23 62q8 24 8 32q0 4 -2 10q5 1 12 1q11 0 20 -4q12 4 27 4t24 -2q-12 -8 -22 -20
t-24 -35l-36 -58q-4 -7 -4 -15h-4q-6 0 -12 2q-6 -3 -16 -3q-7 0 -10 1q6 4 9.5 10z" />
    <glyph glyph-name="Icircumflex" unicode="&#xce;" horiz-adv-x="227" 
d="M72 74v552q0 51 -40 74q30 3 53.5 -5t28.5 -8t27.5 8t54.5 5q-40 -22 -40 -74v-552q0 -52 40 -74q-32 -3 -54.5 5t-27.5 8t-28.5 -8t-53.5 -5q40 23 40 74zM42 753l72 99l73 -99q18 -23 33 -30q-14 -2 -18 -2q-11 0 -24 5q-12 -4 -20 -4q-7 0 -10 1q1 2 1 6q0 6 -7 16
l-28 41l-27 -41q-5 -8 -6.5 -12.5t0.5 -9.5q-3 -1 -10 -1q-9 0 -19 4q-15 -5 -25 -5q-4 0 -18 2q15 7 33 30z" />
    <glyph glyph-name="Idieresis" unicode="&#xcf;" horiz-adv-x="227" 
d="M72 74v552q0 51 -40 74q30 3 53.5 -5t28.5 -8t27.5 8t54.5 5q-40 -22 -40 -74v-552q0 -52 40 -74q-32 -3 -54.5 5t-27.5 8t-28.5 -8t-53.5 -5q40 23 40 74zM37 756q-10 12 -10 30t10 30t28 12t28 -12t10 -30t-10 -30t-28 -12t-28 12zM135 756q-10 12 -10 30t10 30t28 12
t28 -12t10 -30t-10 -30t-28 -12t-28 12z" />
    <glyph glyph-name="Eth" unicode="&#xd0;" horiz-adv-x="419" 
d="M331.5 615q55.5 -86 55.5 -265q0 -184 -55 -267t-151 -83q-27 0 -47.5 6.5t-26.5 6.5t-19.5 -5t-27 -7.5t-33.5 -0.5q39 22 39 74v250h-3q-34 0 -48 -22q-1 5 -1 12q0 12 3.5 21.5t4.5 14.5q-1 5 -4.5 15t-3.5 22q0 8 1 13q12 -23 48 -23h3v249q0 52 -39 74
q20 2 33.5 -0.5t27 -7.5t19.5 -5t26.5 7t47.5 7q95 0 150.5 -86zM268 138.5q33 62.5 33 211.5q0 145 -33.5 209.5t-86.5 64.5q-19 0 -29 -6v-241h33q18 0 29.5 5t19.5 17q2 -18 -3 -31.5t-5 -17.5t4 -14.5t4 -22.5q0 -8 -1 -12q-13 23 -48 23h-33v-242q12 -6 29 -6
q54 0 87 62.5z" />
    <glyph glyph-name="Ntilde" unicode="&#xd1;" horiz-adv-x="457" 
d="M55 28q11 16 11 46v552q0 29 -10.5 44.5t-18.5 22t-10 7.5q20 2 34.5 -1t28.5 -8t19 -5t19 5t28.5 8t34.5 1q-16 -10 -28 -26t-12 -48q0 -52 25 -106t75 -136q38 -62 55 -94v336q0 50 -39 74q30 3 53.5 -5t28.5 -8t27.5 8t54.5 5q-39 -19 -39 -74v-552q0 -54 39 -74
q-32 -3 -54.5 5t-27.5 8t-28.5 -8t-53.5 -5q39 24 39 74q0 59 -28 120t-81 148q-21 34 -45 77v-345q0 -31 10.5 -47.5t28.5 -26.5q-21 -2 -35.5 1t-28 8t-18.5 5t-19 -5t-28.5 -8t-34.5 -1q17 12 28 28zM108 744.5q7 7.5 16 20.5q14 22 27 32.5t37 10.5q11 0 21 -4.5
t26 -13.5q20 -13 28 -13t12.5 4.5t4.5 10.5q0 9 -10 16l11 1q16 0 28 -6q13 7 30 7q5 0 19 -2q-11 -4 -18 -12t-16 -22q-14 -21 -26.5 -31.5t-35.5 -10.5q-11 0 -21 4.5t-26 13.5q-20 13 -29 13q-8 0 -12.5 -4t-4.5 -10q0 -9 10 -16l-10 -1q-18 0 -28 6q-11 -7 -29 -7
q-6 0 -20 2q9 4 16 11.5z" />
    <glyph glyph-name="Ograve" unicode="&#xd2;" horiz-adv-x="421" 
d="M78.5 84q-46.5 93 -46.5 266t46.5 266t132.5 93t132 -93t46 -266t-46 -266t-132 -93t-132.5 93zM278.5 152q22.5 75 22.5 198t-22.5 198t-67.5 75t-67.5 -75t-22.5 -198t22.5 -198t67.5 -75t67.5 75zM195 744l-36 57q-14 23 -24 35.5t-22 20.5q8 2 22 2q11 0 29 -4
q10 3 19 3q8 0 13 -1q-2 -6 -2 -10q0 -7 8 -31l23 -62q3 -9 6.5 -15t9.5 -10q-3 -1 -11 -1q-7 0 -15 2q-7 -4 -16 -2q0 9 -4 16z" />
    <glyph glyph-name="Oacute" unicode="&#xd3;" horiz-adv-x="421" 
d="M78.5 84q-46.5 93 -46.5 266t46.5 266t132.5 93t132 -93t46 -266t-46 -266t-132 -93t-132.5 93zM278.5 152q22.5 75 22.5 198t-22.5 198t-67.5 75t-67.5 -75t-22.5 -198t22.5 -198t67.5 -75t67.5 75zM194.5 743q3.5 6 6.5 15l23 62q8 24 8 32q0 4 -2 10q5 1 12 1
q11 0 20 -4q12 4 27 4t24 -2q-12 -8 -22 -20t-24 -35l-36 -58q-4 -7 -4 -15h-4q-6 0 -12 2q-6 -3 -16 -3q-7 0 -10 1q6 4 9.5 10z" />
    <glyph glyph-name="Ocircumflex" unicode="&#xd4;" horiz-adv-x="421" 
d="M78.5 84q-46.5 93 -46.5 266t46.5 266t132.5 93t132 -93t46 -266t-46 -266t-132 -93t-132.5 93zM278.5 152q22.5 75 22.5 198t-22.5 198t-67.5 75t-67.5 -75t-22.5 -198t22.5 -198t67.5 -75t67.5 75zM125 762l86 99l85 -99q20 -22 39 -30q-14 -2 -21 -2q-18 0 -31 5
q-10 -4 -23 -4q-7 0 -10 1q2 4 2 7q0 5 -8 16l-33 38l-34 -38q-10 -13 -6 -23q-3 -1 -10 -1q-13 0 -23 4q-13 -5 -31 -5q-7 0 -21 2q19 8 39 30z" />
    <glyph glyph-name="Otilde" unicode="&#xd5;" horiz-adv-x="421" 
d="M78.5 84q-46.5 93 -46.5 266t46.5 266t132.5 93t132 -93t46 -266t-46 -266t-132 -93t-132.5 93zM278.5 152q22.5 75 22.5 198t-22.5 198t-67.5 75t-67.5 -75t-22.5 -198t22.5 -198t67.5 -75t67.5 75zM90 753.5q7 7.5 16 20.5q14 22 27 32.5t37 10.5q11 0 21 -4.5
t26 -13.5q20 -13 28 -13t12.5 4.5t4.5 10.5q0 9 -10 16l11 1q16 0 28 -6q13 7 30 7q5 0 19 -2q-11 -4 -18 -12t-16 -22q-14 -21 -26.5 -31.5t-35.5 -10.5q-11 0 -21 4.5t-26 13.5q-20 13 -29 13q-8 0 -12.5 -4t-4.5 -10q0 -9 10 -16l-10 -1q-18 0 -28 6q-11 -7 -29 -7
q-6 0 -20 2q9 4 16 11.5z" />
    <glyph glyph-name="Odieresis" unicode="&#xd6;" horiz-adv-x="421" 
d="M78.5 84q-46.5 93 -46.5 266t46.5 266t132.5 93t132 -93t46 -266t-46 -266t-132 -93t-132.5 93zM278.5 152q22.5 75 22.5 198t-22.5 198t-67.5 75t-67.5 -75t-22.5 -198t22.5 -198t67.5 -75t67.5 75zM114.5 752q-11.5 13 -11.5 33q0 21 11.5 34t31.5 13q19 0 30.5 -13
t11.5 -34q0 -20 -11.5 -33t-30.5 -13q-20 0 -31.5 13zM245.5 752q-11.5 13 -11.5 33q0 21 11.5 34t31.5 13t31.5 -13t11.5 -34q0 -20 -11.5 -33t-31.5 -13t-31.5 13z" />
    <glyph glyph-name="multiply" unicode="&#xd7;" horiz-adv-x="338" 
d="M328 253q-11 -15 -24.5 -20.5t-15.5 -7.5t-7.5 -15t-21.5 -25q4 23 -22 49l-68 64l-68 -64q-26 -24 -22 -49q-16 12 -20.5 25t-6.5 15t-16.5 7.5t-25.5 20.5q26 -3 52 21l66 63l-67 63q-28 25 -51 22q11 15 24.5 20t15.5 7t7.5 15t21.5 25q-4 -24 23 -49l68 -64l68 64
q25 25 21 49q16 -12 21.5 -25t7.5 -15t15.5 -7t24.5 -20q-23 3 -49 -22l-68 -63l66 -62q26 -25 51 -22z" />
    <glyph glyph-name="Oslash" unicode="&#xd8;" horiz-adv-x="421" 
d="M338 626q51 -94 51 -276q0 -173 -46 -266t-132 -93q-53 0 -91 36l-8 -22q-5 -15 -5 -25q0 -17 10 -28q-19 4 -29.5 13t-13.5 10t-17 1t-32 10q14 2 23 11t15 26l19 53q-50 92 -50 274q0 173 46.5 266t132.5 93q50 0 89 -34l5 13q6 15 6 26q0 17 -10 28q18 -4 28.5 -13
t14.5 -10t18 -1.5t31 -9.5q-26 -4 -39 -37zM131 209l135 371q-22 43 -55 43q-45 0 -67.5 -75t-22.5 -198q0 -82 10 -141zM291 496l-136 -373q22 -46 56 -46q45 0 67.5 75t22.5 198q0 87 -10 146z" />
    <glyph glyph-name="Ugrave" unicode="&#xd9;" horiz-adv-x="431" 
d="M99.5 43.5q-43.5 51.5 -43.5 143.5v439q0 52 -39 74q30 3 53.5 -5t28.5 -8t27.5 8t54.5 5q-39 -21 -39 -74v-448q0 -50 19 -76.5t54 -26.5q36 0 55 26t19 77v448q0 52 -39 74q32 3 54.5 -5t27.5 -8t28.5 8t53.5 5q-39 -22 -39 -74v-439q0 -92 -43.5 -143.5t-116.5 -51.5
q-72 0 -115.5 51.5zM199 735l-36 57q-14 23 -24 35.5t-22 20.5q8 2 22 2q11 0 29 -4q10 3 19 3q8 0 13 -1q-2 -6 -2 -10q0 -7 8 -31l23 -62q3 -9 6.5 -15t9.5 -10q-3 -1 -11 -1q-7 0 -15 2q-7 -4 -16 -2q0 9 -4 16z" />
    <glyph glyph-name="Uacute" unicode="&#xda;" horiz-adv-x="431" 
d="M99.5 43.5q-43.5 51.5 -43.5 143.5v439q0 52 -39 74q30 3 53.5 -5t28.5 -8t27.5 8t54.5 5q-39 -21 -39 -74v-448q0 -50 19 -76.5t54 -26.5q36 0 55 26t19 77v448q0 52 -39 74q32 3 54.5 -5t27.5 -8t28.5 8t53.5 5q-39 -22 -39 -74v-439q0 -92 -43.5 -143.5t-116.5 -51.5
q-72 0 -115.5 51.5zM198.5 734q3.5 6 6.5 15l23 62q8 24 8 32q0 4 -2 10q5 1 12 1q11 0 20 -4q12 4 27 4t24 -2q-12 -8 -22 -20t-24 -35l-36 -58q-4 -7 -4 -15h-4q-6 0 -12 2q-6 -3 -16 -3q-7 0 -10 1q6 4 9.5 10z" />
    <glyph glyph-name="Ucircumflex" unicode="&#xdb;" horiz-adv-x="431" 
d="M99.5 43.5q-43.5 51.5 -43.5 143.5v439q0 52 -39 74q30 3 53.5 -5t28.5 -8t27.5 8t54.5 5q-39 -21 -39 -74v-448q0 -50 19 -76.5t54 -26.5q36 0 55 26t19 77v448q0 52 -39 74q32 3 54.5 -5t27.5 -8t28.5 8t53.5 5q-39 -22 -39 -74v-439q0 -92 -43.5 -143.5t-116.5 -51.5
q-72 0 -115.5 51.5zM129 753l86 99l85 -99q20 -22 39 -30q-14 -2 -21 -2q-18 0 -31 5q-10 -4 -23 -4q-7 0 -10 1q2 4 2 7q0 5 -8 16l-33 38l-34 -38q-10 -13 -6 -23q-3 -1 -10 -1q-13 0 -23 4q-13 -5 -31 -5q-7 0 -21 2q19 8 39 30z" />
    <glyph glyph-name="Udieresis" unicode="&#xdc;" horiz-adv-x="431" 
d="M99.5 43.5q-43.5 51.5 -43.5 143.5v439q0 52 -39 74q30 3 53.5 -5t28.5 -8t27.5 8t54.5 5q-39 -21 -39 -74v-448q0 -50 19 -76.5t54 -26.5q36 0 55 26t19 77v448q0 52 -39 74q32 3 54.5 -5t27.5 -8t28.5 8t53.5 5q-39 -22 -39 -74v-439q0 -92 -43.5 -143.5t-116.5 -51.5
q-72 0 -115.5 51.5zM118.5 743q-11.5 13 -11.5 33q0 21 11.5 34t31.5 13q19 0 30.5 -13t11.5 -34q0 -20 -11.5 -33t-30.5 -13q-20 0 -31.5 13zM249.5 743q-11.5 13 -11.5 33q0 21 11.5 34t31.5 13t31.5 -13t11.5 -34q0 -20 -11.5 -33t-31.5 -13t-31.5 13z" />
    <glyph glyph-name="Yacute" unicode="&#xdd;" horiz-adv-x="390" 
d="M339 691.5q13 4.5 28.5 7.5t39.5 1q-38 -16 -52 -63l-117 -370v-193q0 -52 39 -74q-30 -3 -53.5 5t-28.5 8t-28.5 -8t-53.5 -5q39 22 39 74v193l-117 370q-14 46 -53 63q25 2 40.5 -1t28.5 -7.5t17 -4.5q5 0 17 5t23 7.5t28 0.5q-20 -13 -20 -39q0 -13 4 -24l75 -265
l75 265q4 11 4 24q0 26 -20 39q17 2 28 -0.5t23 -7.5t17 -5q4 0 17 4.5zM179.5 734q3.5 6 6.5 15l23 62q8 24 8 32q0 4 -2 10q5 1 12 1q11 0 20 -4q12 4 27 4t24 -2q-12 -8 -22 -20t-24 -35l-36 -58q-4 -7 -4 -15h-4q-6 0 -12 2q-6 -3 -16 -3q-7 0 -10 1q6 4 9.5 10z" />
    <glyph glyph-name="Thorn" unicode="&#xde;" horiz-adv-x="408" 
d="M64 73v554q0 53 -40 73q32 3 54.5 -5t27.5 -8t28.5 8t54.5 5q-18 -10 -29 -28t-11 -45v-40q24 18 67 18q78 0 123 -65.5t45 -189.5t-45 -189.5t-123 -65.5q-43 0 -67 18v-40q0 -52 40 -73q-31 -3 -54.5 5t-28.5 8t-27.5 -8t-54.5 -5q40 20 40 73zM273 218.5
q25 45.5 25 131.5t-25 131.5t-69 45.5q-33 0 -55 -23v-308q23 -23 55 -23q44 0 69 45.5z" />
    <glyph glyph-name="germandbls" unicode="&#xdf;" horiz-adv-x="466" 
d="M224 5q-18 5 -31 5q-12 0 -26 -7l-1 10q0 9 3 19t3 13q0 4 -4 20q-4 11 -7 26.5t-3 33.5q0 36 10 73q7 -121 101 -121q43 0 67.5 32t24.5 86q0 63 -36.5 97.5t-88.5 34.5q-43 0 -59 -40q-1 6 -1 18q0 18 5.5 34.5t5.5 20.5t-5.5 21t-5.5 35q0 12 1 18q18 -42 59 -42
q44 0 66 34t22 84q0 53 -27 83t-68 30q-39 0 -64.5 -29t-25.5 -81v-429q0 -45 -27.5 -65.5t-89.5 -18.5q15 9 23 26t8 52v435q0 58 24 101.5t64.5 67.5t87.5 24q48 0 89.5 -24.5t66.5 -69.5t25 -103q0 -93 -65 -145q44 -20 73 -61.5t29 -109.5q0 -55 -21 -99.5t-59.5 -70.5
t-88.5 -26q-26 0 -54 8z" />
    <glyph glyph-name="agrave" unicode="&#xe0;" horiz-adv-x="301" 
d="M265.5 25.5q6.5 -15.5 21.5 -25.5q-36 -2 -59.5 6t-35.5 28q-11 -18 -28 -28t-36 -10q-49 0 -80.5 48.5t-31.5 125.5t32.5 125.5t83.5 48.5q27 0 47 -20v36q0 42 -17.5 62t-45.5 20q-23 0 -43 -16.5t-29 -47.5q-1 58 27 92t75 34q44 0 78.5 -34.5t34.5 -109.5v-282
q0 -37 6.5 -52.5zM179 86v4v161q-14 21 -36 21q-24 0 -37 -28t-13 -74q0 -48 13 -76t37 -28q23 0 36 20zM140 538l-36 57q-14 23 -24 35.5t-22 20.5q8 2 22 2q11 0 29 -4q10 3 19 3q8 0 13 -1q-2 -6 -2 -10q0 -7 8 -31l23 -62q3 -9 6.5 -15t9.5 -10q-3 -1 -11 -1q-7 0 -15 2
q-7 -4 -16 -2q0 9 -4 16z" />
    <glyph glyph-name="aacute" unicode="&#xe1;" horiz-adv-x="301" 
d="M265.5 25.5q6.5 -15.5 21.5 -25.5q-36 -2 -59.5 6t-35.5 28q-11 -18 -28 -28t-36 -10q-49 0 -80.5 48.5t-31.5 125.5t32.5 125.5t83.5 48.5q27 0 47 -20v36q0 42 -17.5 62t-45.5 20q-23 0 -43 -16.5t-29 -47.5q-1 58 27 92t75 34q44 0 78.5 -34.5t34.5 -109.5v-282
q0 -37 6.5 -52.5zM179 86v4v161q-14 21 -36 21q-24 0 -37 -28t-13 -74q0 -48 13 -76t37 -28q23 0 36 20zM137.5 533q3.5 6 6.5 15l23 62q8 24 8 31q0 4 -2 10q5 1 13 1q9 0 19 -3q18 4 29 4q14 0 22 -2q-12 -8 -22 -20.5t-24 -35.5l-36 -57q-4 -7 -4 -16h-4q-6 0 -12 2
q-8 -2 -15 -2q-8 0 -11 1q6 4 9.5 10z" />
    <glyph glyph-name="acircumflex" unicode="&#xe2;" horiz-adv-x="301" 
d="M265.5 25.5q6.5 -15.5 21.5 -25.5q-36 -2 -59.5 6t-35.5 28q-11 -18 -28 -28t-36 -10q-49 0 -80.5 48.5t-31.5 125.5t32.5 125.5t83.5 48.5q27 0 47 -20v36q0 42 -17.5 62t-45.5 20q-23 0 -43 -16.5t-29 -47.5q-1 58 27 92t75 34q44 0 78.5 -34.5t34.5 -109.5v-282
q0 -37 6.5 -52.5zM179 86v4v161q-14 21 -36 21q-24 0 -37 -28t-13 -74q0 -48 13 -76t37 -28q23 0 36 20zM71 558l85 98l86 -98q14 -19 39 -31q-16 -2 -21 -2q-19 0 -31 6q-11 -6 -34 -4l2 8q0 7 -7 15l-34 39l-33 -39q-6 -7 -7 -12t1 -11h-9q-17 0 -24 4q-14 -6 -31 -6
q-7 0 -21 2q22 11 39 31z" />
    <glyph glyph-name="atilde" unicode="&#xe3;" horiz-adv-x="301" 
d="M265.5 25.5q6.5 -15.5 21.5 -25.5q-36 -2 -59.5 6t-35.5 28q-11 -18 -28 -28t-36 -10q-49 0 -80.5 48.5t-31.5 125.5t32.5 125.5t83.5 48.5q27 0 47 -20v36q0 42 -17.5 62t-45.5 20q-23 0 -43 -16.5t-29 -47.5q-1 58 27 92t75 34q44 0 78.5 -34.5t34.5 -109.5v-282
q0 -37 6.5 -52.5zM179 86v4v161q-14 21 -36 21q-24 0 -37 -28t-13 -74q0 -48 13 -76t37 -28q23 0 36 20zM49 542q7 8 17 23q13 20 25 30t33 10t44 -21q6 -5 12.5 -9t11.5 -4q7 0 11.5 4t4.5 10q0 11 -12 18q5 1 14 1q18 0 27 -6q11 7 29 7q7 0 21 -2q-11 -4 -18 -11.5
t-12 -15t-7 -9.5q-13 -20 -24.5 -29.5t-32.5 -9.5q-13 0 -22 5t-21 15q-17 13 -25 13q-7 0 -11.5 -4t-4.5 -10q0 -11 12 -17q-5 -1 -15 -1q-18 0 -25 6q-13 -8 -30 -8q-9 0 -20 3q11 4 18 12z" />
    <glyph glyph-name="adieresis" unicode="&#xe4;" horiz-adv-x="301" 
d="M265.5 25.5q6.5 -15.5 21.5 -25.5q-36 -2 -59.5 6t-35.5 28q-11 -18 -28 -28t-36 -10q-49 0 -80.5 48.5t-31.5 125.5t32.5 125.5t83.5 48.5q27 0 47 -20v36q0 42 -17.5 62t-45.5 20q-23 0 -43 -16.5t-29 -47.5q-1 58 27 92t75 34q44 0 78.5 -34.5t34.5 -109.5v-282
q0 -37 6.5 -52.5zM179 86v4v161q-14 21 -36 21q-24 0 -37 -28t-13 -74q0 -48 13 -76t37 -28q23 0 36 20zM68 550.5q-10 11.5 -10 29.5q0 19 10 30.5t28 11.5t28.5 -11.5t10.5 -30.5q0 -18 -10.5 -29.5t-28.5 -11.5t-28 11.5zM186.5 550.5q-10.5 11.5 -10.5 29.5
q0 19 10.5 30.5t28.5 11.5t28 -11.5t10 -30.5q0 -18 -10 -29.5t-28 -11.5t-28.5 11.5z" />
    <glyph glyph-name="aring" unicode="&#xe5;" horiz-adv-x="301" 
d="M265.5 25.5q6.5 -15.5 21.5 -25.5q-36 -2 -59.5 6t-35.5 28q-11 -18 -28 -28t-36 -10q-49 0 -80.5 48.5t-31.5 125.5t32.5 125.5t83.5 48.5q27 0 47 -20v36q0 42 -17.5 62t-45.5 20q-23 0 -43 -16.5t-29 -47.5q-1 58 27 92t75 34q44 0 78.5 -34.5t34.5 -109.5v-282
q0 -37 6.5 -52.5zM179 86v4v161q-14 21 -36 21q-24 0 -37 -28t-13 -74q0 -48 13 -76t37 -28q23 0 36 20zM103.5 551q-21.5 21 -21.5 52t21.5 51.5t52.5 20.5q30 0 51 -20.5t21 -51.5t-21 -52t-51 -21q-31 0 -52.5 21zM178.5 580q9.5 10 9.5 23t-9.5 23t-22.5 10
q-14 0 -23.5 -10t-9.5 -23q0 -14 9.5 -23.5t23.5 -9.5q13 0 22.5 10z" />
    <glyph glyph-name="ae" unicode="&#xe6;" horiz-adv-x="461" 
d="M49 44.5q-33 48.5 -33 127.5t34.5 127.5t88.5 48.5q27 0 47 -20v32q0 42 -17.5 62.5t-45.5 20.5q-26 0 -47.5 -17t-33.5 -48q2 58 31 92t75 34q58 0 86 -50q28 50 82 50q67 0 97 -66.5t30 -207.5h-179v-58q0 -47 19 -76t54 -29q39 0 62 32t30 79q3 -19 3 -39
q0 -59 -27.5 -100.5t-80.5 -41.5q-28 0 -54.5 14t-41.5 35q-18 -24 -40 -37t-54 -13q-52 0 -85 48.5zM367 289q0 63 -11.5 101t-36.5 38q-24 0 -36 -36.5t-13 -102.5h97zM166.5 76q11.5 8 18.5 20v158q-15 22 -38 22q-27 0 -41.5 -28t-14.5 -76q0 -47 14 -75.5t38 -28.5
q12 0 23.5 8z" />
    <glyph glyph-name="ccedilla" unicode="&#xe7;" horiz-adv-x="272" 
d="M223 -63q16 -21 16 -51q0 -43 -26 -67.5t-62 -24.5q-30 0 -54 17.5t-30 50.5q11 -15 26.5 -23t32.5 -8q23 0 39 14.5t16 40.5q0 25 -15 38t-38 13q-32 0 -51 -21l40 89q-45 20 -71 84t-26 161q0 117 36.5 184.5t111.5 67.5q15 0 32.5 -3.5t23.5 -3.5q13 0 21 6
q1 -12 -3.5 -25t-4.5 -17q0 -5 4 -21q8 -26 8 -52q0 -24 -6 -46q-5 43 -24 64.5t-45 21.5q-76 0 -76 -176q0 -89 21.5 -135.5t57.5 -46.5q32 0 50 33t24 81q5 -32 5 -54q0 -56 -23.5 -92t-66.5 -40l-13 -27q18 0 30 -6q24 -5 40 -26z" />
    <glyph glyph-name="egrave" unicode="&#xe8;" horiz-adv-x="295" 
d="M55.5 61.5q-35.5 64.5 -35.5 188.5q0 254 131 254q67 0 96.5 -66.5t29.5 -207.5h-177q0 -78 19 -122t58 -44q35 0 58 30.5t31 83.5q3 -19 3 -38q0 -59 -27.5 -101t-80.5 -42q-70 0 -105.5 64.5zM197 289q-2 139 -48 139q-44 0 -49 -139h97zM136 538l-36 57
q-14 23 -24 35.5t-22 20.5q8 2 22 2q11 0 29 -4q10 3 19 3q8 0 13 -1q-2 -6 -2 -10q0 -7 8 -31l23 -62q3 -9 6.5 -15t9.5 -10q-3 -1 -11 -1q-7 0 -15 2q-7 -4 -16 -2q0 9 -4 16z" />
    <glyph glyph-name="eacute" unicode="&#xe9;" horiz-adv-x="295" 
d="M55.5 61.5q-35.5 64.5 -35.5 188.5q0 254 131 254q67 0 96.5 -66.5t29.5 -207.5h-177q0 -78 19 -122t58 -44q35 0 58 30.5t31 83.5q3 -19 3 -38q0 -59 -27.5 -101t-80.5 -42q-70 0 -105.5 64.5zM197 289q-2 139 -48 139q-44 0 -49 -139h97zM133.5 533q3.5 6 6.5 15l23 62
q8 24 8 31q0 4 -2 10q5 1 13 1q9 0 19 -3q18 4 29 4q14 0 22 -2q-12 -8 -22 -20.5t-24 -35.5l-36 -57q-4 -7 -4 -16h-4q-6 0 -12 2q-8 -2 -15 -2q-8 0 -11 1q6 4 9.5 10z" />
    <glyph glyph-name="ecircumflex" unicode="&#xea;" horiz-adv-x="295" 
d="M55.5 61.5q-35.5 64.5 -35.5 188.5q0 254 131 254q67 0 96.5 -66.5t29.5 -207.5h-177q0 -78 19 -122t58 -44q35 0 58 30.5t31 83.5q3 -19 3 -38q0 -59 -27.5 -101t-80.5 -42q-70 0 -105.5 64.5zM197 289q-2 139 -48 139q-44 0 -49 -139h97zM67 558l85 98l86 -98
q14 -19 39 -31q-16 -2 -21 -2q-19 0 -31 6q-11 -6 -34 -4l2 8q0 7 -7 15l-34 39l-33 -39q-6 -7 -7 -12t1 -11h-9q-17 0 -24 4q-14 -6 -31 -6q-7 0 -21 2q22 11 39 31z" />
    <glyph glyph-name="edieresis" unicode="&#xeb;" horiz-adv-x="295" 
d="M55.5 61.5q-35.5 64.5 -35.5 188.5q0 254 131 254q67 0 96.5 -66.5t29.5 -207.5h-177q0 -78 19 -122t58 -44q35 0 58 30.5t31 83.5q3 -19 3 -38q0 -59 -27.5 -101t-80.5 -42q-70 0 -105.5 64.5zM197 289q-2 139 -48 139q-44 0 -49 -139h97zM64 550.5q-10 11.5 -10 29.5
q0 19 10 30.5t28 11.5t28.5 -11.5t10.5 -30.5q0 -18 -10.5 -29.5t-28.5 -11.5t-28 11.5zM182.5 550.5q-10.5 11.5 -10.5 29.5q0 19 10.5 30.5t28.5 11.5t28 -11.5t10 -30.5q0 -18 -10 -29.5t-28 -11.5t-28.5 11.5z" />
    <glyph glyph-name="igrave" unicode="&#xec;" horiz-adv-x="184" 
d="M52 69v320q0 29 -4.5 51.5t-12.5 32.5q23 3 41 -10q12 20 32.5 31t42.5 9q-19 -24 -19 -84v-350q0 -53 29 -69q-30 -3 -48 5t-21 8t-21 -8t-49 -5q30 16 30 69zM78 541l-36 57q-14 23 -24 35.5t-22 20.5q8 2 22 2q11 0 29 -4q10 3 19 3q8 0 13 -1q-2 -6 -2 -10
q0 -7 8 -31l23 -62q3 -9 6.5 -15t9.5 -10q-3 -1 -11 -1q-7 0 -15 2q-7 -4 -16 -2q0 9 -4 16z" />
    <glyph glyph-name="iacute" unicode="&#xed;" horiz-adv-x="184" 
d="M52 69v320q0 29 -4.5 51.5t-12.5 32.5q23 3 41 -10q12 20 32.5 31t42.5 9q-19 -24 -19 -84v-350q0 -53 29 -69q-30 -3 -48 5t-21 8t-21 -8t-49 -5q30 16 30 69zM75.5 536q3.5 6 6.5 15l23 62q8 24 8 31q0 4 -2 10q5 1 13 1q9 0 19 -3q18 4 29 4q14 0 22 -2
q-12 -8 -22 -20.5t-24 -35.5l-36 -57q-4 -7 -4 -16h-4q-6 0 -12 2q-8 -2 -15 -2q-8 0 -11 1q6 4 9.5 10z" />
    <glyph glyph-name="icircumflex" unicode="&#xee;" horiz-adv-x="184" 
d="M52 69v320q0 29 -4.5 51.5t-12.5 32.5q23 3 41 -10q12 20 32.5 31t42.5 9q-19 -24 -19 -84v-350q0 -53 29 -69q-30 -3 -48 5t-21 8t-21 -8t-49 -5q30 16 30 69zM22 559l72 99l73 -99q18 -23 33 -30q-14 -2 -18 -2q-11 0 -24 5q-12 -4 -20 -4q-7 0 -10 1q1 2 1 6
q0 6 -7 16l-28 41l-27 -41q-5 -8 -6.5 -12.5t0.5 -9.5q-3 -1 -10 -1q-9 0 -19 4q-15 -5 -25 -5q-4 0 -18 2q15 7 33 30z" />
    <glyph glyph-name="idieresis" unicode="&#xef;" horiz-adv-x="184" 
d="M52 69v320q0 29 -4.5 51.5t-12.5 32.5q23 3 41 -10q12 20 32.5 31t42.5 9q-19 -24 -19 -84v-350q0 -53 29 -69q-30 -3 -48 5t-21 8t-21 -8t-49 -5q30 16 30 69zM17 562q-10 12 -10 30t10 30t28 12t28 -12t10 -30t-10 -30t-28 -12t-28 12zM115 562q-10 12 -10 30t10 30
t28 12t28 -12t10 -30t-10 -30t-28 -12t-28 12z" />
    <glyph glyph-name="eth" unicode="&#xf0;" horiz-adv-x="319" 
d="M272 672q-18 0 -33 -7.5t-41 -24.5q95 -156 95 -390q0 -121 -36 -187.5t-101 -66.5t-100.5 66t-35.5 187q0 118 34 183.5t94 65.5q16 0 30.5 -6t22.5 -17q-19 76 -45 137q-24 -13 -47 -13q-34 0 -72 30q11 -4 24 -4q18 0 35.5 7.5t39.5 22.5q-38 73 -96 144
q76 -46 131 -120q32 18 56 18q33 0 68 -29q-11 4 -23 4zM200 119q16 45 16 129q0 92 -13.5 135t-46.5 43q-28 0 -42.5 -46t-14.5 -132q0 -85 14.5 -129.5t42.5 -44.5t44 45z" />
    <glyph glyph-name="ntilde" unicode="&#xf1;" horiz-adv-x="341" 
d="M299.5 31q4.5 -19 15.5 -31l-19 -1q-40 0 -60.5 14.5t-20.5 48.5v320q0 25 -12 37.5t-30 12.5q-27 0 -45 -28v-335q0 -28 7 -44.5t23 -24.5q-31 -3 -49 5t-21 8t-21 -8t-49 -5q16 8 23 24.5t7 44.5v362q0 33 -5.5 46.5t-20.5 22.5q41 2 66 -8.5t34 -36.5q13 22 33 35
t47 13q38 0 65.5 -27.5t27.5 -82.5v-311q0 -32 4.5 -51zM58 540q7 8 17 23q13 20 25 30t33 10t44 -21q6 -5 12.5 -9t11.5 -4q7 0 11.5 4t4.5 10q0 11 -12 18q5 1 14 1q18 0 27 -6q11 7 29 7q7 0 21 -2q-11 -4 -18 -11.5t-12 -15t-7 -9.5q-13 -20 -24.5 -29.5t-32.5 -9.5
q-13 0 -22 5t-21 15q-17 13 -25 13q-7 0 -11.5 -4t-4.5 -10q0 -11 12 -17q-5 -1 -15 -1q-18 0 -25 6q-13 -8 -30 -8q-9 0 -20 3q11 4 18 12z" />
    <glyph glyph-name="ograve" unicode="&#xf2;" horiz-adv-x="312" 
d="M55.5 62q-35.5 66 -35.5 187q0 122 35.5 188.5t100.5 66.5t101 -67t36 -188t-36 -187t-101 -66t-100.5 66zM198.5 118.5q14.5 44.5 14.5 129.5q0 86 -14.5 132t-42.5 46t-42.5 -46t-14.5 -132q0 -85 14.5 -129.5t42.5 -44.5t42.5 44.5zM140 542l-36 57q-14 23 -24 35.5
t-22 20.5q8 2 22 2q11 0 29 -4q10 3 19 3q8 0 13 -1q-2 -6 -2 -10q0 -7 8 -31l23 -62q3 -9 6.5 -15t9.5 -10q-3 -1 -11 -1q-7 0 -15 2q-7 -4 -16 -2q0 9 -4 16z" />
    <glyph glyph-name="oacute" unicode="&#xf3;" horiz-adv-x="312" 
d="M55.5 62q-35.5 66 -35.5 187q0 122 35.5 188.5t100.5 66.5t101 -67t36 -188t-36 -187t-101 -66t-100.5 66zM198.5 118.5q14.5 44.5 14.5 129.5q0 86 -14.5 132t-42.5 46t-42.5 -46t-14.5 -132q0 -85 14.5 -129.5t42.5 -44.5t42.5 44.5zM137.5 537q3.5 6 6.5 15l23 62
q8 24 8 31q0 4 -2 10q5 1 13 1q9 0 19 -3q18 4 29 4q14 0 22 -2q-12 -8 -22 -20.5t-24 -35.5l-36 -57q-4 -7 -4 -16h-4q-6 0 -12 2q-8 -2 -15 -2q-8 0 -11 1q6 4 9.5 10z" />
    <glyph glyph-name="ocircumflex" unicode="&#xf4;" horiz-adv-x="312" 
d="M55.5 62q-35.5 66 -35.5 187q0 122 35.5 188.5t100.5 66.5t101 -67t36 -188t-36 -187t-101 -66t-100.5 66zM198.5 118.5q14.5 44.5 14.5 129.5q0 86 -14.5 132t-42.5 46t-42.5 -46t-14.5 -132q0 -85 14.5 -129.5t42.5 -44.5t42.5 44.5zM71 562l85 98l86 -98
q14 -19 39 -31q-16 -2 -21 -2q-19 0 -31 6q-11 -6 -34 -4l2 8q0 7 -7 15l-34 39l-33 -39q-6 -7 -7 -12t1 -11h-9q-17 0 -24 4q-14 -6 -31 -6q-7 0 -21 2q22 11 39 31z" />
    <glyph glyph-name="otilde" unicode="&#xf5;" horiz-adv-x="312" 
d="M55.5 62q-35.5 66 -35.5 187q0 122 35.5 188.5t100.5 66.5t101 -67t36 -188t-36 -187t-101 -66t-100.5 66zM198.5 118.5q14.5 44.5 14.5 129.5q0 86 -14.5 132t-42.5 46t-42.5 -46t-14.5 -132q0 -85 14.5 -129.5t42.5 -44.5t42.5 44.5zM49 546q7 8 17 23q13 20 25 30
t33 10t44 -21q6 -5 12.5 -9t11.5 -4q7 0 11.5 4t4.5 10q0 11 -12 18q5 1 14 1q18 0 27 -6q11 7 29 7q7 0 21 -2q-11 -4 -18 -11.5t-12 -15t-7 -9.5q-13 -20 -24.5 -29.5t-32.5 -9.5q-13 0 -22 5t-21 15q-17 13 -25 13q-7 0 -11.5 -4t-4.5 -10q0 -11 12 -17q-5 -1 -15 -1
q-18 0 -25 6q-13 -8 -30 -8q-9 0 -20 3q11 4 18 12z" />
    <glyph glyph-name="odieresis" unicode="&#xf6;" horiz-adv-x="312" 
d="M55.5 62q-35.5 66 -35.5 187q0 122 35.5 188.5t100.5 66.5t101 -67t36 -188t-36 -187t-101 -66t-100.5 66zM198.5 118.5q14.5 44.5 14.5 129.5q0 86 -14.5 132t-42.5 46t-42.5 -46t-14.5 -132q0 -85 14.5 -129.5t42.5 -44.5t42.5 44.5zM68 554.5q-10 11.5 -10 29.5
q0 19 10 30.5t28 11.5t28.5 -11.5t10.5 -30.5q0 -18 -10.5 -29.5t-28.5 -11.5t-28 11.5zM186.5 554.5q-10.5 11.5 -10.5 29.5q0 19 10.5 30.5t28.5 11.5t28 -11.5t10 -30.5q0 -18 -10 -29.5t-28 -11.5t-28.5 11.5z" />
    <glyph glyph-name="divide" unicode="&#xf7;" horiz-adv-x="485" 
d="M205 429q-13 14 -13 35q0 20 13 34t34 14q20 0 33 -14t13 -34q0 -21 -13 -35t-33 -14q-21 0 -34 14zM41 260q0 15 5 29t5 18t-5 16t-5 30q0 9 1 14q17 -26 52 -26h288q35 0 52 26q1 -6 1 -15q0 -17 -4.5 -29.5t-4.5 -15.5t4.5 -15t4.5 -29q0 -9 -1 -15q-17 26 -52 26
h-288q-35 0 -52 -26q-1 4 -1 12zM205 115q-13 14 -13 35q0 20 13 34t34 14q20 0 33 -14t13 -34q0 -21 -13 -35t-33 -14q-21 0 -34 14z" />
    <glyph glyph-name="oslash" unicode="&#xf8;" horiz-adv-x="312" 
d="M293 249q0 -121 -36 -187t-101 -66q-34 0 -62 20l-4 -11q-3 -12 -3 -20q0 -10 6 -19q-14 3 -21 8.5t-10 7.5q-2 1 -12.5 1.5t-22.5 6.5q18 3 28 27l10 29q-45 67 -45 203q0 122 35.5 188.5t100.5 66.5q34 0 62 -20q3 11 3 19q0 10 -6 20q13 -3 20.5 -9.5t10.5 -7.5
q2 -1 7 -1h4q11 0 24 -7q-19 -3 -29 -27l-6 -16q47 -65 47 -206zM105 159l84 243q-12 24 -33 24q-28 0 -42.5 -46t-14.5 -132q0 -53 6 -89zM198.5 118.5q14.5 44.5 14.5 129.5q0 55 -6 94l-85 -244q14 -24 34 -24q28 0 42.5 44.5z" />
    <glyph glyph-name="ugrave" unicode="&#xf9;" horiz-adv-x="341" 
d="M298.5 22.5q5.5 -13.5 20.5 -22.5q-41 -2 -66 9t-34 37q-29 -49 -80 -49q-38 0 -65.5 27.5t-27.5 82.5v311q0 32 -4.5 51t-15.5 31l19 1q40 0 60.5 -14.5t20.5 -48.5v-320q0 -25 12 -37.5t30 -12.5q27 0 45 28v335q0 28 -7 44.5t-23 24.5q31 3 49 -5t21 -8t21 8t49 5
q-16 -8 -23 -24.5t-7 -44.5v-362q0 -33 5.5 -46.5zM146 535l-36 57q-14 23 -24 35.5t-22 20.5q8 2 22 2q11 0 29 -4q10 3 19 3q8 0 13 -1q-2 -6 -2 -10q0 -7 8 -31l23 -62q3 -9 6.5 -15t9.5 -10q-3 -1 -11 -1q-7 0 -15 2q-7 -4 -16 -2q0 9 -4 16z" />
    <glyph glyph-name="uacute" unicode="&#xfa;" horiz-adv-x="341" 
d="M298.5 22.5q5.5 -13.5 20.5 -22.5q-41 -2 -66 9t-34 37q-29 -49 -80 -49q-38 0 -65.5 27.5t-27.5 82.5v311q0 32 -4.5 51t-15.5 31l19 1q40 0 60.5 -14.5t20.5 -48.5v-320q0 -25 12 -37.5t30 -12.5q27 0 45 28v335q0 28 -7 44.5t-23 24.5q31 3 49 -5t21 -8t21 8t49 5
q-16 -8 -23 -24.5t-7 -44.5v-362q0 -33 5.5 -46.5zM143.5 530q3.5 6 6.5 15l23 62q8 24 8 31q0 4 -2 10q5 1 13 1q9 0 19 -3q18 4 29 4q14 0 22 -2q-12 -8 -22 -20.5t-24 -35.5l-36 -57q-4 -7 -4 -16h-4q-6 0 -12 2q-8 -2 -15 -2q-8 0 -11 1q6 4 9.5 10z" />
    <glyph glyph-name="ucircumflex" unicode="&#xfb;" horiz-adv-x="341" 
d="M298.5 22.5q5.5 -13.5 20.5 -22.5q-41 -2 -66 9t-34 37q-29 -49 -80 -49q-38 0 -65.5 27.5t-27.5 82.5v311q0 32 -4.5 51t-15.5 31l19 1q40 0 60.5 -14.5t20.5 -48.5v-320q0 -25 12 -37.5t30 -12.5q27 0 45 28v335q0 28 -7 44.5t-23 24.5q31 3 49 -5t21 -8t21 8t49 5
q-16 -8 -23 -24.5t-7 -44.5v-362q0 -33 5.5 -46.5zM77 555l85 98l86 -98q14 -19 39 -31q-16 -2 -21 -2q-19 0 -31 6q-11 -6 -34 -4l2 8q0 7 -7 15l-34 39l-33 -39q-6 -7 -7 -12t1 -11h-9q-17 0 -24 4q-14 -6 -31 -6q-7 0 -21 2q22 11 39 31z" />
    <glyph glyph-name="udieresis" unicode="&#xfc;" horiz-adv-x="341" 
d="M298.5 22.5q5.5 -13.5 20.5 -22.5q-41 -2 -66 9t-34 37q-29 -49 -80 -49q-38 0 -65.5 27.5t-27.5 82.5v311q0 32 -4.5 51t-15.5 31l19 1q40 0 60.5 -14.5t20.5 -48.5v-320q0 -25 12 -37.5t30 -12.5q27 0 45 28v335q0 28 -7 44.5t-23 24.5q31 3 49 -5t21 -8t21 8t49 5
q-16 -8 -23 -24.5t-7 -44.5v-362q0 -33 5.5 -46.5zM74 547.5q-10 11.5 -10 29.5q0 19 10 30.5t28 11.5t28.5 -11.5t10.5 -30.5q0 -18 -10.5 -29.5t-28.5 -11.5t-28 11.5zM192.5 547.5q-10.5 11.5 -10.5 29.5q0 19 10.5 30.5t28.5 11.5t28 -11.5t10 -30.5q0 -18 -10 -29.5
t-28 -11.5t-28.5 11.5z" />
    <glyph glyph-name="yacute" unicode="&#xfd;" horiz-adv-x="335" 
d="M271 495q18 8 48 5q-30 -16 -30 -69v-463q0 -69 -36 -115.5t-119 -46.5q-33 0 -52 -16q-1 4 -1 12q0 15 6 27q-15 12 -24 32.5t-9 47.5q0 17 2 26q9 -28 28.5 -42t45.5 -14q39 0 59.5 19.5t20.5 65.5v69q-27 -36 -72 -36q-39 0 -65.5 26.5t-26.5 78.5v316q0 32 -4.5 51
t-15.5 31l17 1q39 0 61 -17t22 -59v-304q0 -25 10.5 -37t27.5 -12q25 0 46 27v332q0 53 -30 69q30 3 48.5 -5t21.5 -8t21 8zM142.5 530q3.5 6 6.5 15l23 62q8 24 8 31q0 4 -2 10q5 1 13 1q9 0 19 -3q18 4 29 4q14 0 22 -2q-12 -8 -22 -20.5t-24 -35.5l-36 -57q-4 -7 -4 -16
h-4q-6 0 -12 2q-8 -2 -15 -2q-8 0 -11 1q6 4 9.5 10z" />
    <glyph glyph-name="thorn" unicode="&#xfe;" horiz-adv-x="335" 
d="M285 438.5q31 -65.5 31 -188.5t-31 -188.5t-88 -65.5q-32 0 -56 22v-149q0 -28 7 -44.5t23 -24.5q-31 -3 -49 5t-21 8t-21 -8t-48 -5q15 8 22 24.5t7 44.5v762q0 28 -7 44.5t-22 24.5q30 3 48 -5t21 -8t21 8t49 5q-16 -8 -23 -24.5t-7 -44.5v-152q23 25 56 25
q57 0 88 -65.5zM224 116.5q12 47.5 12 133.5t-12 133.5t-42 47.5q-23 0 -41 -24v-312q18 -26 41 -26q30 0 42 47.5z" />
    <glyph glyph-name="ydieresis" unicode="&#xff;" horiz-adv-x="335" 
d="M271 495q18 8 48 5q-30 -16 -30 -69v-463q0 -69 -36 -115.5t-119 -46.5q-33 0 -52 -16q-1 4 -1 12q0 15 6 27q-15 12 -24 32.5t-9 47.5q0 17 2 26q9 -28 28.5 -42t45.5 -14q39 0 59.5 19.5t20.5 65.5v69q-27 -36 -72 -36q-39 0 -65.5 26.5t-26.5 78.5v316q0 32 -4.5 51
t-15.5 31l17 1q39 0 61 -17t22 -59v-304q0 -25 10.5 -37t27.5 -12q25 0 46 27v332q0 53 -30 69q30 3 48.5 -5t21.5 -8t21 8zM73 547.5q-10 11.5 -10 29.5q0 19 10 30.5t28 11.5t28.5 -11.5t10.5 -30.5q0 -18 -10.5 -29.5t-28.5 -11.5t-28 11.5zM191.5 547.5
q-10.5 11.5 -10.5 29.5q0 19 10.5 30.5t28.5 11.5t28 -11.5t10 -30.5q0 -18 -10 -29.5t-28 -11.5t-28.5 11.5z" />
    <glyph glyph-name="Amacron" unicode="&#x100;" horiz-adv-x="425" 
d="M402.5 28q10.5 -15 30.5 -28q-20 -2 -33.5 0.5t-26.5 7.5t-18 5t-17.5 -5t-23.5 -7.5t-27 -0.5q20 14 20 43q0 6 -2 20l-25 142h-136l-25 -142q-2 -12 -2 -18q0 -31 26 -45q-18 -2 -30.5 0.5t-25 7.5t-17.5 5t-18 -5t-26.5 -7.5t-33.5 -0.5q20 12 30.5 27.5t15.5 41.5
l108 561q3 18 3 30q0 25 -17 41q21 2 35.5 -1t27.5 -8t17 -5q5 0 18.5 5t27.5 8t35 1q-18 -15 -18 -42q0 -12 3 -29l109 -561q5 -26 15.5 -41zM157 279h110l-55 308zM104 749q4 11 4 14t-3.5 12t-3.5 21l1 10q7 -9 18 -13t29 -4h125q19 0 30 3.5t19 13.5q1 -17 -3 -28
t-4 -14t3.5 -12.5t3.5 -20.5l-1 -10q-12 18 -48 18h-125q-17 0 -28.5 -4t-19.5 -14q-1 17 3 28z" />
    <glyph glyph-name="amacron" unicode="&#x101;" horiz-adv-x="301" 
d="M265.5 25.5q6.5 -15.5 21.5 -25.5q-36 -2 -59.5 6t-35.5 28q-11 -18 -28 -28t-36 -10q-49 0 -80.5 48.5t-31.5 125.5t32.5 125.5t83.5 48.5q27 0 47 -20v36q0 42 -17.5 62t-45.5 20q-23 0 -43 -16.5t-29 -47.5q-1 58 27 92t75 34q44 0 78.5 -34.5t34.5 -109.5v-282
q0 -37 6.5 -52.5zM179 86v4v161q-14 21 -36 21q-24 0 -37 -28t-13 -74q0 -48 13 -76t37 -28q23 0 36 20zM63 554q0 9 3 16.5t3 9.5q0 3 -3 10t-3 16l1 9q7 -8 18.5 -11t29.5 -3h87q18 0 29.5 3t18.5 11l1 -9q0 -10 -3 -16.5t-3 -9.5q0 -2 3 -10t3 -17l-1 -9q-7 8 -18.5 11
t-29.5 3h-87q-18 0 -29.5 -3t-18.5 -11z" />
    <glyph glyph-name="Abreve" unicode="&#x102;" horiz-adv-x="425" 
d="M402.5 28q10.5 -15 30.5 -28q-20 -2 -33.5 0.5t-26.5 7.5t-18 5t-17.5 -5t-23.5 -7.5t-27 -0.5q20 14 20 43q0 6 -2 20l-25 142h-136l-25 -142q-2 -12 -2 -18q0 -31 26 -45q-18 -2 -30.5 0.5t-25 7.5t-17.5 5t-18 -5t-26.5 -7.5t-33.5 -0.5q20 12 30.5 27.5t15.5 41.5
l108 561q3 18 3 30q0 25 -17 41q21 2 35.5 -1t27.5 -8t17 -5q5 0 18.5 5t27.5 8t35 1q-18 -15 -18 -42q0 -12 3 -29l109 -561q5 -26 15.5 -41zM157 279h110l-55 308zM148 747.5q-26 22.5 -26 63.5q0 11 -2.5 18t-9.5 13q3 1 10 1q8 0 20 -5q13 7 34 7q11 0 17 -1
q-21 -13 -21 -35q0 -18 11.5 -28.5t30.5 -10.5t30.5 10.5t11.5 28.5q0 22 -21 35q6 1 17 1q22 0 35 -7q12 5 20 5q7 0 10 -1q-13 -10 -13 -31q0 -41 -26 -63.5t-64 -22.5t-64 22.5z" />
    <glyph glyph-name="abreve" unicode="&#x103;" horiz-adv-x="301" 
d="M265.5 25.5q6.5 -15.5 21.5 -25.5q-36 -2 -59.5 6t-35.5 28q-11 -18 -28 -28t-36 -10q-49 0 -80.5 48.5t-31.5 125.5t32.5 125.5t83.5 48.5q27 0 47 -20v36q0 42 -17.5 62t-45.5 20q-23 0 -43 -16.5t-29 -47.5q-1 58 27 92t75 34q44 0 78.5 -34.5t34.5 -109.5v-282
q0 -37 6.5 -52.5zM179 86v4v161q-14 21 -36 21q-24 0 -37 -28t-13 -74q0 -48 13 -76t37 -28q23 0 36 20zM92 552.5q-26 22.5 -26 63.5q0 11 -2.5 18t-9.5 13q3 1 10 1q8 0 20 -5q13 7 35 7q11 0 17 -1q-22 -12 -22 -35q0 -18 11.5 -28.5t30.5 -10.5t30.5 10.5t11.5 28.5
q0 22 -21 35q6 1 17 1q22 0 35 -7q12 5 20 5q7 0 10 -1q-13 -10 -13 -31q0 -41 -26 -63.5t-64 -22.5t-64 22.5z" />
    <glyph glyph-name="Aogonek" unicode="&#x104;" horiz-adv-x="425" 
d="M275 -74q0 -24 15 -38t36 -14q17 0 32 8.5t24 25.5q-5 -35 -27 -53.5t-51 -18.5q-31 0 -54 21.5t-23 58.5q0 35 23 60t50 37q7 13 7 30q0 6 -2 20l-25 142h-136l-25 -142q-2 -12 -2 -18q0 -31 26 -45q-18 -2 -30.5 0.5t-25 7.5t-17.5 5t-18 -5t-26.5 -7.5t-33.5 -0.5
q20 12 30.5 27.5t15.5 41.5l108 561q3 18 3 30q0 25 -17 41q21 2 35.5 -1t27.5 -8t17 -5q5 0 18.5 5t27.5 8t35 1q-18 -15 -18 -42q0 -12 3 -29l109 -561q5 -26 15.5 -41t30.5 -28q-20 -2 -33.5 0.5t-26.5 7.5t-18 5t-18 -5t-23 -7q-39 -37 -39 -75zM157 279h110l-55 308z
" />
    <glyph glyph-name="aogonek" unicode="&#x105;" horiz-adv-x="301" 
d="M144 -56q0 -24 15 -38t36 -14q17 0 32 8.5t24 25.5q-5 -35 -27 -53.5t-51 -18.5q-31 0 -54 21.5t-23 58.5q0 33 25 62q-46 4 -75.5 52t-29.5 122q0 77 32.5 125.5t83.5 48.5q27 0 47 -20v36q0 42 -17.5 62t-45.5 20q-23 0 -43 -16.5t-29 -47.5q-1 58 27 92t75 34
q44 0 78.5 -34.5t34.5 -109.5v-282q0 -37 6.5 -52.5t21.5 -25.5q-68 -3 -92 30q-51 -43 -51 -86zM106 94q13 -28 37 -28q23 0 36 20v4v161q-14 21 -36 21q-24 0 -37 -28t-13 -74q0 -48 13 -76zM192 34v-1v1z" />
    <glyph glyph-name="Cacute" unicode="&#x106;" horiz-adv-x="364" 
d="M84 82q-52 87 -52 266q0 357 194 357q19 0 47 -8q4 -1 13 -3t16 -2q16 0 30 10q0 -18 -6.5 -32.5t-6.5 -20.5t6 -30q4 -16 8 -35.5t4 -40.5q0 -31 -8 -63q-13 143 -97 143q-57 0 -85.5 -67.5t-28.5 -207.5q0 -137 31 -202.5t83 -65.5q93 0 111 189q7 -42 7 -84
q0 -89 -35 -139.5t-97 -50.5q-82 0 -134 87zM202.5 739q3.5 6 6.5 15l23 62q8 24 8 32q0 4 -2 10q5 1 12 1q11 0 20 -4q12 4 27 4t24 -2q-12 -8 -22 -20t-24 -35l-36 -58q-4 -7 -4 -15h-4q-6 0 -12 2q-6 -3 -16 -3q-7 0 -10 1q6 4 9.5 10z" />
    <glyph glyph-name="cacute" unicode="&#x107;" horiz-adv-x="272" 
d="M57.5 64q-37.5 68 -37.5 186q0 117 36.5 184.5t111.5 67.5q15 0 32.5 -3.5t23.5 -3.5q13 0 21 6q1 -12 -3.5 -25t-4.5 -17q0 -5 4 -21q8 -26 8 -52q0 -24 -6 -46q-5 43 -24 64.5t-45 21.5q-76 0 -76 -176q0 -89 21.5 -135.5t57.5 -46.5q32 0 50 33t24 81q5 -24 5 -55
q0 -59 -25.5 -95t-72.5 -36q-63 0 -100.5 68zM142.5 532q3.5 6 6.5 15l23 62q8 24 8 31q0 4 -2 10q5 1 13 1q9 0 19 -3q18 4 29 4q14 0 22 -2q-12 -8 -22 -20.5t-24 -35.5l-36 -57q-4 -7 -4 -16h-4q-6 0 -12 2q-8 -2 -15 -2q-8 0 -11 1q6 4 9.5 10z" />
    <glyph glyph-name="Ccircumflex" unicode="&#x108;" horiz-adv-x="364" 
d="M84 82q-52 87 -52 266q0 357 194 357q19 0 47 -8q4 -1 13 -3t16 -2q16 0 30 10q0 -18 -6.5 -32.5t-6.5 -20.5t6 -30q4 -16 8 -35.5t4 -40.5q0 -31 -8 -63q-13 143 -97 143q-57 0 -85.5 -67.5t-28.5 -207.5q0 -137 31 -202.5t83 -65.5q93 0 111 189q7 -42 7 -84
q0 -89 -35 -139.5t-97 -50.5q-82 0 -134 87zM133 758l86 99l85 -99q20 -22 39 -30q-14 -2 -21 -2q-18 0 -31 5q-10 -4 -23 -4q-7 0 -10 1q2 4 2 7q0 5 -8 16l-33 38l-34 -38q-10 -13 -6 -23q-3 -1 -10 -1q-13 0 -23 4q-13 -5 -31 -5q-7 0 -21 2q19 8 39 30z" />
    <glyph glyph-name="ccircumflex" unicode="&#x109;" horiz-adv-x="272" 
d="M57.5 64q-37.5 68 -37.5 186q0 117 36.5 184.5t111.5 67.5q15 0 32.5 -3.5t23.5 -3.5q13 0 21 6q1 -12 -3.5 -25t-4.5 -17q0 -5 4 -21q8 -26 8 -52q0 -24 -6 -46q-5 43 -24 64.5t-45 21.5q-76 0 -76 -176q0 -89 21.5 -135.5t57.5 -46.5q32 0 50 33t24 81q5 -24 5 -55
q0 -59 -25.5 -95t-72.5 -36q-63 0 -100.5 68zM76 557l85 98l86 -98q14 -19 39 -31q-16 -2 -21 -2q-19 0 -31 6q-11 -6 -34 -4l2 8q0 7 -7 15l-34 39l-33 -39q-6 -7 -7 -12t1 -11h-9q-17 0 -24 4q-14 -6 -31 -6q-7 0 -21 2q22 11 39 31z" />
    <glyph glyph-name="Cdotaccent" unicode="&#x10a;" horiz-adv-x="364" 
d="M84 82q-52 87 -52 266q0 357 194 357q19 0 47 -8q4 -1 13 -3t16 -2q16 0 30 10q0 -18 -6.5 -32.5t-6.5 -20.5t6 -30q4 -16 8 -35.5t4 -40.5q0 -31 -8 -63q-13 143 -97 143q-57 0 -85.5 -67.5t-28.5 -207.5q0 -137 31 -202.5t83 -65.5q93 0 111 189q7 -42 7 -84
q0 -89 -35 -139.5t-97 -50.5q-82 0 -134 87zM187 771.5q-12 13.5 -12 34.5t12 34.5t32 13.5q21 0 32.5 -13.5t11.5 -34.5t-12 -34.5t-32 -13.5t-32 13.5z" />
    <glyph glyph-name="cdotaccent" unicode="&#x10b;" horiz-adv-x="272" 
d="M57.5 64q-37.5 68 -37.5 186q0 117 36.5 184.5t111.5 67.5q15 0 32.5 -3.5t23.5 -3.5q13 0 21 6q1 -12 -3.5 -25t-4.5 -17q0 -5 4 -21q8 -26 8 -52q0 -24 -6 -46q-5 43 -24 64.5t-45 21.5q-76 0 -76 -176q0 -89 21.5 -135.5t57.5 -46.5q32 0 50 33t24 81q5 -24 5 -55
q0 -59 -25.5 -95t-72.5 -36q-63 0 -100.5 68zM131.5 575q-10.5 12 -10.5 32q0 19 11 31t29 12t29 -12t11 -31q0 -20 -10.5 -32t-29.5 -12t-29.5 12z" />
    <glyph glyph-name="Ccaron" unicode="&#x10c;" horiz-adv-x="364" 
d="M84 82q-52 87 -52 266q0 357 194 357q19 0 47 -8q4 -1 13 -3t16 -2q16 0 30 10q0 -18 -6.5 -32.5t-6.5 -20.5t6 -30q4 -16 8 -35.5t4 -40.5q0 -31 -8 -63q-13 143 -97 143q-57 0 -85.5 -67.5t-28.5 -207.5q0 -137 31 -202.5t83 -65.5q93 0 111 189q7 -42 7 -84
q0 -89 -35 -139.5t-97 -50.5q-82 0 -134 87zM133 824q-15 20 -39 30q8 2 24 2q18 0 28 -5q12 4 23 4q7 0 11 -1q-2 -4 -2 -7q0 -7 7 -15l34 -42l33 42q10 12 6 22q3 1 10 1q13 0 23 -4q10 5 29 5q15 0 23 -2q-21 -9 -39 -30l-85 -98z" />
    <glyph glyph-name="ccaron" unicode="&#x10d;" horiz-adv-x="272" 
d="M57.5 64q-37.5 68 -37.5 186q0 117 36.5 184.5t111.5 67.5q15 0 32.5 -3.5t23.5 -3.5q13 0 21 6q1 -12 -3.5 -25t-4.5 -17q0 -5 4 -21q8 -26 8 -52q0 -24 -6 -46q-5 43 -24 64.5t-45 21.5q-76 0 -76 -176q0 -89 21.5 -135.5t57.5 -46.5q32 0 50 33t24 81q5 -24 5 -55
q0 -59 -25.5 -95t-72.5 -36q-63 0 -100.5 68zM75 624q-17 21 -39 30q16 2 22 2q18 0 31 -5q10 4 23 4q7 0 10 -1q-2 -4 -2 -7q0 -5 8 -15l33 -38l32 38q10 12 6 22q3 1 10 1q13 0 23 -4q15 5 32 5q7 0 21 -2q-19 -8 -39 -30l-85 -99z" />
    <glyph glyph-name="Dcaron" unicode="&#x10e;" horiz-adv-x="419" 
d="M66 74v552q0 52 -39 74q20 2 33.5 -0.5t27 -7.5t19.5 -5t26.5 7t47.5 7q95 0 150.5 -86t55.5 -265q0 -184 -55 -267t-151 -83q-27 0 -47.5 6.5t-26.5 6.5t-19.5 -5t-27 -7.5t-33.5 -0.5q39 22 39 74zM268 138.5q33 62.5 33 211.5q0 145 -33.5 209.5t-86.5 64.5
q-19 0 -29 -6v-536q12 -6 29 -6q54 0 87 62.5zM106 820q-15 20 -39 30q8 2 24 2q18 0 28 -5q12 4 23 4q7 0 11 -1q-2 -4 -2 -7q0 -7 7 -15l34 -42l33 42q10 12 6 22q3 1 10 1q13 0 23 -4q10 5 29 5q15 0 23 -2q-21 -9 -39 -30l-85 -98z" />
    <glyph glyph-name="dcaron" unicode="&#x10f;" horiz-adv-x="358" 
d="M288.5 24.5q6.5 -14.5 22.5 -24.5q-38 -2 -61 5.5t-35 26.5q-27 -36 -67 -36q-33 0 -62 25t-47.5 81.5t-18.5 147.5q0 90 18.5 146.5t47.5 81.5t62 25q30 0 55 -22v150q0 53 -30 69q30 3 48.5 -5t21.5 -8t21 8t48 5q-30 -16 -30 -69v-557q0 -35 6.5 -49.5zM203 96v307
q-16 25 -40 25q-26 0 -45 -42t-19 -136q0 -95 19 -137t45 -42q24 0 40 25zM340 495q63 54 63 132q-4 -6 -13.5 -10t-17.5 -4q-19 0 -31.5 13.5t-12.5 34.5t13.5 35t34.5 14t35.5 -18.5t14.5 -49.5q0 -46 -22.5 -87t-60.5 -65z" />
    <glyph glyph-name="Dcroat" unicode="&#x110;" horiz-adv-x="419" 
d="M331.5 615q55.5 -86 55.5 -265q0 -184 -55 -267t-151 -83q-27 0 -47.5 6.5t-26.5 6.5t-19.5 -5t-27 -7.5t-33.5 -0.5q39 22 39 74v250h-3q-34 0 -48 -22q-1 5 -1 12q0 12 3.5 21.5t4.5 14.5q-1 5 -4.5 15t-3.5 22q0 8 1 13q12 -23 48 -23h3v249q0 52 -39 74
q20 2 33.5 -0.5t27 -7.5t19.5 -5t26.5 7t47.5 7q95 0 150.5 -86zM268 138.5q33 62.5 33 211.5q0 145 -33.5 209.5t-86.5 64.5q-19 0 -29 -6v-241h33q18 0 29.5 5t19.5 17q2 -18 -3 -31.5t-5 -17.5t4 -14.5t4 -22.5q0 -8 -1 -12q-13 23 -48 23h-33v-242q12 -6 29 -6
q54 0 87 62.5z" />
    <glyph glyph-name="dcroat" unicode="&#x111;" horiz-adv-x="331" 
d="M336 602.5q-5 -13.5 -5 -17.5t4 -14.5t4 -22.5q0 -8 -1 -12q-13 23 -48 23h-8v-485q0 -35 6.5 -49.5t22.5 -24.5q-38 -2 -61 5.5t-35 26.5q-27 -36 -67 -36q-33 0 -62 25t-47.5 81.5t-18.5 147.5q0 90 18.5 146.5t47.5 81.5t62 25q30 0 55 -22v78h-35q-34 0 -48 -22
q-1 5 -1 12q0 12 3.5 21.5t4.5 14.5q-1 5 -4.5 15t-3.5 22q0 8 1 13q12 -23 48 -23h35v19q0 53 -30 69q30 3 48.5 -5t21.5 -8t21 8t48 5q-30 -16 -30 -69v-19h8q18 0 29.5 5t19.5 17q2 -18 -3 -31.5zM203 96v307q-16 25 -40 25q-26 0 -45 -42t-19 -136q0 -95 19 -137t45 -42
q24 0 40 25z" />
    <glyph glyph-name="Emacron" unicode="&#x112;" horiz-adv-x="355" 
d="M342 123q0 -20 -9 -49q-7 -19 -7 -32q0 -28 9 -42q-67 10 -147 10q-94 0 -161 -10q39 24 39 74v552q0 50 -39 74q48 -10 159 -10q89 0 138 10q-9 -12 -9 -34q0 -12 8 -38t8 -44q0 -15 -6 -36q-5 72 -84 72h-89v-214h46q28 0 47 17.5t27 41.5q1 -7 1 -19q0 -25 -8 -47.5
t-8 -27.5t8 -27t8 -47q0 -12 -1 -19q-8 23 -27 40.5t-47 17.5h-46v-255h100q45 0 64 24t21 55q5 -17 5 -37zM75 749q4 11 4 14t-3.5 12t-3.5 21l1 10q7 -9 18 -13t29 -4h125q19 0 30 3.5t19 13.5q1 -17 -3 -28t-4 -14t3.5 -12.5t3.5 -20.5l-1 -10q-12 18 -48 18h-125
q-17 0 -28.5 -4t-19.5 -14q-1 17 3 28z" />
    <glyph glyph-name="emacron" unicode="&#x113;" horiz-adv-x="295" 
d="M55.5 61.5q-35.5 64.5 -35.5 188.5q0 254 131 254q67 0 96.5 -66.5t29.5 -207.5h-177q0 -78 19 -122t58 -44q35 0 58 30.5t31 83.5q3 -19 3 -38q0 -59 -27.5 -101t-80.5 -42q-70 0 -105.5 64.5zM197 289q-2 139 -48 139q-44 0 -49 -139h97zM59 554q0 9 3 16.5t3 9.5
q0 3 -3 10t-3 16l1 9q7 -8 18.5 -11t29.5 -3h87q18 0 29.5 3t18.5 11l1 -9q0 -10 -3 -16.5t-3 -9.5q0 -2 3 -10t3 -17l-1 -9q-7 8 -18.5 11t-29.5 3h-87q-18 0 -29.5 -3t-18.5 -11z" />
    <glyph glyph-name="Ebreve" unicode="&#x114;" horiz-adv-x="355" 
d="M342 123q0 -20 -9 -49q-7 -19 -7 -32q0 -28 9 -42q-67 10 -147 10q-94 0 -161 -10q39 24 39 74v552q0 50 -39 74q48 -10 159 -10q89 0 138 10q-9 -12 -9 -34q0 -12 8 -38t8 -44q0 -15 -6 -36q-5 72 -84 72h-89v-214h46q28 0 47 17.5t27 41.5q1 -7 1 -19q0 -25 -8 -47.5
t-8 -27.5t8 -27t8 -47q0 -12 -1 -19q-8 23 -27 40.5t-47 17.5h-46v-255h100q45 0 64 24t21 55q5 -17 5 -37zM119 747.5q-26 22.5 -26 63.5q0 11 -2.5 18t-9.5 13q3 1 10 1q8 0 20 -5q13 7 34 7q11 0 17 -1q-21 -13 -21 -35q0 -18 11.5 -28.5t30.5 -10.5t30.5 10.5t11.5 28.5
q0 22 -21 35q6 1 17 1q22 0 35 -7q12 5 20 5q7 0 10 -1q-13 -10 -13 -31q0 -41 -26 -63.5t-64 -22.5t-64 22.5z" />
    <glyph glyph-name="ebreve" unicode="&#x115;" horiz-adv-x="295" 
d="M55.5 61.5q-35.5 64.5 -35.5 188.5q0 254 131 254q67 0 96.5 -66.5t29.5 -207.5h-177q0 -78 19 -122t58 -44q35 0 58 30.5t31 83.5q3 -19 3 -38q0 -59 -27.5 -101t-80.5 -42q-70 0 -105.5 64.5zM197 289q-2 139 -48 139q-44 0 -49 -139h97zM88 552.5q-26 22.5 -26 63.5
q0 11 -2.5 18t-9.5 13q3 1 10 1q8 0 20 -5q13 7 35 7q11 0 17 -1q-22 -12 -22 -35q0 -18 11.5 -28.5t30.5 -10.5t30.5 10.5t11.5 28.5q0 22 -21 35q6 1 17 1q22 0 35 -7q12 5 20 5q7 0 10 -1q-13 -10 -13 -31q0 -41 -26 -63.5t-64 -22.5t-64 22.5z" />
    <glyph glyph-name="Edotaccent" unicode="&#x116;" horiz-adv-x="355" 
d="M342 123q0 -20 -9 -49q-7 -19 -7 -32q0 -28 9 -42q-67 10 -147 10q-94 0 -161 -10q39 24 39 74v552q0 50 -39 74q48 -10 159 -10q89 0 138 10q-9 -12 -9 -34q0 -12 8 -38t8 -44q0 -15 -6 -36q-5 72 -84 72h-89v-214h46q28 0 47 17.5t27 41.5q1 -7 1 -19q0 -25 -8 -47.5
t-8 -27.5t8 -27t8 -47q0 -12 -1 -19q-8 23 -27 40.5t-47 17.5h-46v-255h100q45 0 64 24t21 55q5 -17 5 -37zM151 766.5q-12 13.5 -12 34.5t12 34.5t32 13.5q21 0 32.5 -13.5t11.5 -34.5t-12 -34.5t-32 -13.5t-32 13.5z" />
    <glyph glyph-name="edotaccent" unicode="&#x117;" horiz-adv-x="295" 
d="M55.5 61.5q-35.5 64.5 -35.5 188.5q0 254 131 254q67 0 96.5 -66.5t29.5 -207.5h-177q0 -78 19 -122t58 -44q35 0 58 30.5t31 83.5q3 -19 3 -38q0 -59 -27.5 -101t-80.5 -42q-70 0 -105.5 64.5zM197 289q-2 139 -48 139q-44 0 -49 -139h97zM122.5 576q-10.5 12 -10.5 32
q0 19 11 31t29 12t29 -12t11 -31q0 -20 -10.5 -32t-29.5 -12t-29.5 12z" />
    <glyph glyph-name="Eogonek" unicode="&#x118;" horiz-adv-x="355" 
d="M198 -79q0 -24 15 -38t36 -14q17 0 32 8.5t24 25.5q-5 -35 -27 -53.5t-51 -18.5q-31 0 -54 21.5t-23 58.5q0 36 23.5 61t51.5 37q-15 1 -37 1q-94 0 -161 -10q39 24 39 74v552q0 50 -39 74q48 -10 159 -10q89 0 138 10q-9 -12 -9 -34q0 -12 8 -38t8 -44q0 -15 -6 -36
q-5 72 -84 72h-89v-214h46q28 0 47 17.5t27 41.5q1 -7 1 -19q0 -25 -8 -47.5t-8 -27.5t8 -27t8 -47q0 -12 -1 -19q-8 23 -27 40.5t-47 17.5h-46v-255h100q45 0 64 24t21 55q5 -17 5 -37t-9 -49q-7 -19 -7 -32q0 -28 9 -42q-50 7 -84 8q-53 -42 -53 -87z" />
    <glyph glyph-name="eogonek" unicode="&#x119;" horiz-adv-x="295" 
d="M179 -109q15 -14 36 -14q17 0 32 8.5t24 25.5q-5 -35 -27 -53.5t-51 -18.5q-31 0 -54 21.5t-23 58.5q0 45 41 78q-68 1 -102.5 66t-34.5 187q0 254 131 254q67 0 96.5 -66.5t29.5 -207.5h-177q0 -78 19 -122t58 -44q35 0 58 30.5t31 83.5q3 -18 3 -38q0 -44 -15.5 -80
t-45.5 -52q-44 -38 -44 -79q0 -24 15 -38zM100 289h97q-2 139 -48 139q-44 0 -49 -139z" />
    <glyph glyph-name="Ecaron" unicode="&#x11a;" horiz-adv-x="355" 
d="M342 123q0 -20 -9 -49q-7 -19 -7 -32q0 -28 9 -42q-67 10 -147 10q-94 0 -161 -10q39 24 39 74v552q0 50 -39 74q48 -10 159 -10q89 0 138 10q-9 -12 -9 -34q0 -12 8 -38t8 -44q0 -15 -6 -36q-5 72 -84 72h-89v-214h46q28 0 47 17.5t27 41.5q1 -7 1 -19q0 -25 -8 -47.5
t-8 -27.5t8 -27t8 -47q0 -12 -1 -19q-8 23 -27 40.5t-47 17.5h-46v-255h100q45 0 64 24t21 55q5 -17 5 -37zM97 819q-15 20 -39 30q8 2 24 2q18 0 28 -5q12 4 23 4q7 0 11 -1q-2 -4 -2 -7q0 -7 7 -15l34 -42l33 42q10 12 6 22q3 1 10 1q13 0 23 -4q10 5 29 5q15 0 23 -2
q-21 -9 -39 -30l-85 -98z" />
    <glyph glyph-name="ecaron" unicode="&#x11b;" horiz-adv-x="295" 
d="M55.5 61.5q-35.5 64.5 -35.5 188.5q0 254 131 254q67 0 96.5 -66.5t29.5 -207.5h-177q0 -78 19 -122t58 -44q35 0 58 30.5t31 83.5q3 -19 3 -38q0 -59 -27.5 -101t-80.5 -42q-70 0 -105.5 64.5zM197 289q-2 139 -48 139q-44 0 -49 -139h97zM66 625q-17 21 -39 30
q16 2 22 2q18 0 31 -5q10 4 23 4q7 0 10 -1q-2 -4 -2 -7q0 -5 8 -15l33 -38l32 38q10 12 6 22q3 1 10 1q13 0 23 -4q15 5 32 5q7 0 21 -2q-19 -8 -39 -30l-85 -99z" />
    <glyph glyph-name="Gcircumflex" unicode="&#x11c;" horiz-adv-x="402" 
d="M360 53q4 -25 14 -48q-31 16 -52 16q-14 0 -28 -5.5t-16 -6.5q-32 -14 -59 -14q-93 0 -140 91t-47 262q0 172 51.5 264.5t147.5 92.5q25 0 51 -8q17 -5 27 -5q14 0 28 10q1 -16 -4.5 -31.5t-5.5 -21.5q0 -4 7.5 -32.5t7.5 -63.5q0 -37 -9 -72q-12 142 -97 142
q-54 0 -86 -68.5t-32 -206.5q0 -136 29 -202.5t77 -66.5q23 0 37.5 11t14.5 31v140q0 52 -39 74q20 2 33.5 -0.5t27 -7.5t18.5 -5t18.5 5t27 7.5t33.5 0.5q-39 -22 -39 -74v-148q0 -35 4 -60zM137 758l86 99l85 -99q20 -22 39 -30q-14 -2 -21 -2q-18 0 -31 5q-10 -4 -23 -4
q-7 0 -10 1q2 4 2 7q0 5 -8 16l-33 38l-34 -38q-10 -13 -6 -23q-3 -1 -10 -1q-13 0 -23 4q-13 -5 -31 -5q-7 0 -21 2q19 8 39 30z" />
    <glyph glyph-name="gcircumflex" unicode="&#x11d;" horiz-adv-x="327" 
d="M249 495q23 7 62 5q-16 -10 -22.5 -25t-6.5 -53v-445q0 -171 -160 -171q-28 0 -47 -16q-1 4 -1 12q0 15 6 27q-15 12 -24 32.5t-9 47.5q0 17 2 26q9 -28 28.5 -42t45.5 -14q43 0 61.5 22.5t18.5 75.5v45q-22 -25 -55 -25t-62 25t-47.5 81.5t-18.5 146.5q0 91 18.5 147.5
t47.5 81.5t62 25q41 0 67 -34q11 18 34 25zM203 101v299q-15 28 -40 28q-26 0 -45 -42t-19 -136q0 -93 19 -135t45 -42q25 0 40 28zM90 558l85 98l86 -98q14 -19 39 -31q-16 -2 -21 -2q-19 0 -31 6q-11 -6 -34 -4l2 8q0 7 -7 15l-34 39l-33 -39q-6 -7 -7 -12t1 -11h-9
q-17 0 -24 4q-14 -6 -31 -6q-7 0 -21 2q22 11 39 31z" />
    <glyph glyph-name="Gbreve" unicode="&#x11e;" horiz-adv-x="402" 
d="M360 53q4 -25 14 -48q-31 16 -52 16q-14 0 -28 -5.5t-16 -6.5q-32 -14 -59 -14q-93 0 -140 91t-47 262q0 172 51.5 264.5t147.5 92.5q25 0 51 -8q17 -5 27 -5q14 0 28 10q1 -16 -4.5 -31.5t-5.5 -21.5q0 -4 7.5 -32.5t7.5 -63.5q0 -37 -9 -72q-12 142 -97 142
q-54 0 -86 -68.5t-32 -206.5q0 -136 29 -202.5t77 -66.5q23 0 37.5 11t14.5 31v140q0 52 -39 74q20 2 33.5 -0.5t27 -7.5t18.5 -5t18.5 5t27 7.5t33.5 0.5q-39 -22 -39 -74v-148q0 -35 4 -60zM159 752.5q-26 22.5 -26 63.5q0 11 -2.5 18t-9.5 13q3 1 10 1q8 0 20 -5
q13 7 34 7q11 0 17 -1q-21 -13 -21 -35q0 -18 11.5 -28.5t30.5 -10.5t30.5 10.5t11.5 28.5q0 22 -21 35q6 1 17 1q22 0 35 -7q12 5 20 5q7 0 10 -1q-13 -10 -13 -31q0 -41 -26 -63.5t-64 -22.5t-64 22.5z" />
    <glyph glyph-name="gbreve" unicode="&#x11f;" horiz-adv-x="327" 
d="M249 495q23 7 62 5q-16 -10 -22.5 -25t-6.5 -53v-445q0 -171 -160 -171q-28 0 -47 -16q-1 4 -1 12q0 15 6 27q-15 12 -24 32.5t-9 47.5q0 17 2 26q9 -28 28.5 -42t45.5 -14q43 0 61.5 22.5t18.5 75.5v45q-22 -25 -55 -25t-62 25t-47.5 81.5t-18.5 146.5q0 91 18.5 147.5
t47.5 81.5t62 25q41 0 67 -34q11 18 34 25zM203 101v299q-15 28 -40 28q-26 0 -45 -42t-19 -136q0 -93 19 -135t45 -42q25 0 40 28zM111 552.5q-26 22.5 -26 63.5q0 11 -2.5 18t-9.5 13q3 1 10 1q8 0 20 -5q13 7 35 7q11 0 17 -1q-22 -12 -22 -35q0 -18 11.5 -28.5
t30.5 -10.5t30.5 10.5t11.5 28.5q0 22 -21 35q6 1 17 1q22 0 35 -7q12 5 20 5q7 0 10 -1q-13 -10 -13 -31q0 -41 -26 -63.5t-64 -22.5t-64 22.5z" />
    <glyph glyph-name="Gdotaccent" unicode="&#x120;" horiz-adv-x="402" 
d="M360 53q4 -25 14 -48q-31 16 -52 16q-14 0 -28 -5.5t-16 -6.5q-32 -14 -59 -14q-93 0 -140 91t-47 262q0 172 51.5 264.5t147.5 92.5q25 0 51 -8q17 -5 27 -5q14 0 28 10q1 -16 -4.5 -31.5t-5.5 -21.5q0 -4 7.5 -32.5t7.5 -63.5q0 -37 -9 -72q-12 142 -97 142
q-54 0 -86 -68.5t-32 -206.5q0 -136 29 -202.5t77 -66.5q23 0 37.5 11t14.5 31v140q0 52 -39 74q20 2 33.5 -0.5t27 -7.5t18.5 -5t18.5 5t27 7.5t33.5 0.5q-39 -22 -39 -74v-148q0 -35 4 -60zM191 771.5q-12 13.5 -12 34.5t12 34.5t32 13.5q21 0 32.5 -13.5t11.5 -34.5
t-12 -34.5t-32 -13.5t-32 13.5z" />
    <glyph glyph-name="gdotaccent" unicode="&#x121;" horiz-adv-x="327" 
d="M249 495q23 7 62 5q-16 -10 -22.5 -25t-6.5 -53v-445q0 -171 -160 -171q-28 0 -47 -16q-1 4 -1 12q0 15 6 27q-15 12 -24 32.5t-9 47.5q0 17 2 26q9 -28 28.5 -42t45.5 -14q43 0 61.5 22.5t18.5 75.5v45q-22 -25 -55 -25t-62 25t-47.5 81.5t-18.5 146.5q0 91 18.5 147.5
t47.5 81.5t62 25q41 0 67 -34q11 18 34 25zM203 101v299q-15 28 -40 28q-26 0 -45 -42t-19 -136q0 -93 19 -135t45 -42q25 0 40 28zM145.5 576q-10.5 12 -10.5 32q0 19 11 31t29 12t29 -12t11 -31q0 -20 -10.5 -32t-29.5 -12t-29.5 12z" />
    <glyph glyph-name="Gcommaaccent" unicode="&#x122;" horiz-adv-x="402" 
d="M360 53q4 -25 14 -48q-31 16 -52 16q-14 0 -28 -5.5t-16 -6.5q-32 -14 -59 -14q-93 0 -140 91t-47 262q0 172 51.5 264.5t147.5 92.5q25 0 51 -8q17 -5 27 -5q14 0 28 10q1 -16 -4.5 -31.5t-5.5 -21.5q0 -4 7.5 -32.5t7.5 -63.5q0 -37 -9 -72q-12 142 -97 142
q-54 0 -86 -68.5t-32 -206.5q0 -136 29 -202.5t77 -66.5q23 0 37.5 11t14.5 31v140q0 52 -39 74q20 2 33.5 -0.5t27 -7.5t18.5 -5t18.5 5t27 7.5t33.5 0.5q-39 -22 -39 -74v-148q0 -35 4 -60zM204 -257q63 54 63 132q-4 -6 -13.5 -10t-17.5 -4q-19 0 -31.5 13.5t-12.5 34.5
t13.5 35t34.5 14t35.5 -18.5t14.5 -49.5q0 -46 -22.5 -87t-60.5 -65z" />
    <glyph glyph-name="gcommaaccent" unicode="&#x123;" horiz-adv-x="327" 
d="M249 495q23 7 62 5q-16 -10 -22.5 -25t-6.5 -53v-445q0 -171 -160 -171q-28 0 -47 -16q-1 4 -1 12q0 15 6 27q-15 12 -24 32.5t-9 47.5q0 17 2 26q9 -28 28.5 -42t45.5 -14q43 0 61.5 22.5t18.5 75.5v45q-22 -25 -55 -25t-62 25t-47.5 81.5t-18.5 146.5q0 91 18.5 147.5
t47.5 81.5t62 25q41 0 67 -34q11 18 34 25zM203 101v299q-15 28 -40 28q-26 0 -45 -42t-19 -136q0 -93 19 -135t45 -42q25 0 40 28zM213 767q-63 -54 -63 -132q4 6 13.5 10t17.5 4q19 0 31.5 -13.5t12.5 -34.5t-13.5 -35t-34.5 -14t-35.5 18.5t-14.5 49.5q0 46 22.5 87
t60.5 65z" />
    <glyph glyph-name="Hcircumflex" unicode="&#x124;" horiz-adv-x="449" 
d="M423 0q-30 -3 -53.5 5t-28.5 8t-28.5 -8t-53.5 -5q39 24 39 74v260h-146v-260q0 -54 39 -74q-32 -3 -54.5 5t-27.5 8t-28.5 -8t-53.5 -5q39 24 39 74v552q0 50 -39 74q30 3 53.5 -5t28.5 -8t27.5 8t54.5 5q-39 -19 -39 -74v-212h146v212q0 50 -39 74q30 3 53.5 -5
t28.5 -8t28.5 8t53.5 5q-39 -21 -39 -74v-552q0 -53 39 -74zM139 753l86 99l85 -99q20 -22 39 -30q-14 -2 -21 -2q-18 0 -31 5q-10 -4 -23 -4q-7 0 -10 1q2 4 2 7q0 5 -8 16l-33 38l-34 -38q-10 -13 -6 -23q-3 -1 -10 -1q-13 0 -23 4q-13 -5 -31 -5q-7 0 -21 2q19 8 39 30z
" />
    <glyph glyph-name="hcircumflex" unicode="&#x125;" horiz-adv-x="342" 
d="M300.5 31q4.5 -19 15.5 -31l-19 -1q-40 0 -60 14.5t-20 48.5v320q0 25 -12 37.5t-31 12.5q-28 0 -46 -31v-332q0 -53 30 -69q-31 -3 -49 5t-21 8t-21 -8t-49 -5q30 18 30 69v562q0 51 -30 69q31 3 49 -5t21 -8t21 8t49 5q-30 -16 -30 -69v-169q29 41 75 41
q38 0 65.5 -27.5t27.5 -82.5v-311q0 -32 4.5 -51zM0 753l86 99l85 -99q20 -22 39 -30q-14 -2 -21 -2q-18 0 -31 5q-10 -4 -23 -4q-7 0 -10 1q2 4 2 7q0 5 -8 16l-33 38l-34 -38q-10 -13 -6 -23q-3 -1 -10 -1q-13 0 -23 4q-13 -5 -31 -5q-7 0 -21 2q19 8 39 30z" />
    <glyph glyph-name="Hbar" unicode="&#x126;" horiz-adv-x="449" 
d="M423 0q-30 -3 -53.5 5t-28.5 8t-28.5 -8t-53.5 -5q39 24 39 74v260h-146v-260q0 -54 39 -74q-32 -3 -54.5 5t-27.5 8t-28.5 -8t-53.5 -5q39 24 39 74v552q0 50 -39 74q30 3 53.5 -5t28.5 -8t27.5 8t54.5 5q-39 -19 -39 -74v-118h146v118q0 50 -39 74q30 3 53.5 -5
t28.5 -8t28.5 8t53.5 5q-39 -21 -39 -74v-552q0 -53 39 -74zM152 414h146v42h-146v-42z" />
    <glyph glyph-name="hbar" unicode="&#x127;" horiz-adv-x="342" 
d="M300.5 31q4.5 -19 15.5 -31l-19 -1q-40 0 -60 14.5t-20 48.5v320q0 25 -12 37.5t-31 12.5q-28 0 -46 -31v-332q0 -53 30 -69q-31 -3 -49 5t-21 8t-21 -8t-49 -5q30 18 30 69v486h-21q-34 0 -48 -22q-1 5 -1 12q0 12 3.5 21.5t4.5 14.5q-1 5 -4.5 15t-3.5 22q0 8 1 13
q12 -23 48 -23h21v23q0 51 -30 69q31 3 49 -5t21 -8t21 8t49 5q-30 -16 -30 -69v-23h21q18 0 29.5 5t19.5 17q2 -18 -3 -31.5t-5 -17.5t4 -14.5t4 -22.5q0 -8 -1 -12q-13 23 -48 23h-21v-93q29 41 75 41q38 0 65.5 -27.5t27.5 -82.5v-311q0 -32 4.5 -51z" />
    <glyph glyph-name="Itilde" unicode="&#x128;" horiz-adv-x="227" 
d="M72 74v552q0 51 -40 74q30 3 53.5 -5t28.5 -8t27.5 8t54.5 5q-40 -22 -40 -74v-552q0 -52 40 -74q-32 -3 -54.5 5t-27.5 8t-28.5 -8t-53.5 -5q40 23 40 74zM24.5 732.5q5.5 7.5 12.5 20.5q10 19 18.5 27.5t25.5 8.5q11 0 19.5 -5t20.5 -15q14 -14 23 -14q6 0 10 4.5
t4 10.5q0 11 -13 17q4 1 12 1q12 0 20 -5q12 6 25 6q5 0 15 -2q-9 -4 -15 -11.5t-13 -21.5q-10 -18 -18.5 -26.5t-24.5 -8.5q-11 0 -19.5 5t-20.5 15q-14 14 -23 14q-6 0 -10 -4.5t-4 -10.5q0 -11 13 -17q-4 -1 -12 -1q-12 0 -20 5q-12 -6 -25 -6q-5 0 -15 2q9 4 14.5 11.5z
" />
    <glyph glyph-name="itilde" unicode="&#x129;" horiz-adv-x="184" 
d="M52 69v320q0 29 -4.5 51.5t-12.5 32.5q23 3 41 -10q12 20 32.5 31t42.5 9q-19 -24 -19 -84v-350q0 -53 29 -69q-30 -3 -48 5t-21 8t-21 -8t-49 -5q30 16 30 69zM4.5 538.5q5.5 7.5 12.5 20.5q10 19 18.5 27.5t25.5 8.5q11 0 19.5 -5t20.5 -15q14 -14 23 -14q6 0 10 4.5
t4 10.5q0 11 -13 17q4 1 12 1q12 0 20 -5q12 6 25 6q5 0 15 -2q-9 -4 -15 -11.5t-13 -21.5q-10 -18 -18.5 -26.5t-24.5 -8.5q-11 0 -19.5 5t-20.5 15q-14 14 -23 14q-6 0 -10 -4.5t-4 -10.5q0 -11 13 -17q-4 -1 -12 -1q-12 0 -20 5q-12 -6 -25 -6q-5 0 -15 2q9 4 14.5 11.5z
" />
    <glyph glyph-name="Imacron" unicode="&#x12a;" horiz-adv-x="227" 
d="M72 74v552q0 51 -40 74q30 3 53.5 -5t28.5 -8t27.5 8t54.5 5q-40 -22 -40 -74v-552q0 -52 40 -74q-32 -3 -54.5 5t-27.5 8t-28.5 -8t-53.5 -5q40 23 40 74zM39 752q4 11 4 14t-3.5 12t-3.5 21l1 10q6 -10 17 -13.5t30 -3.5h59q19 0 30.5 3.5t18.5 12.5q2 -16 -2.5 -27.5
t-4.5 -14.5t4 -14t3 -28q-7 9 -18.5 12.5t-30.5 3.5h-59q-18 0 -29 -3.5t-19 -12.5q-1 17 3 28z" />
    <glyph glyph-name="imacron" unicode="&#x12b;" horiz-adv-x="184" 
d="M52 69v320q0 29 -4.5 51.5t-12.5 32.5q23 3 41 -10q12 20 32.5 31t42.5 9q-19 -24 -19 -84v-350q0 -53 29 -69q-30 -3 -48 5t-21 8t-21 -8t-49 -5q30 16 30 69zM19 558q4 11 4 14t-3.5 12t-3.5 21l1 10q6 -10 17 -13.5t30 -3.5h59q19 0 30.5 3.5t18.5 12.5
q2 -16 -2.5 -27.5t-4.5 -14.5t4 -14t3 -28q-7 9 -18.5 12.5t-30.5 3.5h-59q-18 0 -29 -3.5t-19 -12.5q-1 17 3 28z" />
    <glyph glyph-name="Ibreve" unicode="&#x12c;" horiz-adv-x="227" 
d="M72 74v552q0 51 -40 74q30 3 53.5 -5t28.5 -8t27.5 8t54.5 5q-40 -22 -40 -74v-552q0 -52 40 -74q-32 -3 -54.5 5t-27.5 8t-28.5 -8t-53.5 -5q40 23 40 74zM50 747.5q-26 22.5 -26 63.5q0 11 -2.5 18t-9.5 13q3 1 10 1q8 0 20 -5q13 7 34 7q11 0 17 -1q-21 -13 -21 -35
q0 -18 11.5 -28.5t30.5 -10.5t30.5 10.5t11.5 28.5q0 22 -21 35q6 1 17 1q22 0 35 -7q12 5 20 5q7 0 10 -1q-13 -10 -13 -31q0 -41 -26 -63.5t-64 -22.5t-64 22.5z" />
    <glyph glyph-name="ibreve" unicode="&#x12d;" horiz-adv-x="184" 
d="M52 69v320q0 29 -4.5 51.5t-12.5 32.5q23 3 41 -10q12 20 32.5 31t42.5 9q-19 -24 -19 -84v-350q0 -53 29 -69q-30 -3 -48 5t-21 8t-21 -8t-49 -5q30 16 30 69zM30 555.5q-26 22.5 -26 63.5q0 11 -2.5 18t-9.5 13q3 1 10 1q8 0 20 -5q13 7 35 7q11 0 17 -1
q-22 -12 -22 -35q0 -18 11.5 -28.5t30.5 -10.5t30.5 10.5t11.5 28.5q0 22 -21 35q6 1 17 1q22 0 35 -7q12 5 20 5q7 0 10 -1q-13 -10 -13 -31q0 -41 -26 -63.5t-64 -22.5t-64 22.5z" />
    <glyph glyph-name="Iogonek" unicode="&#x12e;" horiz-adv-x="227" 
d="M84 -73q0 -24 15 -38t36 -14q17 0 32 8.5t24 25.5q-5 -35 -27 -53.5t-51 -18.5q-31 0 -54 21.5t-23 58.5q0 32 19 55.5t45 37.5l-18 -6t-36 -5l-14 1q40 23 40 74v552q0 51 -40 74q30 3 53.5 -5t28.5 -8t27.5 8t54.5 5q-40 -22 -40 -74v-552q0 -52 40 -74q-5 -1 -15 -1
q-22 0 -50 10q-47 -39 -47 -82z" />
    <glyph glyph-name="iogonek" unicode="&#x12f;" horiz-adv-x="184" 
d="M64.5 579q-10.5 12 -10.5 32q0 19 11 31t29 12t29 -12t11 -31q0 -20 -10.5 -32t-29.5 -12t-29.5 12zM81 -113q15 -14 36 -14q17 0 32 8.5t24 25.5q-5 -35 -27 -53.5t-51 -18.5q-31 0 -54 21.5t-23 58.5q0 36 23 61t51 37q-3 0 -21 -8t-49 -5q30 16 30 69v320
q0 29 -4.5 51.5t-12.5 32.5q23 3 41 -10q12 20 32.5 31t42.5 9q-19 -24 -19 -84v-350q0 -53 29 -69q-27 -2 -50 6q-45 -40 -45 -81q0 -24 15 -38z" />
    <glyph glyph-name="Idotaccent" unicode="&#x130;" horiz-adv-x="227" 
d="M72 74v552q0 51 -40 74q30 3 53.5 -5t28.5 -8t27.5 8t54.5 5q-40 -22 -40 -74v-552q0 -52 40 -74q-32 -3 -54.5 5t-27.5 8t-28.5 -8t-53.5 -5q40 23 40 74zM82 766.5q-12 13.5 -12 34.5t12 34.5t32 13.5q21 0 32.5 -13.5t11.5 -34.5t-12 -34.5t-32 -13.5t-32 13.5z" />
    <glyph glyph-name="dotlessi" unicode="&#x131;" horiz-adv-x="184" 
d="M52 69v320q0 29 -4.5 51.5t-12.5 32.5q23 3 41 -10q12 20 32.5 31t42.5 9q-19 -24 -19 -84v-350q0 -53 29 -69q-30 -3 -48 5t-21 8t-21 -8t-49 -5q30 16 30 69z" />
    <glyph glyph-name="IJ" unicode="&#x132;" horiz-adv-x="452" 
d="M72 74v552q0 51 -40 74q30 3 53.5 -5t28.5 -8t27.5 8t54.5 5q-40 -22 -40 -74v-552q0 -52 40 -74q-32 -3 -54.5 5t-27.5 8t-28.5 -8t-53.5 -5q40 23 40 74zM268 -18q20 47 26.5 98.5t6.5 125.5v420q0 52 -39 74q30 3 53.5 -5t28.5 -8t28.5 8t53.5 5q-39 -22 -39 -74v-436
q0 -88 -17.5 -146t-56 -94.5t-104.5 -59.5q39 45 59 92z" />
    <glyph glyph-name="ij" unicode="&#x133;" horiz-adv-x="362" 
d="M58.5 589.5q-12.5 13.5 -12.5 35.5q0 21 12.5 35t33.5 14t33.5 -14t12.5 -35t-12.5 -35t-33.5 -14t-33.5 13.5zM53 69v320q0 28 -5 50.5t-13 33.5q23 3 41 -10q12 20 32.5 31t42.5 9q-9 -11 -14.5 -33.5t-5.5 -50.5v-350q0 -52 30 -69q-30 -3 -48 5t-21 8t-21 -8t-49 -5
q31 16 31 69zM240 590q-13 14 -13 35t13 35t34 14t33.5 -14t12.5 -35t-12.5 -35t-33.5 -14t-34 14zM220 -71.5q14 76.5 14 190.5v267q0 29 -4.5 51.5t-12.5 32.5q23 3 41 -10q11 20 31.5 31t42.5 9q-19 -24 -19 -84v-308q0 -94 -17 -154.5t-50 -97.5t-85 -63q45 59 59 135.5
z" />
    <glyph glyph-name="Jcircumflex" unicode="&#x134;" horiz-adv-x="225" 
d="M41 -18q20 47 26.5 98.5t6.5 125.5v420q0 52 -39 74q30 3 53.5 -5t28.5 -8t28.5 8t53.5 5q-39 -22 -39 -74v-436q0 -88 -17.5 -146t-56 -94.5t-104.5 -59.5q39 45 59 92zM190 776q18 -23 33 -30q-14 -2 -18 -2q-11 0 -24 5q-12 -4 -20 -4q-7 0 -10 1q1 2 1 6q0 6 -7 16
l-28 41l-27 -41q-5 -8 -6.5 -12.5t0.5 -9.5q-3 -1 -10 -1q-9 0 -19 4q-15 -5 -25 -5q-4 0 -18 2q15 7 33 30l72 99z" />
    <glyph glyph-name="jcircumflex" unicode="&#x135;" horiz-adv-x="178" 
d="M36 -71.5q14 76.5 14 190.5v267q0 29 -4.5 51.5t-12.5 32.5q23 3 41 -10q11 20 31.5 31t42.5 9q-19 -24 -19 -84v-308q0 -94 -17 -154.5t-50 -97.5t-85 -63q45 59 59 135.5zM10 553l72 99l73 -99q18 -23 33 -30q-14 -2 -18 -2q-11 0 -24 5q-12 -4 -20 -4q-7 0 -10 1
q1 2 1 6q0 6 -7 16l-28 41l-27 -41q-5 -8 -6.5 -12.5t0.5 -9.5q-3 -1 -10 -1q-9 0 -19 4q-15 -5 -25 -5q-4 0 -18 2q15 7 33 30z" />
    <glyph glyph-name="Kcommaaccent" unicode="&#x136;" horiz-adv-x="427" 
d="M458 0q-32 -2 -49.5 1t-30 7.5t-16.5 4.5q-5 0 -23.5 -7.5t-45.5 -5.5q19 12 19 35q0 13 -4 25l-87 272l-69 -141v-117q0 -54 39 -74q-32 -3 -54.5 5t-27.5 8t-28.5 -8t-53.5 -5q39 24 39 74v552q0 50 -39 74q30 3 53.5 -5t28.5 -8t27.5 8t54.5 5q-17 -8 -28 -27.5
t-11 -46.5v-290l140 298q10 22 10 38q0 20 -14 28q16 2 27 -0.5t23 -7.5t18 -5t19.5 4.5t30 7.5t43.5 1q-47 -20 -68 -68l-102 -216l111 -338q20 -62 68 -78zM201 -254q63 54 63 132q-4 -6 -13.5 -10t-17.5 -4q-19 0 -31.5 13.5t-12.5 34.5t13.5 35t34.5 14t35.5 -18.5
t14.5 -49.5q0 -46 -22.5 -87t-60.5 -65z" />
    <glyph glyph-name="kcommaaccent" unicode="&#x137;" horiz-adv-x="348" 
d="M368 0q-30 -1 -45.5 1.5t-26 7t-14.5 4.5t-21 -7.5t-45 -5.5q20 11 20 35q0 13 -6 29l-62 176l-40 -76v-95q0 -53 30 -69q-31 -3 -49 5t-21 8t-21 -8t-49 -5q30 18 30 69v562q0 51 -30 69q31 3 49 -5t21 -8t21 8t49 5q-30 -16 -30 -69v-354l86 170q9 22 9 31q0 13 -13 22
l11 1q16 0 30.5 -6t18.5 -6t22 6t46 6l18 -1q-23 -10 -38.5 -23.5t-27.5 -36.5l-66 -130l88 -247q17 -46 56 -63zM168 -242q63 54 63 132q-4 -6 -13.5 -10t-17.5 -4q-19 0 -31.5 13.5t-12.5 34.5t13.5 35t34.5 14t35.5 -18.5t14.5 -49.5q0 -46 -22.5 -87t-60.5 -65z" />
    <glyph glyph-name="kgreenlandic" unicode="&#x138;" horiz-adv-x="358" 
d="M378 0q-30 -1 -45.5 1.5t-26 7t-14.5 4.5t-21 -7.5t-45 -5.5q20 11 20 35q0 13 -6 29l-62 167l-50 -97v-65q0 -53 30 -69q-31 -3 -49 5t-21 8t-21 -8t-49 -5q30 18 30 69v362q0 51 -30 69q31 3 49 -5t21 -8t21 8t49 5q-30 -16 -30 -69v-183l96 199q9 22 9 31q0 13 -13 22
l11 1q16 0 30.5 -6t18.5 -6t22 6t46 6l18 -1q-23 -10 -39 -23.5t-27 -36.5l-66 -138l88 -239q17 -46 56 -63z" />
    <glyph glyph-name="Lacute" unicode="&#x139;" horiz-adv-x="324" 
d="M66 74v552q0 52 -39 74q30 3 53.5 -5t28.5 -8t27.5 8t54.5 5q-39 -21 -39 -74v-544h85q45 0 64 25t21 59q4 -20 4 -39q0 -14 -3 -28t-6 -25q-6 -22 -6 -32t2.5 -23t6.5 -19q-67 10 -152 10q-74 0 -141 -10q39 22 39 74zM92.5 734q3.5 6 6.5 15l23 62q8 24 8 32q0 4 -2 10
q5 1 12 1q11 0 20 -4q12 4 27 4t24 -2q-12 -8 -22 -20t-24 -35l-36 -58q-4 -7 -4 -15h-4q-6 0 -12 2q-6 -3 -16 -3q-7 0 -10 1q6 4 9.5 10z" />
    <glyph glyph-name="lacute" unicode="&#x13a;" horiz-adv-x="184" 
d="M51 622q0 34 -8 51t-23 27q60 2 85 -18.5t25 -65.5v-538q0 -35 8 -51.5t24 -26.5q-61 -2 -86 18.5t-25 65.5v538zM67.5 734q3.5 6 6.5 15l23 62q8 24 8 32q0 4 -2 10q5 1 12 1q11 0 20 -4q12 4 27 4t24 -2q-12 -8 -22 -20t-24 -35l-36 -58q-4 -7 -4 -15h-4q-6 0 -12 2
q-6 -3 -16 -3q-7 0 -10 1q6 4 9.5 10z" />
    <glyph glyph-name="Lcommaaccent" unicode="&#x13b;" horiz-adv-x="324" 
d="M66 74v552q0 52 -39 74q30 3 53.5 -5t28.5 -8t27.5 8t54.5 5q-39 -21 -39 -74v-544h85q45 0 64 25t21 59q4 -20 4 -39q0 -14 -3 -28t-6 -25q-6 -22 -6 -32t2.5 -23t6.5 -19q-67 10 -152 10q-74 0 -141 -10q39 22 39 74zM157 -252q63 54 63 132q-4 -6 -13.5 -10t-17.5 -4
q-19 0 -31.5 13.5t-12.5 34.5t13.5 35t34.5 14t35.5 -18.5t14.5 -49.5q0 -46 -22.5 -87t-60.5 -65z" />
    <glyph glyph-name="lcommaaccent" unicode="&#x13c;" horiz-adv-x="184" 
d="M51 622q0 34 -8 51t-23 27q60 2 85 -18.5t25 -65.5v-538q0 -35 8 -51.5t24 -26.5q-61 -2 -86 18.5t-25 65.5v538zM80 -242q63 54 63 132q-4 -6 -13.5 -10t-17.5 -4q-19 0 -31.5 13.5t-12.5 34.5t13.5 35t34.5 14t35.5 -18.5t14.5 -49.5q0 -46 -22.5 -87t-60.5 -65z" />
    <glyph glyph-name="Lcaron" unicode="&#x13d;" horiz-adv-x="340" 
d="M66 74v552q0 52 -39 74q30 3 53.5 -5t28.5 -8t27.5 8t54.5 5q-39 -21 -39 -74v-544h85q45 0 64 25t21 59q4 -20 4 -39q0 -14 -3 -28t-6 -25q-6 -22 -6 -32t2.5 -23t6.5 -19q-67 10 -152 10q-74 0 -141 -10q39 22 39 74zM254 495q63 54 63 132q-4 -6 -13.5 -10t-17.5 -4
q-19 0 -31.5 13.5t-12.5 34.5t13.5 35t34.5 14t35.5 -18.5t14.5 -49.5q0 -46 -22.5 -87t-60.5 -65z" />
    <glyph glyph-name="lcaron" unicode="&#x13e;" horiz-adv-x="230" 
d="M51 622q0 34 -8 51t-23 27q60 2 85 -18.5t25 -65.5v-538q0 -35 8 -51.5t24 -26.5q-61 -2 -86 18.5t-25 65.5v538zM194 495q63 54 63 132q-4 -6 -13.5 -10t-17.5 -4q-19 0 -31.5 13.5t-12.5 34.5t13.5 35t34.5 14t35.5 -18.5t14.5 -49.5q0 -46 -22.5 -87t-60.5 -65z" />
    <glyph glyph-name="Ldot" unicode="&#x13f;" horiz-adv-x="324" 
d="M66 74v552q0 52 -39 74q30 3 53.5 -5t28.5 -8t27.5 8t54.5 5q-39 -21 -39 -74v-544h85q45 0 64 25t21 59q4 -20 4 -39q0 -14 -3 -28t-6 -25q-6 -22 -6 -32t2.5 -23t6.5 -19q-67 10 -152 10q-74 0 -141 -10q39 22 39 74zM227 282q-13 14 -13 35q0 20 13 34t34 14
q20 0 33 -14t13 -34q0 -21 -13 -35t-33 -14q-21 0 -34 14z" />
    <glyph glyph-name="ldot" unicode="&#x140;" horiz-adv-x="263" 
d="M51 622q0 34 -8 51t-23 27q60 2 85 -18.5t25 -65.5v-538q0 -35 8 -51.5t24 -26.5q-61 -2 -86 18.5t-25 65.5v538zM187 304.5q-12 14.5 -12 34.5t12 34t31 14t31 -14t12 -34t-12 -34.5t-31 -14.5t-31 14.5z" />
    <glyph glyph-name="Lslash" unicode="&#x141;" horiz-adv-x="324" 
d="M326 127q0 -14 -3 -28t-6 -25q-6 -22 -6 -32t2.5 -23t6.5 -19q-67 10 -152 10q-74 0 -141 -10q39 22 39 74v231l-18 -10q-29 -17 -30 -44q-12 15 -14 28.5t-4 17.5q-2 3 -13 12t-18 26q10 -6 21 -6q13 0 32 11l44 25v261q0 52 -39 74q30 3 53.5 -5t28.5 -8t27.5 8t54.5 5
q-39 -21 -39 -74v-212l22 13q31 19 31 44q12 -15 13.5 -29t3.5 -17t13.5 -11.5t18.5 -26.5q-12 5 -21 5q-16 0 -33 -10l-48 -27v-273h85q45 0 64 25t21 59q4 -20 4 -39z" />
    <glyph glyph-name="lslash" unicode="&#x142;" horiz-adv-x="184" 
d="M217.5 393.5q11.5 -8.5 18.5 -26.5q-12 5 -21 5q-16 0 -33 -10l-52 -30v-254q0 -35 8 -51.5t24 -26.5q-61 -2 -86 18.5t-25 65.5v203l-21 -12q-29 -17 -30 -44q-12 15 -14 28.5t-4 17.5q-2 3 -13 12t-18 26q10 -6 21 -6q13 0 32 11l47 27v275q0 34 -8 51t-23 27
q60 2 85 -18.5t25 -65.5v-224l26 15q31 19 31 44q12 -15 13.5 -29t3.5 -17t13.5 -11.5z" />
    <glyph glyph-name="Nacute" unicode="&#x143;" horiz-adv-x="457" 
d="M55 28q11 16 11 46v552q0 29 -10.5 44.5t-18.5 22t-10 7.5q20 2 34.5 -1t28.5 -8t19 -5t19 5t28.5 8t34.5 1q-16 -10 -28 -26t-12 -48q0 -52 25 -106t75 -136q38 -62 55 -94v336q0 50 -39 74q30 3 53.5 -5t28.5 -8t27.5 8t54.5 5q-39 -19 -39 -74v-552q0 -54 39 -74
q-32 -3 -54.5 5t-27.5 8t-28.5 -8t-53.5 -5q39 24 39 74q0 59 -28 120t-81 148q-21 34 -45 77v-345q0 -31 10.5 -47.5t28.5 -26.5q-21 -2 -35.5 1t-28 8t-18.5 5t-19 -5t-28.5 -8t-34.5 -1q17 12 28 28zM212.5 734q3.5 6 6.5 15l23 62q8 24 8 32q0 4 -2 10q5 1 12 1
q11 0 20 -4q12 4 27 4t24 -2q-12 -8 -22 -20t-24 -35l-36 -58q-4 -7 -4 -15h-4q-6 0 -12 2q-6 -3 -16 -3q-7 0 -10 1q6 4 9.5 10z" />
    <glyph glyph-name="nacute" unicode="&#x144;" horiz-adv-x="341" 
d="M299.5 31q4.5 -19 15.5 -31l-19 -1q-40 0 -60.5 14.5t-20.5 48.5v320q0 25 -12 37.5t-30 12.5q-27 0 -45 -28v-335q0 -28 7 -44.5t23 -24.5q-31 -3 -49 5t-21 8t-21 -8t-49 -5q16 8 23 24.5t7 44.5v362q0 33 -5.5 46.5t-20.5 22.5q41 2 66 -8.5t34 -36.5q13 22 33 35
t47 13q38 0 65.5 -27.5t27.5 -82.5v-311q0 -32 4.5 -51zM146.5 531q3.5 6 6.5 15l23 62q8 24 8 31q0 4 -2 10q5 1 13 1q9 0 19 -3q18 4 29 4q14 0 22 -2q-12 -8 -22 -20.5t-24 -35.5l-36 -57q-4 -7 -4 -16h-4q-6 0 -12 2q-8 -2 -15 -2q-8 0 -11 1q6 4 9.5 10z" />
    <glyph glyph-name="Ncommaaccent" unicode="&#x145;" horiz-adv-x="457" 
d="M55 28q11 16 11 46v552q0 29 -10.5 44.5t-18.5 22t-10 7.5q20 2 34.5 -1t28.5 -8t19 -5t19 5t28.5 8t34.5 1q-16 -10 -28 -26t-12 -48q0 -52 25 -106t75 -136q38 -62 55 -94v336q0 50 -39 74q30 3 53.5 -5t28.5 -8t27.5 8t54.5 5q-39 -19 -39 -74v-552q0 -54 39 -74
q-32 -3 -54.5 5t-27.5 8t-28.5 -8t-53.5 -5q39 24 39 74q0 59 -28 120t-81 148q-21 34 -45 77v-345q0 -31 10.5 -47.5t28.5 -26.5q-21 -2 -35.5 1t-28 8t-18.5 5t-19 -5t-28.5 -8t-34.5 -1q17 12 28 28zM214 -252q63 54 63 132q-4 -6 -13.5 -10t-17.5 -4q-19 0 -31.5 13.5
t-12.5 34.5t13.5 35t34.5 14t35.5 -18.5t14.5 -49.5q0 -46 -22.5 -87t-60.5 -65z" />
    <glyph glyph-name="ncommaaccent" unicode="&#x146;" horiz-adv-x="341" 
d="M299.5 31q4.5 -19 15.5 -31l-19 -1q-40 0 -60.5 14.5t-20.5 48.5v320q0 25 -12 37.5t-30 12.5q-27 0 -45 -28v-335q0 -28 7 -44.5t23 -24.5q-31 -3 -49 5t-21 8t-21 -8t-49 -5q16 8 23 24.5t7 44.5v362q0 33 -5.5 46.5t-20.5 22.5q41 2 66 -8.5t34 -36.5q13 22 33 35
t47 13q38 0 65.5 -27.5t27.5 -82.5v-311q0 -32 4.5 -51zM169 -242q63 54 63 132q-4 -6 -13.5 -10t-17.5 -4q-19 0 -31.5 13.5t-12.5 34.5t13.5 35t34.5 14t35.5 -18.5t14.5 -49.5q0 -46 -22.5 -87t-60.5 -65z" />
    <glyph glyph-name="Ncaron" unicode="&#x147;" horiz-adv-x="457" 
d="M55 28q11 16 11 46v552q0 29 -10.5 44.5t-18.5 22t-10 7.5q20 2 34.5 -1t28.5 -8t19 -5t19 5t28.5 8t34.5 1q-16 -10 -28 -26t-12 -48q0 -52 25 -106t75 -136q38 -62 55 -94v336q0 50 -39 74q30 3 53.5 -5t28.5 -8t27.5 8t54.5 5q-39 -19 -39 -74v-552q0 -54 39 -74
q-32 -3 -54.5 5t-27.5 8t-28.5 -8t-53.5 -5q39 24 39 74q0 59 -28 120t-81 148q-21 34 -45 77v-345q0 -31 10.5 -47.5t28.5 -26.5q-21 -2 -35.5 1t-28 8t-18.5 5t-19 -5t-28.5 -8t-34.5 -1q17 12 28 28zM143 819q-15 20 -39 30q8 2 24 2q18 0 28 -5q12 4 23 4q7 0 11 -1
q-2 -4 -2 -7q0 -7 7 -15l34 -42l33 42q10 12 6 22q3 1 10 1q13 0 23 -4q10 5 29 5q15 0 23 -2q-21 -9 -39 -30l-85 -98z" />
    <glyph glyph-name="ncaron" unicode="&#x148;" horiz-adv-x="341" 
d="M299.5 31q4.5 -19 15.5 -31l-19 -1q-40 0 -60.5 14.5t-20.5 48.5v320q0 25 -12 37.5t-30 12.5q-27 0 -45 -28v-335q0 -28 7 -44.5t23 -24.5q-31 -3 -49 5t-21 8t-21 -8t-49 -5q16 8 23 24.5t7 44.5v362q0 33 -5.5 46.5t-20.5 22.5q41 2 66 -8.5t34 -36.5q13 22 33 35
t47 13q38 0 65.5 -27.5t27.5 -82.5v-311q0 -32 4.5 -51zM79 623q-17 21 -39 30q16 2 22 2q18 0 31 -5q10 4 23 4q7 0 10 -1q-2 -4 -2 -7q0 -5 8 -15l33 -38l32 38q10 12 6 22q3 1 10 1q13 0 23 -4q15 5 32 5q7 0 21 -2q-19 -8 -39 -30l-85 -99z" />
    <glyph glyph-name="napostrophe" unicode="&#x149;" horiz-adv-x="453" 
d="M37 495q63 54 63 132q-4 -6 -13.5 -10t-17.5 -4q-19 0 -31.5 13.5t-12.5 34.5t13.5 35t34.5 14t35.5 -18.5t14.5 -49.5q0 -46 -22.5 -87t-60.5 -65zM411.5 31q4.5 -19 15.5 -31l-19 -1q-40 0 -60.5 14.5t-20.5 48.5v320q0 25 -12 37.5t-30 12.5q-27 0 -45 -28v-335
q0 -28 7 -44.5t23 -24.5q-31 -3 -49 5t-21 8t-21 -8t-49 -5q16 8 23 24.5t7 44.5v362q0 33 -5.5 46.5t-20.5 22.5q41 2 66 -8.5t34 -36.5q13 22 33 35t47 13q38 0 65.5 -27.5t27.5 -82.5v-311q0 -32 4.5 -51z" />
    <glyph glyph-name="Eng" unicode="&#x14a;" horiz-adv-x="457" 
d="M287 -71.5q19 69.5 19 160.5q0 51 -22.5 100.5t-72.5 131.5q-37 60 -59 100v-347q0 -31 10.5 -47.5t28.5 -26.5q-21 -2 -35.5 1t-28 8t-18.5 5t-19 -5t-28.5 -8t-34.5 -1q17 12 28 28t11 46v552q0 29 -10.5 44.5t-18.5 22t-10 7.5q20 2 34.5 -1t28.5 -8t19 -5t19 5
t28.5 8t34.5 1q-16 -10 -27.5 -26t-11.5 -48q0 -51 24 -104.5t76 -140.5q40 -67 54 -93v338q0 50 -39 74q30 3 53.5 -5t28.5 -8t27.5 8t54.5 5q-39 -19 -39 -74v-551q0 -100 -44.5 -172t-133.5 -103q54 59 73 128.5z" />
    <glyph glyph-name="eng" unicode="&#x14b;" horiz-adv-x="321" 
d="M267.5 475.5q27.5 -27.5 27.5 -82.5v-272q0 -111 -38.5 -172t-128.5 -88q47 41 67 103.5t20 156.5v261q0 25 -12 37.5t-30 12.5q-27 0 -45 -28v-335q0 -28 7 -44.5t23 -24.5q-31 -3 -49 5t-21 8t-21 -8t-49 -5q16 8 23 24.5t7 44.5v362q0 33 -5.5 46.5t-20.5 22.5
q41 2 66 -8.5t34 -36.5q13 22 33 35t47 13q38 0 65.5 -27.5z" />
    <glyph glyph-name="Omacron" unicode="&#x14c;" horiz-adv-x="421" 
d="M78.5 84q-46.5 93 -46.5 266t46.5 266t132.5 93t132 -93t46 -266t-46 -266t-132 -93t-132.5 93zM278.5 152q22.5 75 22.5 198t-22.5 198t-67.5 75t-67.5 -75t-22.5 -198t22.5 -198t67.5 -75t67.5 75zM103 758q4 11 4 14t-3.5 12t-3.5 21l1 10q7 -9 18 -13t29 -4h125
q19 0 30 3.5t19 13.5q1 -17 -3 -28t-4 -14t3.5 -12.5t3.5 -20.5l-1 -10q-12 18 -48 18h-125q-17 0 -28.5 -4t-19.5 -14q-1 17 3 28z" />
    <glyph glyph-name="omacron" unicode="&#x14d;" horiz-adv-x="312" 
d="M55.5 62q-35.5 66 -35.5 187q0 122 35.5 188.5t100.5 66.5t101 -67t36 -188t-36 -187t-101 -66t-100.5 66zM198.5 118.5q14.5 44.5 14.5 129.5q0 86 -14.5 132t-42.5 46t-42.5 -46t-14.5 -132q0 -85 14.5 -129.5t42.5 -44.5t42.5 44.5zM63 558q0 9 3 16.5t3 9.5
q0 3 -3 10t-3 16l1 9q7 -8 18.5 -11t29.5 -3h87q18 0 29.5 3t18.5 11l1 -9q0 -10 -3 -16.5t-3 -9.5q0 -2 3 -10t3 -17l-1 -9q-7 8 -18.5 11t-29.5 3h-87q-18 0 -29.5 -3t-18.5 -11z" />
    <glyph glyph-name="Obreve" unicode="&#x14e;" horiz-adv-x="421" 
d="M78.5 84q-46.5 93 -46.5 266t46.5 266t132.5 93t132 -93t46 -266t-46 -266t-132 -93t-132.5 93zM278.5 152q22.5 75 22.5 198t-22.5 198t-67.5 75t-67.5 -75t-22.5 -198t22.5 -198t67.5 -75t67.5 75zM147 756.5q-26 22.5 -26 63.5q0 11 -2.5 18t-9.5 13q3 1 10 1
q8 0 20 -5q13 7 34 7q11 0 17 -1q-21 -13 -21 -35q0 -18 11.5 -28.5t30.5 -10.5t30.5 10.5t11.5 28.5q0 22 -21 35q6 1 17 1q22 0 35 -7q12 5 20 5q7 0 10 -1q-13 -10 -13 -31q0 -41 -26 -63.5t-64 -22.5t-64 22.5z" />
    <glyph glyph-name="obreve" unicode="&#x14f;" horiz-adv-x="312" 
d="M55.5 62q-35.5 66 -35.5 187q0 122 35.5 188.5t100.5 66.5t101 -67t36 -188t-36 -187t-101 -66t-100.5 66zM198.5 118.5q14.5 44.5 14.5 129.5q0 86 -14.5 132t-42.5 46t-42.5 -46t-14.5 -132q0 -85 14.5 -129.5t42.5 -44.5t42.5 44.5zM92 556.5q-26 22.5 -26 63.5
q0 11 -2.5 18t-9.5 13q3 1 10 1q8 0 20 -5q13 7 35 7q11 0 17 -1q-22 -12 -22 -35q0 -18 11.5 -28.5t30.5 -10.5t30.5 10.5t11.5 28.5q0 22 -21 35q6 1 17 1q22 0 35 -7q12 5 20 5q7 0 10 -1q-13 -10 -13 -31q0 -41 -26 -63.5t-64 -22.5t-64 22.5z" />
    <glyph glyph-name="Ohungarumlaut" unicode="&#x150;" horiz-adv-x="421" 
d="M78.5 84q-46.5 93 -46.5 266t46.5 266t132.5 93t132 -93t46 -266t-46 -266t-132 -93t-132.5 93zM278.5 152q22.5 75 22.5 198t-22.5 198t-67.5 75t-67.5 -75t-22.5 -198t22.5 -198t67.5 -75t67.5 75zM149 764l22 64q8 26 8 34q0 3 -2 9q3 1 10 1q10 0 20 -5q19 7 30 7
q10 0 22 -3q-11 -7 -20.5 -19t-24.5 -34l-36 -63q-4 -10 -2 -15h-5q-3 0 -11 2q-12 -3 -17 -3q-4 0 -10 2q11 7 16 23zM241 764l21 64q8 20 8 33q0 4 -2 10q3 1 10 1q10 0 20 -5q19 7 30 7q10 0 22 -3q-11 -7 -20.5 -19t-24.5 -34l-35 -63q-5 -9 -3 -15h-5q-3 0 -11 2
q-12 -3 -16 -3q-3 0 -11 2q12 7 17 23z" />
    <glyph glyph-name="ohungarumlaut" unicode="&#x151;" horiz-adv-x="312" 
d="M55.5 62q-35.5 66 -35.5 187q0 122 35.5 188.5t100.5 66.5t101 -67t36 -188t-36 -187t-101 -66t-100.5 66zM198.5 118.5q14.5 44.5 14.5 129.5q0 86 -14.5 132t-42.5 46t-42.5 -46t-14.5 -132q0 -85 14.5 -129.5t42.5 -44.5t42.5 44.5zM238 669q5 0 25 -2
q-11 -7 -20.5 -18.5t-25.5 -34.5l-38 -63q-5 -9 -3 -15h-5q-4 0 -10 2q-7 -3 -17 -3q-7 0 -10 1h0.5t0.5 1q-8 -2 -14 -2t-9 1q9 6 17 24l22 64q10 23 10 34q0 3 -2 9l10 1q4 0 12 -2v1q4 1 11 1q5 0 8 -1q16 3 30 2h8z" />
    <glyph glyph-name="OE" unicode="&#x152;" horiz-adv-x="527" 
d="M32 348q0 357 167 357q30 0 53 -10q46 -5 107 -5q89 0 137 10q-5 -7 -7 -17.5t-2 -16.5q0 -12 8 -38t8 -44q0 -15 -6 -36q-5 71 -84 71h-66v-210h31q27 0 46 17t27 40q1 -7 1 -19q0 -25 -8 -47t-8 -27t8 -27.5t8 -47.5q0 -12 -1 -19q-8 23 -27 40t-46 17h-31v-254h77
q45 0 64 23.5t21 54.5q5 -17 5 -38q0 -19 -9 -48q-7 -19 -7 -32q0 -26 9 -42q-67 10 -142 10q-56 0 -114 -6q-24 -9 -52 -9q-167 0 -167 353zM261 92v514q-23 20 -51 20q-92 0 -92 -278q0 -132 21.5 -203t65.5 -71q31 0 56 18z" />
    <glyph glyph-name="oe" unicode="&#x153;" horiz-adv-x="494" 
d="M55.5 62q-35.5 66 -35.5 187q0 122 35.5 188.5t100.5 66.5q62 0 98 -62q32 62 96 62q67 0 97 -66.5t30 -207.5h-178q0 -78 19.5 -122t58.5 -44q35 0 57.5 30.5t30.5 83.5q3 -19 3 -38q0 -59 -27.5 -101t-80.5 -42q-69 0 -104 65q-35 -66 -100 -66t-100.5 66zM397 289
q-4 139 -48 139q-46 0 -49 -139h97zM198.5 118.5q14.5 44.5 14.5 129.5q0 86 -14.5 132t-42.5 46t-42.5 -46t-14.5 -132q0 -85 14.5 -129.5t42.5 -44.5t42.5 44.5z" />
    <glyph glyph-name="Racute" unicode="&#x154;" horiz-adv-x="411" 
d="M358 182q-1 -16 -1 -47q0 -51 9.5 -83.5t37.5 -51.5q-8 -1 -21 -1q-57 0 -84 31q-26 31 -26 107v44q0 56 -7 85t-32 44t-79 15h-3v-251q0 -53 39 -74q-32 -3 -54.5 5t-27.5 8t-28.5 -8t-53.5 -5q39 22 39 74v552q0 52 -39 74q20 2 33.5 -0.5t27 -7.5t19.5 -5
q5 0 27.5 7.5t57.5 7.5q79 0 127 -52.5t48 -135.5q0 -52 -22.5 -92.5t-64.5 -65.5q79 -31 79 -121zM152 393q60 0 94.5 32t34.5 89q0 49 -25 79t-65 30q-26 0 -39 -6v-224zM176.5 735q3.5 6 6.5 15l23 62q8 24 8 32q0 4 -2 10q5 1 12 1q11 0 20 -4q12 4 27 4t24 -2
q-12 -8 -22 -20t-24 -35l-36 -58q-4 -7 -4 -15h-4q-6 0 -12 2q-6 -3 -16 -3q-7 0 -10 1q6 4 9.5 10z" />
    <glyph glyph-name="racute" unicode="&#x155;" horiz-adv-x="255" 
d="M234 345q1 41 -15.5 62t-41.5 21q-34 0 -49 -30v-329q0 -53 30 -69q-31 -3 -49 5t-21 8t-21 -8t-49 -5q30 16 30 69v356q0 37 -5.5 51.5t-20.5 23.5q36 2 59 -6.5t35 -28.5q10 19 27 29t37 10q32 0 53 -24t21 -63q0 -35 -20 -72zM118.5 530q3.5 6 6.5 15l23 62q8 24 8 31
q0 4 -2 10q5 1 13 1q9 0 19 -3q18 4 29 4q14 0 22 -2q-12 -8 -22 -20.5t-24 -35.5l-36 -57q-4 -7 -4 -16h-4q-6 0 -12 2q-8 -2 -15 -2q-8 0 -11 1q6 4 9.5 10z" />
    <glyph glyph-name="Rcommaaccent" unicode="&#x156;" horiz-adv-x="411" 
d="M358 182q-1 -16 -1 -47q0 -51 9.5 -83.5t37.5 -51.5q-8 -1 -21 -1q-57 0 -84 31q-26 31 -26 107v44q0 56 -7 85t-32 44t-79 15h-3v-251q0 -53 39 -74q-32 -3 -54.5 5t-27.5 8t-28.5 -8t-53.5 -5q39 22 39 74v552q0 52 -39 74q20 2 33.5 -0.5t27 -7.5t19.5 -5
q5 0 27.5 7.5t57.5 7.5q79 0 127 -52.5t48 -135.5q0 -52 -22.5 -92.5t-64.5 -65.5q79 -31 79 -121zM152 393q60 0 94.5 32t34.5 89q0 49 -25 79t-65 30q-26 0 -39 -6v-224zM210 -252q63 54 63 132q-4 -6 -13.5 -10t-17.5 -4q-19 0 -31.5 13.5t-12.5 34.5t13.5 35t34.5 14
t35.5 -18.5t14.5 -49.5q0 -46 -22.5 -87t-60.5 -65z" />
    <glyph glyph-name="rcommaaccent" unicode="&#x157;" horiz-adv-x="255" 
d="M234 345q1 41 -15.5 62t-41.5 21q-34 0 -49 -30v-329q0 -53 30 -69q-31 -3 -49 5t-21 8t-21 -8t-49 -5q30 16 30 69v356q0 37 -5.5 51.5t-20.5 23.5q36 2 59 -6.5t35 -28.5q10 19 27 29t37 10q32 0 53 -24t21 -63q0 -35 -20 -72zM65 -242q63 54 63 132q-4 -6 -13.5 -10
t-17.5 -4q-19 0 -31.5 13.5t-12.5 34.5t13.5 35t34.5 14t35.5 -18.5t14.5 -49.5q0 -46 -22.5 -87t-60.5 -65z" />
    <glyph glyph-name="Rcaron" unicode="&#x158;" horiz-adv-x="411" 
d="M358 182q-1 -16 -1 -47q0 -51 9.5 -83.5t37.5 -51.5q-8 -1 -21 -1q-57 0 -84 31q-26 31 -26 107v44q0 56 -7 85t-32 44t-79 15h-3v-251q0 -53 39 -74q-32 -3 -54.5 5t-27.5 8t-28.5 -8t-53.5 -5q39 22 39 74v552q0 52 -39 74q20 2 33.5 -0.5t27 -7.5t19.5 -5
q5 0 27.5 7.5t57.5 7.5q79 0 127 -52.5t48 -135.5q0 -52 -22.5 -92.5t-64.5 -65.5q79 -31 79 -121zM152 393q60 0 94.5 32t34.5 89q0 49 -25 79t-65 30q-26 0 -39 -6v-224zM107 820q-15 20 -39 30q8 2 24 2q18 0 28 -5q12 4 23 4q7 0 11 -1q-2 -4 -2 -7q0 -7 7 -15l34 -42
l33 42q10 12 6 22q3 1 10 1q13 0 23 -4q10 5 29 5q15 0 23 -2q-21 -9 -39 -30l-85 -98z" />
    <glyph glyph-name="rcaron" unicode="&#x159;" horiz-adv-x="255" 
d="M234 345q1 41 -15.5 62t-41.5 21q-34 0 -49 -30v-329q0 -53 30 -69q-31 -3 -49 5t-21 8t-21 -8t-49 -5q30 16 30 69v356q0 37 -5.5 51.5t-20.5 23.5q36 2 59 -6.5t35 -28.5q10 19 27 29t37 10q32 0 53 -24t21 -63q0 -35 -20 -72zM51 622q-17 21 -39 30q16 2 22 2
q18 0 31 -5q10 4 23 4q7 0 10 -1q-2 -4 -2 -7q0 -5 8 -15l33 -38l32 38q10 12 6 22q3 1 10 1q13 0 23 -4q15 5 32 5q7 0 21 -2q-19 -8 -39 -30l-85 -99z" />
    <glyph glyph-name="Sacute" unicode="&#x15a;" horiz-adv-x="360" 
d="M104 5q-22 8 -36 8q-15 0 -27 -11q-2 12 -2 17q0 13 5 27.5t5 19.5q0 6 -7 22q-8 22 -12.5 40t-4.5 42q0 48 23 106q-3 -21 -3 -41q0 -49 17 -85.5t45.5 -56.5t62.5 -20q44 0 66 28t22 68t-24.5 74t-75.5 85q-42 42 -66.5 70.5t-42.5 65t-18 77.5q0 70 41.5 116.5
t110.5 46.5q23 0 57 -9q18 -5 30 -5q16 0 31 11q0 -17 -6.5 -32.5t-6.5 -20.5t5 -20q13 -42 13 -76q0 -29 -9 -68q-4 73 -34 107t-69 34q-37 0 -57 -22t-20 -59q0 -39 25.5 -73t79.5 -86q59 -55 91 -103.5t32 -111.5q0 -79 -45 -128.5t-119 -49.5q-34 0 -77 13zM167.5 736
q3.5 6 6.5 15l23 62q8 24 8 32q0 4 -2 10q5 1 12 1q11 0 20 -4q12 4 27 4t24 -2q-12 -8 -22 -20t-24 -35l-36 -58q-4 -7 -4 -15h-4q-6 0 -12 2q-6 -3 -16 -3q-7 0 -10 1q6 4 9.5 10z" />
    <glyph glyph-name="sacute" unicode="&#x15b;" horiz-adv-x="265" 
d="M85 7q-20 6 -28 6q-13 0 -22 -8q-1 4 -1 12q0 9 3.5 19.5t3.5 13.5q0 4 -6 20q-7 19 -10 30.5t-3 28.5q0 34 15 66q-1 -56 24 -91t66 -35q26 0 40 15t14 40q0 26 -16 47t-55 60q-44 45 -66 77t-22 74q0 53 33.5 86t84.5 33q13 0 38 -5q12 -3 21 -3q13 0 22 8
q2 -14 -3 -26t-5 -16q0 -7 5 -20q9 -27 9 -52q0 -18 -6 -45q-4 40 -24.5 65t-48.5 25q-22 0 -36 -13.5t-14 -38.5q0 -23 16.5 -44.5t50.5 -54.5q45 -43 69 -78t24 -81q0 -54 -34 -89t-89 -35q-18 0 -50 9zM114.5 532q3.5 6 6.5 15l23 62q8 24 8 31q0 4 -2 10q5 1 13 1
q9 0 19 -3q18 4 29 4q14 0 22 -2q-12 -8 -22 -20.5t-24 -35.5l-36 -57q-4 -7 -4 -16h-4q-6 0 -12 2q-8 -2 -15 -2q-8 0 -11 1q6 4 9.5 10z" />
    <glyph glyph-name="Scircumflex" unicode="&#x15c;" horiz-adv-x="360" 
d="M104 5q-22 8 -36 8q-15 0 -27 -11q-2 12 -2 17q0 13 5 27.5t5 19.5q0 6 -7 22q-8 22 -12.5 40t-4.5 42q0 48 23 106q-3 -21 -3 -41q0 -49 17 -85.5t45.5 -56.5t62.5 -20q44 0 66 28t22 68t-24.5 74t-75.5 85q-42 42 -66.5 70.5t-42.5 65t-18 77.5q0 70 41.5 116.5
t110.5 46.5q23 0 57 -9q18 -5 30 -5q16 0 31 11q0 -17 -6.5 -32.5t-6.5 -20.5t5 -20q13 -42 13 -76q0 -29 -9 -68q-4 73 -34 107t-69 34q-37 0 -57 -22t-20 -59q0 -39 25.5 -73t79.5 -86q59 -55 91 -103.5t32 -111.5q0 -79 -45 -128.5t-119 -49.5q-34 0 -77 13zM98 755
l86 99l85 -99q20 -22 39 -30q-14 -2 -21 -2q-18 0 -31 5q-10 -4 -23 -4q-7 0 -10 1q2 4 2 7q0 5 -8 16l-33 38l-34 -38q-10 -13 -6 -23q-3 -1 -10 -1q-13 0 -23 4q-13 -5 -31 -5q-7 0 -21 2q19 8 39 30z" />
    <glyph glyph-name="scircumflex" unicode="&#x15d;" horiz-adv-x="265" 
d="M85 7q-20 6 -28 6q-13 0 -22 -8q-1 4 -1 12q0 9 3.5 19.5t3.5 13.5q0 4 -6 20q-7 19 -10 30.5t-3 28.5q0 34 15 66q-1 -56 24 -91t66 -35q26 0 40 15t14 40q0 26 -16 47t-55 60q-44 45 -66 77t-22 74q0 53 33.5 86t84.5 33q13 0 38 -5q12 -3 21 -3q13 0 22 8
q2 -14 -3 -26t-5 -16q0 -7 5 -20q9 -27 9 -52q0 -18 -6 -45q-4 40 -24.5 65t-48.5 25q-22 0 -36 -13.5t-14 -38.5q0 -23 16.5 -44.5t50.5 -54.5q45 -43 69 -78t24 -81q0 -54 -34 -89t-89 -35q-18 0 -50 9zM48 557l85 98l86 -98q14 -19 39 -31q-16 -2 -21 -2q-19 0 -31 6
q-11 -6 -34 -4l2 8q0 7 -7 15l-34 39l-33 -39q-6 -7 -7 -12t1 -11h-9q-17 0 -24 4q-14 -6 -31 -6q-7 0 -21 2q22 11 39 31z" />
    <glyph glyph-name="Scedilla" unicode="&#x15e;" horiz-adv-x="360" 
d="M304 46q-41 -49 -109 -53l-12 -26q18 0 30 -6q24 -5 40 -26t16 -51q0 -43 -26 -67.5t-62 -24.5q-30 0 -54 17.5t-30 50.5q11 -15 26.5 -23t32.5 -8q23 0 39 14.5t16 40.5q0 25 -15 38t-38 13q-31 0 -51 -21l36 81l-40 10q-26 8 -35 8q-15 0 -27 -11q-2 12 -2 17
q0 13 5 27.5t5 19.5q0 6 -7 22q-8 22 -12.5 40t-4.5 42q0 48 23 106q-3 -21 -3 -41q0 -49 17 -85.5t45.5 -56.5t62.5 -20q44 0 66 28t22 68t-24.5 74t-75.5 85q-42 42 -66.5 70.5t-42.5 65t-18 77.5q0 70 41.5 116.5t110.5 46.5q23 0 57 -9q18 -5 30 -5q16 0 31 11
q0 -17 -6.5 -32.5t-6.5 -20.5t5 -20q13 -42 13 -76q0 -29 -9 -68q-4 73 -34 107t-69 34q-37 0 -57 -22t-20 -59q0 -39 25.5 -73t79.5 -86q59 -55 91 -103.5t32 -111.5q0 -75 -41 -124z" />
    <glyph glyph-name="scedilla" unicode="&#x15f;" horiz-adv-x="265" 
d="M213 -64q16 -21 16 -51q0 -43 -26 -67.5t-62 -24.5q-30 0 -54 17.5t-30 50.5q11 -15 26.5 -23t32.5 -8q23 0 39 14.5t16 40.5q0 25 -15 38t-38 13q-32 0 -51 -21l38 87l-20 5q-20 6 -28 6q-13 0 -22 -8q-1 4 -1 12q0 9 3.5 19.5t3.5 13.5q0 4 -6 20q-7 19 -10 30.5
t-3 28.5q0 34 15 66q-1 -56 24 -91t66 -35q26 0 40 15t14 40q0 26 -16 47t-55 60q-44 45 -66 77t-22 74q0 53 33.5 86t84.5 33q13 0 38 -5q12 -3 21 -3q13 0 22 8q2 -14 -3 -26t-5 -16q0 -7 5 -20q9 -27 9 -52q0 -18 -6 -45q-4 40 -24.5 65t-48.5 25q-22 0 -36 -13.5
t-14 -38.5q0 -23 16.5 -44.5t50.5 -54.5q45 -43 69 -78t24 -81q0 -48 -27 -81.5t-73 -40.5l-15 -32q18 0 30 -6q24 -5 40 -26z" />
    <glyph glyph-name="Scaron" unicode="&#x160;" horiz-adv-x="360" 
d="M104 5q-22 8 -36 8q-15 0 -27 -11q-2 12 -2 17q0 13 5 27.5t5 19.5q0 6 -7 22q-8 22 -12.5 40t-4.5 42q0 48 23 106q-3 -21 -3 -41q0 -49 17 -85.5t45.5 -56.5t62.5 -20q44 0 66 28t22 68t-24.5 74t-75.5 85q-42 42 -66.5 70.5t-42.5 65t-18 77.5q0 70 41.5 116.5
t110.5 46.5q23 0 57 -9q18 -5 30 -5q16 0 31 11q0 -17 -6.5 -32.5t-6.5 -20.5t5 -20q13 -42 13 -76q0 -29 -9 -68q-4 73 -34 107t-69 34q-37 0 -57 -22t-20 -59q0 -39 25.5 -73t79.5 -86q59 -55 91 -103.5t32 -111.5q0 -79 -45 -128.5t-119 -49.5q-34 0 -77 13zM98 821
q-15 20 -39 30q8 2 24 2q18 0 28 -5q12 4 23 4q7 0 11 -1q-2 -4 -2 -7q0 -7 7 -15l34 -42l33 42q10 12 6 22q3 1 10 1q13 0 23 -4q10 5 29 5q15 0 23 -2q-21 -9 -39 -30l-85 -98z" />
    <glyph glyph-name="scaron" unicode="&#x161;" horiz-adv-x="265" 
d="M85 7q-20 6 -28 6q-13 0 -22 -8q-1 4 -1 12q0 9 3.5 19.5t3.5 13.5q0 4 -6 20q-7 19 -10 30.5t-3 28.5q0 34 15 66q-1 -56 24 -91t66 -35q26 0 40 15t14 40q0 26 -16 47t-55 60q-44 45 -66 77t-22 74q0 53 33.5 86t84.5 33q13 0 38 -5q12 -3 21 -3q13 0 22 8
q2 -14 -3 -26t-5 -16q0 -7 5 -20q9 -27 9 -52q0 -18 -6 -45q-4 40 -24.5 65t-48.5 25q-22 0 -36 -13.5t-14 -38.5q0 -23 16.5 -44.5t50.5 -54.5q45 -43 69 -78t24 -81q0 -54 -34 -89t-89 -35q-18 0 -50 9zM47 624q-17 21 -39 30q16 2 22 2q18 0 31 -5q10 4 23 4q7 0 10 -1
q-2 -4 -2 -7q0 -5 8 -15l33 -38l32 38q10 12 6 22q3 1 10 1q13 0 23 -4q15 5 32 5q7 0 21 -2q-19 -8 -39 -30l-85 -99z" />
    <glyph glyph-name="uni0162" unicode="&#x162;" horiz-adv-x="348" 
d="M335 631q8 -26 8 -46q0 -17 -4 -34q-2 28 -20.5 50t-63.5 22h-38v-549q0 -52 39 -74q-25 -2 -55 5l-13 -27q18 0 30 -6q24 -5 40 -26t16 -51q0 -43 -26 -67.5t-62 -24.5q-30 0 -54 17.5t-30 50.5q11 -15 26.5 -23t32.5 -8q23 0 39 14.5t16 40.5q0 25 -15 38t-38 13
q-31 0 -51 -21l36 81q-27 -8 -56 -6q39 22 39 74v549h-38q-45 0 -63.5 -22t-20.5 -50q-4 17 -4 34q0 20 8 46q6 24 6 36q0 23 -9 36q49 -10 165 -10q117 0 163 10q-9 -13 -9 -36q0 -12 6 -36z" />
    <glyph glyph-name="uni0163" unicode="&#x163;" horiz-adv-x="253" 
d="M227 -60q16 -21 16 -51q0 -43 -26 -67.5t-62 -24.5q-30 0 -54 17.5t-30 50.5q11 -15 26.5 -23t32.5 -8q23 0 39 14.5t16 40.5q0 25 -15 38t-38 13q-31 0 -51 -21l39 88q-23 14 -35.5 41t-12.5 65v303q-49 -2 -65 -28q-3 40 16 64t49 26v59q0 29 -4.5 51.5t-12.5 32.5
q24 3 41 -10q11 20 32 31t43 9q-19 -24 -19 -84v-87h27q43 0 58 24q2 -24 -4.5 -39.5t-6.5 -17.5q0 -3 6.5 -19t4.5 -39q-16 25 -58 25h-27v-303q0 -29 11 -42t29 -13q16 0 28 13.5t11 41.5q10 -23 10 -44q0 -29 -19.5 -49.5t-52.5 -21.5l-12 -24q18 0 30 -6q24 -5 40 -26z
" />
    <glyph glyph-name="Tcaron" unicode="&#x164;" horiz-adv-x="348" 
d="M131 74v549h-38q-45 0 -63.5 -22t-20.5 -50q-4 17 -4 34q0 20 8 46q6 24 6 36q0 23 -9 36q49 -10 165 -10q117 0 163 10q-9 -13 -9 -36q0 -12 6 -36q8 -26 8 -46q0 -17 -4 -34q-2 28 -20.5 50t-63.5 22h-38v-549q0 -52 39 -74q-21 -2 -35 0.5t-28 7.5t-19 5t-28.5 -8
t-53.5 -5q39 22 39 74zM88 819q-15 20 -39 30q8 2 24 2q18 0 28 -5q12 4 23 4q7 0 11 -1q-2 -4 -2 -7q0 -7 7 -15l34 -42l33 42q10 12 6 22q3 1 10 1q13 0 23 -4q10 5 29 5q15 0 23 -2q-21 -9 -39 -30l-85 -98z" />
    <glyph glyph-name="tcaron" unicode="&#x165;" horiz-adv-x="253" 
d="M241 67q0 -30 -21 -50.5t-55 -20.5q-43 0 -68 31.5t-25 85.5v303q-49 -2 -65 -28q-3 40 16 64t49 26v59q0 29 -4.5 51.5t-12.5 32.5q24 3 41 -10q11 20 32 31t43 9q-19 -24 -19 -84v-87h27q43 0 58 24q2 -24 -4.5 -39.5t-6.5 -17.5q0 -3 6.5 -19t4.5 -39q-16 25 -58 25
h-27v-303q0 -29 11 -42t29 -13q16 0 28 13.5t11 41.5q10 -23 10 -44zM31 822q-17 21 -39 30q16 2 22 2q18 0 31 -5q10 4 23 4q7 0 10 -1q-2 -4 -2 -7q0 -5 8 -15l33 -38l32 38q10 12 6 22q3 1 10 1q13 0 23 -4q15 5 32 5q7 0 21 -2q-19 -8 -39 -30l-85 -99z" />
    <glyph glyph-name="Tbar" unicode="&#x166;" horiz-adv-x="348" 
d="M335 631q8 -26 8 -46q0 -17 -4 -34q-2 28 -20.5 50t-63.5 22h-38v-246h18q18 0 29.5 5t19.5 17q2 -18 -3 -31.5t-5 -17.5t4 -14.5t4 -22.5q0 -8 -1 -12q-13 23 -48 23h-18v-250q0 -52 39 -74q-21 -2 -35 0.5t-28 7.5t-19 5t-28.5 -8t-53.5 -5q39 22 39 74v250h-18
q-34 0 -48 -22q-1 5 -1 12q0 12 3.5 21.5t4.5 14.5q-1 5 -4.5 15t-3.5 22q0 8 1 13q12 -23 48 -23h18v246h-38q-45 0 -63.5 -22t-20.5 -50q-4 17 -4 34q0 20 8 46q6 24 6 36q0 23 -9 36q49 -10 165 -10q117 0 163 10q-9 -13 -9 -36q0 -12 6 -36z" />
    <glyph glyph-name="tbar" unicode="&#x167;" horiz-adv-x="253" 
d="M241 67q0 -30 -21 -50.5t-55 -20.5q-43 0 -68 31.5t-25 85.5v146h-17q-34 0 -48 -22q-1 5 -1 12q0 12 3.5 21.5t4.5 14.5q-1 5 -4.5 15t-3.5 22q0 8 1 13q12 -23 48 -23h17v104q-49 -2 -65 -28q-3 40 16 64t49 26v59q0 29 -4.5 51.5t-12.5 32.5q24 3 41 -10q11 20 32 31
t43 9q-19 -24 -19 -84v-87h27q43 0 58 24q2 -24 -4.5 -39.5t-6.5 -17.5q0 -3 6.5 -19t4.5 -39q-16 25 -58 25h-27v-102h25q18 0 29.5 5t19.5 17q2 -18 -3 -31.5t-5 -17.5t4 -14.5t4 -22.5q0 -8 -1 -12q-13 23 -48 23h-25v-148q0 -29 11 -42t29 -13q16 0 28 13.5t11 41.5
q10 -23 10 -44z" />
    <glyph glyph-name="Utilde" unicode="&#x168;" horiz-adv-x="431" 
d="M99.5 43.5q-43.5 51.5 -43.5 143.5v439q0 52 -39 74q30 3 53.5 -5t28.5 -8t27.5 8t54.5 5q-39 -21 -39 -74v-448q0 -50 19 -76.5t54 -26.5q36 0 55 26t19 77v448q0 52 -39 74q32 3 54.5 -5t27.5 -8t28.5 8t53.5 5q-39 -22 -39 -74v-439q0 -92 -43.5 -143.5t-116.5 -51.5
q-72 0 -115.5 51.5zM94 744.5q7 7.5 16 20.5q14 22 27 32.5t37 10.5q11 0 21 -4.5t26 -13.5q20 -13 28 -13t12.5 4.5t4.5 10.5q0 9 -10 16l11 1q16 0 28 -6q13 7 30 7q5 0 19 -2q-11 -4 -18 -12t-16 -22q-14 -21 -26.5 -31.5t-35.5 -10.5q-11 0 -21 4.5t-26 13.5
q-20 13 -29 13q-8 0 -12.5 -4t-4.5 -10q0 -9 10 -16l-10 -1q-18 0 -28 6q-11 -7 -29 -7q-6 0 -20 2q9 4 16 11.5z" />
    <glyph glyph-name="utilde" unicode="&#x169;" horiz-adv-x="341" 
d="M298.5 22.5q5.5 -13.5 20.5 -22.5q-41 -2 -66 9t-34 37q-29 -49 -80 -49q-38 0 -65.5 27.5t-27.5 82.5v311q0 32 -4.5 51t-15.5 31l19 1q40 0 60.5 -14.5t20.5 -48.5v-320q0 -25 12 -37.5t30 -12.5q27 0 45 28v335q0 28 -7 44.5t-23 24.5q31 3 49 -5t21 -8t21 8t49 5
q-16 -8 -23 -24.5t-7 -44.5v-362q0 -33 5.5 -46.5zM55 539q7 8 17 23q13 20 25 30t33 10t44 -21q6 -5 12.5 -9t11.5 -4q7 0 11.5 4t4.5 10q0 11 -12 18q5 1 14 1q18 0 27 -6q11 7 29 7q7 0 21 -2q-11 -4 -18 -11.5t-12 -15t-7 -9.5q-13 -20 -24.5 -29.5t-32.5 -9.5
q-13 0 -22 5t-21 15q-17 13 -25 13q-7 0 -11.5 -4t-4.5 -10q0 -11 12 -17q-5 -1 -15 -1q-18 0 -25 6q-13 -8 -30 -8q-9 0 -20 3q11 4 18 12z" />
    <glyph glyph-name="Umacron" unicode="&#x16a;" horiz-adv-x="431" 
d="M99.5 43.5q-43.5 51.5 -43.5 143.5v439q0 52 -39 74q30 3 53.5 -5t28.5 -8t27.5 8t54.5 5q-39 -21 -39 -74v-448q0 -50 19 -76.5t54 -26.5q36 0 55 26t19 77v448q0 52 -39 74q32 3 54.5 -5t27.5 -8t28.5 8t53.5 5q-39 -22 -39 -74v-439q0 -92 -43.5 -143.5t-116.5 -51.5
q-72 0 -115.5 51.5zM107 749q4 11 4 14t-3.5 12t-3.5 21l1 10q7 -9 18 -13t29 -4h125q19 0 30 3.5t19 13.5q1 -17 -3 -28t-4 -14t3.5 -12.5t3.5 -20.5l-1 -10q-12 18 -48 18h-125q-17 0 -28.5 -4t-19.5 -14q-1 17 3 28z" />
    <glyph glyph-name="umacron" unicode="&#x16b;" horiz-adv-x="341" 
d="M298.5 22.5q5.5 -13.5 20.5 -22.5q-41 -2 -66 9t-34 37q-29 -49 -80 -49q-38 0 -65.5 27.5t-27.5 82.5v311q0 32 -4.5 51t-15.5 31l19 1q40 0 60.5 -14.5t20.5 -48.5v-320q0 -25 12 -37.5t30 -12.5q27 0 45 28v335q0 28 -7 44.5t-23 24.5q31 3 49 -5t21 -8t21 8t49 5
q-16 -8 -23 -24.5t-7 -44.5v-362q0 -33 5.5 -46.5zM69 551q0 9 3 16.5t3 9.5q0 3 -3 10t-3 16l1 9q7 -8 18.5 -11t29.5 -3h87q18 0 29.5 3t18.5 11l1 -9q0 -10 -3 -16.5t-3 -9.5q0 -2 3 -10t3 -17l-1 -9q-7 8 -18.5 11t-29.5 3h-87q-18 0 -29.5 -3t-18.5 -11z" />
    <glyph glyph-name="Ubreve" unicode="&#x16c;" horiz-adv-x="431" 
d="M99.5 43.5q-43.5 51.5 -43.5 143.5v439q0 52 -39 74q30 3 53.5 -5t28.5 -8t27.5 8t54.5 5q-39 -21 -39 -74v-448q0 -50 19 -76.5t54 -26.5q36 0 55 26t19 77v448q0 52 -39 74q32 3 54.5 -5t27.5 -8t28.5 8t53.5 5q-39 -22 -39 -74v-439q0 -92 -43.5 -143.5t-116.5 -51.5
q-72 0 -115.5 51.5zM151 747.5q-26 22.5 -26 63.5q0 11 -2.5 18t-9.5 13q3 1 10 1q8 0 20 -5q13 7 34 7q11 0 17 -1q-21 -13 -21 -35q0 -18 11.5 -28.5t30.5 -10.5t30.5 10.5t11.5 28.5q0 22 -21 35q6 1 17 1q22 0 35 -7q12 5 20 5q7 0 10 -1q-13 -10 -13 -31
q0 -41 -26 -63.5t-64 -22.5t-64 22.5z" />
    <glyph glyph-name="ubreve" unicode="&#x16d;" horiz-adv-x="341" 
d="M298.5 22.5q5.5 -13.5 20.5 -22.5q-41 -2 -66 9t-34 37q-29 -49 -80 -49q-38 0 -65.5 27.5t-27.5 82.5v311q0 32 -4.5 51t-15.5 31l19 1q40 0 60.5 -14.5t20.5 -48.5v-320q0 -25 12 -37.5t30 -12.5q27 0 45 28v335q0 28 -7 44.5t-23 24.5q31 3 49 -5t21 -8t21 8t49 5
q-16 -8 -23 -24.5t-7 -44.5v-362q0 -33 5.5 -46.5zM98 549.5q-26 22.5 -26 63.5q0 11 -2.5 18t-9.5 13q3 1 10 1q8 0 20 -5q13 7 35 7q11 0 17 -1q-22 -12 -22 -35q0 -18 11.5 -28.5t30.5 -10.5t30.5 10.5t11.5 28.5q0 22 -21 35q6 1 17 1q22 0 35 -7q12 5 20 5q7 0 10 -1
q-13 -10 -13 -31q0 -41 -26 -63.5t-64 -22.5t-64 22.5z" />
    <glyph glyph-name="Uring" unicode="&#x16e;" horiz-adv-x="431" 
d="M99.5 43.5q-43.5 51.5 -43.5 143.5v439q0 52 -39 74q30 3 53.5 -5t28.5 -8t27.5 8t54.5 5q-39 -21 -39 -74v-448q0 -50 19 -76.5t54 -26.5q36 0 55 26t19 77v448q0 52 -39 74q32 3 54.5 -5t27.5 -8t28.5 8t53.5 5q-39 -22 -39 -74v-439q0 -92 -43.5 -143.5t-116.5 -51.5
q-72 0 -115.5 51.5zM158.5 754q-23.5 23 -23.5 56t23.5 56t56.5 23q32 0 55.5 -23t23.5 -56t-23.5 -56t-55.5 -23q-33 0 -56.5 23zM239.5 785q10.5 10 10.5 25q0 14 -10.5 25t-24.5 11q-15 0 -25 -10.5t-10 -25.5t10 -25t25 -10q14 0 24.5 10z" />
    <glyph glyph-name="uring" unicode="&#x16f;" horiz-adv-x="341" 
d="M298.5 22.5q5.5 -13.5 20.5 -22.5q-41 -2 -66 9t-34 37q-29 -49 -80 -49q-38 0 -65.5 27.5t-27.5 82.5v311q0 32 -4.5 51t-15.5 31l19 1q40 0 60.5 -14.5t20.5 -48.5v-320q0 -25 12 -37.5t30 -12.5q27 0 45 28v335q0 28 -7 44.5t-23 24.5q31 3 49 -5t21 -8t21 8t49 5
q-16 -8 -23 -24.5t-7 -44.5v-362q0 -33 5.5 -46.5zM109.5 548q-21.5 21 -21.5 52t21.5 51.5t52.5 20.5q30 0 51 -20.5t21 -51.5t-21 -52t-51 -21q-31 0 -52.5 21zM184.5 577q9.5 10 9.5 23t-9.5 23t-22.5 10q-14 0 -23.5 -10t-9.5 -23q0 -14 9.5 -23.5t23.5 -9.5
q13 0 22.5 10z" />
    <glyph glyph-name="Uhungarumlaut" unicode="&#x170;" horiz-adv-x="431" 
d="M99.5 43.5q-43.5 51.5 -43.5 143.5v439q0 52 -39 74q30 3 53.5 -5t28.5 -8t27.5 8t54.5 5q-39 -21 -39 -74v-448q0 -50 19 -76.5t54 -26.5q36 0 55 26t19 77v448q0 52 -39 74q32 3 54.5 -5t27.5 -8t28.5 8t53.5 5q-39 -22 -39 -74v-439q0 -92 -43.5 -143.5t-116.5 -51.5
q-72 0 -115.5 51.5zM153 755l22 64q8 26 8 34q0 3 -2 9q3 1 10 1q10 0 20 -5q19 7 30 7q10 0 22 -3q-11 -7 -20.5 -19t-24.5 -34l-36 -63q-4 -10 -2 -15h-5q-3 0 -11 2q-12 -3 -17 -3q-4 0 -10 2q11 7 16 23zM245 755l21 64q8 20 8 33q0 4 -2 10q3 1 10 1q10 0 20 -5
q19 7 30 7q10 0 22 -3q-11 -7 -20.5 -19t-24.5 -34l-35 -63q-5 -9 -3 -15h-5q-3 0 -11 2q-12 -3 -16 -3q-3 0 -11 2q12 7 17 23z" />
    <glyph glyph-name="uhungarumlaut" unicode="&#x171;" horiz-adv-x="341" 
d="M298.5 22.5q5.5 -13.5 20.5 -22.5q-41 -2 -66 9t-34 37q-29 -49 -80 -49q-38 0 -65.5 27.5t-27.5 82.5v311q0 32 -4.5 51t-15.5 31l19 1q40 0 60.5 -14.5t20.5 -48.5v-320q0 -25 12 -37.5t30 -12.5q27 0 45 28v335q0 28 -7 44.5t-23 24.5q31 3 49 -5t21 -8t21 8t49 5
q-16 -8 -23 -24.5t-7 -44.5v-362q0 -33 5.5 -46.5zM244 662q5 0 25 -2q-11 -7 -20.5 -18.5t-25.5 -34.5l-38 -63q-5 -9 -3 -15h-5q-4 0 -10 2q-7 -3 -17 -3q-7 0 -10 1h0.5t0.5 1q-8 -2 -14 -2t-9 1q9 6 17 24l22 64q10 23 10 34q0 3 -2 9l10 1q4 0 12 -2v1q4 1 11 1
q5 0 8 -1q16 3 30 2h8z" />
    <glyph glyph-name="Uogonek" unicode="&#x172;" horiz-adv-x="431" 
d="M360.5 695q23.5 8 53.5 5q-39 -22 -39 -74v-439q0 -64 -21 -108.5t-60 -66.5q-51 -43 -51 -86q0 -24 15 -38t36 -14q17 0 32 8.5t24 25.5q-5 -35 -27 -53.5t-51 -18.5q-31 0 -54 21.5t-23 58.5q0 45 40 77q-6 -1 -20 -1q-72 0 -115.5 51.5t-43.5 143.5v439q0 52 -39 74
q30 3 53.5 -5t28.5 -8t27.5 8t54.5 5q-39 -21 -39 -74v-448q0 -50 19 -76.5t54 -26.5q36 0 55 26t19 77v448q0 52 -39 74q32 3 54.5 -5t27.5 -8t28.5 8z" />
    <glyph glyph-name="uogonek" unicode="&#x173;" horiz-adv-x="341" 
d="M298.5 22.5q5.5 -13.5 20.5 -22.5q-63 -3 -87 24q-46 -40 -46 -81q0 -24 15 -38t36 -14q17 0 32 8.5t24 25.5q-5 -35 -27 -53.5t-51 -18.5q-31 0 -54 21.5t-23 58.5q0 38 31 69q-15 -5 -30 -5q-38 0 -65.5 27.5t-27.5 82.5v311q0 32 -4.5 51t-15.5 31l19 1
q40 0 60.5 -14.5t20.5 -48.5v-320q0 -25 12 -37.5t30 -12.5q27 0 45 28v335q0 28 -7 44.5t-23 24.5q31 3 49 -5t21 -8t21 8t49 5q-16 -8 -23 -24.5t-7 -44.5v-362q0 -33 5.5 -46.5zM224 35q-4 5 -5 11q-4 -7 -12 -17q4 1 8 3t7 3h2z" />
    <glyph glyph-name="Wcircumflex" unicode="&#x174;" horiz-adv-x="657" 
d="M611 694q18 7 39 7q10 0 15 -1q-18 -11 -28 -25.5t-14 -37.5l-95 -541q-4 -20 -4 -41q0 -40 21 -55q-17 -2 -30 1t-27 8t-19 5t-18 -5t-25.5 -8t-29.5 -1q16 17 16 48q0 22 -8 54l-75 344l-75 -344q-7 -35 -7 -55q0 -31 15 -47q-17 -2 -29 1t-25 8t-18 5t-28 -8.5
t-49 -5.5q22 15 22 54q0 17 -5 42l-95 541q-4 23 -14 37.5t-29 25.5q5 1 15 1q21 0 39 -7t22 -7q5 0 25 8t44 5q-20 -11 -20 -43q0 -6 2 -20l76 -472q11 51 21 90q35 153 53 241t18 130q0 30 -8.5 47.5t-24.5 27.5q5 1 13 1q19 0 38.5 -7.5t23.5 -7.5t23.5 7.5t38.5 7.5
q8 0 13 -1q-16 -10 -24 -27.5t-8 -47.5q0 -40 17 -125t50 -230q12 -49 24 -106l77 472q2 14 2 19q0 32 -21 44q23 3 43 -5t25 -8q4 0 22 7zM243 753l86 99l85 -99q20 -22 39 -30q-14 -2 -21 -2q-18 0 -31 5q-10 -4 -23 -4q-7 0 -10 1q2 4 2 7q0 5 -8 16l-33 38l-34 -38
q-10 -13 -6 -23q-3 -1 -10 -1q-13 0 -23 4q-13 -5 -31 -5q-7 0 -21 2q19 8 39 30z" />
    <glyph glyph-name="wcircumflex" unicode="&#x175;" horiz-adv-x="519" 
d="M475 494.5q16 6.5 34 6.5l12 -1q-28 -16 -37 -63l-70 -380q-2 -16 -2 -22q0 -26 13 -35q-23 -3 -39 5t-20 8q-3 0 -20 -7.5t-37 -5.5q8 9 8 27t-8 47l-50 204l-49 -204q-8 -29 -8 -47t8 -27q-20 -2 -37 5.5t-20 7.5q-4 0 -20 -8t-39 -5q13 9 13 35q0 6 -2 22l-70 380
q-9 47 -37 63l12 1q18 0 34 -6.5t21 -6.5t18.5 6.5t27.5 6.5l10 -1q-16 -9 -16 -38q0 -13 3 -25l53 -306l7 27q28 112 42 177t14 108q0 40 -22 58q20 2 37 -3.5t20 -5.5t21 5.5t37 3.5q-22 -16 -22 -58q0 -43 14 -108t42 -177l7 -27l53 306q3 12 3 25q0 29 -16 38l10 1
q14 0 27.5 -6.5t18.5 -6.5t21 6.5zM174 555l85 98l86 -98q14 -19 39 -31q-16 -2 -21 -2q-19 0 -31 6q-11 -6 -34 -4l2 8q0 7 -7 15l-34 39l-33 -39q-6 -7 -7 -12t1 -11h-9q-17 0 -24 4q-14 -6 -31 -6q-7 0 -21 2q22 11 39 31z" />
    <glyph glyph-name="Ycircumflex" unicode="&#x176;" horiz-adv-x="390" 
d="M339 691.5q13 4.5 28.5 7.5t39.5 1q-38 -16 -52 -63l-117 -370v-193q0 -52 39 -74q-30 -3 -53.5 5t-28.5 8t-28.5 -8t-53.5 -5q39 22 39 74v193l-117 370q-14 46 -53 63q25 2 40.5 -1t28.5 -7.5t17 -4.5q5 0 17 5t23 7.5t28 0.5q-20 -13 -20 -39q0 -13 4 -24l75 -265
l75 265q4 11 4 24q0 26 -20 39q17 2 28 -0.5t23 -7.5t17 -5q4 0 17 4.5zM110 753l86 99l85 -99q20 -22 39 -30q-14 -2 -21 -2q-18 0 -31 5q-10 -4 -23 -4q-7 0 -10 1q2 4 2 7q0 5 -8 16l-33 38l-34 -38q-10 -13 -6 -23q-3 -1 -10 -1q-13 0 -23 4q-13 -5 -31 -5q-7 0 -21 2
q19 8 39 30z" />
    <glyph glyph-name="ycircumflex" unicode="&#x177;" horiz-adv-x="335" 
d="M271 495q18 8 48 5q-30 -16 -30 -69v-463q0 -69 -36 -115.5t-119 -46.5q-33 0 -52 -16q-1 4 -1 12q0 15 6 27q-15 12 -24 32.5t-9 47.5q0 17 2 26q9 -28 28.5 -42t45.5 -14q39 0 59.5 19.5t20.5 65.5v69q-27 -36 -72 -36q-39 0 -65.5 26.5t-26.5 78.5v316q0 32 -4.5 51
t-15.5 31l17 1q39 0 61 -17t22 -59v-304q0 -25 10.5 -37t27.5 -12q25 0 46 27v332q0 53 -30 69q30 3 48.5 -5t21.5 -8t21 8zM76 555l85 98l86 -98q14 -19 39 -31q-16 -2 -21 -2q-19 0 -31 6q-11 -6 -34 -4l2 8q0 7 -7 15l-34 39l-33 -39q-6 -7 -7 -12t1 -11h-9q-17 0 -24 4
q-14 -6 -31 -6q-7 0 -21 2q22 11 39 31z" />
    <glyph glyph-name="Ydieresis" unicode="&#x178;" horiz-adv-x="390" 
d="M339 691.5q13 4.5 28.5 7.5t39.5 1q-38 -16 -52 -63l-117 -370v-193q0 -52 39 -74q-30 -3 -53.5 5t-28.5 8t-28.5 -8t-53.5 -5q39 22 39 74v193l-117 370q-14 46 -53 63q25 2 40.5 -1t28.5 -7.5t17 -4.5q5 0 17 5t23 7.5t28 0.5q-20 -13 -20 -39q0 -13 4 -24l75 -265
l75 265q4 11 4 24q0 26 -20 39q17 2 28 -0.5t23 -7.5t17 -5q4 0 17 4.5zM99.5 743q-11.5 13 -11.5 33q0 21 11.5 34t31.5 13q19 0 30.5 -13t11.5 -34q0 -20 -11.5 -33t-30.5 -13q-20 0 -31.5 13zM230.5 743q-11.5 13 -11.5 33q0 21 11.5 34t31.5 13t31.5 -13t11.5 -34
q0 -20 -11.5 -33t-31.5 -13t-31.5 13z" />
    <glyph glyph-name="Zacute" unicode="&#x179;" horiz-adv-x="355" 
d="M33 51l191 567h-106q-45 0 -64 -23t-21 -52q-7 21 -7 40q0 21 10 49q8 24 8 33q0 19 -11 35q61 -10 168 -10q89 0 149 10q-16 -16 -27 -46l-193 -572h114q87 0 91 87q7 -25 7 -47t-11 -55q-7 -21 -7 -32q0 -19 11 -35q-61 10 -175 10q-95 0 -155 -10q20 23 28 51z
M181.5 734q3.5 6 6.5 15l23 62q8 24 8 32q0 4 -2 10q5 1 12 1q11 0 20 -4q12 4 27 4t24 -2q-12 -8 -22 -20t-24 -35l-36 -58q-4 -7 -4 -15h-4q-6 0 -12 2q-6 -3 -16 -3q-7 0 -10 1q6 4 9.5 10z" />
    <glyph glyph-name="zacute" unicode="&#x17a;" horiz-adv-x="276" 
d="M23 49l136 379h-76q-23 0 -39.5 -16t-21.5 -46q-2 20 -2 27q0 22 9 51q6 20 6 28q0 14 -7 28q51 -8 114 -8q82 0 132 8q-14 -22 -24 -49l-136 -377h74q32 0 49 17t23 52q3 -18 3 -32q0 -16 -3 -27t-8 -25q-8 -20 -8 -30q0 -15 7 -29q-51 8 -121 8q-81 0 -131 -8
q13 18 24 49zM126.5 530q3.5 6 6.5 15l23 62q8 24 8 31q0 4 -2 10q5 1 13 1q9 0 19 -3q18 4 29 4q14 0 22 -2q-12 -8 -22 -20.5t-24 -35.5l-36 -57q-4 -7 -4 -16h-4q-6 0 -12 2q-8 -2 -15 -2q-8 0 -11 1q6 4 9.5 10z" />
    <glyph glyph-name="Zdotaccent" unicode="&#x17b;" horiz-adv-x="355" 
d="M33 51l191 567h-106q-45 0 -64 -23t-21 -52q-7 21 -7 40q0 21 10 49q8 24 8 33q0 19 -11 35q61 -10 168 -10q89 0 149 10q-16 -16 -27 -46l-193 -572h114q87 0 91 87q7 -25 7 -47t-11 -55q-7 -21 -7 -32q0 -19 11 -35q-61 10 -175 10q-95 0 -155 -10q20 23 28 51z
M166 766.5q-12 13.5 -12 34.5t12 34.5t32 13.5q21 0 32.5 -13.5t11.5 -34.5t-12 -34.5t-32 -13.5t-32 13.5z" />
    <glyph glyph-name="zdotaccent" unicode="&#x17c;" horiz-adv-x="276" 
d="M23 49l136 379h-76q-23 0 -39.5 -16t-21.5 -46q-2 20 -2 27q0 22 9 51q6 20 6 28q0 14 -7 28q51 -8 114 -8q82 0 132 8q-14 -22 -24 -49l-136 -377h74q32 0 49 17t23 52q3 -18 3 -32q0 -16 -3 -27t-8 -25q-8 -20 -8 -30q0 -15 7 -29q-51 8 -121 8q-81 0 -131 -8
q13 18 24 49zM115.5 573q-10.5 12 -10.5 32q0 19 11 31t29 12t29 -12t11 -31q0 -20 -10.5 -32t-29.5 -12t-29.5 12z" />
    <glyph glyph-name="Zcaron" unicode="&#x17d;" horiz-adv-x="355" 
d="M33 51l191 567h-106q-45 0 -64 -23t-21 -52q-7 21 -7 40q0 21 10 49q8 24 8 33q0 19 -11 35q61 -10 168 -10q89 0 149 10q-16 -16 -27 -46l-193 -572h114q87 0 91 87q7 -25 7 -47t-11 -55q-7 -21 -7 -32q0 -19 11 -35q-61 10 -175 10q-95 0 -155 -10q20 23 28 51z
M112 819q-15 20 -39 30q8 2 24 2q18 0 28 -5q12 4 23 4q7 0 11 -1q-2 -4 -2 -7q0 -7 7 -15l34 -42l33 42q10 12 6 22q3 1 10 1q13 0 23 -4q10 5 29 5q15 0 23 -2q-21 -9 -39 -30l-85 -98z" />
    <glyph glyph-name="zcaron" unicode="&#x17e;" horiz-adv-x="276" 
d="M23 49l136 379h-76q-23 0 -39.5 -16t-21.5 -46q-2 20 -2 27q0 22 9 51q6 20 6 28q0 14 -7 28q51 -8 114 -8q82 0 132 8q-14 -22 -24 -49l-136 -377h74q32 0 49 17t23 52q3 -18 3 -32q0 -16 -3 -27t-8 -25q-8 -20 -8 -30q0 -15 7 -29q-51 8 -121 8q-81 0 -131 -8
q13 18 24 49zM59 622q-17 21 -39 30q16 2 22 2q18 0 31 -5q10 4 23 4q7 0 10 -1q-2 -4 -2 -7q0 -5 8 -15l33 -38l32 38q10 12 6 22q3 1 10 1q13 0 23 -4q15 5 32 5q7 0 21 -2q-19 -8 -39 -30l-85 -99z" />
    <glyph glyph-name="uni018F" unicode="&#x18f;" horiz-adv-x="295" 
d="M239.5 438.5q35.5 -64.5 35.5 -188.5q0 -254 -131 -254q-67 0 -96.5 66.5t-29.5 207.5h177q0 78 -19 122t-58 44q-35 0 -58 -30.5t-31 -83.5q-3 20 -3 38q0 59 27.5 101t80.5 42q70 0 105.5 -64.5zM98 211q2 -139 48 -139q44 0 49 139h-97z" />
    <glyph glyph-name="florin" unicode="&#x192;" horiz-adv-x="332" 
d="M291 431q-17 -73 -70 -73h-13l-9 -145q-14 -228 -142 -228q-22 0 -50 10q44 0 67.5 29t31.5 72.5t13 116.5l9 156q-5 1 -16 1q-36 0 -59 -29q17 73 70 73h8l3 54q7 119 44.5 174.5t106.5 55.5q26 0 61 -11q-52 0 -80 -28t-38 -73.5t-14 -117.5l-4 -65l22 -1q38 0 59 29z
" />
    <glyph glyph-name="uni019D" unicode="&#x19d;" horiz-adv-x="440" 
d="M27 -42q14 44 17.5 89.5t3.5 117.5v461q0 29 -10 44.5t-18 22t-10 7.5q20 2 34.5 -1t28.5 -8t19 -5t18.5 5t28 8t35.5 1q-16 -9 -28.5 -25.5t-12.5 -48.5q0 -52 25 -106t75 -136q38 -62 55 -94v336q0 50 -39 74q30 3 53.5 -5t28.5 -8t28.5 8t53.5 5q-39 -21 -39 -74v-552
q0 -53 39 -74q-30 -3 -53.5 5t-28.5 8t-28.5 -8t-53.5 -5q40 24 40 74q0 59 -28.5 120.5t-82.5 149.5q-9 16 -20.5 34.5t-23.5 40.5v-294q0 -99 -34 -159t-118 -88q31 36 45 80z" />
    <glyph glyph-name="Ohorn" unicode="&#x1a0;" horiz-adv-x="424" 
d="M400.5 643q-18.5 -18 -47.5 -18q-10 0 -14 1q51 -94 51 -276q0 -173 -46 -266t-132 -93t-132 93t-46 266t46 266t132 93h1v0h1v0h1h2v0q26 -1 46 -9t43 -23q11 -7 21 -12t18 -5q14 0 22.5 8t8.5 22t-9.5 22.5t-22.5 8.5q-24 0 -35 -18q2 20 16.5 32t34.5 12
q25 0 42 -16.5t17 -41.5q0 -28 -18.5 -46zM279.5 152q22.5 75 22.5 198t-22.5 198t-67.5 75t-67.5 -75t-22.5 -198t22.5 -198t67.5 -75t67.5 75z" />
    <glyph glyph-name="ohorn" unicode="&#x1a1;" horiz-adv-x="340" 
d="M331.5 442.5q-17.5 -16.5 -43.5 -16.5q-12 0 -21 4q32 -66 32 -181q0 -121 -35.5 -187t-101.5 -66q-65 0 -100.5 66t-35.5 187q0 122 35.5 188.5t100.5 66.5h1v0q24 -1 40 -8t37 -20q13 -9 22 -13.5t18 -4.5q14 0 21 8t7 20t-8 20t-21 8q-19 0 -33 -16q5 20 18.5 30.5
t31.5 10.5q23 0 38 -15.5t15 -39.5q0 -25 -17.5 -41.5zM219 248q0 87 -14.5 132.5t-42.5 45.5t-42 -45.5t-14 -132.5q0 -86 14 -130t42 -44q57 0 57 174z" />
    <glyph glyph-name="Uhorn" unicode="&#x1af;" horiz-adv-x="431" 
d="M469.5 776.5q17.5 -14.5 17.5 -40.5t-18 -41t-45 -15q-33 0 -42 -16q-7 -15 -7 -38v-439q0 -92 -43.5 -143.5t-116.5 -51.5q-72 0 -115.5 51.5t-43.5 143.5v439q0 52 -39 74q30 3 53.5 -5t28.5 -8t27.5 8t54.5 5q-39 -21 -39 -74v-448q0 -50 19 -76.5t54 -26.5
q36 0 55 26t19 77v448q0 52 -39 74q32 3 54.5 -5t27.5 -8t25.5 7t44.5 7h5q17 0 27 9t10 24t-10 24t-24 9q-19 0 -27 -12q4 18 17.5 27t30.5 9q21 0 38.5 -14.5z" />
    <glyph glyph-name="uhorn" unicode="&#x1b0;" horiz-adv-x="341" 
d="M382 576q18 -15 18 -40t-17 -40t-40 -15q-24 0 -35.5 -6.5t-13.5 -26.5v1q-1 -6 -1 -18v-362q0 -33 5.5 -46.5t20.5 -22.5q-41 -2 -66 9t-34 37q-29 -49 -80 -49q-38 0 -65.5 27.5t-27.5 82.5v311q0 32 -4.5 51t-15.5 31l19 1q40 0 60.5 -14.5t20.5 -48.5v-320
q0 -25 12 -37.5t30 -12.5q27 0 45 28v335q0 28 -7 44.5t-23 24.5q31 3 49 -5t21 -8t19.5 7t43.5 6q2 1 6 1q15 0 25.5 9.5t10.5 23.5q0 15 -10 24.5t-24 9.5q-7 0 -15.5 -4t-12.5 -11q3 19 16.5 28.5t31.5 9.5q20 0 38 -15z" />
    <glyph glyph-name="uni01CD" unicode="&#x1cd;" horiz-adv-x="425" 
d="M402.5 28q10.5 -15 30.5 -28q-20 -2 -33.5 0.5t-26.5 7.5t-18 5t-17.5 -5t-23.5 -7.5t-27 -0.5q20 14 20 43q0 6 -2 20l-25 142h-136l-25 -142q-2 -12 -2 -18q0 -31 26 -45q-18 -2 -30.5 0.5t-25 7.5t-17.5 5t-18 -5t-26.5 -7.5t-33.5 -0.5q20 12 30.5 27.5t15.5 41.5
l108 561q3 18 3 30q0 25 -17 41q21 2 35.5 -1t27.5 -8t17 -5q5 0 18.5 5t27.5 8t35 1q-18 -15 -18 -42q0 -12 3 -29l109 -561q5 -26 15.5 -41zM157 279h110l-55 308zM126 819q-15 20 -39 30q8 2 24 2q18 0 28 -5q12 4 23 4q7 0 11 -1q-2 -4 -2 -7q0 -7 7 -15l34 -42l33 42
q10 12 6 22q3 1 10 1q13 0 23 -4q10 5 29 5q15 0 23 -2q-21 -9 -39 -30l-85 -98z" />
    <glyph glyph-name="uni01CE" unicode="&#x1ce;" horiz-adv-x="301" 
d="M265.5 25.5q6.5 -15.5 21.5 -25.5q-36 -2 -59.5 6t-35.5 28q-11 -18 -28 -28t-36 -10q-49 0 -80.5 48.5t-31.5 125.5t32.5 125.5t83.5 48.5q27 0 47 -20v36q0 42 -17.5 62t-45.5 20q-23 0 -43 -16.5t-29 -47.5q-1 58 27 92t75 34q44 0 78.5 -34.5t34.5 -109.5v-282
q0 -37 6.5 -52.5zM179 86v4v161q-14 21 -36 21q-24 0 -37 -28t-13 -74q0 -48 13 -76t37 -28q23 0 36 20zM70 625q-17 21 -39 30q16 2 22 2q18 0 31 -5q10 4 23 4q7 0 10 -1q-2 -4 -2 -7q0 -5 8 -15l33 -38l32 38q10 12 6 22q3 1 10 1q13 0 23 -4q15 5 32 5q7 0 21 -2
q-19 -8 -39 -30l-85 -99z" />
    <glyph glyph-name="uni01CF" unicode="&#x1cf;" horiz-adv-x="227" 
d="M72 74v552q0 51 -40 74q30 3 53.5 -5t28.5 -8t27.5 8t54.5 5q-40 -22 -40 -74v-552q0 -52 40 -74q-32 -3 -54.5 5t-27.5 8t-28.5 -8t-53.5 -5q40 23 40 74zM42 814q-18 23 -33 30q14 2 18 2q10 0 25 -5q10 4 19 4q7 0 10 -1q-1 -2 -1 -6q0 -6 7 -16l27 -41l28 41
q5 8 6.5 12.5t-0.5 9.5q3 1 10 1q8 0 20 -4q13 5 24 5q4 0 18 -2q-15 -7 -33 -30l-73 -99z" />
    <glyph glyph-name="uni01D0" unicode="&#x1d0;" horiz-adv-x="184" 
d="M52 69v320q0 29 -4.5 51.5t-12.5 32.5q23 3 41 -10q12 20 32.5 31t42.5 9q-19 -24 -19 -84v-350q0 -53 29 -69q-30 -3 -48 5t-21 8t-21 -8t-49 -5q30 16 30 69zM22 620q-18 23 -33 30q14 2 18 2q10 0 25 -5q10 4 19 4q7 0 10 -1q-1 -2 -1 -6q0 -6 7 -16l27 -41l28 41
q5 8 6.5 12.5t-0.5 9.5q3 1 10 1q8 0 20 -4q13 5 24 5q4 0 18 -2q-15 -7 -33 -30l-73 -99z" />
    <glyph glyph-name="uni01D1" unicode="&#x1d1;" horiz-adv-x="421" 
d="M78.5 84q-46.5 93 -46.5 266t46.5 266t132.5 93t132 -93t46 -266t-46 -266t-132 -93t-132.5 93zM278.5 152q22.5 75 22.5 198t-22.5 198t-67.5 75t-67.5 -75t-22.5 -198t22.5 -198t67.5 -75t67.5 75zM125 828q-15 20 -39 30q8 2 24 2q18 0 28 -5q12 4 23 4q7 0 11 -1
q-2 -4 -2 -7q0 -7 7 -15l34 -42l33 42q10 12 6 22q3 1 10 1q13 0 23 -4q10 5 29 5q15 0 23 -2q-21 -9 -39 -30l-85 -98z" />
    <glyph glyph-name="uni01D2" unicode="&#x1d2;" horiz-adv-x="312" 
d="M55.5 62q-35.5 66 -35.5 187q0 122 35.5 188.5t100.5 66.5t101 -67t36 -188t-36 -187t-101 -66t-100.5 66zM198.5 118.5q14.5 44.5 14.5 129.5q0 86 -14.5 132t-42.5 46t-42.5 -46t-14.5 -132q0 -85 14.5 -129.5t42.5 -44.5t42.5 44.5zM70 629q-17 21 -39 30q16 2 22 2
q18 0 31 -5q10 4 23 4q7 0 10 -1q-2 -4 -2 -7q0 -5 8 -15l33 -38l32 38q10 12 6 22q3 1 10 1q13 0 23 -4q15 5 32 5q7 0 21 -2q-19 -8 -39 -30l-85 -99z" />
    <glyph glyph-name="uni01D3" unicode="&#x1d3;" horiz-adv-x="431" 
d="M99.5 43.5q-43.5 51.5 -43.5 143.5v439q0 52 -39 74q30 3 53.5 -5t28.5 -8t27.5 8t54.5 5q-39 -21 -39 -74v-448q0 -50 19 -76.5t54 -26.5q36 0 55 26t19 77v448q0 52 -39 74q32 3 54.5 -5t27.5 -8t28.5 8t53.5 5q-39 -22 -39 -74v-439q0 -92 -43.5 -143.5t-116.5 -51.5
q-72 0 -115.5 51.5zM129 819q-15 20 -39 30q8 2 24 2q18 0 28 -5q12 4 23 4q7 0 11 -1q-2 -4 -2 -7q0 -7 7 -15l34 -42l33 42q10 12 6 22q3 1 10 1q13 0 23 -4q10 5 29 5q15 0 23 -2q-21 -9 -39 -30l-85 -98z" />
    <glyph glyph-name="uni01D4" unicode="&#x1d4;" horiz-adv-x="341" 
d="M298.5 22.5q5.5 -13.5 20.5 -22.5q-41 -2 -66 9t-34 37q-29 -49 -80 -49q-38 0 -65.5 27.5t-27.5 82.5v311q0 32 -4.5 51t-15.5 31l19 1q40 0 60.5 -14.5t20.5 -48.5v-320q0 -25 12 -37.5t30 -12.5q27 0 45 28v335q0 28 -7 44.5t-23 24.5q31 3 49 -5t21 -8t21 8t49 5
q-16 -8 -23 -24.5t-7 -44.5v-362q0 -33 5.5 -46.5zM76 622q-17 21 -39 30q16 2 22 2q18 0 31 -5q10 4 23 4q7 0 10 -1q-2 -4 -2 -7q0 -5 8 -15l33 -38l32 38q10 12 6 22q3 1 10 1q13 0 23 -4q15 5 32 5q7 0 21 -2q-19 -8 -39 -30l-85 -99z" />
    <glyph glyph-name="uni01D5" unicode="&#x1d5;" horiz-adv-x="431" 
d="M99.5 43.5q-43.5 51.5 -43.5 143.5v439q0 52 -39 74q30 3 53.5 -5t28.5 -8t27.5 8t54.5 5q-39 -21 -39 -74v-448q0 -50 19 -76.5t54 -26.5q36 0 55 26t19 77v448q0 52 -39 74q32 3 54.5 -5t27.5 -8t28.5 8t53.5 5q-39 -22 -39 -74v-439q0 -92 -43.5 -143.5t-116.5 -51.5
q-72 0 -115.5 51.5zM118.5 743q-11.5 13 -11.5 33q0 21 11.5 34t31.5 13q19 0 30.5 -13t11.5 -34q0 -20 -11.5 -33t-30.5 -13q-20 0 -31.5 13zM249.5 743q-11.5 13 -11.5 33q0 21 11.5 34t31.5 13t31.5 -13t11.5 -34q0 -20 -11.5 -33t-31.5 -13t-31.5 13zM107 869q4 11 4 14
t-3.5 12t-3.5 21l1 10q7 -9 18 -13t29 -4h125q19 0 30 3.5t19 13.5q1 -17 -3 -28t-4 -14t3.5 -12.5t3.5 -20.5l-1 -10q-12 18 -48 18h-125q-17 0 -28.5 -4t-19.5 -14q-1 17 3 28z" />
    <glyph glyph-name="uni01D6" unicode="&#x1d6;" horiz-adv-x="341" 
d="M298.5 22.5q5.5 -13.5 20.5 -22.5q-41 -2 -66 9t-34 37q-29 -49 -80 -49q-38 0 -65.5 27.5t-27.5 82.5v311q0 32 -4.5 51t-15.5 31l19 1q40 0 60.5 -14.5t20.5 -48.5v-320q0 -25 12 -37.5t30 -12.5q27 0 45 28v335q0 28 -7 44.5t-23 24.5q31 3 49 -5t21 -8t21 8t49 5
q-16 -8 -23 -24.5t-7 -44.5v-362q0 -33 5.5 -46.5zM74 547.5q-10 11.5 -10 29.5q0 19 10 30.5t28 11.5t28.5 -11.5t10.5 -30.5q0 -18 -10.5 -29.5t-28.5 -11.5t-28 11.5zM192.5 547.5q-10.5 11.5 -10.5 29.5q0 19 10.5 30.5t28.5 11.5t28 -11.5t10 -30.5q0 -18 -10 -29.5
t-28 -11.5t-28.5 11.5zM69 664q0 9 3 16.5t3 9.5q0 3 -3 10t-3 16l1 9q7 -8 18.5 -11t29.5 -3h87q18 0 29.5 3t18.5 11l1 -9q0 -10 -3 -16.5t-3 -9.5q0 -2 3 -10t3 -17l-1 -9q-7 8 -18.5 11t-29.5 3h-87q-18 0 -29.5 -3t-18.5 -11z" />
    <glyph glyph-name="uni01D7" unicode="&#x1d7;" horiz-adv-x="431" 
d="M99.5 43.5q-43.5 51.5 -43.5 143.5v439q0 52 -39 74q30 3 53.5 -5t28.5 -8t27.5 8t54.5 5q-39 -21 -39 -74v-448q0 -50 19 -76.5t54 -26.5q36 0 55 26t19 77v448q0 52 -39 74q32 3 54.5 -5t27.5 -8t28.5 8t53.5 5q-39 -22 -39 -74v-439q0 -92 -43.5 -143.5t-116.5 -51.5
q-72 0 -115.5 51.5zM118.5 743q-11.5 13 -11.5 33q0 21 11.5 34t31.5 13q19 0 30.5 -13t11.5 -34q0 -20 -11.5 -33t-30.5 -13q-20 0 -31.5 13zM249.5 743q-11.5 13 -11.5 33q0 21 11.5 34t31.5 13t31.5 -13t11.5 -34q0 -20 -11.5 -33t-31.5 -13t-31.5 13zM198.5 854
q3.5 6 6.5 15l23 62q8 24 8 32q0 4 -2 10q5 1 12 1q11 0 20 -4q12 4 27 4t24 -2q-12 -8 -22 -20t-24 -35l-36 -58q-4 -7 -4 -15h-4q-6 0 -12 2q-6 -3 -16 -3q-7 0 -10 1q6 4 9.5 10z" />
    <glyph glyph-name="uni01D8" unicode="&#x1d8;" horiz-adv-x="341" 
d="M298.5 22.5q5.5 -13.5 20.5 -22.5q-41 -2 -66 9t-34 37q-29 -49 -80 -49q-38 0 -65.5 27.5t-27.5 82.5v311q0 32 -4.5 51t-15.5 31l19 1q40 0 60.5 -14.5t20.5 -48.5v-320q0 -25 12 -37.5t30 -12.5q27 0 45 28v335q0 28 -7 44.5t-23 24.5q31 3 49 -5t21 -8t21 8t49 5
q-16 -8 -23 -24.5t-7 -44.5v-362q0 -33 5.5 -46.5zM74 547.5q-10 11.5 -10 29.5q0 19 10 30.5t28 11.5t28.5 -11.5t10.5 -30.5q0 -18 -10.5 -29.5t-28.5 -11.5t-28 11.5zM192.5 547.5q-10.5 11.5 -10.5 29.5q0 19 10.5 30.5t28.5 11.5t28 -11.5t10 -30.5q0 -18 -10 -29.5
t-28 -11.5t-28.5 11.5zM143.5 643q3.5 6 6.5 15l23 62q8 24 8 31q0 4 -2 10q5 1 13 1q9 0 19 -3q18 4 29 4q14 0 22 -2q-12 -8 -22 -20.5t-24 -35.5l-36 -57q-4 -7 -4 -16h-4q-6 0 -12 2q-8 -2 -15 -2q-8 0 -11 1q6 4 9.5 10z" />
    <glyph glyph-name="uni01D9" unicode="&#x1d9;" horiz-adv-x="431" 
d="M99.5 43.5q-43.5 51.5 -43.5 143.5v439q0 52 -39 74q30 3 53.5 -5t28.5 -8t27.5 8t54.5 5q-39 -21 -39 -74v-448q0 -50 19 -76.5t54 -26.5q36 0 55 26t19 77v448q0 52 -39 74q32 3 54.5 -5t27.5 -8t28.5 8t53.5 5q-39 -22 -39 -74v-439q0 -92 -43.5 -143.5t-116.5 -51.5
q-72 0 -115.5 51.5zM118.5 743q-11.5 13 -11.5 33q0 21 11.5 34t31.5 13q19 0 30.5 -13t11.5 -34q0 -20 -11.5 -33t-30.5 -13q-20 0 -31.5 13zM249.5 743q-11.5 13 -11.5 33q0 21 11.5 34t31.5 13t31.5 -13t11.5 -34q0 -20 -11.5 -33t-31.5 -13t-31.5 13zM129 939
q-15 20 -39 30q8 2 24 2q18 0 28 -5q12 4 23 4q7 0 11 -1q-2 -4 -2 -7q0 -7 7 -15l34 -42l33 42q10 12 6 22q3 1 10 1q13 0 23 -4q10 5 29 5q15 0 23 -2q-21 -9 -39 -30l-85 -98z" />
    <glyph glyph-name="uni01DA" unicode="&#x1da;" horiz-adv-x="341" 
d="M298.5 22.5q5.5 -13.5 20.5 -22.5q-41 -2 -66 9t-34 37q-29 -49 -80 -49q-38 0 -65.5 27.5t-27.5 82.5v311q0 32 -4.5 51t-15.5 31l19 1q40 0 60.5 -14.5t20.5 -48.5v-320q0 -25 12 -37.5t30 -12.5q27 0 45 28v335q0 28 -7 44.5t-23 24.5q31 3 49 -5t21 -8t21 8t49 5
q-16 -8 -23 -24.5t-7 -44.5v-362q0 -33 5.5 -46.5zM74 547.5q-10 11.5 -10 29.5q0 19 10 30.5t28 11.5t28.5 -11.5t10.5 -30.5q0 -18 -10.5 -29.5t-28.5 -11.5t-28 11.5zM192.5 547.5q-10.5 11.5 -10.5 29.5q0 19 10.5 30.5t28.5 11.5t28 -11.5t10 -30.5q0 -18 -10 -29.5
t-28 -11.5t-28.5 11.5zM76 735q-17 21 -39 30q16 2 22 2q18 0 31 -5q10 4 23 4q7 0 10 -1q-2 -4 -2 -7q0 -5 8 -15l33 -38l32 38q10 12 6 22q3 1 10 1q13 0 23 -4q15 5 32 5q7 0 21 -2q-19 -8 -39 -30l-85 -99z" />
    <glyph glyph-name="uni01DB" unicode="&#x1db;" horiz-adv-x="431" 
d="M99.5 43.5q-43.5 51.5 -43.5 143.5v439q0 52 -39 74q30 3 53.5 -5t28.5 -8t27.5 8t54.5 5q-39 -21 -39 -74v-448q0 -50 19 -76.5t54 -26.5q36 0 55 26t19 77v448q0 52 -39 74q32 3 54.5 -5t27.5 -8t28.5 8t53.5 5q-39 -22 -39 -74v-439q0 -92 -43.5 -143.5t-116.5 -51.5
q-72 0 -115.5 51.5zM118.5 743q-11.5 13 -11.5 33q0 21 11.5 34t31.5 13q19 0 30.5 -13t11.5 -34q0 -20 -11.5 -33t-30.5 -13q-20 0 -31.5 13zM249.5 743q-11.5 13 -11.5 33q0 21 11.5 34t31.5 13t31.5 -13t11.5 -34q0 -20 -11.5 -33t-31.5 -13t-31.5 13zM199 855l-36 57
q-14 23 -24 35.5t-22 20.5q8 2 22 2q11 0 29 -4q10 3 19 3q8 0 13 -1q-2 -6 -2 -10q0 -7 8 -31l23 -62q3 -9 6.5 -15t9.5 -10q-3 -1 -11 -1q-7 0 -15 2q-7 -4 -16 -2q0 9 -4 16z" />
    <glyph glyph-name="uni01DC" unicode="&#x1dc;" horiz-adv-x="341" 
d="M298.5 22.5q5.5 -13.5 20.5 -22.5q-41 -2 -66 9t-34 37q-29 -49 -80 -49q-38 0 -65.5 27.5t-27.5 82.5v311q0 32 -4.5 51t-15.5 31l19 1q40 0 60.5 -14.5t20.5 -48.5v-320q0 -25 12 -37.5t30 -12.5q27 0 45 28v335q0 28 -7 44.5t-23 24.5q31 3 49 -5t21 -8t21 8t49 5
q-16 -8 -23 -24.5t-7 -44.5v-362q0 -33 5.5 -46.5zM74 547.5q-10 11.5 -10 29.5q0 19 10 30.5t28 11.5t28.5 -11.5t10.5 -30.5q0 -18 -10.5 -29.5t-28.5 -11.5t-28 11.5zM192.5 547.5q-10.5 11.5 -10.5 29.5q0 19 10.5 30.5t28.5 11.5t28 -11.5t10 -30.5q0 -18 -10 -29.5
t-28 -11.5t-28.5 11.5zM146 648l-36 57q-14 23 -24 35.5t-22 20.5q8 2 22 2q11 0 29 -4q10 3 19 3q8 0 13 -1q-2 -6 -2 -10q0 -7 8 -31l23 -62q3 -9 6.5 -15t9.5 -10q-3 -1 -11 -1q-7 0 -15 2q-7 -4 -16 -2q0 9 -4 16z" />
    <glyph glyph-name="Gcaron" unicode="&#x1e6;" horiz-adv-x="402" 
d="M360 53q4 -25 14 -48q-31 16 -52 16q-14 0 -28 -5.5t-16 -6.5q-32 -14 -59 -14q-93 0 -140 91t-47 262q0 172 51.5 264.5t147.5 92.5q25 0 51 -8q17 -5 27 -5q14 0 28 10q1 -16 -4.5 -31.5t-5.5 -21.5q0 -4 7.5 -32.5t7.5 -63.5q0 -37 -9 -72q-12 142 -97 142
q-54 0 -86 -68.5t-32 -206.5q0 -136 29 -202.5t77 -66.5q23 0 37.5 11t14.5 31v140q0 52 -39 74q20 2 33.5 -0.5t27 -7.5t18.5 -5t18.5 5t27 7.5t33.5 0.5q-39 -22 -39 -74v-148q0 -35 4 -60zM137 824q-15 20 -39 30q8 2 24 2q18 0 28 -5q12 4 23 4q7 0 11 -1q-2 -4 -2 -7
q0 -7 7 -15l34 -42l33 42q10 12 6 22q3 1 10 1q13 0 23 -4q10 5 29 5q15 0 23 -2q-21 -9 -39 -30l-85 -98z" />
    <glyph glyph-name="gcaron" unicode="&#x1e7;" horiz-adv-x="327" 
d="M249 495q23 7 62 5q-16 -10 -22.5 -25t-6.5 -53v-445q0 -171 -160 -171q-28 0 -47 -16q-1 4 -1 12q0 15 6 27q-15 12 -24 32.5t-9 47.5q0 17 2 26q9 -28 28.5 -42t45.5 -14q43 0 61.5 22.5t18.5 75.5v45q-22 -25 -55 -25t-62 25t-47.5 81.5t-18.5 146.5q0 91 18.5 147.5
t47.5 81.5t62 25q41 0 67 -34q11 18 34 25zM203 101v299q-15 28 -40 28q-26 0 -45 -42t-19 -136q0 -93 19 -135t45 -42q25 0 40 28zM89 625q-17 21 -39 30q16 2 22 2q18 0 31 -5q10 4 23 4q7 0 10 -1q-2 -4 -2 -7q0 -5 8 -15l33 -38l32 38q10 12 6 22q3 1 10 1q13 0 23 -4
q15 5 32 5q7 0 21 -2q-19 -8 -39 -30l-85 -99z" />
    <glyph glyph-name="Aringacute" unicode="&#x1fa;" horiz-adv-x="425" 
d="M402.5 28q10.5 -15 30.5 -28q-20 -2 -33.5 0.5t-26.5 7.5t-18 5t-17.5 -5t-23.5 -7.5t-27 -0.5q20 14 20 43q0 6 -2 20l-25 142h-136l-25 -142q-2 -12 -2 -18q0 -31 26 -45q-18 -2 -30.5 0.5t-25 7.5t-17.5 5t-18 -5t-26.5 -7.5t-33.5 -0.5q20 12 30.5 27.5t15.5 41.5
l108 561q3 18 3 30q0 25 -17 41q21 2 35.5 -1t27.5 -8t17 -5q5 0 18.5 5t27.5 8t35 1q-18 -15 -18 -42q0 -12 3 -29l109 -561q5 -26 15.5 -41zM157 279h110l-55 308zM155.5 754q-23.5 23 -23.5 56t23.5 56t56.5 23q32 0 55.5 -23t23.5 -56t-23.5 -56t-55.5 -23
q-33 0 -56.5 23zM236.5 785q10.5 10 10.5 25q0 14 -10.5 25t-24.5 11q-15 0 -25 -10.5t-10 -25.5t10 -25t25 -10q14 0 24.5 10zM195.5 931q3.5 6 6.5 15l23 62q8 24 8 32q0 4 -2 10q5 1 12 1q11 0 20 -4q12 4 27 4t24 -2q-12 -8 -22 -20t-24 -35l-36 -58q-4 -7 -4 -15h-4
q-6 0 -12 2q-6 -3 -16 -3q-7 0 -10 1q6 4 9.5 10z" />
    <glyph glyph-name="aringacute" unicode="&#x1fb;" horiz-adv-x="301" 
d="M265.5 25.5q6.5 -15.5 21.5 -25.5q-36 -2 -59.5 6t-35.5 28q-11 -18 -28 -28t-36 -10q-49 0 -80.5 48.5t-31.5 125.5t32.5 125.5t83.5 48.5q27 0 47 -20v36q0 42 -17.5 62t-45.5 20q-23 0 -43 -16.5t-29 -47.5q-1 58 27 92t75 34q44 0 78.5 -34.5t34.5 -109.5v-282
q0 -37 6.5 -52.5zM179 86v4v161q-14 21 -36 21q-24 0 -37 -28t-13 -74q0 -48 13 -76t37 -28q23 0 36 20zM103.5 551q-21.5 21 -21.5 52t21.5 51.5t52.5 20.5q30 0 51 -20.5t21 -51.5t-21 -52t-51 -21q-31 0 -52.5 21zM178.5 580q9.5 10 9.5 23t-9.5 23t-22.5 10
q-14 0 -23.5 -10t-9.5 -23q0 -14 9.5 -23.5t23.5 -9.5q13 0 22.5 10zM137.5 707q3.5 6 6.5 15l23 62q8 24 8 31q0 4 -2 10q5 1 13 1q9 0 19 -3q18 4 29 4q14 0 22 -2q-12 -8 -22 -20.5t-24 -35.5l-36 -57q-4 -7 -4 -16h-4q-6 0 -12 2q-8 -2 -15 -2q-8 0 -11 1q6 4 9.5 10z
" />
    <glyph glyph-name="AEacute" unicode="&#x1fc;" horiz-adv-x="543" 
d="M535 123q0 -20 -9 -49q-7 -19 -7 -32q0 -28 9 -42q-67 10 -153 10q-76 0 -143 -10q39 22 39 74v147h-130l-22 -147q-2 -14 -2 -20q0 -20 7.5 -32.5t19.5 -21.5q-5 -1 -15 -1q-18 0 -36.5 6t-23.5 6t-24 -6t-40 -6q-12 0 -18 1q18 10 29.5 26.5t16.5 47.5l90 552
q2 14 2 19q0 32 -25 55q26 -6 105.5 -8t139.5 -2q128 0 172 10q-9 -12 -9 -34q0 -12 8 -38t8 -44q0 -15 -6 -36q-5 68 -84 68h-77v-207h38q28 0 46.5 17t26.5 40q1 -7 1 -19q0 -25 -8 -47t-8 -27t8 -27.5t8 -47.5q0 -12 -1 -19q-8 23 -26.5 40t-46.5 17h-38v-254h88
q45 0 64 23.5t21 54.5q5 -17 5 -37zM152 294h119v322h-70zM282.5 734q3.5 6 6.5 15l23 62q8 24 8 32q0 4 -2 10q5 1 12 1q11 0 20 -4q12 4 27 4t24 -2q-12 -8 -22 -20t-24 -35l-36 -58q-4 -7 -4 -15h-4q-6 0 -12 2q-6 -3 -16 -3q-7 0 -10 1q6 4 9.5 10z" />
    <glyph glyph-name="aeacute" unicode="&#x1fd;" horiz-adv-x="461" 
d="M49 44.5q-33 48.5 -33 127.5t34.5 127.5t88.5 48.5q27 0 47 -20v32q0 42 -17.5 62.5t-45.5 20.5q-26 0 -47.5 -17t-33.5 -48q2 58 31 92t75 34q58 0 86 -50q28 50 82 50q67 0 97 -66.5t30 -207.5h-179v-58q0 -47 19 -76t54 -29q39 0 62 32t30 79q3 -19 3 -39
q0 -59 -27.5 -100.5t-80.5 -41.5q-28 0 -54.5 14t-41.5 35q-18 -24 -40 -37t-54 -13q-52 0 -85 48.5zM367 289q0 63 -11.5 101t-36.5 38q-24 0 -36 -36.5t-13 -102.5h97zM166.5 76q11.5 8 18.5 20v158q-15 22 -38 22q-27 0 -41.5 -28t-14.5 -76q0 -47 14 -75.5t38 -28.5
q12 0 23.5 8zM217.5 530q3.5 6 6.5 15l23 62q8 24 8 31q0 4 -2 10q5 1 13 1q9 0 19 -3q18 4 29 4q14 0 22 -2q-12 -8 -22 -20.5t-24 -35.5l-36 -57q-4 -7 -4 -16h-4q-6 0 -12 2q-8 -2 -15 -2q-8 0 -11 1q6 4 9.5 10z" />
    <glyph glyph-name="Oslashacute" unicode="&#x1fe;" horiz-adv-x="421" 
d="M338 626q51 -94 51 -276q0 -173 -46 -266t-132 -93q-53 0 -91 36l-8 -22q-5 -15 -5 -25q0 -17 10 -28q-19 4 -29.5 13t-13.5 10t-17 1t-32 10q14 2 23 11t15 26l19 53q-50 92 -50 274q0 173 46.5 266t132.5 93q50 0 89 -34l5 13q6 15 6 26q0 17 -10 28q18 -4 28.5 -13
t14.5 -10t18 -1.5t31 -9.5q-26 -4 -39 -37zM131 209l135 371q-22 43 -55 43q-45 0 -67.5 -75t-22.5 -198q0 -82 10 -141zM291 496l-136 -373q22 -46 56 -46q45 0 67.5 75t22.5 198q0 87 -10 146zM194.5 743q3.5 6 6.5 15l23 62q8 24 8 32q0 4 -2 10q5 1 12 1q11 0 20 -4
q12 4 27 4t24 -2q-12 -8 -22 -20t-24 -35l-36 -58q-4 -7 -4 -15h-4q-6 0 -12 2q-6 -3 -16 -3q-7 0 -10 1q6 4 9.5 10z" />
    <glyph glyph-name="oslashacute" unicode="&#x1ff;" horiz-adv-x="312" 
d="M293 249q0 -121 -36 -187t-101 -66q-34 0 -62 20l-4 -11q-3 -12 -3 -20q0 -10 6 -19q-14 3 -21 8.5t-10 7.5q-2 1 -12.5 1.5t-22.5 6.5q18 3 28 27l10 29q-45 67 -45 203q0 122 35.5 188.5t100.5 66.5q34 0 62 -20q3 11 3 19q0 10 -6 20q13 -3 20.5 -9.5t10.5 -7.5
q2 -1 7 -1h4q11 0 24 -7q-19 -3 -29 -27l-6 -16q47 -65 47 -206zM105 159l84 243q-12 24 -33 24q-28 0 -42.5 -46t-14.5 -132q0 -53 6 -89zM198.5 118.5q14.5 44.5 14.5 129.5q0 55 -6 94l-85 -244q14 -24 34 -24q28 0 42.5 44.5zM137.5 537q3.5 6 6.5 15l23 62q8 24 8 31
q0 4 -2 10q5 1 13 1q9 0 19 -3q18 4 29 4q14 0 22 -2q-12 -8 -22 -20.5t-24 -35.5l-36 -57q-4 -7 -4 -16h-4q-6 0 -12 2q-8 -2 -15 -2q-8 0 -11 1q6 4 9.5 10z" />
    <glyph glyph-name="Scommaaccent" unicode="&#x218;" horiz-adv-x="360" 
d="M104 5q-22 8 -36 8q-15 0 -27 -11q-2 12 -2 17q0 13 5 27.5t5 19.5q0 6 -7 22q-8 22 -12.5 40t-4.5 42q0 48 23 106q-3 -21 -3 -41q0 -49 17 -85.5t45.5 -56.5t62.5 -20q44 0 66 28t22 68t-24.5 74t-75.5 85q-42 42 -66.5 70.5t-42.5 65t-18 77.5q0 70 41.5 116.5
t110.5 46.5q23 0 57 -9q18 -5 30 -5q16 0 31 11q0 -17 -6.5 -32.5t-6.5 -20.5t5 -20q13 -42 13 -76q0 -29 -9 -68q-4 73 -34 107t-69 34q-37 0 -57 -22t-20 -59q0 -39 25.5 -73t79.5 -86q59 -55 91 -103.5t32 -111.5q0 -79 -45 -128.5t-119 -49.5q-34 0 -77 13zM154 -255
q63 54 63 132q-4 -6 -13.5 -10t-17.5 -4q-19 0 -31.5 13.5t-12.5 34.5t13.5 35t34.5 14t35.5 -18.5t14.5 -49.5q0 -46 -22.5 -87t-60.5 -65z" />
    <glyph glyph-name="scommaaccent" unicode="&#x219;" horiz-adv-x="265" 
d="M85 7q-20 6 -28 6q-13 0 -22 -8q-1 4 -1 12q0 9 3.5 19.5t3.5 13.5q0 4 -6 20q-7 19 -10 30.5t-3 28.5q0 34 15 66q-1 -56 24 -91t66 -35q26 0 40 15t14 40q0 26 -16 47t-55 60q-44 45 -66 77t-22 74q0 53 33.5 86t84.5 33q13 0 38 -5q12 -3 21 -3q13 0 22 8
q2 -14 -3 -26t-5 -16q0 -7 5 -20q9 -27 9 -52q0 -18 -6 -45q-4 40 -24.5 65t-48.5 25q-22 0 -36 -13.5t-14 -38.5q0 -23 16.5 -44.5t50.5 -54.5q45 -43 69 -78t24 -81q0 -54 -34 -89t-89 -35q-18 0 -50 9zM113 -244q63 54 63 132q-4 -6 -13.5 -10t-17.5 -4q-19 0 -31.5 13.5
t-12.5 34.5t13.5 35t34.5 14t35.5 -18.5t14.5 -49.5q0 -46 -22.5 -87t-60.5 -65z" />
    <glyph glyph-name="uni021A" unicode="&#x21a;" horiz-adv-x="348" 
d="M131 74v549h-38q-45 0 -63.5 -22t-20.5 -50q-4 17 -4 34q0 20 8 46q6 24 6 36q0 23 -9 36q49 -10 165 -10q117 0 163 10q-9 -13 -9 -36q0 -12 6 -36q8 -26 8 -46q0 -17 -4 -34q-2 28 -20.5 50t-63.5 22h-38v-549q0 -52 39 -74q-21 -2 -35 0.5t-28 7.5t-19 5t-28.5 -8
t-53.5 -5q39 22 39 74zM159 -244q63 54 63 132q-4 -6 -13.5 -10t-17.5 -4q-19 0 -31.5 13.5t-12.5 34.5t13.5 35t34.5 14t35.5 -18.5t14.5 -49.5q0 -46 -22.5 -87t-60.5 -65z" />
    <glyph glyph-name="uni021B" unicode="&#x21b;" horiz-adv-x="253" 
d="M241 67q0 -30 -21 -50.5t-55 -20.5q-43 0 -68 31.5t-25 85.5v303q-49 -2 -65 -28q-3 40 16 64t49 26v59q0 29 -4.5 51.5t-12.5 32.5q24 3 41 -10q11 20 32 31t43 9q-19 -24 -19 -84v-87h27q43 0 58 24q2 -24 -4.5 -39.5t-6.5 -17.5q0 -3 6.5 -19t4.5 -39q-16 25 -58 25
h-27v-303q0 -29 11 -42t29 -13q16 0 28 13.5t11 41.5q10 -23 10 -44zM127 -240q63 54 63 132q-4 -6 -13.5 -10t-17.5 -4q-19 0 -31.5 13.5t-12.5 34.5t13.5 35t34.5 14t35.5 -18.5t14.5 -49.5q0 -46 -22.5 -87t-60.5 -65z" />
    <glyph glyph-name="uni0232" unicode="&#x232;" horiz-adv-x="390" 
d="M339 691.5q13 4.5 28.5 7.5t39.5 1q-38 -16 -52 -63l-117 -370v-193q0 -52 39 -74q-30 -3 -53.5 5t-28.5 8t-28.5 -8t-53.5 -5q39 22 39 74v193l-117 370q-14 46 -53 63q25 2 40.5 -1t28.5 -7.5t17 -4.5q5 0 17 5t23 7.5t28 0.5q-20 -13 -20 -39q0 -13 4 -24l75 -265
l75 265q4 11 4 24q0 26 -20 39q17 2 28 -0.5t23 -7.5t17 -5q4 0 17 4.5zM88 749q4 11 4 14t-3.5 12t-3.5 21l1 10q7 -9 18 -13t29 -4h125q19 0 30 3.5t19 13.5q1 -17 -3 -28t-4 -14t3.5 -12.5t3.5 -20.5l-1 -10q-12 18 -48 18h-125q-17 0 -28.5 -4t-19.5 -14q-1 17 3 28z
" />
    <glyph glyph-name="uni0233" unicode="&#x233;" horiz-adv-x="335" 
d="M271 495q18 8 48 5q-30 -16 -30 -69v-463q0 -69 -36 -115.5t-119 -46.5q-33 0 -52 -16q-1 4 -1 12q0 15 6 27q-15 12 -24 32.5t-9 47.5q0 17 2 26q9 -28 28.5 -42t45.5 -14q39 0 59.5 19.5t20.5 65.5v69q-27 -36 -72 -36q-39 0 -65.5 26.5t-26.5 78.5v316q0 32 -4.5 51
t-15.5 31l17 1q39 0 61 -17t22 -59v-304q0 -25 10.5 -37t27.5 -12q25 0 46 27v332q0 53 -30 69q30 3 48.5 -5t21.5 -8t21 8zM68 551q0 9 3 16.5t3 9.5q0 3 -3 10t-3 16l1 9q7 -8 18.5 -11t29.5 -3h87q18 0 29.5 3t18.5 11l1 -9q0 -10 -3 -16.5t-3 -9.5q0 -2 3 -10t3 -17
l-1 -9q-7 8 -18.5 11t-29.5 3h-87q-18 0 -29.5 -3t-18.5 -11z" />
    <glyph glyph-name="uni0237" unicode="&#x237;" horiz-adv-x="178" 
d="M36 -71.5q14 76.5 14 190.5v267q0 29 -4.5 51.5t-12.5 32.5q23 3 41 -10q11 20 31.5 31t42.5 9q-19 -24 -19 -84v-308q0 -94 -17 -154.5t-50 -97.5t-85 -63q45 59 59 135.5z" />
    <glyph glyph-name="uni0259" unicode="&#x259;" horiz-adv-x="295" 
d="M239.5 438.5q35.5 -64.5 35.5 -188.5q0 -254 -131 -254q-67 0 -96.5 66.5t-29.5 207.5h177q0 78 -19 122t-58 44q-35 0 -58 -30.5t-31 -83.5q-3 20 -3 38q0 59 27.5 101t80.5 42q70 0 105.5 -64.5zM98 211q2 -139 48 -139q44 0 49 139h-97z" />
    <glyph glyph-name="uni0272" unicode="&#x272;" horiz-adv-x="334" 
d="M324 0q-30 -3 -48 5t-21 8t-21.5 -8t-48.5 -5q30 17 30 69v313q0 25 -12 37.5t-31 12.5q-27 0 -45 -29v-303q0 -77 -25.5 -123.5t-95.5 -72.5q27 44 34.5 87.5t7.5 120.5v319q0 33 -6 46.5t-21 22.5q83 3 101 -46q28 49 79 49q39 0 66 -27.5t27 -82.5v-324q0 -52 30 -69z
" />
    <glyph glyph-name="uni02BA" unicode="&#x2ba;" horiz-adv-x="162" 
d="M105 663q-10 -75 -16 -132l-3 29l-5 40l-5 -41l-3 -28q-6 57 -16 132q-11 83 -11 100q0 16 7 26.5t20 10.5q5 0 8 -1q2 1 8 1q13 0 20 -11t7 -26q0 -17 -11 -100z" />
    <glyph glyph-name="circumflex" unicode="&#x2c6;" horiz-adv-x="217" 
d="M23 555l85 98l86 -98q14 -19 39 -31q-16 -2 -21 -2q-19 0 -31 6q-11 -6 -34 -4l2 8q0 7 -7 15l-34 39l-33 -39q-6 -7 -7 -12t1 -11h-9q-17 0 -24 4q-14 -6 -31 -6q-7 0 -21 2q22 11 39 31z" />
    <glyph glyph-name="caron" unicode="&#x2c7;" horiz-adv-x="203" 
d="M15 622q-17 21 -39 30q16 2 22 2q18 0 31 -5q10 4 23 4q7 0 10 -1q-2 -4 -2 -7q0 -5 8 -15l33 -38l32 38q10 12 6 22q3 1 10 1q13 0 23 -4q15 5 32 5q7 0 21 -2q-19 -8 -39 -30l-85 -99z" />
    <glyph glyph-name="breve" unicode="&#x2d8;" horiz-adv-x="179" 
d="M42 549.5q-26 22.5 -26 63.5q0 11 -2.5 18t-9.5 13q3 1 10 1q8 0 20 -5q13 7 35 7q11 0 17 -1q-22 -12 -22 -35q0 -18 11.5 -28.5t30.5 -10.5t30.5 10.5t11.5 28.5q0 22 -21 35q6 1 17 1q22 0 35 -7q12 5 20 5q7 0 10 -1q-13 -10 -13 -31q0 -41 -26 -63.5t-64 -22.5
t-64 22.5z" />
    <glyph glyph-name="dotaccent" unicode="&#x2d9;" horiz-adv-x="80" 
d="M10.5 573q-10.5 12 -10.5 32q0 19 11 31t29 12t29 -12t11 -31q0 -20 -10.5 -32t-29.5 -12t-29.5 12z" />
    <glyph glyph-name="ring" unicode="&#x2da;" horiz-adv-x="185" 
d="M40.5 548q-21.5 21 -21.5 52t21.5 51.5t52.5 20.5q30 0 51 -20.5t21 -51.5t-21 -52t-51 -21q-31 0 -52.5 21zM115.5 577q9.5 10 9.5 23t-9.5 23t-22.5 10q-14 0 -23.5 -10t-9.5 -23q0 -14 9.5 -23.5t23.5 -9.5q13 0 22.5 10z" />
    <glyph glyph-name="ogonek" unicode="&#x2db;" horiz-adv-x="155" 
d="M128 -158.5q-22 -18.5 -51 -18.5q-31 0 -54 21.5t-23 58.5q0 40 28 66.5t56 35.5l18 -4q-54 -43 -54 -88q0 -24 15 -38t36 -14q17 0 32 8.5t24 25.5q-5 -35 -27 -53.5z" />
    <glyph glyph-name="tilde" unicode="&#x2dc;" horiz-adv-x="275" 
d="M18 539q7 8 17 23q13 20 25 30t33 10t44 -21q6 -5 12.5 -9t11.5 -4q7 0 11.5 4t4.5 10q0 11 -12 18q5 1 14 1q18 0 27 -6q11 7 29 7q7 0 21 -2q-11 -4 -18 -11.5t-12 -15t-7 -9.5q-13 -20 -24.5 -29.5t-32.5 -9.5q-13 0 -22 5t-21 15q-17 13 -25 13q-7 0 -11.5 -4
t-4.5 -10q0 -11 12 -17q-5 -1 -15 -1q-18 0 -25 6q-13 -8 -30 -8q-9 0 -20 3q11 4 18 12z" />
    <glyph glyph-name="hungarumlaut" unicode="&#x2dd;" horiz-adv-x="221" 
d="M161 662q5 0 25 -2q-11 -7 -20.5 -18.5t-25.5 -34.5l-38 -63q-5 -9 -3 -15h-5q-4 0 -10 2q-7 -3 -17 -3q-7 0 -10 1h0.5t0.5 1q-8 -2 -14 -2t-9 1q9 6 17 24l22 64q10 23 10 34q0 3 -2 9l10 1q4 0 12 -2v1q4 1 11 1q5 0 8 -1q16 3 30 2h8z" />
    <glyph glyph-name="gravecomb" unicode="&#x300;" 
d="M-46 535l-36 57q-14 23 -24 35.5t-22 20.5q8 2 22 2q11 0 29 -4q10 3 19 3q8 0 13 -1q-2 -6 -2 -10q0 -7 8 -31l23 -62q3 -9 6.5 -15t9.5 -10q-3 -1 -11 -1q-7 0 -15 2q-7 -4 -16 -2q0 9 -4 16z" />
    <glyph glyph-name="acutecomb" unicode="&#x301;" 
d="M-118.5 530q3.5 6 6.5 15l23 62q8 24 8 31q0 4 -2 10q5 1 13 1q9 0 19 -3q18 4 29 4q14 0 22 -2q-12 -8 -22 -20.5t-24 -35.5l-36 -57q-4 -7 -4 -16h-4q-6 0 -12 2q-8 -2 -15 -2q-8 0 -11 1q6 4 9.5 10z" />
    <glyph glyph-name="uni0302" unicode="&#x302;" 
d="M-194 555l85 98l86 -98q14 -19 39 -31q-16 -2 -21 -2q-19 0 -31 6q-11 -6 -34 -4l2 8q0 7 -7 15l-34 39l-33 -39q-6 -7 -7 -12t1 -11h-9q-17 0 -24 4q-14 -6 -31 -6q-7 0 -21 2q22 11 39 31z" />
    <glyph glyph-name="tildecomb" unicode="&#x303;" 
d="M-238 539q7 8 17 23q13 20 25 30t33 10t44 -21q6 -5 12.5 -9t11.5 -4q7 0 11.5 4t4.5 10q0 11 -12 18q5 1 14 1q18 0 27 -6q11 7 29 7q7 0 21 -2q-11 -4 -18 -11.5t-12 -15t-7 -9.5q-13 -20 -24.5 -29.5t-32.5 -9.5q-13 0 -22 5t-21 15q-17 13 -25 13q-7 0 -11.5 -4
t-4.5 -10q0 -11 12 -17q-5 -1 -15 -1q-18 0 -25 6q-13 -8 -30 -8q-9 0 -20 3q11 4 18 12z" />
    <glyph glyph-name="uni0304" unicode="&#x304;" 
d="M-187 551q0 9 3 16.5t3 9.5q0 3 -3 10t-3 16l1 9q7 -8 18.5 -11t29.5 -3h87q18 0 29.5 3t18.5 11l1 -9q0 -10 -3 -16.5t-3 -9.5q0 -2 3 -10t3 -17l-1 -9q-7 8 -18.5 11t-29.5 3h-87q-18 0 -29.5 -3t-18.5 -11z" />
    <glyph glyph-name="uni0306" unicode="&#x306;" 
d="M-170 549.5q-26 22.5 -26 63.5q0 11 -2.5 18t-9.5 13q3 1 10 1q8 0 20 -5q13 7 35 7q11 0 17 -1q-22 -12 -22 -35q0 -18 11.5 -28.5t30.5 -10.5t30.5 10.5t11.5 28.5q0 22 -21 35q6 1 17 1q22 0 35 -7q12 5 20 5q7 0 10 -1q-13 -10 -13 -31q0 -41 -26 -63.5t-64 -22.5
t-64 22.5z" />
    <glyph glyph-name="uni0307" unicode="&#x307;" 
d="M-69.5 573q-10.5 12 -10.5 32q0 19 11 31t29 12t29 -12t11 -31q0 -20 -10.5 -32t-29.5 -12t-29.5 12z" />
    <glyph glyph-name="uni0308" unicode="&#x308;" 
d="M-187 547.5q-10 11.5 -10 29.5q0 19 10 30.5t28 11.5t28.5 -11.5t10.5 -30.5q0 -18 -10.5 -29.5t-28.5 -11.5t-28 11.5zM-68.5 547.5q-10.5 11.5 -10.5 29.5q0 19 10.5 30.5t28.5 11.5t28 -11.5t10 -30.5q0 -18 -10 -29.5t-28 -11.5t-28.5 11.5z" />
    <glyph glyph-name="hookabovecomb" unicode="&#x309;" 
d="M-107 559q28 0 46.5 12t18.5 34q0 13 -8.5 22t-22.5 9t-22 -8.5t-8 -20.5q0 -14 7 -22q-15 4 -23.5 14t-8.5 24q0 22 16.5 37.5t41.5 15.5q31 0 50.5 -19t19.5 -50q0 -48 -56 -66l12 -24h-16z" />
    <glyph glyph-name="uni030A" unicode="&#x30a;" 
d="M-144.5 548q-21.5 21 -21.5 52t21.5 51.5t52.5 20.5q30 0 51 -20.5t21 -51.5t-21 -52t-51 -21q-31 0 -52.5 21zM-69.5 577q9.5 10 9.5 23t-9.5 23t-22.5 10q-14 0 -23.5 -10t-9.5 -23q0 -14 9.5 -23.5t23.5 -9.5q13 0 22.5 10z" />
    <glyph glyph-name="uni030B" unicode="&#x30b;" 
d="M-60 662q5 0 25 -2q-11 -7 -20.5 -18.5t-25.5 -34.5l-38 -63q-5 -9 -3 -15h-5q-4 0 -10 2q-7 -3 -17 -3q-7 0 -10 1h0.5t0.5 1q-8 -2 -14 -2t-9 1q9 6 17 24l22 64q10 23 10 34q0 3 -2 9l10 1q4 0 12 -2v1q4 1 11 1q5 0 8 -1q16 3 30 2h8z" />
    <glyph glyph-name="uni030C" unicode="&#x30c;" 
d="M-210 622q-17 21 -39 30q16 2 22 2q18 0 31 -5q10 4 23 4q7 0 10 -1q-2 -4 -2 -7q0 -5 8 -15l33 -38l32 38q10 12 6 22q3 1 10 1q13 0 23 -4q15 5 32 5q7 0 21 -2q-19 -8 -39 -30l-85 -99z" />
    <glyph glyph-name="uni0312" unicode="&#x312;" 
d="M-50.5 891q2.5 -18 6.5 -38q3 -17 10 -64t10 -74.5t3 -43.5q0 -24 -9.5 -37.5t-24.5 -13.5t-25 14t-10 37q0 25 8 80t19 122q1 10 8 51z" />
    <glyph glyph-name="uni031B" unicode="&#x31b;" 
d="M-108 394q0 19 9 27.5t21 8.5q15 0 25.5 9.5t10.5 23.5q0 15 -10 24.5t-24 9.5q-7 0 -15.5 -4t-12.5 -11q3 19 16.5 28.5t31.5 9.5q20 0 38 -15t18 -40t-17 -40t-40 -15q-24 0 -35.5 -6.5t-13.5 -26.5q-2 12 -2 17z" />
    <glyph glyph-name="dotbelowcomb" unicode="&#x323;" 
d="M-66 -120q-13 14 -13 35q0 20 13 34t34 14q20 0 33 -14t13 -34q0 -21 -13 -35t-33 -14q-21 0 -34 14z" />
    <glyph glyph-name="uni0326" unicode="&#x326;" 
d="M-111 -242q63 54 63 132q-4 -6 -13.5 -10t-17.5 -4q-19 0 -31.5 13.5t-12.5 34.5t13.5 35t34.5 14t35.5 -18.5t14.5 -49.5q0 -46 -22.5 -87t-60.5 -65z" />
    <glyph glyph-name="uni0327" unicode="&#x327;" 
d="M-145.5 -160q15.5 -8 32.5 -8q23 0 39 14.5t16 40.5q0 25 -15 38t-38 13q-32 0 -51 -21l40 90h54l-18 -37q18 0 30 -6q24 -5 40 -26t16 -51q0 -43 -26 -67.5t-62 -24.5q-30 0 -54 17.5t-30 50.5q11 -15 26.5 -23z" />
    <glyph glyph-name="uni0328" unicode="&#x328;" 
d="M-27 -158.5q-22 -18.5 -51 -18.5q-31 0 -54 21.5t-23 58.5q0 40 28 66.5t56 35.5l18 -4q-54 -43 -54 -88q0 -24 15 -38t36 -14q17 0 32 8.5t24 25.5q-5 -35 -27 -53.5z" />
    <glyph glyph-name="uni0335" unicode="&#x335;" 
d="M-49 324h-122q-34 0 -48 -22q-1 5 -1 12q0 12 3.5 21.5t4.5 14.5q-1 5 -4.5 15t-3.5 22q0 8 1 13q12 -23 48 -23h122q18 0 29.5 5t19.5 17q2 -18 -3 -31.5t-5 -17.5t4 -14.5t4 -22.5q0 -8 -1 -12q-13 23 -48 23z" />
    <glyph glyph-name="uni0336" unicode="&#x336;" 
d="M-295 373h191q35 0 49 23q1 -4 1 -12q0 -12 -4 -22.5t-4 -14.5t4 -14.5t4 -22.5q0 -8 -1 -12q-13 23 -49 23h-191q-34 0 -48 -23q-1 4 -1 12q0 12 4 22.5t4 13.5q0 4 -4 15t-4 23q0 8 1 12q14 -23 48 -23z" />
    <glyph glyph-name="uni0337" unicode="&#x337;" 
d="M-268 317q13 0 32 11l152 87q31 19 31 44q12 -15 13.5 -29t3.5 -17t13.5 -11.5t18.5 -26.5q-12 5 -21 5q-16 0 -33 -10l-152 -87q-29 -17 -30 -44q-12 15 -14 28.5t-4 17.5q-2 3 -13 12t-18 26q10 -6 21 -6z" />
    <glyph glyph-name="uni0338" unicode="&#x338;" 
d="M-249 33l163 466q3 12 3 20q0 10 -6 20q13 -3 20.5 -9.5t10.5 -7.5q2 -1 7 -1h4q11 0 24 -7q-19 -3 -29 -27l-162 -466q-3 -12 -3 -20q0 -10 6 -19q-14 3 -21 8.5t-10 7.5q-2 1 -12.5 1.5t-22.5 6.5q18 3 28 27z" />
    <glyph glyph-name="Alpha" unicode="&#x391;" horiz-adv-x="513" 
d="M487.5 27.5q13.5 -16.5 33.5 -27.5q-6 -1 -18 -1q-22 0 -41 6t-23 6q-5 0 -23.5 -6t-36.5 -6q-10 0 -15 1q22 17 22 48q0 11 -3 26l-33 179l-91 -63l-95 65l-34 -181q-3 -15 -3 -26q0 -31 22 -48q-5 -1 -15 -1q-18 0 -36.5 6t-23.5 6t-24 -6t-40 -6q-12 0 -18 1
q20 11 33.5 27.5t18.5 46.5l101 546h-20q-45 0 -63.5 -22t-20.5 -50q-4 17 -4 34q0 20 8 46q6 24 6 36q0 23 -9 36q50 -10 212 -10t211 10q-9 -13 -9 -36q0 -12 6 -36q8 -26 8 -46q0 -17 -4 -34q-2 28 -20.5 50t-63.5 22h-15l102 -546q5 -30 18.5 -46.5zM258 283l76 53
l-53 284h-49l-53 -282z" />
    <glyph glyph-name="uni0394" unicode="&#x394;" horiz-adv-x="567" 
d="M-8 0l291 716l292 -716h-583zM121 83h324l-162 413z" />
    <glyph glyph-name="uni03A9" unicode="&#x3a9;" horiz-adv-x="635" 
d="M41 35q0 17 -9 40q-1 3 -6.5 22.5t-5.5 45.5q0 21 4 42q2 -39 21.5 -73.5t64.5 -34.5h44q-87 150 -87 305q0 89 29 162.5t85.5 116.5t136.5 43q79 0 136 -43t86 -116.5t29 -162.5q0 -157 -88 -305h45q45 0 64.5 34.5t21.5 73.5q4 -21 4 -42q0 -26 -5.5 -45.5t-6.5 -22.5
q-9 -23 -9 -40q0 -21 9 -35q-33 5 -77 8t-75 3q-22 0 -52 -3t-51 -8q72 95 103.5 187.5t31.5 194.5q0 64 -19 119t-56.5 88t-90.5 33t-91 -33t-57 -88t-19 -119q0 -101 31.5 -194t104.5 -188q-22 5 -51.5 8t-51.5 3q-32 0 -75.5 -3t-76.5 -8q9 14 9 35z" />
    <glyph glyph-name="uni03BC" unicode="&#x3bc;" horiz-adv-x="345" 
d="M303 22.5q6 -13.5 21 -22.5q-72 -3 -95 34q-12 -17 -30 -27t-38 -10q-11 0 -26 5v-69q0 -52 30 -69l-13 -1q-23 0 -38 6.5t-18 6.5t-18.5 -6.5t-37.5 -6.5l-14 1q30 16 30 69v485q0 32 -4.5 51t-15.5 31l19 1q40 0 60 -14.5t20 -48.5v-326q0 -27 11.5 -39t28.5 -12
q21 0 43 22v348q0 53 -30 69q30 3 48 -5t21 -8t21.5 8t48.5 5q-30 -16 -30 -69v-362q0 -33 6 -46.5z" />
    <glyph glyph-name="pi" unicode="&#x3c0;" horiz-adv-x="629" 
d="M616 475q8 -26 8 -46q0 -17 -4 -34q-2 28 -20.5 50t-63.5 22h-49v-298q0 -75 6.5 -113t28.5 -80q-67 23 -93.5 66t-26.5 127v298h-174v-393q0 -55 40 -74q-21 -2 -35.5 1t-28.5 7.5t-19 4.5t-19 -4.5t-29 -7.5t-37 -1q42 19 42 74v393h-49q-45 0 -63.5 -22t-20.5 -50
q-4 17 -4 34q0 20 8 46q6 24 6 36q0 23 -9 36q50 -10 305 -10t304 10q-9 -13 -9 -36q0 -12 6 -36z" />
    <glyph glyph-name="Wgrave" unicode="&#x1e80;" horiz-adv-x="657" 
d="M611 694q18 7 39 7q10 0 15 -1q-18 -11 -28 -25.5t-14 -37.5l-95 -541q-4 -20 -4 -41q0 -40 21 -55q-17 -2 -30 1t-27 8t-19 5t-18 -5t-25.5 -8t-29.5 -1q16 17 16 48q0 22 -8 54l-75 344l-75 -344q-7 -35 -7 -55q0 -31 15 -47q-17 -2 -29 1t-25 8t-18 5t-28 -8.5
t-49 -5.5q22 15 22 54q0 17 -5 42l-95 541q-4 23 -14 37.5t-29 25.5q5 1 15 1q21 0 39 -7t22 -7q5 0 25 8t44 5q-20 -11 -20 -43q0 -6 2 -20l76 -472q11 51 21 90q35 153 53 241t18 130q0 30 -8.5 47.5t-24.5 27.5q5 1 13 1q19 0 38.5 -7.5t23.5 -7.5t23.5 7.5t38.5 7.5
q8 0 13 -1q-16 -10 -24 -27.5t-8 -47.5q0 -40 17 -125t50 -230q12 -49 24 -106l77 472q2 14 2 19q0 32 -21 44q23 3 43 -5t25 -8q4 0 22 7zM313 735l-36 57q-14 23 -24 35.5t-22 20.5q8 2 22 2q11 0 29 -4q10 3 19 3q8 0 13 -1q-2 -6 -2 -10q0 -7 8 -31l23 -62q3 -9 6.5 -15
t9.5 -10q-3 -1 -11 -1q-7 0 -15 2q-7 -4 -16 -2q0 9 -4 16z" />
    <glyph glyph-name="wgrave" unicode="&#x1e81;" horiz-adv-x="519" 
d="M475 494.5q16 6.5 34 6.5l12 -1q-28 -16 -37 -63l-70 -380q-2 -16 -2 -22q0 -26 13 -35q-23 -3 -39 5t-20 8q-3 0 -20 -7.5t-37 -5.5q8 9 8 27t-8 47l-50 204l-49 -204q-8 -29 -8 -47t8 -27q-20 -2 -37 5.5t-20 7.5q-4 0 -20 -8t-39 -5q13 9 13 35q0 6 -2 22l-70 380
q-9 47 -37 63l12 1q18 0 34 -6.5t21 -6.5t18.5 6.5t27.5 6.5l10 -1q-16 -9 -16 -38q0 -13 3 -25l53 -306l7 27q28 112 42 177t14 108q0 40 -22 58q20 2 37 -3.5t20 -5.5t21 5.5t37 3.5q-22 -16 -22 -58q0 -43 14 -108t42 -177l7 -27l53 306q3 12 3 25q0 29 -16 38l10 1
q14 0 27.5 -6.5t18.5 -6.5t21 6.5zM243 535l-36 57q-14 23 -24 35.5t-22 20.5q8 2 22 2q11 0 29 -4q10 3 19 3q8 0 13 -1q-2 -6 -2 -10q0 -7 8 -31l23 -62q3 -9 6.5 -15t9.5 -10q-3 -1 -11 -1q-7 0 -15 2q-7 -4 -16 -2q0 9 -4 16z" />
    <glyph glyph-name="Wacute" unicode="&#x1e82;" horiz-adv-x="657" 
d="M611 694q18 7 39 7q10 0 15 -1q-18 -11 -28 -25.5t-14 -37.5l-95 -541q-4 -20 -4 -41q0 -40 21 -55q-17 -2 -30 1t-27 8t-19 5t-18 -5t-25.5 -8t-29.5 -1q16 17 16 48q0 22 -8 54l-75 344l-75 -344q-7 -35 -7 -55q0 -31 15 -47q-17 -2 -29 1t-25 8t-18 5t-28 -8.5
t-49 -5.5q22 15 22 54q0 17 -5 42l-95 541q-4 23 -14 37.5t-29 25.5q5 1 15 1q21 0 39 -7t22 -7q5 0 25 8t44 5q-20 -11 -20 -43q0 -6 2 -20l76 -472q11 51 21 90q35 153 53 241t18 130q0 30 -8.5 47.5t-24.5 27.5q5 1 13 1q19 0 38.5 -7.5t23.5 -7.5t23.5 7.5t38.5 7.5
q8 0 13 -1q-16 -10 -24 -27.5t-8 -47.5q0 -40 17 -125t50 -230q12 -49 24 -106l77 472q2 14 2 19q0 32 -21 44q23 3 43 -5t25 -8q4 0 22 7zM312.5 734q3.5 6 6.5 15l23 62q8 24 8 32q0 4 -2 10q5 1 12 1q11 0 20 -4q12 4 27 4t24 -2q-12 -8 -22 -20t-24 -35l-36 -58
q-4 -7 -4 -15h-4q-6 0 -12 2q-6 -3 -16 -3q-7 0 -10 1q6 4 9.5 10z" />
    <glyph glyph-name="wacute" unicode="&#x1e83;" horiz-adv-x="519" 
d="M475 494.5q16 6.5 34 6.5l12 -1q-28 -16 -37 -63l-70 -380q-2 -16 -2 -22q0 -26 13 -35q-23 -3 -39 5t-20 8q-3 0 -20 -7.5t-37 -5.5q8 9 8 27t-8 47l-50 204l-49 -204q-8 -29 -8 -47t8 -27q-20 -2 -37 5.5t-20 7.5q-4 0 -20 -8t-39 -5q13 9 13 35q0 6 -2 22l-70 380
q-9 47 -37 63l12 1q18 0 34 -6.5t21 -6.5t18.5 6.5t27.5 6.5l10 -1q-16 -9 -16 -38q0 -13 3 -25l53 -306l7 27q28 112 42 177t14 108q0 40 -22 58q20 2 37 -3.5t20 -5.5t21 5.5t37 3.5q-22 -16 -22 -58q0 -43 14 -108t42 -177l7 -27l53 306q3 12 3 25q0 29 -16 38l10 1
q14 0 27.5 -6.5t18.5 -6.5t21 6.5zM240.5 530q3.5 6 6.5 15l23 62q8 24 8 31q0 4 -2 10q5 1 13 1q9 0 19 -3q18 4 29 4q14 0 22 -2q-12 -8 -22 -20.5t-24 -35.5l-36 -57q-4 -7 -4 -16h-4q-6 0 -12 2q-8 -2 -15 -2q-8 0 -11 1q6 4 9.5 10z" />
    <glyph glyph-name="Wdieresis" unicode="&#x1e84;" horiz-adv-x="657" 
d="M611 694q18 7 39 7q10 0 15 -1q-18 -11 -28 -25.5t-14 -37.5l-95 -541q-4 -20 -4 -41q0 -40 21 -55q-17 -2 -30 1t-27 8t-19 5t-18 -5t-25.5 -8t-29.5 -1q16 17 16 48q0 22 -8 54l-75 344l-75 -344q-7 -35 -7 -55q0 -31 15 -47q-17 -2 -29 1t-25 8t-18 5t-28 -8.5
t-49 -5.5q22 15 22 54q0 17 -5 42l-95 541q-4 23 -14 37.5t-29 25.5q5 1 15 1q21 0 39 -7t22 -7q5 0 25 8t44 5q-20 -11 -20 -43q0 -6 2 -20l76 -472q11 51 21 90q35 153 53 241t18 130q0 30 -8.5 47.5t-24.5 27.5q5 1 13 1q19 0 38.5 -7.5t23.5 -7.5t23.5 7.5t38.5 7.5
q8 0 13 -1q-16 -10 -24 -27.5t-8 -47.5q0 -40 17 -125t50 -230q12 -49 24 -106l77 472q2 14 2 19q0 32 -21 44q23 3 43 -5t25 -8q4 0 22 7zM232.5 743q-11.5 13 -11.5 33q0 21 11.5 34t31.5 13q19 0 30.5 -13t11.5 -34q0 -20 -11.5 -33t-30.5 -13q-20 0 -31.5 13zM363.5 743
q-11.5 13 -11.5 33q0 21 11.5 34t31.5 13t31.5 -13t11.5 -34q0 -20 -11.5 -33t-31.5 -13t-31.5 13z" />
    <glyph glyph-name="wdieresis" unicode="&#x1e85;" horiz-adv-x="519" 
d="M475 494.5q16 6.5 34 6.5l12 -1q-28 -16 -37 -63l-70 -380q-2 -16 -2 -22q0 -26 13 -35q-23 -3 -39 5t-20 8q-3 0 -20 -7.5t-37 -5.5q8 9 8 27t-8 47l-50 204l-49 -204q-8 -29 -8 -47t8 -27q-20 -2 -37 5.5t-20 7.5q-4 0 -20 -8t-39 -5q13 9 13 35q0 6 -2 22l-70 380
q-9 47 -37 63l12 1q18 0 34 -6.5t21 -6.5t18.5 6.5t27.5 6.5l10 -1q-16 -9 -16 -38q0 -13 3 -25l53 -306l7 27q28 112 42 177t14 108q0 40 -22 58q20 2 37 -3.5t20 -5.5t21 5.5t37 3.5q-22 -16 -22 -58q0 -43 14 -108t42 -177l7 -27l53 306q3 12 3 25q0 29 -16 38l10 1
q14 0 27.5 -6.5t18.5 -6.5t21 6.5zM171 547.5q-10 11.5 -10 29.5q0 19 10 30.5t28 11.5t28.5 -11.5t10.5 -30.5q0 -18 -10.5 -29.5t-28.5 -11.5t-28 11.5zM289.5 547.5q-10.5 11.5 -10.5 29.5q0 19 10.5 30.5t28.5 11.5t28 -11.5t10 -30.5q0 -18 -10 -29.5t-28 -11.5
t-28.5 11.5z" />
    </font>
</defs>
</svg>
