<svg xmlns="http://www.w3.org/2000/svg" viewBox="0 0 391.5 115.3"><style>.st81{fill:#383838}</style><switch><g><g id="Layer_1"><linearGradient id="SVGID_2_" gradientUnits="userSpaceOnUse" x1="-7.966" y1="3.319" x2="425.512" y2="96.314"><stop offset="0" stop-color="#c89531"/><stop offset="1" stop-color="#523e00"/></linearGradient><path d="M258.7 72.3c-.4-.5 3.2-8.2 11.1-8.3-.8-2.6-5.3-3.7-8.5-2.2.2-5.2-3.5-8.2-5.4-8.2.9 5.7-.7 9.4-1.8 12.2h-.4c-1.7-2.6-3.3-5.2-5-7.8.3-.4.6-.6.8-.9 2.2-2.4 4.2-4.8 5.6-7.7 1.8-3.5 1.9-7.1-.1-10.5-2.5-4.3-8.2-5.9-13.1-3.8-4.4 1.8-6.9 7-5.6 11.7.6 2.1 1.6 4.2 2.4 6.2.4.9 1.3 1.9 1.2 2.8-.1.8-1.2 1.5-1.9 2.3-.4.5-.9 1-1.3 1.5-2.6 3.2-4.2 6.7-3.8 10.9.2 2.9 1.1 5.5 3.2 7.5 3.1 3 6.9 3.5 10.9 2.5 2.5-.6 4.7-2 6.6-3.7l.4.4c.9 1.2 1.7 2.9 2.9 3.5 1.3.6 3.1.1 4.6.1h3.6c-.4-.5-.6-.8-.8-1.1-1.9-2.4-3.7-4.9-5.6-7.4zm-15.5-27.9c.1-1.5.6-2.7 2-3.3 2.3-1 4.5 1 4.3 3.7-.2 2.8-1.8 4.8-3.7 6.8-1.4-2.4-2.7-4.6-2.6-7.2zm1 29.5c-2-.4-3.1-1.8-3.7-3.7-.8-3 .1-6 2.6-7.9l6 9.6c-1.3 1.4-2.8 2.4-4.9 2z" fill="url(#SVGID_2_)"/><linearGradient id="SVGID_4_" gradientUnits="userSpaceOnUse" x1="-3.317" y1="-18.351" x2="430.161" y2="74.645"><stop offset="0" stop-color="#c89531"/><stop offset="1" stop-color="#523e00"/></linearGradient><path d="M358.2 60.7c-.3-.3-.5-.5-.6-.7-6.8-8.2-13.6-16.5-20.5-24.7-.3-.4-.7-1-1.3-.7-.3.1-.4.8-.4 1.3v44.8h7.2v-26c.2.3.4.4.5.6 6.9 8.1 13.8 16.3 20.8 24.4.4.4.9.6 1.4.9.1-.5.4-1.1.4-1.6V35.2v-.8h-7.5v26.3z" fill="url(#SVGID_4_)"/><linearGradient id="SVGID_6_" gradientUnits="userSpaceOnUse" x1="-13.343" y1="28.383" x2="420.135" y2="121.379"><stop offset="0" stop-color="#c89531"/><stop offset="1" stop-color="#523e00"/></linearGradient><path d="M137.8 79.8c.1-.3 0-.6 0-.9V35.2v-.8h-7.5v26.3l-.5-.5-4.2-5.1c-5.5-6.6-11-13.3-16.6-19.9-.3-.4-.8-.5-1.3-.7-.1.4-.4.8-.4 1.3V80.7h7.1V54.9c.2 0 .3.1.3.2 6.3 7.4 12.5 14.7 18.8 22.1.9 1 1.8 2.1 2.7 3.1.2.2.6.4.8.3.6-.1.7-.5.8-.8z" fill="url(#SVGID_6_)"/><linearGradient id="SVGID_8_" gradientUnits="userSpaceOnUse" x1="-4.863" y1="-11.146" x2="428.616" y2="81.85"><stop offset="0" stop-color="#c89531"/><stop offset="1" stop-color="#523e00"/></linearGradient><path d="M328.4 45.2c-1.2-3.4-3-6.5-6-8.8-4.4-3.4-11.1-2.9-15 1.1-2.2 2.3-3.7 4.9-4.6 7.9-2.6 8.2-2.5 16.4.2 24.6 1.1 3.4 2.9 6.4 5.7 8.7 3.3 2.7 8.4 3.1 12.1 1 3.3-1.9 5.4-4.7 6.8-8.1 2-4.5 2.7-9.3 2.8-13.9 0-4.4-.5-8.5-2-12.5zm-6 15.4c-.2 2.7-.7 5.4-2 7.9-.6 1.1-1.3 2.1-2.2 2.9-1.8 1.6-4.3 1.3-5.9-.5-1.6-1.8-2.3-3.9-2.7-6.2-.4-2.2-.6-4.4-.8-5.6 0-5.1.3-9.1 2-12.9.5-1.1 1.2-2.3 2.1-3.1 1.5-1.5 3.7-1.5 5.3-.1 1.5 1.3 2.4 3 3 4.8 1.3 4.2 1.6 8.5 1.2 12.8z" fill="url(#SVGID_8_)"/><linearGradient id="SVGID_9_" gradientUnits="userSpaceOnUse" x1="-16.291" y1="42.126" x2="417.187" y2="135.121"><stop offset="0" stop-color="#c89531"/><stop offset="1" stop-color="#523e00"/></linearGradient><path d="M73.6 79.8c-2.1-5-4.3-10-6.5-15-.1-.6-.1-.8.4-1.2.7-.7 1.4-1.4 2-2.2 3.3-5 4.1-10.4 2.7-16.1-1.2-4.2-3.6-7.3-7.5-9.3-2.3-1.1-4.7-1.7-7.2-1.8-2-.1-4 .1-5.9.2v46.3h7.7V67.2c.3.3.4.6.5.8 1.8 4 3.7 8.1 5.5 12.1.1.2.4.6.6.6h8c0-.4-.1-.7-.3-.9zm-8.2-28c-.2 3.6-2.9 7.2-6 7.7V41.6c3.3.8 6.3 4.9 6 10.2z" fill="url(#SVGID_9_)"/><linearGradient id="SVGID_10_" gradientUnits="userSpaceOnUse" x1="-9.847" y1="12.086" x2="423.632" y2="105.081"><stop offset="0" stop-color="#c89531"/><stop offset="1" stop-color="#523e00"/></linearGradient><path d="M220.1 79.7c-2.1-5-4.3-10-6.4-15-.2-.5-.2-.7.2-1.1.7-.7 1.5-1.4 2-2.2 3.3-5 4.1-10.4 2.7-16.1-1-3.9-3.3-7-6.8-8.9-3.6-1.9-7.4-2.3-11.4-2-.8.1-1.5.2-2.2.3v46.1h7.7V67.3h.1c.1.3.3.6.4.9 1.8 4 3.7 8 5.5 12.1.2.5.4.7 1 .6h7.7c-.2-.6-.3-.9-.5-1.2zm-14.2-20.2V41.6c3.3.7 6 5 6 9.3 0 4.6-2.8 7.9-6 8.6z" fill="url(#SVGID_10_)"/><linearGradient id="SVGID_11_" gradientUnits="userSpaceOnUse" x1="-10.775" y1="16.415" x2="422.703" y2="109.41"><stop offset="0" stop-color="#c89531"/><stop offset="1" stop-color="#523e00"/></linearGradient><path d="M191.5 41.7v-7.3h-20.8v46.2h20.8v-7.7h-12.9V57.3h12.6v-7.1h-12.6v-8.6c4.3.1 8.6.1 12.9.1z" fill="url(#SVGID_11_)"/><linearGradient id="SVGID_12_" gradientUnits="userSpaceOnUse" x1="-11.578" y1="20.156" x2="421.9" y2="113.152"><stop offset="0" stop-color="#c89531"/><stop offset="1" stop-color="#523e00"/></linearGradient><path d="M164.2 80.7v-29h-8.8c1.2 6.1 1.5 12.5 1.5 18.9-1.5-1-2.6-2.1-3.5-3.5-3.1-4.6-3.8-9.7-2.5-15 .9-3.9 3-7 6.6-9 2.1-1.2 4.3-1.6 6.7-1.7v-7c-2.6 0-5.1.3-7.4 1.2-6.7 2.4-10.8 7.2-12.9 13.9-1.8 6.1-1.6 12.2.9 18 2.6 6.2 7 10.5 13.6 12.4 1.8.6 3.8.8 5.8.8z" fill="url(#SVGID_12_)"/><linearGradient id="SVGID_13_" gradientUnits="userSpaceOnUse" x1="-15.078" y1="36.473" x2="418.4" y2="129.468"><stop offset="0" stop-color="#c89531"/><stop offset="1" stop-color="#523e00"/></linearGradient><path d="M104.9 80.3c-4.4-15-8.8-30-13.2-45.1-.1-.4-.3-.9-.8-.9s-.7.4-.9.9c-.7 2.3-1.4 4.5-2.1 6.8-3.9 12.2-7.7 24.3-11.5 36.3-.2.8-.5 1.6-.7 2.4h7.5c.7-2.3 1.4-4.6 2-6.8.1-.5.3-.7.9-.7h8c.6 0 .8.2 1 .8.6 2.1 1.3 4.2 1.9 6.3.1.2.4.5.5.5h7.3c.1-.3.1-.4.1-.5zM87.5 66.1c.9-3.1 1.9-6.2 2.8-9.3h.1c.9 3.1 1.8 6.2 2.7 9.4-1.8-.1-3.6-.1-5.6-.1z" fill="url(#SVGID_13_)"/><linearGradient id="SVGID_14_" gradientUnits="userSpaceOnUse" x1="-1.991" y1="-24.529" x2="431.487" y2="68.466"><stop offset="0" stop-color="#c89531"/><stop offset="1" stop-color="#523e00"/></linearGradient><path d="M380.2 73.6c-1.3-.2-2.1-1.1-2.8-2.1-.4-.5-.7-1.1-1.1-1.7-2.1 1.3-4.1 2.6-6.2 4 .8 1.1 1.4 2.2 2.2 3.1.9 1.1 1.9 2.1 3.1 2.9 2.4 1.5 5.1 1.5 7.9.9 2.5-.5 4.8-1.7 6.3-3.9 2.3-3.3 2.5-6.9 1.3-10.6-1.1-3.4-3.2-6.2-5.5-8.9-2.1-2.5-4.3-4.9-5.8-7.8-.8-1.5-1.4-3-1.3-4.8 0-.8.2-1.6.7-2.3 1.1-1.7 3.4-1.7 4.6-.2.6.8 1.1 1.8 1.6 2.7 1.6-.7 3.2-1.5 4.9-2.2.5-.2 1-.5 1.6-.7-.6-2.4-2.4-5.1-4.4-6.4-1.9-1.4-4.1-1.7-6.4-1.5-2.8.3-5.2 1.4-7 3.5-3.3 3.9-3.6 8.3-1.6 12.8 1.7 3.9 4.4 7.2 7.1 10.5 2 2.5 3.8 5.1 4.5 8.3.6 2.6-1.3 4.8-3.7 4.4z" fill="url(#SVGID_14_)"/><linearGradient id="SVGID_15_" gradientUnits="userSpaceOnUse" x1="-6.117" y1="-5.297" x2="427.361" y2="87.698"><stop offset="0" stop-color="#c89531"/><stop offset="1" stop-color="#523e00"/></linearGradient><path d="M297.4 73.1c.7-3.1.1-5.9-1.2-8.7-1.4-3-3.4-5.5-5.5-8-1.8-2.1-3.6-4.3-4.9-6.8-1-1.8-1.6-3.7-1.2-5.9.3-1.6 1.9-2.7 3.5-2.4 1.1.2 1.7.9 2.3 1.8.4.6.6 1.3.9 1.9 2.2-1 4.4-2 6.5-3-.8-2.5-2.1-4.6-4.1-6.2-1.9-1.5-4.2-1.9-6.6-1.7-2.8.3-5.3 1.4-7.1 3.6-3.2 3.9-3.5 8.3-1.5 12.7 1.7 3.9 4.4 7.2 7.1 10.5 2 2.5 3.8 5.1 4.5 8.3.6 2.5-1.3 4.7-3.7 4.3-1.2-.2-2.1-1-2.8-2-.4-.6-.7-1.1-1.1-1.7-2.1 1.3-4.1 2.6-6.2 4 .7 1.1 1.4 2.2 2.2 3.1 1 1.1 2 2.2 3.2 3 2.2 1.4 4.8 1.5 7.4 1 4-.8 7.3-3.3 8.3-7.8z" fill="url(#SVGID_15_)"/><linearGradient id="SVGID_16_" gradientUnits="userSpaceOnUse" x1="-18.271" y1="51.354" x2="415.207" y2="144.35"><stop offset="0" stop-color="#c89531"/><stop offset="1" stop-color="#523e00"/></linearGradient><path d="M8.9 42.6c1.1-1.7 3.4-1.8 4.6-.2.6.8 1.1 1.8 1.6 2.7 2.1-1 4.3-2 6.5-3-.8-2.6-2.2-4.7-4.3-6.3-1.9-1.4-4.2-1.8-6.5-1.6-2.8.3-5.2 1.4-7 3.6C.6 41.7.3 46.1 2.3 50.5c1.7 3.9 4.3 7.2 7 10.5 2 2.5 3.8 5.1 4.5 8.3.6 2.5-1.3 4.7-3.7 4.4-1.3-.2-2.1-1-2.8-2.1-.4-.5-.7-1.1-1.1-1.7-2.1 1.3-4.1 2.6-6.2 4C.8 75 1.4 76.1 2.3 77c.9 1.1 2 2.1 3.1 2.9 1.9 1.2 4.1 1.4 6.3 1.1 3.1-.3 5.9-1.5 7.8-4.2 2.3-3.2 2.5-6.8 1.3-10.5-1.1-3.4-3.2-6.2-5.5-8.9-2.1-2.5-4.3-4.9-5.8-7.8-.8-1.5-1.4-3.1-1.3-4.8.1-.8.3-1.6.7-2.2z" fill="url(#SVGID_16_)"/><linearGradient id="SVGID_17_" gradientUnits="userSpaceOnUse" x1="-17.022" y1="45.531" x2="416.457" y2="138.526"><stop offset="0" stop-color="#c89531"/><stop offset="1" stop-color="#523e00"/></linearGradient><path d="M39.8 80.7v-39c2.3 0 4.7.6 6.8 1.5v-8.7H25v8.7c1.9-1.2 4.3-1.5 6.6-1.5v39h8.2z" fill="url(#SVGID_17_)"/><g><path class="st81" d="M5.8 18.9H4.2v.4h8v-.4h-1.6l-.9-.9v-7.9l1-1h1.5v-.3h-8v.3h1.4l1.1 1V18zM34.3 11.2l1.8-2h1.1v-.4h-6.4v.4h1.5l1.4 2v5.9l-7.1-8.3h-5.9v.4h2c1 0 1 .8 1 1.1V17L22 19h-1.3v.4h6.6V19H26l-1.7-2v-6.4h.1l7.5 8.7h2.4v-8.1zM53.5 8.8h-7.7v.4h1.5l.8.9V18l-.8 1h-1.6v.4h8.4c3.4 0 5.8-2.2 5.8-5.3.1-3.9-2.7-5.3-6.4-5.3zm.5 10.1h-2l-.8-1V10l.8-.9h1.8c2.8 0 3.1 2.7 3.1 4.9 0 2.1-.2 4.9-2.9 4.9zM71 18.9h-1.6v.4h8v-.4h-1.6l-.9-.9v-7.9l1-1h1.5v-.3h-8v.3h1.4l1.1 1V18zM98 17.8l-4-9.3h-1.1l-5.1 8.9c-.5.8-1.2 1.3-2 1.5v.4h4.5v-.4h-.8l-.8-1.8.6-1.1h5.1l.9 2.2-.5.7H93v.4h7.2v-.4c-.4 0-1.7 0-2.2-1.1zm-8.5-2.3l2.4-4.2c.1-.1.1-.1.2-.1s.1 0 .1.1l1.8 4.2h-4.5zM109.5 18.9h-1.3v.4h6.6v-.4h-1.4l-1.7-2v-6.4h.1l7.5 8.7h2.4v-8.1l1.8-2h1.1v-.3h-6.4v.4h1.5l1.4 2v5.9L114 8.8h-5.9v.4h2c1 0 1 .8 1 1.1V17l-1.6 1.9zM159.5 16.1c0-3.1-2.8-3.4-5.1-3.6-2.8-.3-4.6-.5-4.6-1.9 0-1.5 1.9-1.8 3.2-1.8 3.4 0 4.8 1.7 5.6 3h.3V8.5h-.3l-1.2 1c-.6-.3-2.2-1-4.4-1-3.6 0-4.8 1.8-4.8 3.3 0 2.6 2.3 3.3 5.3 3.6 1.7.2 4.5.3 4.5 1.8 0 1.3-1.6 1.9-3.6 1.9-3.7 0-4.8-2-5.6-3.5h-.3v3.9h.3l1.4-1.1c.5.4 1.5 1.1 4 1.1 2.7 0 5.3-.8 5.3-3.4zM177.7 8.8h-8.5v.4h1.3l1.1 1v7.7l-.9 1h-1.4v.4h8.1v-.4h-1.8l-.9-.9v-3.6h3c1.9 0 5.2-.5 5.2-3 0-2.3-3.4-2.6-5.2-2.6zm-1 5.2h-2.1v-4l.8-.9h2c.6 0 2.3 0 2.3 2.3 0 1.1-.1 2.6-3 2.6zM198.1 9.1h1.5v-.3h-8v.3h1.4l1.1 1V18l-.9.9h-1.6v.4h8v-.4H198l-.9-.9v-7.9zM222 18.9c-.2 0-.8-.2-1.1-1.1l-.9-3c-1.8 0-2.8-.3-2.8-.8 0-.2.2-.3 1.2-.4 1.3-.2 3.8-.5 3.8-2.3 0-2.2-2.7-2.5-4.7-2.5h-9.3v.4h1.7l1.1.9V18l-.9.9h-1.8v.4h7.9v-.4h-1.5l-1-.8V14h1.5c1.2 0 1.7.6 1.8 1.1l1.4 4.2h4.3v-.4h-.7zm-8.2-5.3V10l1.1-.9h1.9c2 0 2.4 1.1 2.4 2.1 0 2.4-2.4 2.4-5.4 2.4zM233.7 18.9h-1.6v.4h8v-.4h-1.6l-.9-.9v-7.9l1-1h1.5v-.3h-8v.3h1.4l1.1 1V18zM258.8 9.1l2.3 3.2h.3V8.8h-12.6v3.5h.3l2.2-3.2h2.3v8.7l-1.1 1.1h-1.6v.4h8.3v-.4h-1.6l-1-1.1V9.1zM271.4 18.9h-1.7v.4h13v-4h-.3l-3 3.6h-3.5l-.7-.8v-4.3h1.6l2.1 2.3h.3V11h-.3l-2.1 2.4h-1.6V10l.8-.9h3.6l2.7 3.6h.4l-.2-3.9h-12.8v.3h1.5l1.1 1V18zM299.8 8.8h-7.7v.4h1.5l.8.9V18l-.8 1H292v.4h8.4c3.4 0 5.8-2.2 5.8-5.3 0-3.9-2.8-5.3-6.4-5.3zm.5 10.1h-2l-.8-1V10l.8-.9h1.8c2.8 0 3.1 2.7 3.1 4.9 0 2.1-.2 4.9-2.9 4.9zM337.2 8.9c3.2 0 4.7 2.5 5.6 4h.3V8.5h-.3c-.2.3-.6.8-1.4.8-.9 0-2.5-.8-4.3-.8-3.5 0-7.1 2-7.1 5.8 0 2.5 2.3 5.2 6.8 5.2 2.6 0 4.6-1 5.8-1 .3 0 .5.1.6.2l.1-.1c-.1-.3-.2-.5-.2-.7v-2.4l1-.9h1.4v-.4h-7.8v.4h1.7l.8.8V18c-.2.9-2.1 1.2-3.1 1.2-3.8 0-4.1-2.2-4.1-4.7 0-1.9.2-5.6 4.2-5.6zM355.9 18.9h-1.6v.4h8v-.4h-1.6l-.9-.9v-7.9l1-1h1.5v-.3h-8v.3h1.4l1.1 1V18zM372.2 18.9H371v.4h6.6v-.4h-1.4l-1.7-2v-6.4h.1l7.5 8.7h2.4v-8.1l1.8-2h1.1v-.3H381v.4h1.5l1.4 2v5.9l-7.1-8.3H371v.4h2c1 0 1 .8 1 1.1V17l-1.8 1.9z"/><g><path class="st81" d="M8.8 97.1c-2.3 0-4.6 1.1-4.6 3.4 0 1.4 1.5 2.7 4.3 2.7 1.3 0 2-.4 2.4-.7v.1c0 2.1-.1 3.9-2.7 3.9-.5 0-.8 0-.8-.3 0-.4.3-.3.3-1 0-.9-.7-1.2-1.4-1.2-.4 0-1.3.1-1.3 1 0 1.3 2 1.7 3.3 1.7 2.9 0 5.5-1.9 5.5-5 0-.8-.5-4.6-5-4.6zm1.8 5.1c-.3.3-.9.6-1.9.6-1.7 0-1.9-1.4-1.9-2.5 0-2.4.6-2.9 2.2-2.9 1.8 0 1.9 1.4 1.9 2.8 0 1.5-.1 1.7-.3 2zM41.7 97.3h-7.4v.3h1.2l.9.9v6.8l-.8.9h-1.3v.3h7.1v-.3h-1.6l-.8-.8v-3.1h2.7c1.7 0 4.6-.4 4.6-2.6-.1-2.1-3.1-2.4-4.6-2.4zm-.9 4.6H39v-3.5l.7-.8h1.7c.5 0 2 0 2 2.1.1.9-.1 2.2-2.6 2.2zM65 103h-.2l-2.7 3.2H59l-.6-.7v-3.7h1.4l1.9 2h.2v-4.5h-.2l-1.8 2.1h-1.5v-3l.7-.8h3.2l2.4 3.2h.3l-.2-3.5H53.6v.3h1.3l1 .9v6.9l-.8.8h-1.5v.4H65zM79.7 97.4c3 0 3.9 3.1 4.1 3.8h.2v-4.1h-.2l-1.4.9c-.5-.3-1.3-1-3.1-1-2.6 0-5.3 2-5.3 4.8 0 3 2.6 4.9 5.5 4.9 3.9 0 4.7-3 4.7-4.1h-.3c-.1 2.2-1.9 3.7-4 3.7-3.1 0-3.1-2.8-3.1-4.9-.1-2.2.5-4 2.9-4zM100.2 106.8c2.8 0 4.4-.9 4.4-3v-4.5l1.5-1.7h1.2v-.3h-5.8v.3h1.2l1.5 1.7v4.6c0 2.3-2.4 2.5-3.6 2.5-2.4 0-3-1.2-3-2v-6l.7-.8h1.5v-.3h-7.1v.3H94l.8.8v5.4c.1 2.6 3.3 3 5.4 3zM116.3 106.2h-2v.4h11.4v-4.8h-.4l-2.3 4.4h-2.7l-.8-.7v-7.2l.8-.7h1.7v-.3h-7.7v.3h1.9l.7.7v7.2zM139.9 97.6h1.3v-.3h-7v.3h1.3l.9.9v6.9l-.8.8h-1.4v.4h7v-.4h-1.4l-.8-.8v-6.9zM159.4 105.3l-3.5-8.2h-1l-4.5 7.9c-.4.7-1.1 1.1-1.7 1.3v.3h4v-.3h-.7l-.7-1.5.6-1h4.5l.8 1.9-.5.6H155v.3h6.3v-.3c-.4-.1-1.5-.1-1.9-1zm-7.5-2l2.1-3.7c.1-.1.1-.1.2-.1s.1 0 .1.1l1.6 3.7h-4zM180.4 106.2c-.2 0-.7-.2-.9-1l-.8-2.6c-1.6 0-2.4-.3-2.4-.7 0-.2.1-.2 1.1-.3 1.1-.1 3.4-.4 3.4-2 0-1.9-2.4-2.2-4.1-2.2h-8.2v.3h1.5l.9.8v7l-.8.8h-1.6v.3h7v-.3h-1.3l-.8-.7V102h1.3c1 0 1.5.6 1.6 1l1.2 3.7h3.8v-.3h-.9zm-7.2-4.7v-3.1l1-.8h1.7c1.8 0 2.1.9 2.1 1.9 0 2-2.2 2-4.8 2zM210.5 101.9c-.4-.1-.6-.2-.6-.3 0-.2 1.3-.3 2-.7.6-.3 1.1-.8 1.1-1.6 0-1.8-2.3-2-3.5-2h-8v.3h1.2l.9.8v7l-.8.8h-1.3v.3h7.8c1.2 0 4.3 0 4.3-2.3 0-1.4-1.4-1.8-3.1-2.3zm-4.3-3.4l.7-.8h1.6c1.1 0 2.1.4 2.1 1.9 0 1.8-1.7 2-2.4 2h-2v-3.1zm2.6 7.7H207l-.8-.8v-3.5h2.3c2 0 2.4 1.4 2.4 2.3 0 .8-.5 2-2.1 2zM229.1 97.1c-3.5 0-6.6 1.9-6.6 4.9 0 2.9 3.1 4.8 6.6 4.8s6.6-1.9 6.6-4.8c-.1-3-3.2-4.9-6.6-4.9zm0 9.4c-3.5 0-3.9-2.3-3.9-4.5 0-2.3.4-4.5 3.9-4.5s3.9 2.3 3.9 4.5c-.1 2.2-.5 4.5-3.9 4.5zM252.4 97.6l2 2.8h.3v-3.1h-11.1v3.1h.2l2-2.8h2v7.7l-.9.9h-1.4v.4h7.3v-.4h-1.5l-.9-.9v-7.7zM272 105.3l-3.5-8.2h-1L263 105c-.4.7-1.1 1.1-1.7 1.3v.3h4v-.3h-.7l-.7-1.5.6-1h4.5l.8 1.9-.5.6h-1.4v.3h6.3v-.3c-.6-.1-1.8-.1-2.2-1zm-7.5-2l2.1-3.7c.1-.1.1-.1.2-.1s.1 0 .1.1l1.6 3.7h-4zM284.1 98.9l6.6 7.7h2.1v-7.1l1.6-1.8h1v-.3h-5.6v.3h1.3l1.3 1.8v5.2l-6.3-7.3H281v.3h1.8c.8 0 .8.7.8 1v5.9l-1.5 1.8H281v.3h5.8v-.3h-1.2l-1.5-1.8V99zM308.8 97.6h1.3v-.3h-7v.3h1.2l1 .9v6.9l-.8.8h-1.4v.4h7v-.4h-1.4l-.8-.8v-6.9zM324.4 97.4c3 0 3.9 3.1 4.1 3.8h.2v-4.1h-.2l-1.4.9c-.5-.3-1.3-1-3.1-1-2.6 0-5.3 2-5.3 4.8 0 3 2.6 4.9 5.5 4.9 3.9 0 4.7-3 4.7-4.1h-.3c-.1 2.2-1.9 3.7-4 3.7-3.1 0-3.1-2.8-3.1-4.9-.1-2.2.5-4 2.9-4zM347.8 105.3l-3.5-8.2h-1l-4.5 7.9c-.4.7-1.1 1.1-1.7 1.3v.3h4v-.3h-.7l-.7-1.5.6-1h4.5l.8 1.9-.5.6h-1.4v.3h6.3v-.3c-.7-.1-1.8-.1-2.2-1zm-7.5-2l2.1-3.7c.1-.1.1-.1.2-.1s.1 0 .1.1l1.6 3.7h-4zM358.7 106.2h-1.9v.4h11.3v-4.8h-.3l-2.4 4.4h-2.7l-.7-.7v-7.2l.8-.7h1.6v-.3h-7.6v.3h1.8l.7.7v7.2zM382.9 106.5c-3.3 0-4.2-1.8-4.9-3.1h-.3v3.4h.3l1.2-.9c.5.3 1.4.9 3.6.9 2.4 0 4.7-.7 4.7-3 0-2.7-2.5-3-4.5-3.2-2.5-.2-4-.5-4-1.6 0-1.3 1.6-1.5 2.8-1.5 3 0 4.2 1.5 4.9 2.6h.3v-2.9h-.3l-1 .9c-.6-.3-2-.9-3.9-.9-3.1 0-4.2 1.5-4.2 2.9 0 2.3 2.1 2.9 4.7 3.2 1.5.2 4 .3 4 1.6-.3 1-1.7 1.6-3.4 1.6z"/></g></g></g></g></switch></svg>