<svg id="Layer_1" data-name="Layer 1" xmlns="http://www.w3.org/2000/svg" viewBox="0 0 1366 768"><title>Roshan</title><path d="M435,413.8a528.54,528.54,0,0,1,23.67-51.49,210.46,210.46,0,0,1,13.1-22.46,64.59,64.59,0,0,1,7.71-9.2c2.33-2.27,7-7.23,10.72-6.65s5.18,7.33,5.68,10.36a30.89,30.89,0,0,1-.53,11.92,48.21,48.21,0,0,1-11.77,21.4,75.39,75.39,0,0,1-18.83,15.18c-3.48,1.91-7.58,3.36-11.56,2.21-3.35-1-7.88-6.67-3-8.94s8.67,5.49,10.49,8.66c2.45,4.26,4.83,8.56,7.35,12.77,4.9,8.2,10.34,16.06,17.08,22.87,3.63,3.66,9.28-2,5.65-5.66-8.75-8.83-14.92-19.53-21-30.26-4.5-7.91-11.19-20.19-22.43-16-8.1,3-9.07,14.32-3.48,20.09,7.47,7.72,19,4.95,27-.06,17.45-10.84,34.65-29.79,33.3-51.75-.52-8.38-4.29-21-14.67-20.75-9.87.24-18.46,11.23-23.69,18.43-8.14,11.23-14.39,24-20.5,36.45-6.57,13.33-12.52,26.95-18,40.75-1.91,4.79,5.83,6.86,7.71,2.13Z"/><path d="M565.57,321.35a97.34,97.34,0,0,0-46.11,39.8c-9.71,16.23-19.15,42.3-6.4,59.35,13,17.32,37.91,12.19,52-.41,17.18-15.34,27.39-39.8,31.18-62.1,1.83-10.78,4.62-25.89-6.62-32.55-11.63-6.89-24.13.31-35.72,3.11-5,1.21-2.89,8.93,2.12,7.72,8.6-2.08,18.58-8.22,27.57-4.88,9.79,3.64,6.07,18.41,4.63,26.19-3.47,18.76-11.4,38.22-24.39,52.45-10.46,11.46-32.22,21.36-44.21,5.94-10.67-13.72-1.57-36.44,6-49.51a88.54,88.54,0,0,1,42.07-37.4c4.68-1.95,2.63-9.7-2.12-7.71Z"/><path d="M660.6,370.65c8.34-10.31,25-33.59,9.54-44.7-14.14-10.13-33.94-1.61-45.72,8.1-12.79,10.55-21.35,27.32-16.72,44.05a33.59,33.59,0,0,0,13.39,18.34,56.42,56.42,0,0,0,10.42,5.65c3.89,1.68,8.57,2.51,12.26,4.51s2.29,4.18.42,7.15a36.28,36.28,0,0,1-4.83,6.07c-3.63,3.7-8.61,7.73-14.05,8-10,.42-21-9.89-26.63-17.22-3.11-4-10.06,0-6.91,4,8.53,11,24.71,25.42,39.88,19.93,7.39-2.67,13.6-8.46,18.1-14.76,3.77-5.28,7.78-13.12,1.58-18.24-2.68-2.22-6.47-3-9.69-4.08a80,80,0,0,1-11.5-4.84c-7.37-3.95-13.27-9.74-15.1-18.14-3.83-17.6,10-33.81,24.87-41.1a34.18,34.18,0,0,1,14.87-3.79c4.52,0,11.63,1.16,13.36,6.16,1.63,4.71-1.84,10.87-3.89,14.9A81.55,81.55,0,0,1,654.94,365c-3.21,4,2.42,9.67,5.66,5.66Z"/><path d="M705.25,324.53,663.46,415.1l7.31,1c-3.52-12.19,9.11-19.54,18.92-22.37,10.54-3,21.43-4.15,31-9.85,18.58-11,28.15-31.29,34.12-51.23,1.27-4.23-5.5-7.32-7.31-3.08-14,32.86-38.4,59.93-52.53,92.72-2,4.68,4.87,8.76,6.9,4,14.14-32.79,38.53-59.86,52.54-92.72l-7.31-3.08c-6.83,22.78-18.83,45.21-43.47,51.66-10.6,2.77-22,4-31,10.78-7.81,5.9-12.41,15.54-9.6,25.25.88,3.06,5.81,4.22,7.31,1l41.79-90.57c2.14-4.64-4.75-8.71-6.91-4Z"/><path d="M740.52,420a841.94,841.94,0,0,0,82.56-104.25l-7.31-3.08L785.29,428c-1.32,5,6.37,7.1,7.71,2.13l12-44.29c.64-2.35-1.21-5.27-3.85-5.07A167,167,0,0,0,757.58,390c-4.81,1.72-2.74,9.45,2.12,7.71a159.14,159.14,0,0,1,41.4-9l-3.86-5.06-12,44.29,7.71,2.13L823.48,314.8c1.19-4.5-4.82-6.79-7.31-3.08a828,828,0,0,1-81.31,102.63c-3.5,3.77,2.14,9.44,5.66,5.66Z"/><path d="M817.36,419.24c9.78-29,29.6-53.53,37.88-83.18,1.39-5-6.19-7-7.72-2.12-9.11,29.29,4,59.11,1.23,88.8l7.86-1.06c-1.11-5.21,2-10.13,4.27-14.57q2.82-5.46,5.84-10.81,6.67-11.85,14.27-23.15a342.73,342.73,0,0,1,33.73-42.42c3.5-3.77-2.14-9.44-5.66-5.66a356.67,356.67,0,0,0-36.92,47q-8.21,12.47-15.29,25.61c-4.34,8-10,16.67-8,26.17,1,4.7,7.47,3.15,7.86-1.07,2.7-28.87-10.35-58.28-1.51-86.68l-7.72-2.12c-8.26,29.59-28.09,54.16-37.88,83.17-1.65,4.89,6.08,7,7.72,2.13Z"/><path d="M363.27,508.43l.3.45.62-4.84,1.09-.59,3.45,2-.37-.56.4,3.08c.17-1,10.39-3.64,12.13-4.23q7.39-2.52,14.83-4.92,14-4.5,28.09-8.54,28.62-8.22,57.7-14.64a1090.55,1090.55,0,0,1,117.38-19.18c79.2-8.64,159.11-9.51,238.64-5.53,44.9,2.24,89.71,6,134.4,10.92,5.11.56,5.08-7.45,0-8-84.8-9.24-170.14-14.65-255.47-12.85-84.47,1.79-169.05,10.7-251.35,30.2q-34.78,8.25-68.89,19.07-8.33,2.64-16.59,5.46c-4.86,1.66-10.51,2.88-15,5.39-8.1,4.51,0,14.8,5.22,8.59a4.11,4.11,0,0,0,.63-4.84l-.3-.46c-2.81-4.29-9.74-.29-6.91,4Z"/></svg>