<svg xmlns="http://www.w3.org/2000/svg" width="743" height="395.5"><path fill="#DADDEA" d="M115.023 50.596h126.942V170.59H115.023z"/><path fill="#CDD0E0" d="M243.465 172.09H113.523V49.096h129.942V172.09zm-126.942-3h123.942V52.096H116.523V169.09z"/><path fill="#DADDEA" d="M242.989 172.09h-128.99V49.096h128.99V172.09zm-126.942-3h124.895V52.096H116.047V169.09z"/><path fill="#CDD0E0" d="M244.489 173.59h-131.99V47.596h131.99V173.59zm-126.942-6h121.895V53.596H117.547V167.59zm-2.048-116.994h125.99-125.99z"/><path d="M158.881 121.614l-3.326 11.988h-10.879l14.205-46.705h13.859l14.552 46.705h-11.433l-3.604-11.988h-13.374zm11.849-7.899l-2.911-9.908c-.831-2.772-1.663-6.237-2.356-9.01h-.139c-.693 2.772-1.386 6.308-2.148 9.01l-2.771 9.908h10.325zm32.847-23.422c0 2.911-2.148 5.267-5.682 5.267-3.326 0-5.474-2.355-5.474-5.267 0-2.979 2.217-5.266 5.613-5.266s5.474 2.287 5.543 5.266zm-10.879 43.31V99.717h10.533v33.886h-10.533z" fill="#E9EBF3"/><circle fill="#CDD0E0" cx="178.494" cy="5" r="5"/><path fill="#CDD0E0" d="M177.284 4.122l2.436 1.752-30.921 42.99-2.436-1.752z"/><path fill="#CDD0E0" d="M178.807 4.127l30.91 43-2.436 1.751-30.91-43z"/><path fill="#271F3E" d="M608.287 52.288l34.382-2.818 2.819 34.383-34.382 2.818z"/><path fill="#CDD0E0" d="M647.081 85.204l-37.373 3.064-3.064-37.373 37.373-3.064 3.064 37.373zm-34.629-.171l31.393-2.574-2.574-31.393-31.393 2.574 2.574 31.393z"/><path fill="#FFF" d="M610.086 74.215l34.382-2.818 1.02 12.457-34.381 2.818z"/><path fill="#CDD0E0" d="M647.081 85.204l-37.373 3.064-1.268-15.446 37.373-3.064 1.268 15.446zm-34.629-.171l31.393-2.574-.775-9.467-31.393 2.575.775 9.466z"/><path fill="#5E4B8B" d="M668.478 50.326h34.498v34.498h-34.498z"/><path fill="#CDD0E0" d="M704.476 86.324h-37.498V48.826h37.498v37.498zm-34.498-3h31.498V51.826h-31.498v31.498z"/><path fill="#FFF" d="M668.478 72.326h34.498v12.498h-34.498z"/><path fill="#CDD0E0" d="M704.476 86.324h-37.498V70.826h37.498v15.498zm-34.498-3h31.498v-9.498h-31.498v9.498z"/><path fill="#7379BA" d="M610.72 103.742l34.431 2.129-2.128 34.432-34.432-2.128z"/><path fill="#CDD0E0" d="M644.417 141.918l-37.426-2.315 2.314-37.427 37.428 2.315-2.316 37.427zm-34.246-5.125l31.438 1.945 1.945-31.438-31.438-1.945-1.945 31.438z"/><path fill="#FFF" d="M609.363 125.7l34.431 2.129-.771 12.474-34.432-2.128z"/><path fill="#CDD0E0" d="M644.417 141.918l-37.426-2.315.957-15.469 37.426 2.315-.957 15.469zm-34.246-5.125l31.438 1.945.586-9.479-31.438-1.945-.586 9.479z"/><path fill="#F89E71" d="M671.078 159.122l34.17 4.743-4.743 34.17-34.17-4.743z"/><path fill="#CDD0E0" d="M701.789 199.723l-37.143-5.155 5.155-37.142 37.143 5.155-5.155 37.142zm-33.759-7.714l31.199 4.33 4.33-31.199-31.198-4.33-4.331 31.199z"/><path fill="#FFF" d="M667.916 181.907l34.17 4.743-1.718 12.38-34.17-4.744z"/><path fill="#CDD0E0" d="M701.651 200.713l-37.143-5.155 2.131-15.351 37.143 5.155-2.131 15.351zm-33.757-7.714l31.198 4.33 1.307-9.407-31.199-4.331-1.306 9.408z"/><path fill="#F16B90" d="M609.612 158.299h34.498v34.498h-34.498z"/><path fill="#CDD0E0" d="M645.61 194.297h-37.498v-37.498h37.498v37.498zm-34.498-3h31.498v-31.498h-31.498v31.498z"/><path fill="#FFF" d="M609.612 181.299h34.498v12.498h-34.498z"/><path fill="#CDD0E0" d="M645.61 195.297h-37.498v-15.498h37.498v15.498zm-34.498-3h31.498v-9.498h-31.498v9.498z"/><path fill="#BC79B3" d="M666.735 104.656l34.319-3.499 3.498 34.319-34.319 3.498z"/><path fill="#CDD0E0" d="M706.229 136.805l-37.305 3.803-3.803-37.305 37.305-3.803 3.803 37.305zm-34.624.513l31.335-3.194-3.194-31.336-31.335 3.194 3.194 31.336z"/><path fill="#FFF" d="M669.066 127.537l34.319-3.498 1.267 12.433-34.319 3.498z"/><path fill="#CDD0E0" d="M706.331 137.799l-37.305 3.803-1.572-15.418 37.306-3.803 1.571 15.418zm-34.624.514l31.335-3.194-.963-9.449-31.336 3.194.964 9.449z"/><linearGradient id="a" gradientUnits="userSpaceOnUse" x1="591.105" y1="302.825" x2="725.483" y2="302.825"><stop offset="0" stop-color="#f16b90"/><stop offset="1" stop-color="#f89e71"/></linearGradient><path fill="url(#a)" d="M591.104 291.537h134.379v22.576H591.104z"/><path fill="#CDD0E0" d="M726.983 315.613H589.604v-25.576h137.379v25.576zm-134.379-3h131.379v-19.576H592.604v19.576z"/><linearGradient id="b" gradientUnits="userSpaceOnUse" x1="603.467" y1="284.012" x2="713.12" y2="284.012"><stop offset="0" stop-color="#bc79b3"/><stop offset="1" stop-color="#7379ba"/></linearGradient><path fill="url(#b)" d="M603.467 276.486H713.12v15.051H603.467z"/><path fill="#CDD0E0" d="M714.62 293.037H601.967v-18.051H714.62v18.051zm-109.653-3H711.62v-12.051H604.967v12.051z"/><path fill="#271F3E" d="M603.467 243.16H713.12v15.051H603.467z"/><path fill="#CDD0E0" d="M714.62 259.711H601.967V241.66H714.62v18.051zm-109.653-3H711.62V244.66H604.967v12.051z"/><linearGradient id="c" gradientUnits="userSpaceOnUse" x1="597.016" y1="267.349" x2="719.57" y2="267.349"><stop offset="0" stop-color="#69cef4"/><stop offset="1" stop-color="#7379ba"/></linearGradient><path fill="url(#c)" d="M597.016 258.614h122.555v17.469H597.016z"/><path fill="#CDD0E0" d="M721.07 277.583H595.516v-20.469H721.07v20.469zm-122.554-3H718.07v-14.469H598.516v14.469z"/><path fill="#FFF" d="M117.03 394h-18l-3-66h24z"/><path fill="#CDD0E0" d="M118.464 395.5H97.597l-3.136-69h27.14l-3.137 69zm-18-3h15.133l2.864-63H97.6l2.864 63z"/><path fill="#CDD0E0" d="M96.03 331l1.182 26h21.637l1.181-26z"/><path fill="#FFF" d="M644.03 394h-18l-3-66h24z"/><path fill="#CDD0E0" d="M645.464 395.5h-20.867l-3.136-69H648.6l-3.136 69zm-18-3h15.133l2.864-63H624.6l2.864 63z"/><path fill="#CDD0E0" d="M623.03 331l1.182 26h21.637l1.181-26z"/><path fill="#FFF" d="M1.5 315h740v26H1.5z"/><path fill="#CDD0E0" d="M743 342.5H0v-29h743v29zm-740-3h737v-23H3v23z"/><path fill="#271F3E" d="M532.5 284c0 11.046-8.955 20-20 20h-282c-11.046 0-20-8.954-20-20V116c0-11.046 8.954-20 20-20h282c11.045 0 20 8.954 20 20v168z"/><path fill="#CDD0E0" d="M512.5 305.5h-282c-11.855 0-21.5-9.645-21.5-21.5V116c0-11.855 9.645-21.5 21.5-21.5h282c11.855 0 21.5 9.645 21.5 21.5v168c0 11.855-9.645 21.5-21.5 21.5zm-282-208c-10.201 0-18.5 8.299-18.5 18.5v168c0 10.201 8.299 18.5 18.5 18.5h282c10.201 0 18.5-8.299 18.5-18.5V116c0-10.201-8.299-18.5-18.5-18.5h-282z"/><linearGradient id="d" gradientUnits="userSpaceOnUse" x1="257.084" y1="311.584" x2="485.917" y2="82.751"><stop offset="0" stop-color="#69cef4"/><stop offset="1" stop-color="#7379ba"/></linearGradient><path fill="url(#d)" d="M224.5 115.334h294V279h-294z"/><linearGradient id="e" gradientUnits="userSpaceOnUse" x1="277.293" y1="250.959" x2="465.709" y2="62.543"><stop offset="0" stop-color="#bc79b3"/><stop offset="1" stop-color="#7379ba"/></linearGradient><path fill="url(#e)" d="M224.5 115.334h294v82.833h-294z"/><linearGradient id="f" gradientUnits="userSpaceOnUse" x1="209.084" y1="263.584" x2="341.917" y2="130.751"><stop offset="0" stop-color="#f89e71"/><stop offset="1" stop-color="#f16b90"/></linearGradient><path fill="url(#f)" d="M224.5 115.334h102V279h-102z"/><path fill="#FFF" d="M574.25 309l-19 5h-368l-19-5v-12h406z"/><path fill="#CDD0E0" d="M555.444 315.5l-368.576-.05-20.119-5.294V295.5h409v14.656l-20.305 5.344zm-367.999-3h367.611l17.694-4.656V298.5h-403v9.344l17.695 4.656z"/><path fill="#CDD0E0" d="M169.25 308l18 6h368l19.5-6zm235.438-8.833c0 1.519-.615 2.75-1.373 2.75h-63.63c-.759 0-1.374-1.231-1.374-2.75s.615-2.75 1.374-2.75h63.63c.758 0 1.373 1.231 1.373 2.75zM520 280.5H223V113.834h297V280.5zm-294-3h291V116.834H226V277.5z"/><path fill="#FFF" d="M240.585 134h70v6h-70z"/><path fill="#CDD0E0" d="M240.585 144h35v6h-35zm99.5 65h164.5v6h-164.5zm0 10h131.5v6h-131.5zm0 10h87.5v6h-87.5zm0 10h131.5v6h-131.5zm29.558-65.617c.165.231-.488-.714-1.445-2.098a14.767 14.767 0 0 1-3.945.549c-8.179 0-14.833-6.654-14.833-14.834 0-8.179 6.654-14.833 14.833-14.833s14.833 6.654 14.833 14.833c0 3.056-.93 5.898-2.521 8.261.626.8.997 1.271.882 1.114.752 1.013 1.495 2.032 2.244 3.047A19.731 19.731 0 0 0 384.086 157c0-10.936-8.897-19.833-19.833-19.833-10.936 0-19.833 8.897-19.833 19.833 0 10.937 8.897 19.834 19.833 19.834 2.446 0 4.78-.467 6.946-1.28-.518-.725-1.04-1.446-1.556-2.171zm67.373-17.596c.033.401.069.803.069 1.213 0 8.18-6.654 14.834-14.833 14.834S407.419 165.18 407.419 157c0-8.039 6.432-14.589 14.418-14.813a782.734 782.734 0 0 1-.049-4.997c-10.721.25-19.369 9.03-19.369 19.81 0 10.937 8.896 19.834 19.833 19.834 10.936 0 19.833-8.897 19.833-19.834 0-.378-.018-.751-.039-1.123a59.838 59.838 0 0 0-5.03-.09z"/><path fill="#FFF" d="M480.252 137.167c-10.937 0-19.833 8.897-19.833 19.833 0 10.137 7.647 18.508 17.474 19.68.017-1.816.035-3.503.056-5.043-7.086-1.113-12.529-7.242-12.529-14.637 0-8.179 6.654-14.833 14.833-14.833s14.833 6.654 14.833 14.833c0 6.944-4.803 12.773-11.257 14.38l.047 3.629c.005.492.005.984.01 1.477 9.204-1.714 16.2-9.791 16.2-19.485-.001-10.937-8.898-19.834-19.834-19.834z"/><path fill="#271F3E" d="M19.914 159.609h136.492v154.453H19.914z"/><path fill="#CDD0E0" d="M157.906 315.563H18.414V158.109h139.492v157.454zm-136.492-3h133.492V161.109H21.414v151.454z"/><path fill="#FFF" d="M38.053 175.056h100.215v123.562H38.053z"/><path fill="#CDD0E0" d="M139.768 300.117H36.553V173.556h103.215v126.561zm-100.215-3h97.215V176.556H39.553v120.561z"/><path fill="#CDD0E0" d="M48.075 187.411h80.171v98.851H48.075z"/><path fill="#FFF" d="M88.222 265.821l.361-.743 24.955-32.707-.153-.227.107-.144h-.205l-10.032-14.797-15.355-2.212-14.835 2.212L63.034 232h-.082l.043.057-.212.313 25.078 32.707.361.744zm-10.724-46.532l7.236-.887-8.37 9.833 1.134-8.946zm10.598-.207l10.997 12.919H77.099l10.997-12.919zm12.075 9.556l-8.687-10.203 7.506.883 1.181 9.32zm-.309 6.363l-11.641 23.957-11.64-23.957h23.281zm-4.45 16.021l7.785-16.021h4.28l-12.065 16.021zm14.25-19.021h-6.041l-1.389-10.959 7.43 10.959zm-35.373-11.256l-1.426 11.256h-6.206l7.632-11.256zm-5.323 14.256h4.28l7.785 16.021-12.065-16.021z"/><path fill="#DADDEA" d="M539.491 313.257h-64.588l9.619-14.429h45.35z"/><path fill="#CDD0E0" d="M542.294 314.757h-70.193l11.619-17.429h46.955l11.619 17.429zm-64.588-3h58.982l-7.619-11.429h-43.744l-7.619 11.429z"/><path fill="#CDD0E0" d="M542.294 314.757h-70.193l11.619-17.429h46.955l11.619 17.429zm-64.588-3h58.982l-7.619-11.429h-43.744l-7.619 11.429z"/><path fill="#FFF" d="M553.1 258.345c0-3.939-.494-7.763-1.41-11.418h-90.599a46.816 46.816 0 0 0-1.412 11.418c0 17.313 9.427 32.415 23.42 40.484h46.581c13.994-8.069 23.42-23.172 23.42-40.484z"/><path fill="#FFF" d="M552.909 262.359c.113-1.325.19-2.66.19-4.015 0-3.939-.494-7.763-1.41-11.418H461.09a46.816 46.816 0 0 0-1.412 11.418c0 1.413.086 2.804.209 4.185 24.739-.252 62.441-.308 93.022-.17z"/><path fill="#CDD0E0" d="M458.517 264.043l-.123-1.381c-.146-1.646-.215-3.017-.215-4.317 0-3.969.49-7.933 1.457-11.783l.285-1.135h92.939l.284 1.136a48.485 48.485 0 0 1 1.455 11.782c0 1.263-.063 2.579-.196 4.143l-.117 1.378-1.384-.006a7781.39 7781.39 0 0 0-34.355-.074c-22.388 0-43.215.087-58.644.244l-1.386.013zm3.759-15.616a45.395 45.395 0 0 0-1.098 9.918c0 .833.03 1.702.095 2.671 15.287-.148 35.547-.23 57.273-.23 11.314 0 22.679.023 32.971.068.056-.9.082-1.718.082-2.509 0-3.331-.368-6.662-1.096-9.918h-88.227z"/><path fill="#CDD0E0" d="M530.081 300.329h-47.383l-.349-.2c-14.909-8.598-24.171-24.608-24.171-41.784 0-3.969.49-7.934 1.457-11.783l.285-1.135h92.939l.284 1.136a48.485 48.485 0 0 1 1.455 11.782c0 17.177-9.262 33.187-24.171 41.784l-.346.2zm-46.577-3h45.771c13.781-8.109 22.325-23.01 22.325-38.984 0-3.331-.368-6.662-1.096-9.918h-88.228a45.388 45.388 0 0 0-1.098 9.918c.001 15.974 8.546 30.874 22.326 38.984z"/><path fill="#CDD0E0" d="M545.422 299.914c-3.674-3.007-5.339-5.896-5.088-8.832.469-5.491 7.522-9.486 15.689-14.112 4.904-2.777 9.975-5.649 14.023-9.049 3.539-2.972 4.993-6.601 4.094-10.221-.857-3.452-3.732-6.182-7.323-6.952-2.6-.555-7.722-.513-12.878 6.046l-2.359-1.854c4.502-5.726 10.283-8.327 15.866-7.125 4.704 1.009 8.475 4.605 9.606 9.162 1.173 4.722-.678 9.548-5.076 13.24-4.261 3.577-9.453 6.519-14.475 9.362-7.119 4.033-13.845 7.842-14.179 11.757-.158 1.851 1.188 3.955 3.999 6.255l-1.899 2.323z"/></svg>