<svg xmlns="http://www.w3.org/2000/svg" width="743" height="371.18"><path fill="#CDD0E0" d="M517.442 126.188c-26.543-43.977-17.584-92.933 21.305-116.407l1.551 2.568c-37.4 22.576-45.932 69.8-20.287 112.288l-2.569 1.551z"/><path fill="#CDD0E0" d="M540.39 152.069a4.175 4.175 0 0 1-6.84 4.787l-22.738-32.494a4.174 4.174 0 1 1 6.841-4.786l22.737 32.493z"/><path fill="#E9EBF3" d="M556.501 142.338a6.782 6.782 0 0 1-1.678 9.446 6.782 6.782 0 0 1-9.445-1.68l-24.496-35.082a6.783 6.783 0 0 1 1.68-9.446 6.781 6.781 0 0 1 9.445 1.679l24.494 35.083z"/><path fill="#CDD0E0" d="M550.946 154.506a8.294 8.294 0 0 1-6.799-3.543l-24.494-35.082c-2.615-3.745-1.695-8.919 2.049-11.534a8.227 8.227 0 0 1 4.736-1.493 8.288 8.288 0 0 1 6.797 3.543l24.496 35.083c2.615 3.743 1.695 8.918-2.049 11.534a8.236 8.236 0 0 1-4.736 1.492zm-24.508-48.652a5.251 5.251 0 0 0-3.02.952 5.29 5.29 0 0 0-1.307 7.358l24.496 35.082a5.29 5.29 0 0 0 4.338 2.26 5.252 5.252 0 0 0 3.018-.951 5.291 5.291 0 0 0 1.309-7.358l-24.496-35.083a5.29 5.29 0 0 0-4.338-2.26z"/><path fill="#FFF" d="M557.433 150.218a6.782 6.782 0 0 0 1.678-9.445l-24.494-35.083a6.784 6.784 0 0 0-9.445-1.679c-.096.066-.182.141-.271.211l32.242 46.179c.094-.062.194-.117.29-.183z"/><path fill="#CDD0E0" d="M556.81 152.388l-.898-1.129-33.057-47.346 1.123-.875c.154-.124.24-.191.332-.256a8.226 8.226 0 0 1 4.736-1.494 8.294 8.294 0 0 1 6.799 3.543l24.496 35.083a8.214 8.214 0 0 1 1.363 6.191 8.23 8.23 0 0 1-3.414 5.343c-.086.061-.178.116-.27.172l-1.21.768zm-29.76-47.706l30.4 43.54a5.241 5.241 0 0 0 1.301-2.642 5.245 5.245 0 0 0-.871-3.949l-24.494-35.083a5.293 5.293 0 0 0-6.336-1.866z"/><path fill="#E9EBF3" d="M591.491 142.338a6.784 6.784 0 0 0 1.68 9.446 6.782 6.782 0 0 0 9.445-1.68l24.494-35.082a6.783 6.783 0 0 0-1.678-9.446 6.78 6.78 0 0 0-9.445 1.679l-24.496 35.083z"/><path fill="#CDD0E0" d="M597.048 154.506h-.002a8.232 8.232 0 0 1-4.734-1.492c-3.746-2.616-4.664-7.791-2.051-11.534l24.496-35.083a8.294 8.294 0 0 1 6.799-3.543 8.24 8.24 0 0 1 4.736 1.493c3.744 2.615 4.664 7.789 2.049 11.534l-24.496 35.082a8.29 8.29 0 0 1-6.797 3.543zm24.508-48.652a5.29 5.29 0 0 0-4.338 2.26l-24.496 35.083a5.29 5.29 0 0 0 1.307 7.358 5.256 5.256 0 0 0 3.018.951h.002c1.729 0 3.35-.845 4.338-2.26l24.494-35.082a5.29 5.29 0 0 0-1.307-7.358 5.25 5.25 0 0 0-3.018-.952z"/><path fill="#FDFAF8" d="M590.562 150.218a6.784 6.784 0 0 1-1.68-9.445l24.496-35.083a6.784 6.784 0 0 1 9.445-1.679c.094.066.182.141.271.211L590.853 150.4c-.098-.061-.198-.116-.291-.182z"/><path fill="#CDD0E0" d="M591.261 152.435l-1.289-.814a4.604 4.604 0 0 1-.271-.174c-1.813-1.265-3.025-3.162-3.412-5.341s.098-4.377 1.365-6.191l24.494-35.083a8.294 8.294 0 0 1 6.799-3.543c1.701 0 3.338.517 4.736 1.493.092.065.178.133.264.201l1.123.875-.744 1.223-33.065 47.354zm27.685-48.147a5.29 5.29 0 0 0-4.338 2.26l-24.496 35.083a5.25 5.25 0 0 0-.871 3.949 5.271 5.271 0 0 0 1.303 2.643l30.4-43.541a5.249 5.249 0 0 0-1.998-.394z"/><path fill="#CDD0E0" d="M630.155 126.188l-2.568-1.551C653.233 82.149 644.702 34.926 607.3 12.35l1.551-2.568c38.888 23.474 47.849 72.43 21.304 116.406z"/><path fill="#CDD0E0" d="M607.208 152.069a4.177 4.177 0 0 0 1.027 5.814 4.177 4.177 0 0 0 5.814-1.027l22.736-32.494a4.174 4.174 0 0 0-1.027-5.813 4.173 4.173 0 0 0-5.813 1.027l-22.737 32.493z"/><path fill="#FDFAF8" d="M573.87 15.64c37.645 0 68.162 30.518 68.162 68.162 0 6.422-.908 12.629-2.568 18.52a71.473 71.473 0 0 0 6.156-29.071c0-39.626-32.125-71.75-71.75-71.75-39.627 0-71.75 32.124-71.75 71.75a71.458 71.458 0 0 0 6.154 29.069 68.168 68.168 0 0 1-2.568-18.518c0-37.645 30.518-68.162 68.164-68.162z"/><path fill="#CDD0E0" d="M640.835 102.93l-2.814-1.016a66.79 66.79 0 0 0 2.512-18.112c0-36.758-29.904-66.662-66.662-66.662s-66.664 29.904-66.664 66.662a66.77 66.77 0 0 0 2.512 18.11l-2.814 1.016c-4.17-9.392-6.283-19.377-6.283-29.678C500.62 32.859 533.479 0 573.87 0s73.25 32.859 73.25 73.25c0 10.301-2.115 20.286-6.285 29.68zM573.87 14.14c37.969 0 68.939 30.534 69.65 68.336.398-3.039.6-6.118.6-9.226C644.12 34.514 612.606 3 573.87 3s-70.25 31.514-70.25 70.25c0 3.107.199 6.185.6 9.223.709-37.802 31.681-68.333 69.65-68.333z"/><path fill="#E9EBF3" d="M514.663 41.171a2.576 2.576 0 0 1 1.076 3.48l-2.607 4.937a2.574 2.574 0 0 1-3.48 1.075 2.574 2.574 0 0 1-1.076-3.48l2.607-4.937a2.573 2.573 0 0 1 3.48-1.075zm118.488 0a2.577 2.577 0 0 0-1.076 3.48l2.607 4.937a2.574 2.574 0 0 0 3.48 1.075 2.574 2.574 0 0 0 1.076-3.48l-2.605-4.937a2.576 2.576 0 0 0-3.482-1.075z"/><circle fill="#CDD0E0" cx="573.87" cy="17.68" r="9.625"/><path fill="#E9EBF3" d="M125.63 10.109l33.486-8.286 8.286 33.486-33.485 8.286z"/><path fill="#CDD0E0" d="M169.225 36.4l-36.4 9.008-9.009-36.4L160.216 0l9.009 36.4zm-34.21 5.375l30.576-7.567-7.567-30.575-30.576 7.567 7.567 30.575z"/><path fill="#FFF" d="M130.916 31.463l33.485-8.286 3.002 12.131-33.485 8.286z"/><path fill="#CDD0E0" d="M169.225 36.4l-36.4 9.008-3.725-15.044 36.4-9.008 3.725 15.044zm-34.21 5.375l30.576-7.567-2.281-9.22-30.575 7.567 2.28 9.22z"/><path fill="#E9EBF3" d="M188.136 4.98h34.498v34.498h-34.498z"/><path fill="#CDD0E0" d="M224.134 40.979h-37.498V3.48h37.498v37.499zm-34.498-3h31.498V6.48h-31.498v31.499z"/><path fill="#FFF" d="M188.136 26.98h34.498v12.498h-34.498z"/><path fill="#CDD0E0" d="M224.134 40.979h-37.498V25.48h37.498v15.499zm-34.498-3h31.498V28.48h-31.498v9.499z"/><path fill="#DADDEA" d="M42.253 136.288h136.492v154.453H42.253z"/><path fill="#CDD0E0" d="M180.245 292.241H40.753V134.788h139.492v157.453zm-136.492-3h133.492V137.788H43.753v151.453z"/><path fill="#FFF" d="M60.392 151.734h100.215v123.562H60.392z"/><path fill="#CDD0E0" d="M162.106 276.796H58.892V150.234h103.215v126.562zm-100.214-3h97.215V153.234H61.892v120.562z"/><path fill="#E9EBF3" d="M70.414 164.09h80.171v98.851H70.414z"/><path fill="#FFF" d="M110.561 242.5l.361-.743 24.955-32.707-.153-.227.107-.144h-.205l-10.032-14.797-15.355-2.212-14.835 2.212-10.032 14.798h-.082l.043.057-.212.313 25.078 32.707.362.743zm-10.724-46.532l7.236-.887-8.37 9.833 1.134-8.946zm10.598-.207l10.997 12.919H99.438l10.997-12.919zm12.075 9.555l-8.687-10.203 7.506.883 1.181 9.32zm-.309 6.364l-11.641 23.957-11.64-23.957h23.281zm-4.45 16.021l7.785-16.021h4.28l-12.065 16.021zm14.25-19.021h-6.041l-1.389-10.959 7.43 10.959zm-35.373-11.256l-1.426 11.256h-6.206l7.632-11.256zm-5.323 14.256h4.28l7.785 16.021-12.065-16.021zm613.287 37.818c0-3.939-.494-7.763-1.41-11.418h-90.599a46.816 46.816 0 0 0-1.412 11.418c0 17.313 9.427 32.415 23.42 40.484h46.581c13.994-8.069 23.42-23.171 23.42-40.484z"/><path fill="#DADDEA" d="M704.401 253.513c.113-1.325.19-2.66.19-4.015 0-3.939-.494-7.763-1.41-11.418h-90.599a46.816 46.816 0 0 0-1.412 11.418c0 1.413.086 2.804.209 4.185 24.739-.252 62.441-.309 93.022-.17z"/><path fill="#CDD0E0" d="M610.009 255.196l-.123-1.381c-.146-1.646-.215-3.017-.215-4.317 0-3.969.49-7.933 1.457-11.783l.285-1.135h92.939l.284 1.136a48.485 48.485 0 0 1 1.455 11.782c0 1.263-.063 2.579-.196 4.143l-.117 1.378-1.384-.006a7781.39 7781.39 0 0 0-34.355-.074c-22.388 0-43.215.087-58.644.244l-1.386.013zm3.76-15.616a45.395 45.395 0 0 0-1.098 9.918c0 .833.03 1.702.095 2.671 15.287-.148 35.547-.23 57.273-.23 11.313 0 22.679.023 32.971.068.056-.9.082-1.718.082-2.509 0-3.331-.368-6.662-1.096-9.918h-88.227z"/><path fill="#CDD0E0" d="M681.573 291.482H634.19l-.349-.2c-14.909-8.598-24.171-24.608-24.171-41.784 0-3.969.49-7.934 1.457-11.783l.285-1.135h92.939l.284 1.136a48.485 48.485 0 0 1 1.455 11.782c0 17.177-9.262 33.187-24.171 41.784l-.346.2zm-46.577-3h45.771c13.781-8.109 22.325-23.01 22.325-38.984 0-3.331-.368-6.662-1.096-9.918h-88.228a45.388 45.388 0 0 0-1.098 9.918c.001 15.975 8.546 30.874 22.326 38.984z"/><path fill="#FFF" d="M117.03 369.68h-18l-3-66h24z"/><path fill="#CDD0E0" d="M118.464 371.18H97.597l-3.136-69h27.14l-3.137 69zm-18-3h15.133l2.864-63H97.6l2.864 63z"/><path fill="#CDD0E0" d="M96.03 306.68l1.182 26h21.637l1.181-26z"/><path fill="#FFF" d="M644.03 369.68h-18l-3-66h24z"/><path fill="#CDD0E0" d="M645.464 371.18h-20.867l-3.136-69H648.6l-3.136 69zm-18-3h15.133l2.864-63H624.6l2.864 63z"/><path fill="#CDD0E0" d="M623.03 306.68l1.182 26h21.637l1.181-26z"/><path fill="#FFF" d="M1.5 290.68h740v26H1.5z"/><path fill="#CDD0E0" d="M743 318.18H0v-29h743v29zm-740-3h737v-23H3v23z"/><path fill="#271F3E" d="M532.5 259.68c0 11.046-8.955 20-20 20h-282c-11.046 0-20-8.954-20-20v-168c0-11.046 8.954-20 20-20h282c11.045 0 20 8.954 20 20v168z"/><path fill="#CDD0E0" d="M512.5 281.18h-282c-11.855 0-21.5-9.645-21.5-21.5v-168c0-11.855 9.645-21.5 21.5-21.5h282c11.855 0 21.5 9.645 21.5 21.5v168c0 11.855-9.645 21.5-21.5 21.5zm-282-208c-10.201 0-18.5 8.299-18.5 18.5v168c0 10.201 8.299 18.5 18.5 18.5h282c10.201 0 18.5-8.299 18.5-18.5v-168c0-10.201-8.299-18.5-18.5-18.5h-282z"/><path fill="#DADDEA" d="M224.5 91.014h294V254.68h-294z"/><path fill="#CDD0E0" d="M520 256.18H223V89.514h297V256.18zm-294-3h291V92.514H226V253.18z"/><path fill="#FFF" d="M224.5 91.014h294v82.833h-294z"/><path fill="#5E4B8B" d="M224.5 91.014h102V254.68h-102z"/><path fill="#FFF" d="M574.25 284.68l-19 5h-368l-19-5v-12h406z"/><path fill="#CDD0E0" d="M555.444 291.18l-368.576-.05-20.119-5.294V271.18h409v14.656l-20.305 5.344zm-367.999-3h367.611l17.694-4.656v-9.344h-403v9.344l17.695 4.656z"/><path fill="#CDD0E0" d="M169.25 283.68l18 6h368l19.5-6zm235.438-8.833c0 1.519-.615 2.75-1.373 2.75h-63.63c-.759 0-1.374-1.231-1.374-2.75s.615-2.75 1.374-2.75h63.63c.758 0 1.373 1.231 1.373 2.75zM520 256.18H223V89.514h297V256.18zm-294-3h291V92.514H226V253.18z"/><path fill="#CDD0E0" d="M240.585 109.68h70v6h-70zm0 10h35v6h-35z"/><path fill="#FFF" d="M340.085 184.68h164.5v6h-164.5zm0 10h131.5v6h-131.5zm0 10h87.5v6h-87.5zm0 10h131.5v6h-131.5z"/><linearGradient id="a" gradientUnits="userSpaceOnUse" x1="344.418" y1="132.68" x2="384.085" y2="132.68"><stop offset="0" stop-color="#f89e71"/><stop offset="1" stop-color="#f16b90"/></linearGradient><path fill="url(#a)" d="M369.643 149.063c.165.231-.488-.714-1.445-2.098a14.767 14.767 0 0 1-3.945.549c-8.179 0-14.833-6.654-14.833-14.834 0-8.179 6.654-14.833 14.833-14.833s14.833 6.654 14.833 14.833c0 3.056-.93 5.898-2.521 8.261.626.8.997 1.271.882 1.114.752 1.013 1.495 2.032 2.244 3.047a19.731 19.731 0 0 0 4.395-12.422c0-10.936-8.897-19.833-19.833-19.833-10.936 0-19.833 8.897-19.833 19.833 0 10.937 8.897 19.834 19.833 19.834 2.446 0 4.78-.467 6.946-1.28-.518-.725-1.04-1.446-1.556-2.171z"/><linearGradient id="b" gradientUnits="userSpaceOnUse" x1="403.919" y1="132.692" x2="443.585" y2="132.692"><stop offset="0" stop-color="#bc79b3"/><stop offset="1" stop-color="#7379ba"/></linearGradient><path fill="url(#b)" d="M438.516 131.467c.033.401.069.803.069 1.213 0 8.18-6.654 14.834-14.833 14.834s-14.833-6.654-14.833-14.834c0-8.039 6.432-14.589 14.418-14.813a782.734 782.734 0 0 1-.049-4.997c-10.721.25-19.369 9.03-19.369 19.81 0 10.937 8.896 19.834 19.833 19.834 10.936 0 19.833-8.897 19.833-19.834 0-.378-.018-.751-.039-1.123a59.838 59.838 0 0 0-5.03-.09z"/><linearGradient id="c" gradientUnits="userSpaceOnUse" x1="463.419" y1="132.603" x2="503.085" y2="132.603"><stop offset="0" stop-color="#69cef4"/><stop offset="1" stop-color="#7379ba"/></linearGradient><path fill="url(#c)" d="M483.252 112.847c-10.937 0-19.833 8.897-19.833 19.833 0 10.137 7.647 18.508 17.474 19.68.017-1.816.035-3.503.056-5.043-7.086-1.113-12.529-7.242-12.529-14.637 0-8.179 6.654-14.833 14.833-14.833s14.833 6.654 14.833 14.833c0 6.944-4.803 12.773-11.257 14.38l.047 3.629c.005.492.005.984.01 1.477 9.204-1.714 16.2-9.791 16.2-19.485-.001-10.937-8.898-19.834-19.834-19.834z"/><path fill="#FFF" d="M640.792 172.659c.086.013.175.021.264.021h3.873c-.124 0-.244.015-.362.038 1.024.2 1.813 1.229 1.813 2.462s-.788 2.262-1.813 2.461c.118.024.238.039.362.039h-6.544c-1.196 0-2.177 1.125-2.177 2.5s.98 2.5 2.177 2.5h5.905c.09 0 .178.009.265.021 2.229.208 3.999 2.366 3.999 4.979 0 2.75-1.958 5-4.351 5h-12.486c-2.394 0-4.351 2.25-4.351 5 0 2.613 1.77 4.772 3.999 4.979.087.013.175.021.265.021h12.573c1.197 0 2.176 1.125 2.176 2.5 0 1.376-.979 2.5-2.176 2.5h-5.366c-1.196 0-2.176 1.125-2.176 2.5s.979 2.5 2.176 2.5h10.2c1.196 0 2.175 1.125 2.175 2.5s-.979 2.5-2.175 2.5h-1.917c-1.195 0-2.174 1.125-2.174 2.5 0 1.376.979 2.5 2.174 2.5h21.653c2.002 0 2.981-1.124 2.981-2.5 0-1.375-.979-2.5-2.176-2.5h-5.69c-1.196 0-2.176-1.125-2.176-2.5s.979-2.5 2.176-2.5h18.016c2.393 0 4.351-2.25 4.351-5 0-2.749-1.958-5-4.351-5h-13.758c.124 0-.355-.02-.443-.038-1.024-.2-1.812-1.229-1.812-2.462s.787-2.262 1.812-2.462c.095-.029.363-.038.363-.038h8.763c1.197 0 2.176-1.125 2.176-2.5s-.979-2.5-2.176-2.5h-5.074c-1.197 0-2.176-1.124-2.176-2.5 0-1.375.979-2.5 2.176-2.5h7.25c2.393 0 4.351-2.25 4.351-5s-1.958-5-4.351-5h-12.326c-1.195 0-2.175-1.124-2.175-2.5 0-1.375.979-2.5 2.175-2.5h4.349c2.394 0 4.351-2.25 4.351-5 0-2.614-1.77-4.771-4-4.98a2.276 2.276 0 0 0-.264-.02h-29.972c-2.393 0-4.351 2.25-4.351 5 0 2.613 1.77 4.772 4 4.979z"/></svg>