<svg xmlns="http://www.w3.org/2000/svg" width="538.415" height="273.037"><linearGradient id="a" gradientUnits="userSpaceOnUse" x1="350.925" y1="85.996" x2="536.915" y2="85.996"><stop offset="0" stop-color="#f16b90"/><stop offset="1" stop-color="#f89e71"/></linearGradient><path fill="url(#a)" d="M350.925 26h185.99v119.994h-185.99z"/><path fill="#CDD0E0" d="M538.415 147.493h-188.99V24.5h188.99v122.993zm-185.99-3h182.99V27.5h-182.99v116.993z"/><path fill="#5E4B8B" d="M328.429 1.5h185.99v119.994h-185.99z"/><path fill="#CDD0E0" d="M515.919 122.994h-188.99V0h188.99v122.994zm-185.99-3h182.99V3h-182.99v116.994z"/><path fill="#271F3E" d="M354.186 19.749h34.498v34.498h-34.498z"/><path fill="#CDD0E0" d="M390.184 55.747h-37.498V18.249h37.498v37.498zm-34.498-3h31.498V21.249h-31.498v31.498z"/><path fill="#FFF" d="M354.186 41.749h34.498v12.498h-34.498z"/><path fill="#CDD0E0" d="M390.184 55.747h-37.498V40.249h37.498v15.498zm-34.498-3h31.498v-9.498h-31.498v9.498z"/><path fill="#5E4B8B" d="M404.186 19.749h34.498v34.498h-34.498z"/><path fill="#CDD0E0" d="M440.184 55.747h-37.498V18.249h37.498v37.498zm-34.498-3h31.498V21.249h-31.498v31.498z"/><path fill="#7379BA" d="M454.186 19.749h34.498v34.498h-34.498z"/><path fill="#CDD0E0" d="M490.184 55.747h-37.498V18.249h37.498v37.498zm-34.498-3h31.498V21.249h-31.498v31.498z"/><path fill="#BC79B3" d="M354.186 68.749h34.498v34.498h-34.498z"/><path fill="#CDD0E0" d="M390.184 104.747h-37.498V67.249h37.498v37.498zm-34.498-3h31.498V70.249h-31.498v31.498z"/><path fill="#F16B90" d="M404.186 68.749h34.498v34.498h-34.498z"/><path fill="#CDD0E0" d="M440.184 104.747h-37.498V67.249h37.498v37.498zm-34.498-3h31.498V70.249h-31.498v31.498z"/><path fill="#F89E71" d="M454.186 68.749h34.498v34.498h-34.498z"/><path fill="#CDD0E0" d="M490.184 104.747h-37.498V67.249h37.498v37.498zm-34.498-3h31.498V70.249h-31.498v31.498z"/><path fill="#271F3E" d="M92.856 138.55c0 6.938-5.624 12.561-12.562 12.561H32.562C25.625 151.11 20 145.487 20 138.55V15.451C20 8.514 25.625 2.89 32.562 2.89h47.732c6.938 0 12.562 5.625 12.562 12.561V138.55z"/><path fill="#CDD0E0" d="M80.294 152.501H32.562c-7.692 0-13.951-6.259-13.951-13.951V15.451C18.611 7.758 24.87 1.5 32.562 1.5h47.732c7.692 0 13.951 6.258 13.951 13.951V138.55c.001 7.692-6.258 13.951-13.951 13.951zM32.562 4.279c-6.161 0-11.172 5.011-11.172 11.171v123.1c0 6.16 5.011 11.172 11.172 11.172h47.732c6.16 0 11.172-5.012 11.172-11.172V15.451c0-6.16-5.012-11.171-11.172-11.171H32.562z"/><path fill="#F1F2F2" d="M86.428 136.79c0 4.535-3.907 8.211-8.727 8.211H35.155c-4.82 0-8.727-3.676-8.727-8.211V16.71c0-4.534 3.907-8.209 8.727-8.209h42.546c4.82 0 8.727 3.675 8.727 8.209v120.08z"/><linearGradient id="b" gradientUnits="userSpaceOnUse" x1="40.059" y1="65.375" x2="72.799" y2="32.635"><stop offset="0" stop-color="#7379ba"/><stop offset="1" stop-color="#bc79b3"/></linearGradient><path fill="url(#b)" d="M78.978 57.289a4.602 4.602 0 0 1-4.602 4.602H38.48a4.602 4.602 0 0 1-4.602-4.602V40.721a4.602 4.602 0 0 1 4.602-4.602h35.896a4.602 4.602 0 0 1 4.602 4.602v16.568z"/><linearGradient id="c" gradientUnits="userSpaceOnUse" x1="40.059" y1="116.375" x2="72.799" y2="83.635"><stop offset="0" stop-color="#f16b90"/><stop offset="1" stop-color="#f89e71"/></linearGradient><path fill="url(#c)" d="M78.978 108.289a4.602 4.602 0 0 1-4.602 4.602H38.48a4.602 4.602 0 0 1-4.602-4.602V91.721a4.602 4.602 0 0 1 4.602-4.602h35.896a4.602 4.602 0 0 1 4.602 4.602v16.568z"/><path fill="#FFF" d="M79.095 75.854a2.092 2.092 0 0 1-2.092 2.092H35.854a2.092 2.092 0 0 1-2.092-2.092V68.88c0-1.155.937-2.092 2.092-2.092h41.149c1.155 0 2.092.937 2.092 2.092v6.974zm0 51a2.092 2.092 0 0 1-2.092 2.092H35.854a2.092 2.092 0 0 1-2.092-2.092v-6.974c0-1.155.937-2.092 2.092-2.092h41.149c1.155 0 2.092.937 2.092 2.092v6.974z"/><path fill="#271F3E" d="M72.428 9.371a3.25 3.25 0 0 1-3.25 3.25h-25.5a3.25 3.25 0 1 1 0-6.5h25.5a3.25 3.25 0 0 1 3.25 3.25z"/><circle fill="#FFF" cx="56.428" cy="36.121" r="8"/><path fill="#FFF" d="M24.929 184.291l-22.617 5.22-1.693-11.917 20.356-4.699z"/><path fill="#CDD0E0" d="M21.215 172.75l.435 1.885-20.355 4.7-.435-1.885z"/><path fill="#CDD0E0" d="M1.877 190.467L0 177.245l21.518-4.967 4.385 12.643-24.026 5.546zm-.409-12.216l1.508 10.616 21.21-4.896-3.521-10.15-19.197 4.43z"/><path fill="#CDD0E0" d="M5.742 158.854L5.8 176.31l-1.312.004-.058-17.457zm3.706-1.162l7.598 15.717-1.18.57-7.598-15.717z"/><path fill="#CDD0E0" d="M4.935 158.927c-1.442-.166-2.55-.91-2.784-1.922-.159-.693.088-1.453.697-2.139.665-.748 1.66-1.307 2.805-1.569a6.055 6.055 0 0 1 1.367-.159c1.739 0 3.139.805 3.405 1.957.161.694-.086 1.455-.697 2.141a4.692 4.692 0 0 1-1.234.973c.186.396.382.824.548 1.189a6.119 6.119 0 0 0 1.668-1.292c.897-1.012 1.25-2.187.993-3.306-.411-1.778-2.293-2.974-4.683-2.974-.55 0-1.109.064-1.662.192-1.408.324-2.647 1.026-3.49 1.977-.9 1.012-1.252 2.186-.995 3.305.411 1.779 2.293 2.975 4.683 2.975-.206-.449-.416-.899-.621-1.348z"/><path fill="#FFF" d="M46.127 207.765l-22.413-6.035 4.114-11.312L48 195.849z"/><path fill="#CDD0E0" d="M48.263 195.844l-.503 1.87-20.175-5.428.503-1.87z"/><path fill="#CDD0E0" d="M22.881 202.369l4.564-12.551 21.324 5.742-2.079 13.22-23.809-6.411zm5.387-10.972l-3.665 10.076 21.02 5.66 1.669-10.613-19.024-5.123z"/><path fill="#CDD0E0" d="M41.163 176.302l-8.161 15.432-1.16-.613 8.16-15.432zm3.82.718l-.69 17.444-1.31-.052.689-17.443z"/><path fill="#CDD0E0" d="M40.419 175.977c-1.194-.825-1.822-2.003-1.552-3.006.186-.687.761-1.241 1.622-1.56.938-.347 2.08-.371 3.213-.064.452.121.883.291 1.281.502 1.534.818 2.391 2.188 2.083 3.33-.186.688-.761 1.242-1.622 1.56a4.647 4.647 0 0 1-1.546.278c-.023.438-.051.908-.077 1.309a6.122 6.122 0 0 0 2.08-.356c1.268-.47 2.132-1.34 2.432-2.448.474-1.764-.625-3.704-2.733-4.828a7.356 7.356 0 0 0-1.557-.613c-1.395-.375-2.818-.339-4.009.104-1.27.469-2.133 1.339-2.432 2.447-.475 1.764.623 3.704 2.732 4.828.028-.495.054-.99.085-1.483zm413.064-20.559c-13.219 0-23.974 10.755-23.974 23.975s10.755 23.975 23.974 23.975c13.22 0 23.976-10.755 23.976-23.975s-10.756-23.975-23.976-23.975z"/><path fill="#FFF" d="M419.572 165.185a3.794 3.794 0 0 1-3.794 3.794h-7.296a3.793 3.793 0 1 1 0-7.587h7.296a3.794 3.794 0 0 1 3.794 3.793z"/><path fill="#CDD0E0" d="M415.778 159.858h-7.296c-2.938 0-5.327 2.389-5.327 5.326s2.39 5.327 5.327 5.327h7.296c2.938 0 5.327-2.39 5.327-5.327s-2.389-5.326-5.327-5.326zm0 7.587h-7.296c-1.246 0-2.26-1.015-2.26-2.261s1.014-2.26 2.26-2.26h7.296c1.246 0 2.261 1.014 2.261 2.26s-1.015 2.261-2.261 2.261z"/><path fill="#FFF" d="M443.552 136.531c-15.149 0-27.476 12.325-27.476 27.474 0 15.15 12.326 27.475 27.476 27.475s27.474-12.324 27.474-27.475c-.001-15.149-12.325-27.474-27.474-27.474z"/><radialGradient id="d" cx="446.206" cy="171.492" r="32.313" gradientTransform="matrix(1 0 0 1.0093 0 -1.59)" gradientUnits="userSpaceOnUse"><stop offset="0" stop-color="#5e4b8b"/><stop offset=".691" stop-color="#5e4b8b"/><stop offset=".731" stop-color="#5c4988"/><stop offset=".779" stop-color="#55447e"/><stop offset=".831" stop-color="#4a3c6e"/><stop offset=".887" stop-color="#3b2f58"/><stop offset=".944" stop-color="#271f3f"/><stop offset=".946" stop-color="#271f3e"/></radialGradient><path fill="url(#d)" d="M443.506 142.714c-11.74 0-21.292 9.552-21.292 21.291 0 11.74 9.552 21.293 21.292 21.293s21.291-9.553 21.291-21.293c0-11.739-9.551-21.291-21.291-21.291z"/><path fill="#CDD0E0" d="M443.506 134.703c-16.157 0-29.303 13.145-29.303 29.302 0 16.158 13.146 29.304 29.303 29.304 16.158 0 29.304-13.146 29.304-29.304 0-16.157-13.146-29.302-29.304-29.302zm0 55.539c-14.467 0-26.236-11.771-26.236-26.237s11.77-26.236 26.236-26.236 26.236 11.77 26.236 26.236-11.769 26.237-26.236 26.237z"/><path fill="#FFF" d="M404.186 41.749h34.498v12.498h-34.498z"/><path fill="#CDD0E0" d="M440.184 55.747h-37.498V40.249h37.498v15.498zm-34.498-3h31.498v-9.498h-31.498v9.498z"/><path fill="#FFF" d="M454.186 41.749h34.498v12.498h-34.498z"/><path fill="#CDD0E0" d="M490.184 55.747h-37.498V40.249h37.498v15.498zm-34.498-3h31.498v-9.498h-31.498v9.498z"/><path fill="#FFF" d="M454.186 91.749h34.498v12.498h-34.498z"/><path fill="#CDD0E0" d="M490.184 105.747h-37.498V90.249h37.498v15.498zm-34.498-3h31.498v-9.498h-31.498v9.498z"/><path fill="#FFF" d="M404.186 91.749h34.498v12.498h-34.498z"/><path fill="#CDD0E0" d="M440.184 105.747h-37.498V90.249h37.498v15.498zm-34.498-3h31.498v-9.498h-31.498v9.498z"/><path fill="#FFF" d="M354.186 91.749h34.498v12.498h-34.498z"/><path fill="#CDD0E0" d="M390.184 105.747h-37.498V90.249h37.498v15.498zm-34.498-3h31.498v-9.498h-31.498v9.498z"/><path fill="#D3D2D9" d="M247.392 185.462v-5.501h5.507v5.501h-5.507zm5.506 4.499v5.501h-5.507v-5.501h5.507zm-5.506-14.499v-5.501h5.507v5.501h-5.507zm0-10v-5.501h5.507v5.501h-5.507zm0-10v-5.501h5.507v5.501h-5.507zm0-10v-5.501h5.507v5.501h-5.507zm0 54.499h5.507v5.501h-5.507v-5.501zm5.506-64.499h-5.507v-5.501h5.507v5.501zm-5.506 74.499h5.507v5.501h-5.507v-5.501zm5.506-90v5.501h-5.507v-5.501h5.507zm-5.506 105.501v-5.501h5.507v5.501h-5.507z"/><linearGradient id="e" gradientUnits="userSpaceOnUse" x1="248.898" y1="169.614" x2="374.892" y2="169.614"><stop offset="0" stop-color="#f1f2f2"/><stop offset=".261" stop-color="#f5f5f6"/><stop offset="1" stop-color="#fff"/></linearGradient><path fill="url(#e)" d="M374.892 252.266c0 2.761-2.24 5-5 5H253.899a5 5 0 0 1-5.001-5V86.963a5 5 0 0 1 5.001-5h115.992a5 5 0 0 1 5 5v165.303z"/><path fill="#CDD0E0" d="M369.892 258.766H253.898a6.508 6.508 0 0 1-6.5-6.5V86.963c0-3.584 2.916-6.5 6.5-6.5h115.993c3.584 0 6.5 2.916 6.5 6.5v165.303a6.506 6.506 0 0 1-6.499 6.5zM253.898 83.463c-1.93 0-3.5 1.57-3.5 3.5v165.303c0 1.93 1.57 3.5 3.5 3.5h115.993c1.93 0 3.5-1.57 3.5-3.5V86.963c0-1.93-1.57-3.5-3.5-3.5H253.898z"/><linearGradient id="f" gradientUnits="userSpaceOnUse" x1="130.987" y1="169.614" x2="256.979" y2="169.614" gradientTransform="matrix(-1 0 0 1 374.379 0)"><stop offset="0" stop-color="#f1f2f2"/><stop offset=".261" stop-color="#f5f5f6"/><stop offset="1" stop-color="#fff"/></linearGradient><path fill="url(#f)" d="M117.399 252.266c0 2.761 2.24 5 5 5h115.992a5 5 0 0 0 5-5V86.963a5 5 0 0 0-5-5H122.399a5 5 0 0 0-5 5v165.303z"/><path fill="#CDD0E0" d="M238.392 258.766H122.399a6.508 6.508 0 0 1-6.5-6.5V86.963c0-3.584 2.916-6.5 6.5-6.5h115.992c3.584 0 6.5 2.916 6.5 6.5v165.303a6.506 6.506 0 0 1-6.499 6.5zM122.399 83.463c-1.93 0-3.5 1.57-3.5 3.5v165.303c0 1.93 1.57 3.5 3.5 3.5h115.992c1.93 0 3.5-1.57 3.5-3.5V86.963c0-1.93-1.57-3.5-3.5-3.5H122.399z"/><path d="M254.26 113.711c0 1.243-.612 2.25-1.366 2.25h-12.738c-.754 0-1.365-1.007-1.365-2.25 0-1.242.611-2.249 1.365-2.249h12.738c.753 0 1.366 1.007 1.366 2.249zm0 10c0 1.243-.612 2.25-1.366 2.25h-12.738c-.754 0-1.365-1.007-1.365-2.25 0-1.242.611-2.249 1.365-2.249h12.738c.753 0 1.366 1.007 1.366 2.249zm0 10c0 1.243-.612 2.25-1.366 2.25h-12.738c-.754 0-1.365-1.007-1.365-2.25 0-1.242.611-2.249 1.365-2.249h12.738c.753 0 1.366 1.007 1.366 2.249zm0 10c0 1.243-.612 2.25-1.366 2.25h-12.738c-.754 0-1.365-1.007-1.365-2.25 0-1.242.611-2.249 1.365-2.249h12.738c.753 0 1.366 1.007 1.366 2.249zm0 10c0 1.243-.612 2.25-1.366 2.25h-12.738c-.754 0-1.365-1.007-1.365-2.25 0-1.242.611-2.249 1.365-2.249h12.738c.753 0 1.366 1.007 1.366 2.249zm0 10c0 1.243-.612 2.25-1.366 2.25h-12.738c-.754 0-1.365-1.007-1.365-2.25 0-1.242.611-2.249 1.365-2.249h12.738c.753 0 1.366 1.007 1.366 2.249zm0 10c0 1.243-.612 2.25-1.366 2.25h-12.738c-.754 0-1.365-1.007-1.365-2.25 0-1.242.611-2.249 1.365-2.249h12.738c.753 0 1.366 1.007 1.366 2.249zm0 10c0 1.243-.612 2.25-1.366 2.25h-12.738c-.754 0-1.365-1.007-1.365-2.25 0-1.242.611-2.249 1.365-2.249h12.738c.753 0 1.366 1.007 1.366 2.249zm0 10c0 1.243-.612 2.25-1.366 2.25h-12.738c-.754 0-1.365-1.007-1.365-2.25 0-1.242.611-2.249 1.365-2.249h12.738c.753 0 1.366 1.007 1.366 2.249zm0 10c0 1.243-.612 2.25-1.366 2.25h-12.738c-.754 0-1.365-1.007-1.365-2.25 0-1.242.611-2.249 1.365-2.249h12.738c.753 0 1.366 1.007 1.366 2.249zm0 10c0 1.243-.612 2.25-1.366 2.25h-12.738c-.754 0-1.365-1.007-1.365-2.25 0-1.242.611-2.249 1.365-2.249h12.738c.753 0 1.366 1.007 1.366 2.249zm0 10c0 1.243-.612 2.25-1.366 2.25h-12.738c-.754 0-1.365-1.007-1.365-2.25 0-1.242.611-2.249 1.365-2.249h12.738c.753 0 1.366 1.007 1.366 2.249zm-108.317-84.22h70.497v3h-70.497zm0 60h70.497v3h-70.497z" fill="#CDD0E0"/><path fill="#CDD0E0" d="M149.691 135.743h3v70.497h-3zm60 0h3v70.497h-3zm67.252 3.748h70.496v3h-70.496zm0 60h70.496v3h-70.496z"/><path fill="#CDD0E0" d="M280.691 135.743h3v70.497h-3zm60 0h3v70.497h-3z"/><path fill="#5E4B8B" d="M181.526 202.321c-17.323 0-31.416-14.093-31.416-31.415s14.093-31.415 31.416-31.415c17.322 0 31.414 14.093 31.414 31.415s-14.092 31.415-31.414 31.415zm0-59.83c-15.668 0-28.416 12.747-28.416 28.415s12.747 28.415 28.416 28.415c15.667 0 28.414-12.747 28.414-28.415s-12.746-28.415-28.414-28.415z"/><path fill="#5E4B8B" d="M181.525 186.364c-8.891 0-16.124-7.233-16.124-16.124s7.233-16.124 16.124-16.124 16.124 7.233 16.124 16.124-7.233 16.124-16.124 16.124zm0-29.248c-7.237 0-13.124 5.887-13.124 13.124s5.887 13.124 13.124 13.124 13.124-5.887 13.124-13.124-5.887-13.124-13.124-13.124z"/><linearGradient id="g" gradientUnits="userSpaceOnUse" x1="281.769" y1="171.031" x2="342.601" y2="171.031"><stop offset="0" stop-color="#f16b90"/><stop offset="1" stop-color="#f89e71"/></linearGradient><path fill="url(#g)" d="M312.187 140.616c-16.772 0-30.417 13.644-30.417 30.415s13.645 30.415 30.417 30.415c16.771 0 30.414-13.645 30.414-30.415 0-16.771-13.644-30.415-30.414-30.415zm0 48.088c-9.746 0-17.675-7.928-17.675-17.673s7.929-17.674 17.675-17.674c9.744 0 17.673 7.929 17.673 17.674s-7.929 17.673-17.673 17.673z"/><linearGradient id="h" gradientUnits="userSpaceOnUse" x1="294.102" y1="171.073" x2="330.272" y2="171.073"><stop offset="0" stop-color="#7379ba"/><stop offset="1" stop-color="#bc79b3"/></linearGradient><path fill="url(#h)" d="M312.187 152.989c-9.973 0-18.085 8.113-18.085 18.085s8.112 18.084 18.085 18.084 18.085-8.112 18.085-18.084-8.113-18.085-18.085-18.085zm0 28.594c-5.794 0-10.509-4.715-10.509-10.509s4.715-10.509 10.509-10.509 10.51 4.715 10.51 10.509-4.717 10.509-10.51 10.509z"/><path fill="#FFF" d="M99.87 181.463l7.206-4.807 58.361 87.495-7.206 4.807z"/><path fill="#5E4B8B" d="M125.041 202.976l-17.671-26.502-7.207 4.806 17.681 26.517c2.309-1.554 4.744-3.183 7.197-4.821z"/><path fill="#CDD0E0" d="M108.021 173.224l-11.107 7.406 20.287 30.424 1.952-1.313c2.307-1.552 4.739-3.18 7.189-4.816l1.949-1.301-20.27-30.4zm-1.3 6.5l15.071 22.604c-1.114.746-2.218 1.484-3.302 2.212l-15.077-22.61 3.308-2.206z"/><path fill="#5E4B8B" d="M159.87 267.869l4.838-3.226 3.445 5.168-4.838 3.226z"/><path d="M111.936 206.577l-12.503-18.75 1.986-1.324-2.046-3.067-5.054 3.37 16.595 24.885 5.053-3.37-2.047-3.068zm-4.054-32.66l-10.275 6.852L158 271.342l10.274-6.851-60.392-90.574zm-1.023 5.113l56.302 84.438-4.139 2.761-56.302-84.439 4.139-2.76z" fill="#CDD0E0"/><path fill="#FFF" d="M118.348 29.874v27h184v-27h-184zm167.5 19a5.5 5.5 0 1 1 0-11 5.5 5.5 0 0 1 0 11z"/><path fill="#CDD0E0" d="M303.848 58.374h-187v-30h187v30zm-184-3h181v-24h-181v24zm166-5c-3.859 0-7-3.14-7-7s3.141-7 7-7 7 3.14 7 7-3.141 7-7 7zm0-11c-2.206 0-4 1.794-4 4s1.794 4 4 4 4-1.794 4-4-1.794-4-4-4z"/><path fill="#CDD0E0" d="M139.848 30.874h3v15h-3zm-10-.44h3v9.756h-3zm20 0h3v9.756h-3zm20 0h3v9.756h-3zm20 0h3v9.756h-3zm20 0h3v9.756h-3zm20 0h3v9.756h-3zm20 0h3v9.756h-3zm20 0h3v9.756h-3zm-110 .44h3v15h-3zm20 0h3v15h-3zm20 0h3v15h-3zm20 0h3v15h-3zm20 0h3v15h-3zm20 0h3v15h-3z"/><path fill="#FFF" d="M399.122 216.311a5 5 0 0 1-3.228 6.292L374 229.65a4.998 4.998 0 0 1-6.291-3.227l-2.758-8.567a5 5 0 0 1 3.228-6.292l21.894-7.047a4.998 4.998 0 0 1 6.291 3.227l2.758 8.567z"/><path fill="#CDD0E0" d="M372.468 231.392a6.481 6.481 0 0 1-6.186-4.51l-2.758-8.566a6.461 6.461 0 0 1 .403-4.959 6.465 6.465 0 0 1 3.792-3.221l21.894-7.047a6.476 6.476 0 0 1 1.993-.314 6.481 6.481 0 0 1 6.186 4.51l2.758 8.566a6.461 6.461 0 0 1-.403 4.959 6.465 6.465 0 0 1-3.792 3.221l-21.894 7.047a6.51 6.51 0 0 1-1.993.314zm19.138-25.618c-.362 0-.724.057-1.073.17l-21.894 7.047c-.891.287-1.615.902-2.042 1.734s-.504 1.78-.218 2.67l2.758 8.567a3.49 3.49 0 0 0 4.403 2.259l21.894-7.047c.891-.287 1.615-.902 2.042-1.734s.504-1.78.218-2.67l-2.758-8.567a3.489 3.489 0 0 0-3.33-2.429z"/><path fill="#F89E71" d="M381.148 207.39l-12.969 4.174a5 5 0 0 0-3.228 6.292l2.758 8.567A4.999 4.999 0 0 0 374 229.65l12.931-4.162a3662.233 3662.233 0 0 1-5.783-18.098z"/><path fill="#CDD0E0" d="M372.468 231.392a6.481 6.481 0 0 1-6.186-4.51l-2.758-8.566a6.507 6.507 0 0 1 4.195-8.18l14.404-4.637.454 1.438a3560.994 3560.994 0 0 0 5.781 18.09l.461 1.429-14.359 4.622a6.5 6.5 0 0 1-1.992.314zm7.706-22.114l-11.534 3.713a3.504 3.504 0 0 0-2.26 4.404l2.758 8.567a3.49 3.49 0 0 0 3.33 2.429c.362 0 .724-.057 1.073-.17l11.503-3.702a3361.277 3361.277 0 0 1-4.87-15.241z"/></svg>