<svg xmlns="http://www.w3.org/2000/svg" xmlns:xlink="http://www.w3.org/1999/xlink" width="694.251" height="366.219"><path fill="#FFF" d="M563.946 205.661c-27.415 0-49.719 22.303-49.719 49.719 0 27.414 22.304 49.719 49.719 49.719 27.413 0 49.719-22.305 49.719-49.719 0-27.416-22.306-49.719-49.719-49.719z"/><path fill="#CDD0E0" d="M563.866 203.121c-28.927 0-52.461 23.534-52.461 52.462 0 28.927 23.534 52.461 52.461 52.461 28.928 0 52.463-23.534 52.463-52.461 0-28.928-23.536-52.462-52.463-52.462zm0 101.508c-27.044 0-49.046-22.002-49.046-49.046 0-27.045 22.002-49.047 49.046-49.047 27.045 0 49.048 22.002 49.048 49.047 0 27.044-22.003 49.046-49.048 49.046z"/><path fill="#CDD0E0" d="M575.181 245.202c-15.448 0-28.017 12.568-28.017 28.019 0 15.448 12.568 28.019 28.017 28.019 15.45 0 28.021-12.57 28.021-28.019 0-15.45-12.571-28.019-28.021-28.019z"/><path fill="#FFF" d="M535.55 256.616a4.434 4.434 0 0 1-4.434 4.434h-8.526a4.435 4.435 0 0 1 0-8.869h8.526a4.437 4.437 0 0 1 4.434 4.435z"/><path fill="#CDD0E0" d="M531.117 250.476h-8.526a6.15 6.15 0 0 0-6.143 6.141 6.15 6.15 0 0 0 6.143 6.142h8.526a6.148 6.148 0 0 0 6.141-6.142 6.149 6.149 0 0 0-6.141-6.141zm0 8.867h-8.526c-1.503 0-2.726-1.223-2.726-2.727s1.223-2.727 2.726-2.727h8.526c1.504 0 2.727 1.223 2.727 2.727s-1.223 2.727-2.727 2.727z"/><path fill="#FFF" d="M563.575 223.129c-17.705 0-32.11 14.404-32.11 32.108 0 17.705 14.405 32.109 32.11 32.109 17.704 0 32.108-14.404 32.108-32.109 0-17.704-14.404-32.108-32.108-32.108z"/><radialGradient id="a" cx="567.026" cy="264.958" r="41.961" gradientTransform="matrix(1 0 0 1.0093 0 -2.456)" gradientUnits="userSpaceOnUse"><stop offset="0" stop-color="#5e4b8b"/><stop offset=".691" stop-color="#5e4b8b"/><stop offset=".731" stop-color="#5c4988"/><stop offset=".779" stop-color="#55447e"/><stop offset=".831" stop-color="#4a3c6e"/><stop offset=".887" stop-color="#3b2f58"/><stop offset=".944" stop-color="#271f3f"/><stop offset=".946" stop-color="#271f3e"/></radialGradient><path fill="url(#a)" d="M563.521 227.59c-15.246 0-27.649 12.403-27.649 27.647s12.403 27.647 27.649 27.647c15.245 0 27.647-12.403 27.647-27.647s-12.402-27.647-27.647-27.647z"/><path fill="#CDD0E0" d="M563.521 221.075c-18.837 0-34.161 15.325-34.161 34.162 0 18.838 15.324 34.163 34.161 34.163 18.838 0 34.163-15.325 34.163-34.163 0-18.837-15.325-34.162-34.163-34.162zm0 64.909c-16.954 0-30.747-13.793-30.747-30.747 0-16.953 13.793-30.746 30.747-30.746 16.953 0 30.746 13.793 30.746 30.746 0 16.954-13.793 30.747-30.746 30.747z"/><path fill="#271F3E" d="M365.409 363.671c-6.297 2.911-13.762.165-16.672-6.133l-20.025-43.328c-2.91-6.297-.164-13.763 6.133-16.673l111.743-51.643c6.296-2.909 13.761-.163 16.671 6.134l20.025 43.329c2.91 6.297.164 13.762-6.133 16.672l-111.742 51.642z"/><path fill="#CDD0E0" d="M347.475 358.122l-20.025-43.33c-3.227-6.982-.171-15.289 6.813-18.517l111.742-51.642c6.982-3.228 15.289-.172 18.517 6.811l20.024 43.329c3.228 6.983.172 15.29-6.812 18.517l-111.742 51.643c-6.983 3.227-15.289.171-18.517-6.811zM461.999 252.61c-2.585-5.593-9.236-8.038-14.828-5.454l-111.742 51.643c-5.594 2.585-8.039 9.235-5.455 14.828l20.024 43.329c2.585 5.592 9.235 8.039 14.828 5.454l111.743-51.643c5.592-2.584 8.038-9.236 5.454-14.828l-20.024-43.329z"/><linearGradient id="b" gradientUnits="userSpaceOnUse" x1="334.494" y1="304.678" x2="477.956" y2="304.678"><stop offset="0" stop-color="#bc79b3"/><stop offset="1" stop-color="#7379ba"/></linearGradient><path fill="url(#b)" d="M364.309 357.099c-4.117 1.902-9.092-.103-11.113-4.477L335.346 314c-2.021-4.375-.325-9.464 3.791-11.366l109.003-50.376c4.116-1.902 9.092.103 11.113 4.478l17.85 38.622c2.021 4.374.325 9.463-3.792 11.365l-109.002 50.376z"/><path fill="#271F3E" d="M474.101 290.936a3.25 3.25 0 0 1-4.314-1.587l-10.697-23.147a3.248 3.248 0 0 1 1.587-4.313 3.248 3.248 0 0 1 4.313 1.586l10.697 23.148a3.25 3.25 0 0 1-1.586 4.313z"/><path fill="#CDD0E0" d="M564.575 156.332c-26.544-43.977-17.585-92.933 21.305-116.407l1.551 2.568c-37.401 22.576-45.933 69.8-20.287 112.288l-2.569 1.551z"/><path fill="#CDD0E0" d="M587.521 182.213a4.175 4.175 0 0 1-6.84 4.787l-22.737-32.494a4.175 4.175 0 0 1 1.027-5.813 4.173 4.173 0 0 1 5.813 1.027l22.737 32.493z"/><path fill="#5E4B8B" d="M603.633 172.481a6.782 6.782 0 0 1-1.679 9.446 6.782 6.782 0 0 1-9.445-1.68l-24.495-35.082a6.782 6.782 0 0 1 1.679-9.446 6.781 6.781 0 0 1 9.445 1.679l24.495 35.083z"/><path fill="#CDD0E0" d="M598.078 184.649a8.296 8.296 0 0 1-6.799-3.543l-24.494-35.082c-2.615-3.745-1.695-8.919 2.049-11.534a8.227 8.227 0 0 1 4.736-1.493 8.291 8.291 0 0 1 6.798 3.543l24.495 35.083c2.615 3.743 1.695 8.918-2.049 11.534a8.229 8.229 0 0 1-4.736 1.492zm-24.508-48.652a5.248 5.248 0 0 0-3.019.952 5.29 5.29 0 0 0-1.308 7.358l24.496 35.082a5.291 5.291 0 0 0 4.338 2.26 5.25 5.25 0 0 0 3.018-.951 5.291 5.291 0 0 0 1.309-7.358l-24.496-35.083a5.295 5.295 0 0 0-4.338-2.26z"/><path fill="#FFF" d="M604.564 180.361a6.782 6.782 0 0 0 1.678-9.445l-24.494-35.083a6.784 6.784 0 0 0-9.445-1.679c-.096.066-.182.141-.271.211l32.242 46.179c.096-.062.194-.116.29-.183z"/><path fill="#CDD0E0" d="M603.941 182.531l-.898-1.129-33.057-47.346 1.123-.875c.154-.124.24-.191.332-.256a8.229 8.229 0 0 1 4.737-1.494 8.296 8.296 0 0 1 6.799 3.543l24.495 35.083c1.268 1.814 1.752 4.013 1.364 6.191s-1.6 4.076-3.415 5.343a4.283 4.283 0 0 1-.27.172l-1.21.768zm-29.76-47.706l30.4 43.54a5.241 5.241 0 0 0 1.301-2.642 5.245 5.245 0 0 0-.87-3.949l-24.495-35.083a5.293 5.293 0 0 0-6.336-1.866z"/><path fill="#5E4B8B" d="M638.623 172.481a6.784 6.784 0 0 0 1.68 9.446 6.782 6.782 0 0 0 9.445-1.68l24.494-35.082a6.783 6.783 0 0 0-1.678-9.446 6.78 6.78 0 0 0-9.445 1.679l-24.496 35.083z"/><path fill="#CDD0E0" d="M644.179 184.649h-.002a8.232 8.232 0 0 1-4.734-1.492c-3.746-2.616-4.664-7.791-2.051-11.534l24.496-35.083a8.294 8.294 0 0 1 6.799-3.543 8.24 8.24 0 0 1 4.736 1.493c3.744 2.615 4.664 7.789 2.049 11.534l-24.496 35.082a8.29 8.29 0 0 1-6.797 3.543zm24.508-48.652a5.29 5.29 0 0 0-4.338 2.26l-24.496 35.083a5.29 5.29 0 0 0 1.307 7.358 5.256 5.256 0 0 0 3.018.951h.002c1.729 0 3.35-.845 4.338-2.26l24.494-35.082a5.29 5.29 0 0 0-1.307-7.358 5.25 5.25 0 0 0-3.018-.952z"/><path fill="#FDFAF8" d="M637.693 180.361a6.784 6.784 0 0 1-1.68-9.445l24.496-35.083a6.784 6.784 0 0 1 9.445-1.679c.094.066.182.141.271.211l-32.242 46.179c-.097-.062-.196-.116-.29-.183z"/><path fill="#CDD0E0" d="M638.392 182.578l-1.289-.814a4.604 4.604 0 0 1-.271-.174c-1.813-1.265-3.025-3.162-3.412-5.341s.098-4.377 1.365-6.191l24.494-35.083a8.294 8.294 0 0 1 6.799-3.543c1.701 0 3.338.517 4.736 1.493.092.065.178.133.264.201l1.123.875-.744 1.223-33.065 47.354zm27.686-48.146a5.29 5.29 0 0 0-4.338 2.26l-24.496 35.083a5.25 5.25 0 0 0-.871 3.949 5.271 5.271 0 0 0 1.303 2.643l30.4-43.541a5.233 5.233 0 0 0-1.998-.394z"/><path fill="#CDD0E0" d="M677.287 156.332l-2.568-1.551c25.646-42.488 17.115-89.712-20.287-112.288l1.551-2.568c38.888 23.474 47.849 72.43 21.304 116.407z"/><path fill="#CDD0E0" d="M654.339 182.213a4.177 4.177 0 0 0 1.027 5.814A4.177 4.177 0 0 0 661.18 187l22.736-32.494a4.174 4.174 0 0 0-1.027-5.813 4.173 4.173 0 0 0-5.813 1.027l-22.737 32.493z"/><path fill="#FDFAF8" d="M621.001 45.783c37.645 0 68.162 30.518 68.162 68.162 0 6.422-.908 12.629-2.568 18.52a71.473 71.473 0 0 0 6.156-29.071c0-39.626-32.125-71.75-71.75-71.75-39.627 0-71.75 32.124-71.75 71.75a71.458 71.458 0 0 0 6.154 29.069 68.168 68.168 0 0 1-2.567-18.518c0-37.644 30.518-68.162 68.163-68.162z"/><path fill="#CDD0E0" d="M687.966 133.073l-2.814-1.016a66.79 66.79 0 0 0 2.512-18.112c0-36.758-29.904-66.662-66.662-66.662s-66.663 29.904-66.663 66.662c0 6.105.845 12.198 2.511 18.11l-2.814 1.016c-4.17-9.392-6.283-19.377-6.283-29.678 0-40.391 32.859-73.25 73.25-73.25s73.25 32.859 73.25 73.25c-.002 10.301-2.117 20.287-6.287 29.68zm-66.965-88.79c37.969 0 68.939 30.534 69.65 68.336.398-3.039.6-6.118.6-9.226 0-38.736-31.514-70.25-70.25-70.25s-70.25 31.514-70.25 70.25c0 3.107.2 6.185.6 9.223.709-37.802 31.682-68.333 69.65-68.333z"/><path fill="#5E4B8B" d="M561.794 71.314a2.576 2.576 0 0 1 1.076 3.48l-2.607 4.937a2.574 2.574 0 0 1-3.48 1.075 2.575 2.575 0 0 1-1.076-3.48l2.607-4.937a2.574 2.574 0 0 1 3.48-1.075zm118.489 0a2.577 2.577 0 0 0-1.076 3.48l2.607 4.937a2.574 2.574 0 0 0 3.48 1.075 2.574 2.574 0 0 0 1.076-3.48l-2.605-4.937a2.577 2.577 0 0 0-3.482-1.075z"/><path fill="#FFF" d="M158.188 232.213l19.644-40.5 127.45 61.82-19.644 40.5z"/><path fill="#CDD0E0" d="M307.38 252.851l-20.953 43.2-130.158-63.128 20.955-43.2 130.156 63.128zm-22.341 39.191l18.334-37.801-124.76-60.511-18.335 37.802 124.761 60.51z"/><path fill="#F89E71" d="M167.777 229.93l14.638-30.18 30.18 14.637-14.639 30.18z"/><path opacity=".5" fill="#F89E71" d="M203.515 247.262l14.638-30.18 30.18 14.637-14.637 30.18z"/><path opacity=".2" fill="#F89E71" d="M239.229 264.614l14.637-30.176 30.177 14.637-14.638 30.177z"/><path fill="#FFF" d="M149.286 279.117l8.678-44.168 138.997 27.312-8.678 44.168z"/><path fill="#CDD0E0" d="M298.46 260.034l-9.26 47.112-141.943-27.896 9.26-47.111 141.943 27.895zm-11.625 43.589l8.104-41.224-136.057-26.739-8.104 41.225 136.057 26.738z"/><path fill="#F16B90" d="M157.602 273.434l6.467-32.911 32.912 6.467-6.467 32.911z"/><path opacity=".5" fill="#F16B90" d="M196.575 281.095l6.467-32.911 32.91 6.466-6.466 32.912z"/><path opacity=".2" fill="#F16B90" d="M235.566 288.77l6.47-32.91 32.91 6.47-6.47 32.91z"/><path fill="#FFF" d="M148.462 279.552h141.659v45.013H148.462z"/><path fill="#CDD0E0" d="M291.974 278.582v48.014h-144.66v-48.014h144.66zm-3 45.014v-42.014h-138.66v42.014h138.66z"/><path fill="#BC79B3" d="M156.356 285.352h33.541v33.541h-33.541z"/><path opacity=".5" fill="#BC79B3" d="M196.076 285.352h33.541v33.541h-33.541z"/><path opacity=".2" fill="#BC79B3" d="M235.795 285.352h33.541v33.541h-33.541z"/><path fill="#FFF" d="M506.666 216.939a6.692 6.692 0 0 1-6.691 6.691H194.718a6.691 6.691 0 0 1-6.691-6.691V13.648a6.691 6.691 0 0 1 6.691-6.691h305.256a6.692 6.692 0 0 1 6.691 6.691v203.291z"/><path fill="#CDD0E0" d="M500.194 224.285H194.939c-4.48 0-8.125-3.646-8.125-8.125V12.869c0-4.479 3.645-8.125 8.125-8.125h305.255c4.479 0 8.126 3.646 8.126 8.125V216.16c0 4.48-3.647 8.125-8.126 8.125zM194.939 7.611a5.263 5.263 0 0 0-5.257 5.258V216.16a5.263 5.263 0 0 0 5.257 5.257h305.255a5.263 5.263 0 0 0 5.258-5.257V12.869a5.264 5.264 0 0 0-5.258-5.258H194.939z"/><defs><path id="c" d="M474.214 129.172a4.778 4.778 0 0 1-4.779 4.779H225.996a4.778 4.778 0 0 1-4.779-4.779V33.581c0-2.64 2.14-4.779 4.779-4.779h243.439c2.64 0 4.779 2.14 4.779 4.779v95.591z"/></defs><use xlink:href="#c" overflow="visible" fill="#CDD0E0"/><clipPath id="d"><use xlink:href="#c" overflow="visible"/></clipPath><path clip-path="url(#d)" fill="#CDD0E0" d="M221.216 28.802v105.149V28.802zm0 0h6.17v105.149h-6.17zm6.171 0h6.171v105.149h-6.171zm6.171 0h6.17v105.149h-6.17zm6.17 0h6.171v105.149h-6.171zm6.171 0h6.17v105.149h-6.17zm6.17 0h6.171v105.149h-6.171zm6.172 0h6.17v105.149h-6.17zm6.17 0h6.171v105.149h-6.171zm6.171 0h6.17v105.149h-6.17zm6.17 0h6.17v105.149h-6.17zm6.171 0h6.171v105.149h-6.171zm6.171 0h6.17v105.149h-6.17zm6.17 0h6.171v105.149h-6.171zm6.171 0h6.171v105.149h-6.171zm6.171 0h6.171v105.149h-6.171zm6.171 0h6.17v105.149h-6.17zm6.17 0h6.17v105.149h-6.17zm6.171 0h6.171v105.149h-6.171zm6.171 0h6.17v105.149h-6.17zm6.17 0h6.17v105.149h-6.17zm6.17 0h6.172v105.149h-6.172z"/><path clip-path="url(#d)" fill="#CDD0E0" d="M350.801 28.802h6.171v105.149h-6.171zm6.171 0h6.17v105.149h-6.17zm6.17 0h6.171v105.149h-6.171zm6.171 0h6.17v105.149h-6.17zm6.17 0h6.171v105.149h-6.171zm6.171 0h6.17v105.149h-6.17zm6.17 0h6.171v105.149h-6.171zm6.171 0h6.171v105.149h-6.171zm6.171 0h6.172v105.149h-6.172z"/><path clip-path="url(#d)" fill="#CDD0E0" d="M406.337 28.802h6.171v105.149h-6.171zm6.171 0h6.17v105.149h-6.17zm6.17 0h6.171v105.149h-6.171zm6.171 0h6.17v105.149h-6.17zm6.17 0h6.171v105.149h-6.171zm6.171 0h6.171v105.149h-6.171zm6.171 0h6.17v105.149h-6.17zm6.17 0h6.171v105.149h-6.171zm6.171 0h6.172v105.149h-6.172zm6.172 0h6.171v105.149h-6.171z"/><path clip-path="url(#d)" fill="#CDD0E0" d="M468.044 28.802h6.17v105.149h-6.17zm6.17 105.149V28.802v105.149z"/><path fill="#271F3E" d="M229.182 42.981a1.436 1.436 0 0 1-1.434-1.434v-4.462c0-.79.643-1.434 1.434-1.434h11.153c.791 0 1.434.644 1.434 1.434v4.462c0 .79-.643 1.434-1.434 1.434h-11.153z"/><path fill="#FFF" d="M240.334 36.131c.527 0 .956.428.956.955v4.462a.958.958 0 0 1-.956.956h-11.153a.958.958 0 0 1-.956-.956v-4.462c0-.527.428-.955.956-.955h11.153m0-.956h-11.153a1.911 1.911 0 0 0-1.912 1.911v4.462c0 1.056.856 1.911 1.912 1.911h11.153a1.911 1.911 0 0 0 1.912-1.911v-4.462a1.911 1.911 0 0 0-1.912-1.911z"/><path fill="#271F3E" d="M246.535 42.981a1.436 1.436 0 0 1-1.434-1.434v-4.462c0-.79.643-1.434 1.434-1.434h11.154c.791 0 1.434.644 1.434 1.434v4.462c0 .79-.643 1.434-1.434 1.434h-11.154z"/><path fill="#FFF" d="M257.688 36.131c.527 0 .956.428.956.955v4.462a.957.957 0 0 1-.956.956h-11.154a.958.958 0 0 1-.956-.956v-4.462c0-.527.429-.955.956-.955h11.154m0-.956h-11.154a1.912 1.912 0 0 0-1.912 1.911v4.462c0 1.056.857 1.911 1.912 1.911h11.154a1.912 1.912 0 0 0 1.912-1.911v-4.462a1.912 1.912 0 0 0-1.912-1.911z"/><path fill="#271F3E" d="M263.889 42.981a1.436 1.436 0 0 1-1.434-1.434v-4.462c0-.79.644-1.434 1.434-1.434h11.153c.791 0 1.434.644 1.434 1.434v4.462c0 .79-.643 1.434-1.434 1.434h-11.153z"/><path fill="#FFF" d="M275.042 36.131c.527 0 .956.428.956.955v4.462a.957.957 0 0 1-.956.956h-11.153a.958.958 0 0 1-.956-.956v-4.462c0-.527.429-.955.956-.955h11.153m0-.956h-11.153a1.911 1.911 0 0 0-1.912 1.911v4.462c0 1.056.856 1.911 1.912 1.911h11.153a1.911 1.911 0 0 0 1.912-1.911v-4.462a1.912 1.912 0 0 0-1.912-1.911z"/><path fill="#271F3E" d="M281.243 42.981a1.436 1.436 0 0 1-1.434-1.434v-4.462c0-.79.643-1.434 1.434-1.434h11.152c.791 0 1.434.644 1.434 1.434v4.462c0 .79-.643 1.434-1.434 1.434h-11.152z"/><path fill="#FFF" d="M292.395 36.131c.527 0 .956.428.956.955v4.462a.958.958 0 0 1-.956.956h-11.152a.958.958 0 0 1-.956-.956v-4.462c0-.527.429-.955.956-.955h11.152m0-.956h-11.152a1.911 1.911 0 0 0-1.912 1.911v4.462c0 1.056.856 1.911 1.912 1.911h11.152a1.911 1.911 0 0 0 1.912-1.911v-4.462a1.911 1.911 0 0 0-1.912-1.911z"/><path fill="#271F3E" d="M298.596 42.981a1.436 1.436 0 0 1-1.434-1.434v-4.462c0-.79.643-1.434 1.434-1.434h11.152c.791 0 1.434.644 1.434 1.434v4.462c0 .79-.644 1.434-1.434 1.434h-11.152z"/><path fill="#FFF" d="M309.748 36.131c.527 0 .956.428.956.955v4.462a.958.958 0 0 1-.956.956h-11.152a.957.957 0 0 1-.956-.956v-4.462c0-.527.428-.955.956-.955h11.152m0-.956h-11.152a1.911 1.911 0 0 0-1.912 1.911v4.462c0 1.056.856 1.911 1.912 1.911h11.152a1.911 1.911 0 0 0 1.912-1.911v-4.462a1.911 1.911 0 0 0-1.912-1.911z"/><path fill="#271F3E" d="M315.949 42.981a1.436 1.436 0 0 1-1.434-1.434v-4.462c0-.79.643-1.434 1.434-1.434h11.153c.791 0 1.434.644 1.434 1.434v4.462c0 .79-.643 1.434-1.434 1.434h-11.153z"/><path fill="#FFF" d="M327.102 36.131c.527 0 .956.428.956.955v4.462a.958.958 0 0 1-.956.956h-11.153a.958.958 0 0 1-.956-.956v-4.462c0-.527.428-.955.956-.955h11.153m0-.956h-11.153a1.911 1.911 0 0 0-1.912 1.911v4.462c0 1.056.856 1.911 1.912 1.911h11.153a1.911 1.911 0 0 0 1.912-1.911v-4.462a1.911 1.911 0 0 0-1.912-1.911z"/><path fill="#271F3E" d="M333.302 42.981a1.436 1.436 0 0 1-1.434-1.434v-4.462c0-.79.643-1.434 1.434-1.434h11.153c.79 0 1.434.644 1.434 1.434v4.462c0 .79-.644 1.434-1.434 1.434h-11.153z"/><path fill="#FFF" d="M344.456 36.131c.526 0 .956.428.956.955v4.462c0 .526-.43.956-.956.956h-11.153a.958.958 0 0 1-.956-.956v-4.462c0-.527.429-.955.956-.955h11.153m0-.956h-11.153a1.911 1.911 0 0 0-1.912 1.911v4.462c0 1.056.856 1.911 1.912 1.911h11.153a1.912 1.912 0 0 0 1.912-1.911v-4.462a1.912 1.912 0 0 0-1.912-1.911z"/><path fill="#271F3E" d="M350.656 42.981c-.79 0-1.434-.644-1.434-1.434v-4.462c0-.79.644-1.434 1.434-1.434h11.153c.79 0 1.435.644 1.435 1.434v4.462c0 .79-.645 1.434-1.435 1.434h-11.153z"/><path fill="#FFF" d="M361.809 36.131c.526 0 .956.428.956.955v4.462c0 .526-.43.956-.956.956h-11.153a.959.959 0 0 1-.956-.956v-4.462c0-.527.43-.955.956-.955h11.153m0-.956h-11.153a1.912 1.912 0 0 0-1.912 1.911v4.462c0 1.056.857 1.911 1.912 1.911h11.153a1.912 1.912 0 0 0 1.912-1.911v-4.462a1.912 1.912 0 0 0-1.912-1.911z"/><path fill="#271F3E" d="M368.009 42.981a1.436 1.436 0 0 1-1.434-1.434v-4.462c0-.79.643-1.434 1.434-1.434h11.152c.791 0 1.434.644 1.434 1.434v4.462c0 .79-.643 1.434-1.434 1.434h-11.152z"/><path fill="#FFF" d="M379.162 36.131c.528 0 .955.428.955.955v4.462a.956.956 0 0 1-.955.956H368.01a.956.956 0 0 1-.955-.956v-4.462c0-.527.427-.955.955-.955h11.152m0-.956H368.01a1.91 1.91 0 0 0-1.911 1.911v4.462a1.91 1.91 0 0 0 1.911 1.911h11.152a1.91 1.91 0 0 0 1.911-1.911v-4.462a1.91 1.91 0 0 0-1.911-1.911z"/><path fill="#271F3E" d="M385.364 42.981a1.436 1.436 0 0 1-1.435-1.434v-4.462c0-.79.643-1.434 1.435-1.434h11.151c.792 0 1.434.644 1.434 1.434v4.462c0 .79-.642 1.434-1.434 1.434h-11.151z"/><path fill="#FFF" d="M396.515 36.131c.528 0 .956.428.956.955v4.462a.957.957 0 0 1-.956.956h-11.151a.957.957 0 0 1-.956-.956v-4.462c0-.527.428-.955.956-.955h11.151m0-.956h-11.151a1.91 1.91 0 0 0-1.912 1.911v4.462a1.91 1.91 0 0 0 1.912 1.911h11.151a1.91 1.91 0 0 0 1.912-1.911v-4.462a1.91 1.91 0 0 0-1.912-1.911z"/><path fill="#271F3E" d="M402.715 42.981c-.79 0-1.434-.644-1.434-1.434v-4.462c0-.79.644-1.434 1.434-1.434h11.153c.79 0 1.435.644 1.435 1.434v4.462c0 .79-.645 1.434-1.435 1.434h-11.153z"/><path fill="#FFF" d="M413.869 36.131c.527 0 .956.428.956.955v4.462a.958.958 0 0 1-.956.956h-11.153a.959.959 0 0 1-.956-.956v-4.462c0-.527.43-.955.956-.955h11.153m0-.956h-11.153a1.91 1.91 0 0 0-1.911 1.911v4.462a1.91 1.91 0 0 0 1.911 1.911h11.153a1.911 1.911 0 0 0 1.912-1.911v-4.462a1.912 1.912 0 0 0-1.912-1.911z"/><path fill="#271F3E" d="M420.07 42.981c-.79 0-1.435-.644-1.435-1.434v-4.462c0-.79.645-1.434 1.435-1.434h11.153c.79 0 1.434.644 1.434 1.434v4.462c0 .79-.644 1.434-1.434 1.434H420.07z"/><path fill="#FFF" d="M431.223 36.131c.526 0 .956.428.956.955v4.462c0 .526-.43.956-.956.956H420.07a.958.958 0 0 1-.956-.956v-4.462c0-.527.429-.955.956-.955h11.153m0-.956H420.07a1.911 1.911 0 0 0-1.912 1.911v4.462c0 1.056.856 1.911 1.912 1.911h11.153a1.91 1.91 0 0 0 1.911-1.911v-4.462a1.91 1.91 0 0 0-1.911-1.911z"/><path fill="#271F3E" d="M437.423 42.981c-.79 0-1.434-.644-1.434-1.434v-4.462c0-.79.644-1.434 1.434-1.434h11.151c.792 0 1.435.644 1.435 1.434v4.462c0 .79-.643 1.434-1.435 1.434h-11.151z"/><path fill="#FFF" d="M448.575 36.131c.528 0 .956.428.956.955v4.462a.957.957 0 0 1-.956.956h-11.151a.959.959 0 0 1-.956-.956v-4.462c0-.527.43-.955.956-.955h11.151m0-.956h-11.151a1.91 1.91 0 0 0-1.912 1.911v4.462a1.91 1.91 0 0 0 1.912 1.911h11.151a1.91 1.91 0 0 0 1.912-1.911v-4.462a1.911 1.911 0 0 0-1.912-1.911z"/><path fill="#271F3E" d="M454.777 42.981a1.436 1.436 0 0 1-1.434-1.434v-4.462c0-.79.643-1.434 1.434-1.434h11.152c.791 0 1.434.644 1.434 1.434v4.462c0 .79-.643 1.434-1.434 1.434h-11.152z"/><path fill="#FFF" d="M465.929 36.131c.528 0 .955.428.955.955v4.462a.956.956 0 0 1-.955.956h-11.152a.956.956 0 0 1-.955-.956v-4.462c0-.527.427-.955.955-.955h11.152m0-.956h-11.152a1.91 1.91 0 0 0-1.911 1.911v4.462a1.91 1.91 0 0 0 1.911 1.911h11.152a1.91 1.91 0 0 0 1.911-1.911v-4.462a1.91 1.91 0 0 0-1.911-1.911z"/><path fill="#271F3E" d="M228.863 59.868a1.435 1.435 0 0 1-1.434-1.434V47.282c0-.791.643-1.435 1.434-1.435h11.152c.791 0 1.434.644 1.434 1.435v11.152c0 .791-.644 1.434-1.434 1.434h-11.152z"/><path fill="#FFF" d="M240.015 46.326c.527 0 .956.429.956.956v11.152a.958.958 0 0 1-.956.956h-11.152a.957.957 0 0 1-.956-.956V47.282c0-.527.428-.956.956-.956h11.152m0-.956h-11.152a1.912 1.912 0 0 0-1.912 1.912v11.152c0 1.056.856 1.912 1.912 1.912h11.152a1.912 1.912 0 0 0 1.912-1.912V47.282a1.913 1.913 0 0 0-1.912-1.912z"/><path fill="#271F3E" d="M245.603 59.868a1.435 1.435 0 0 1-1.434-1.434V47.282c0-.791.643-1.435 1.434-1.435h11.153c.791 0 1.434.644 1.434 1.435v11.152c0 .791-.643 1.434-1.434 1.434h-11.153z"/><path fill="#FFF" d="M256.756 46.326c.527 0 .956.429.956.956v11.152a.957.957 0 0 1-.956.956h-11.153a.958.958 0 0 1-.956-.956V47.282c0-.527.429-.956.956-.956h11.153m0-.956h-11.153a1.912 1.912 0 0 0-1.912 1.912v11.152c0 1.056.856 1.912 1.912 1.912h11.153a1.912 1.912 0 0 0 1.912-1.912V47.282a1.913 1.913 0 0 0-1.912-1.912z"/><path fill="#271F3E" d="M262.344 59.868a1.435 1.435 0 0 1-1.434-1.434V47.282c0-.791.644-1.435 1.434-1.435h11.152c.791 0 1.434.644 1.434 1.435v11.152c0 .791-.643 1.434-1.434 1.434h-11.152z"/><path fill="#FFF" d="M273.496 46.326c.528 0 .956.429.956.956v11.152a.957.957 0 0 1-.956.956h-11.152a.958.958 0 0 1-.956-.956V47.282c0-.527.429-.956.956-.956h11.152m0-.956h-11.152a1.912 1.912 0 0 0-1.912 1.912v11.152c0 1.056.856 1.912 1.912 1.912h11.152a1.912 1.912 0 0 0 1.912-1.912V47.282a1.913 1.913 0 0 0-1.912-1.912z"/><path fill="#271F3E" d="M279.084 59.868a1.435 1.435 0 0 1-1.434-1.434V47.282c0-.791.643-1.435 1.434-1.435h11.153c.791 0 1.434.644 1.434 1.435v11.152c0 .791-.644 1.434-1.434 1.434h-11.153z"/><path fill="#FFF" d="M290.238 46.326c.527 0 .956.429.956.956v11.152a.958.958 0 0 1-.956.956h-11.153a.957.957 0 0 1-.956-.956V47.282c0-.527.428-.956.956-.956h11.153m0-.956h-11.153a1.913 1.913 0 0 0-1.912 1.912v11.152c0 1.056.857 1.912 1.912 1.912h11.153a1.913 1.913 0 0 0 1.912-1.912V47.282a1.915 1.915 0 0 0-1.912-1.912z"/><path fill="#271F3E" d="M295.826 59.868a1.435 1.435 0 0 1-1.434-1.434V47.282c0-.791.643-1.435 1.434-1.435h11.153c.791 0 1.434.644 1.434 1.435v11.152c0 .791-.643 1.434-1.434 1.434h-11.153z"/><path fill="#FFF" d="M306.979 46.326c.527 0 .956.429.956.956v11.152a.957.957 0 0 1-.956.956h-11.153a.958.958 0 0 1-.956-.956V47.282c0-.527.429-.956.956-.956h11.153m0-.956h-11.153a1.912 1.912 0 0 0-1.912 1.912v11.152c0 1.056.856 1.912 1.912 1.912h11.153a1.912 1.912 0 0 0 1.912-1.912V47.282a1.914 1.914 0 0 0-1.912-1.912z"/><path fill="#271F3E" d="M312.566 59.868a1.435 1.435 0 0 1-1.434-1.434V47.282c0-.791.644-1.435 1.434-1.435h11.152c.791 0 1.434.644 1.434 1.435v11.152c0 .791-.643 1.434-1.434 1.434h-11.152z"/><path fill="#FFF" d="M323.719 46.326c.528 0 .956.429.956.956v11.152a.957.957 0 0 1-.956.956h-11.152a.958.958 0 0 1-.956-.956V47.282c0-.527.429-.956.956-.956h11.152m0-.956h-11.152a1.912 1.912 0 0 0-1.912 1.912v11.152c0 1.056.856 1.912 1.912 1.912h11.152a1.912 1.912 0 0 0 1.912-1.912V47.282a1.913 1.913 0 0 0-1.912-1.912z"/><path fill="#271F3E" d="M329.307 59.868a1.435 1.435 0 0 1-1.434-1.434V47.282c0-.791.643-1.435 1.434-1.435h11.152c.791 0 1.434.644 1.434 1.435v11.152c0 .791-.644 1.434-1.434 1.434h-11.152z"/><path fill="#FFF" d="M340.459 46.326c.527 0 .956.429.956.956v11.152a.958.958 0 0 1-.956.956h-11.152a.957.957 0 0 1-.956-.956V47.282c0-.527.428-.956.956-.956h11.152m0-.956h-11.152a1.912 1.912 0 0 0-1.912 1.912v11.152c0 1.056.856 1.912 1.912 1.912h11.152a1.912 1.912 0 0 0 1.912-1.912V47.282a1.912 1.912 0 0 0-1.912-1.912z"/><path fill="#271F3E" d="M346.048 59.868a1.435 1.435 0 0 1-1.435-1.434V47.282c0-.791.643-1.435 1.435-1.435H357.2c.792 0 1.434.644 1.434 1.435v11.152c0 .791-.642 1.434-1.434 1.434h-11.152z"/><path fill="#FFF" d="M357.2 46.326c.528 0 .956.429.956.956v11.152a.957.957 0 0 1-.956.956h-11.151a.957.957 0 0 1-.956-.956V47.282c0-.527.428-.956.956-.956H357.2m0-.956h-11.151a1.911 1.911 0 0 0-1.912 1.912v11.152c0 1.056.855 1.912 1.912 1.912H357.2a1.911 1.911 0 0 0 1.912-1.912V47.282a1.913 1.913 0 0 0-1.912-1.912z"/><path fill="#271F3E" d="M362.788 59.868c-.79 0-1.434-.643-1.434-1.434V47.282c0-.791.644-1.435 1.434-1.435h11.153c.79 0 1.434.644 1.434 1.435v11.152c0 .791-.644 1.434-1.434 1.434h-11.153z"/><path fill="#FFF" d="M373.941 46.326c.526 0 .956.429.956.956v11.152c0 .526-.43.956-.956.956h-11.153a.959.959 0 0 1-.956-.956V47.282c0-.527.43-.956.956-.956h11.153m0-.956h-11.153a1.913 1.913 0 0 0-1.912 1.912v11.152c0 1.056.857 1.912 1.912 1.912h11.153a1.913 1.913 0 0 0 1.912-1.912V47.282a1.913 1.913 0 0 0-1.912-1.912z"/><path fill="#271F3E" d="M379.529 59.868a1.435 1.435 0 0 1-1.434-1.434V47.282c0-.791.643-1.435 1.434-1.435h11.152c.791 0 1.434.644 1.434 1.435v11.152c0 .791-.643 1.434-1.434 1.434h-11.152z"/><path fill="#FFF" d="M390.681 46.326c.528 0 .955.429.955.956v11.152a.956.956 0 0 1-.955.956h-11.152a.957.957 0 0 1-.956-.956V47.282c0-.527.428-.956.956-.956h11.152m0-.956h-11.152a1.91 1.91 0 0 0-1.911 1.912v11.152a1.91 1.91 0 0 0 1.911 1.912h11.152a1.91 1.91 0 0 0 1.911-1.912V47.282a1.911 1.911 0 0 0-1.911-1.912z"/><path fill="#271F3E" d="M396.269 59.868c-.79 0-1.435-.643-1.435-1.434V47.282c0-.791.645-1.435 1.435-1.435h11.153c.792 0 1.434.644 1.434 1.435v11.152c0 .791-.642 1.434-1.434 1.434h-11.153z"/><path fill="#FFF" d="M407.422 46.326c.528 0 .956.429.956.956v11.152a.957.957 0 0 1-.956.956h-11.153a.959.959 0 0 1-.956-.956V47.282c0-.527.43-.956.956-.956h11.153m0-.956h-11.153a1.913 1.913 0 0 0-1.912 1.912v11.152c0 1.056.857 1.912 1.912 1.912h11.153a1.913 1.913 0 0 0 1.912-1.912V47.282a1.913 1.913 0 0 0-1.912-1.912z"/><path fill="#271F3E" d="M413.01 59.868c-.79 0-1.434-.643-1.434-1.434V47.282c0-.791.644-1.435 1.434-1.435h11.153c.79 0 1.434.644 1.434 1.435v11.152c0 .791-.644 1.434-1.434 1.434H413.01z"/><path fill="#FFF" d="M424.164 46.326c.526 0 .956.429.956.956v11.152c0 .526-.43.956-.956.956H413.01a.959.959 0 0 1-.956-.956V47.282c0-.527.43-.956.956-.956h11.154m0-.956H413.01a1.913 1.913 0 0 0-1.912 1.912v11.152c0 1.056.857 1.912 1.912 1.912h11.153a1.913 1.913 0 0 0 1.912-1.912V47.282a1.912 1.912 0 0 0-1.911-1.912z"/><path fill="#271F3E" d="M429.751 59.868a1.435 1.435 0 0 1-1.434-1.434V47.282c0-.791.643-1.435 1.434-1.435h11.152c.791 0 1.434.644 1.434 1.435v11.152c0 .791-.643 1.434-1.434 1.434h-11.152z"/><path fill="#FFF" d="M440.904 46.326c.528 0 .955.429.955.956v11.152a.956.956 0 0 1-.955.956h-11.152a.957.957 0 0 1-.956-.956V47.282c0-.527.428-.956.956-.956h11.152m0-.956h-11.152a1.91 1.91 0 0 0-1.911 1.912v11.152a1.91 1.91 0 0 0 1.911 1.912h11.152a1.91 1.91 0 0 0 1.911-1.912V47.282a1.912 1.912 0 0 0-1.911-1.912z"/><path fill="#271F3E" d="M446.492 59.868c-.79 0-1.435-.643-1.435-1.434V47.282c0-.791.645-1.435 1.435-1.435h19.757c.789 0 1.434.644 1.434 1.435v11.152c0 .791-.645 1.434-1.434 1.434h-19.757z"/><path fill="#FFF" d="M466.249 46.326c.526 0 .955.429.955.956v11.152a.958.958 0 0 1-.955.956h-19.757a.959.959 0 0 1-.956-.956V47.282c0-.527.43-.956.956-.956h19.757m0-.956h-19.757a1.913 1.913 0 0 0-1.912 1.912v11.152c0 1.056.857 1.912 1.912 1.912h19.757a1.912 1.912 0 0 0 1.911-1.912V47.282a1.913 1.913 0 0 0-1.911-1.912z"/><path fill="#271F3E" d="M455.094 76.119a1.437 1.437 0 0 1-1.434-1.434V63.532c0-.79.645-1.434 1.434-1.434h11.154c.789 0 1.434.644 1.434 1.434v11.153c0 .79-.645 1.434-1.434 1.434h-11.154z"/><path fill="#FFF" d="M466.249 62.576c.526 0 .955.429.955.956v11.153a.957.957 0 0 1-.955.955h-11.154a.958.958 0 0 1-.956-.955V63.532c0-.527.43-.956.956-.956h11.154m0-.955h-11.154a1.91 1.91 0 0 0-1.911 1.911v11.153a1.91 1.91 0 0 0 1.911 1.911h11.154a1.91 1.91 0 0 0 1.911-1.911V63.532a1.912 1.912 0 0 0-1.911-1.911z"/><path fill="#271F3E" d="M438.355 76.119a1.435 1.435 0 0 1-1.434-1.434V63.532c0-.79.642-1.434 1.434-1.434h11.151c.792 0 1.435.644 1.435 1.434v11.153c0 .79-.643 1.434-1.435 1.434h-11.151z"/><path fill="#FFF" d="M449.506 62.576c.528 0 .956.429.956.956v11.153a.956.956 0 0 1-.956.955h-11.151a.956.956 0 0 1-.956-.955V63.532c0-.527.428-.956.956-.956h11.151m0-.955h-11.151a1.91 1.91 0 0 0-1.912 1.911v11.153a1.91 1.91 0 0 0 1.912 1.911h11.151a1.91 1.91 0 0 0 1.912-1.911V63.532a1.911 1.911 0 0 0-1.912-1.911z"/><path fill="#271F3E" d="M421.614 76.119c-.79 0-1.435-.644-1.435-1.434V63.532c0-.79.645-1.434 1.435-1.434h11.153c.79 0 1.434.644 1.434 1.434v11.153c0 .79-.644 1.434-1.434 1.434h-11.153z"/><path fill="#FFF" d="M432.767 62.576c.526 0 .956.429.956.956v11.153c0 .526-.43.955-.956.955h-11.153a.958.958 0 0 1-.956-.955V63.532c0-.527.43-.956.956-.956h11.153m0-.955h-11.153a1.911 1.911 0 0 0-1.912 1.911v11.153c0 1.056.856 1.911 1.912 1.911h11.153a1.912 1.912 0 0 0 1.912-1.911V63.532a1.912 1.912 0 0 0-1.912-1.911z"/><path fill="#271F3E" d="M404.872 76.119a1.437 1.437 0 0 1-1.434-1.434V63.532c0-.79.645-1.434 1.434-1.434h11.154c.791 0 1.434.644 1.434 1.434v11.153c0 .79-.643 1.434-1.434 1.434h-11.154z"/><path fill="#FFF" d="M416.026 62.576c.528 0 .955.429.955.956v11.153a.956.956 0 0 1-.955.955h-11.154a.958.958 0 0 1-.956-.955V63.532c0-.527.43-.956.956-.956h11.154m0-.955h-11.154a1.91 1.91 0 0 0-1.911 1.911v11.153a1.91 1.91 0 0 0 1.911 1.911h11.154a1.91 1.91 0 0 0 1.911-1.911V63.532a1.912 1.912 0 0 0-1.911-1.911z"/><path fill="#271F3E" d="M388.132 76.119a1.435 1.435 0 0 1-1.434-1.434V63.532c0-.79.642-1.434 1.434-1.434h11.151c.792 0 1.435.644 1.435 1.434v11.153c0 .79-.643 1.434-1.435 1.434h-11.151z"/><path fill="#FFF" d="M399.284 62.576c.528 0 .956.429.956.956v11.153a.956.956 0 0 1-.956.955h-11.151a.956.956 0 0 1-.956-.955V63.532c0-.527.428-.956.956-.956h11.151m0-.955h-11.151a1.91 1.91 0 0 0-1.912 1.911v11.153a1.91 1.91 0 0 0 1.912 1.911h11.151a1.91 1.91 0 0 0 1.912-1.911V63.532a1.912 1.912 0 0 0-1.912-1.911z"/><path fill="#271F3E" d="M371.391 76.119c-.79 0-1.435-.644-1.435-1.434V63.532c0-.79.645-1.434 1.435-1.434h11.153c.79 0 1.434.644 1.434 1.434v11.153c0 .79-.644 1.434-1.434 1.434h-11.153z"/><path fill="#FFF" d="M382.544 62.576c.526 0 .956.429.956.956v11.153c0 .526-.43.955-.956.955h-11.153a.958.958 0 0 1-.956-.955V63.532c0-.527.43-.956.956-.956h11.153m0-.955h-11.153a1.911 1.911 0 0 0-1.912 1.911v11.153c0 1.056.856 1.911 1.912 1.911h11.153a1.912 1.912 0 0 0 1.912-1.911V63.532a1.912 1.912 0 0 0-1.912-1.911z"/><path fill="#271F3E" d="M354.651 76.119a1.436 1.436 0 0 1-1.434-1.434V63.532c0-.79.643-1.434 1.434-1.434h11.152c.791 0 1.434.644 1.434 1.434v11.153c0 .79-.643 1.434-1.434 1.434h-11.152z"/><path fill="#FFF" d="M365.803 62.576c.528 0 .955.429.955.956v11.153a.956.956 0 0 1-.955.955h-11.152a.956.956 0 0 1-.956-.955V63.532c0-.527.428-.956.956-.956h11.152m0-.955h-11.152a1.91 1.91 0 0 0-1.911 1.911v11.153a1.91 1.91 0 0 0 1.911 1.911h11.152a1.91 1.91 0 0 0 1.911-1.911V63.532a1.91 1.91 0 0 0-1.911-1.911z"/><path fill="#271F3E" d="M337.91 76.119a1.436 1.436 0 0 1-1.434-1.434V63.532c0-.79.644-1.434 1.434-1.434h11.153c.79 0 1.434.644 1.434 1.434v11.153c0 .79-.644 1.434-1.434 1.434H337.91z"/><path fill="#FFF" d="M349.063 62.576c.526 0 .956.429.956.956v11.153c0 .526-.43.955-.956.955H337.91a.957.957 0 0 1-.956-.955V63.532c0-.527.429-.956.956-.956h11.153m0-.955H337.91a1.911 1.911 0 0 0-1.912 1.911v11.153c0 1.056.856 1.911 1.912 1.911h11.153a1.912 1.912 0 0 0 1.912-1.911V63.532a1.912 1.912 0 0 0-1.912-1.911z"/><path fill="#271F3E" d="M321.169 76.119a1.436 1.436 0 0 1-1.434-1.434V63.532c0-.79.643-1.434 1.434-1.434h11.153c.791 0 1.434.644 1.434 1.434v11.153c0 .79-.643 1.434-1.434 1.434h-11.153z"/><path fill="#FFF" d="M332.322 62.576c.527 0 .956.429.956.956v11.153a.956.956 0 0 1-.956.955h-11.153a.957.957 0 0 1-.956-.955V63.532c0-.527.429-.956.956-.956h11.153m0-.955h-11.153a1.911 1.911 0 0 0-1.912 1.911v11.153c0 1.056.856 1.911 1.912 1.911h11.153a1.911 1.911 0 0 0 1.912-1.911V63.532a1.912 1.912 0 0 0-1.912-1.911z"/><path fill="#271F3E" d="M304.429 76.119a1.436 1.436 0 0 1-1.434-1.434V63.532c0-.79.643-1.434 1.434-1.434h11.152c.791 0 1.434.644 1.434 1.434v11.153c0 .79-.644 1.434-1.434 1.434h-11.152z"/><path fill="#FFF" d="M315.582 62.576c.527 0 .956.429.956.956v11.153a.957.957 0 0 1-.956.955H304.43a.956.956 0 0 1-.956-.955V63.532c0-.527.428-.956.956-.956h11.152m0-.955H304.43a1.911 1.911 0 0 0-1.912 1.911v11.153c0 1.056.856 1.911 1.912 1.911h11.152a1.911 1.911 0 0 0 1.912-1.911V63.532a1.912 1.912 0 0 0-1.912-1.911z"/><path fill="#271F3E" d="M287.688 76.119a1.436 1.436 0 0 1-1.434-1.434V63.532c0-.79.644-1.434 1.434-1.434h11.153c.791 0 1.434.644 1.434 1.434v11.153c0 .79-.643 1.434-1.434 1.434h-11.153z"/><path fill="#FFF" d="M298.841 62.576c.528 0 .956.429.956.956v11.153a.956.956 0 0 1-.956.955h-11.153a.957.957 0 0 1-.956-.955V63.532c0-.527.429-.956.956-.956h11.153m0-.955h-11.153a1.912 1.912 0 0 0-1.912 1.911v11.153c0 1.056.857 1.911 1.912 1.911h11.153a1.912 1.912 0 0 0 1.912-1.911V63.532a1.912 1.912 0 0 0-1.912-1.911z"/><path fill="#271F3E" d="M270.947 76.119a1.436 1.436 0 0 1-1.434-1.434V63.532c0-.79.643-1.434 1.434-1.434H282.1c.791 0 1.434.644 1.434 1.434v11.153c0 .79-.643 1.434-1.434 1.434h-11.153z"/><path fill="#FFF" d="M282.1 62.576c.527 0 .956.429.956.956v11.153a.956.956 0 0 1-.956.955h-11.153a.957.957 0 0 1-.956-.955V63.532c0-.527.428-.956.956-.956H282.1m0-.955h-11.153a1.911 1.911 0 0 0-1.912 1.911v11.153c0 1.056.856 1.911 1.912 1.911H282.1a1.911 1.911 0 0 0 1.912-1.911V63.532a1.913 1.913 0 0 0-1.912-1.911z"/><path fill="#271F3E" d="M254.207 76.119a1.436 1.436 0 0 1-1.434-1.434V63.532c0-.79.643-1.434 1.434-1.434h11.152c.791 0 1.434.644 1.434 1.434v11.153c0 .79-.644 1.434-1.434 1.434h-11.152z"/><path fill="#FFF" d="M265.359 62.576c.527 0 .956.429.956.956v11.153a.957.957 0 0 1-.956.955h-11.152a.956.956 0 0 1-.956-.955V63.532c0-.527.428-.956.956-.956h11.152m0-.955h-11.152a1.911 1.911 0 0 0-1.912 1.911v11.153c0 1.056.856 1.911 1.912 1.911h11.152a1.911 1.911 0 0 0 1.912-1.911V63.532a1.912 1.912 0 0 0-1.912-1.911z"/><path fill="#271F3E" d="M258.348 92.688a1.435 1.435 0 0 1-1.434-1.434V80.102c0-.791.643-1.434 1.434-1.434h11.153c.791 0 1.434.643 1.434 1.434v11.152c0 .791-.643 1.434-1.434 1.434h-11.153z"/><path fill="#FFF" d="M269.501 79.146c.527 0 .956.43.956.956v11.152a.957.957 0 0 1-.956.956h-11.153a.957.957 0 0 1-.956-.956V80.102c0-.526.428-.956.956-.956h11.153m0-.957h-11.153a1.912 1.912 0 0 0-1.912 1.912v11.152c0 1.056.856 1.912 1.912 1.912h11.153a1.912 1.912 0 0 0 1.912-1.912V80.102a1.913 1.913 0 0 0-1.912-1.913z"/><path fill="#271F3E" d="M266.632 108.938a1.436 1.436 0 0 1-1.434-1.435V96.352c0-.79.643-1.434 1.434-1.434h11.152c.791 0 1.434.644 1.434 1.434v11.152c0 .791-.643 1.435-1.434 1.435h-11.152z"/><path fill="#FFF" d="M277.785 95.396c.527 0 .956.43.956.956v11.152a.957.957 0 0 1-.956.956h-11.152a.957.957 0 0 1-.956-.956V96.352c0-.526.429-.956.956-.956h11.152m0-.957h-11.152a1.912 1.912 0 0 0-1.912 1.912v11.152c0 1.057.856 1.912 1.912 1.912h11.152a1.911 1.911 0 0 0 1.912-1.912V96.352a1.913 1.913 0 0 0-1.912-1.913z"/><path fill="#271F3E" d="M229.074 127.738c-.813 0-1.475-.771-1.475-1.719v-12.813c0-.947.662-1.719 1.475-1.719h11.389c.813 0 1.475.771 1.475 1.719v12.813c0 .947-.662 1.719-1.475 1.719h-11.389z"/><path fill="#FFF" d="M240.462 111.966c.55 0 .997.556.997 1.24v12.813c0 .685-.447 1.24-.997 1.24h-11.389c-.55 0-.997-.556-.997-1.24v-12.813c0-.685.447-1.24.997-1.24h11.389m0-.956h-11.389c-1.079 0-1.953.984-1.953 2.196v12.813c0 1.213.875 2.196 1.953 2.196h11.389c1.078 0 1.953-.983 1.953-2.196v-12.813c0-1.212-.874-2.196-1.953-2.196z"/><path fill="#271F3E" d="M245.324 127.738c-.813 0-1.475-.771-1.475-1.719v-12.813c0-.947.662-1.719 1.475-1.719h11.389c.813 0 1.475.771 1.475 1.719v12.813c0 .947-.662 1.719-1.475 1.719h-11.389z"/><path fill="#FFF" d="M256.713 111.966c.55 0 .997.556.997 1.24v12.813c0 .685-.447 1.24-.997 1.24h-11.389c-.55 0-.997-.556-.997-1.24v-12.813c0-.685.447-1.24.997-1.24h11.389m0-.956h-11.389c-1.079 0-1.953.984-1.953 2.196v12.813c0 1.213.875 2.196 1.953 2.196h11.389c1.078 0 1.953-.983 1.953-2.196v-12.813c0-1.212-.875-2.196-1.953-2.196z"/><path fill="#271F3E" d="M262.53 127.738c-.813 0-1.475-.771-1.475-1.719v-12.813c0-.947.662-1.719 1.475-1.719h11.389c.813 0 1.475.771 1.475 1.719v12.813c0 .947-.662 1.719-1.475 1.719H262.53z"/><path fill="#FFF" d="M273.919 111.966c.55 0 .997.556.997 1.24v12.813c0 .685-.447 1.24-.997 1.24H262.53c-.55 0-.997-.556-.997-1.24v-12.813c0-.685.447-1.24.997-1.24h11.389m0-.956H262.53c-1.078 0-1.953.984-1.953 2.196v12.813c0 1.213.875 2.196 1.953 2.196h11.389c1.078 0 1.953-.983 1.953-2.196v-12.813c0-1.212-.874-2.196-1.953-2.196z"/><path fill="#271F3E" d="M283.414 108.938a1.436 1.436 0 0 1-1.434-1.435V96.352c0-.79.643-1.434 1.434-1.434h11.152c.791 0 1.434.644 1.434 1.434v11.152c0 .791-.644 1.435-1.434 1.435h-11.152z"/><path fill="#FFF" d="M294.566 95.396c.527 0 .956.43.956.956v11.152a.957.957 0 0 1-.956.956h-11.152a.956.956 0 0 1-.956-.956V96.352c0-.526.428-.956.956-.956h11.152m0-.957h-11.152a1.912 1.912 0 0 0-1.912 1.912v11.152c0 1.057.856 1.912 1.912 1.912h11.152a1.911 1.911 0 0 0 1.912-1.912V96.352a1.912 1.912 0 0 0-1.912-1.913z"/><path fill="#271F3E" d="M300.195 108.938a1.436 1.436 0 0 1-1.434-1.435V96.352c0-.79.643-1.434 1.434-1.434h11.153c.791 0 1.434.644 1.434 1.434v11.152c0 .791-.643 1.435-1.434 1.435h-11.153z"/><path fill="#FFF" d="M311.348 95.396c.527 0 .956.43.956.956v11.152a.957.957 0 0 1-.956.956h-11.153a.957.957 0 0 1-.956-.956V96.352c0-.526.428-.956.956-.956h11.153m0-.957h-11.153a1.912 1.912 0 0 0-1.912 1.912v11.152c0 1.057.856 1.912 1.912 1.912h11.153a1.911 1.911 0 0 0 1.912-1.912V96.352a1.913 1.913 0 0 0-1.912-1.913z"/><path fill="#271F3E" d="M316.977 108.938a1.436 1.436 0 0 1-1.434-1.435V96.352c0-.79.643-1.434 1.434-1.434h11.153c.791 0 1.434.644 1.434 1.434v11.152c0 .791-.643 1.435-1.434 1.435h-11.153z"/><path fill="#FFF" d="M328.13 95.396c.527 0 .956.43.956.956v11.152a.956.956 0 0 1-.956.956h-11.153a.957.957 0 0 1-.956-.956V96.352c0-.526.428-.956.956-.956h11.153m0-.957h-11.153a1.912 1.912 0 0 0-1.912 1.912v11.152c0 1.057.856 1.912 1.912 1.912h11.153a1.911 1.911 0 0 0 1.912-1.912V96.352a1.913 1.913 0 0 0-1.912-1.913z"/><path fill="#271F3E" d="M333.758 108.938a1.436 1.436 0 0 1-1.434-1.435V96.352c0-.79.643-1.434 1.434-1.434h11.153c.792 0 1.435.644 1.435 1.434v11.152c0 .791-.643 1.435-1.435 1.435h-11.153z"/><path fill="#FFF" d="M344.911 95.396c.528 0 .956.43.956.956v11.152a.956.956 0 0 1-.956.956h-11.153a.957.957 0 0 1-.956-.956V96.352c0-.526.429-.956.956-.956h11.153m0-.957h-11.153a1.913 1.913 0 0 0-1.912 1.912v11.152c0 1.057.857 1.912 1.912 1.912h11.153a1.911 1.911 0 0 0 1.912-1.912V96.352a1.913 1.913 0 0 0-1.912-1.913z"/><path fill="#271F3E" d="M350.54 108.938a1.437 1.437 0 0 1-1.434-1.435V96.352c0-.79.645-1.434 1.434-1.434h11.152c.791 0 1.434.644 1.434 1.434v11.152c0 .791-.643 1.435-1.434 1.435H350.54z"/><path fill="#FFF" d="M361.692 95.396c.528 0 .956.43.956.956v11.152a.956.956 0 0 1-.956.956H350.54a.956.956 0 0 1-.955-.956V96.352c0-.526.429-.956.955-.956h11.152m0-.957H350.54a1.91 1.91 0 0 0-1.911 1.912v11.152a1.91 1.91 0 0 0 1.911 1.912h11.152a1.91 1.91 0 0 0 1.911-1.912V96.352a1.911 1.911 0 0 0-1.911-1.913z"/><path fill="#271F3E" d="M367.321 108.938c-.79 0-1.434-.644-1.434-1.435V96.352c0-.79.644-1.434 1.434-1.434h11.153c.79 0 1.434.644 1.434 1.434v11.152c0 .791-.644 1.435-1.434 1.435h-11.153z"/><path fill="#FFF" d="M378.474 95.396c.526 0 .956.43.956.956v11.152c0 .528-.43.956-.956.956h-11.153a.957.957 0 0 1-.956-.956V96.352c0-.526.43-.956.956-.956h11.153m0-.957h-11.153a1.913 1.913 0 0 0-1.912 1.912v11.152c0 1.057.857 1.912 1.912 1.912h11.153a1.912 1.912 0 0 0 1.912-1.912V96.352a1.913 1.913 0 0 0-1.912-1.913z"/><path fill="#271F3E" d="M384.103 108.938a1.436 1.436 0 0 1-1.434-1.435V96.352c0-.79.643-1.434 1.434-1.434h11.152c.791 0 1.434.644 1.434 1.434v11.152c0 .791-.643 1.435-1.434 1.435h-11.152z"/><path fill="#FFF" d="M395.255 95.396c.528 0 .955.43.955.956v11.152a.955.955 0 0 1-.955.956h-11.152a.956.956 0 0 1-.956-.956V96.352c0-.526.428-.956.956-.956h11.152m0-.957h-11.152a1.91 1.91 0 0 0-1.911 1.912v11.152a1.91 1.91 0 0 0 1.911 1.912h11.152a1.91 1.91 0 0 0 1.911-1.912V96.352a1.91 1.91 0 0 0-1.911-1.913z"/><path fill="#271F3E" d="M400.884 108.938c-.79 0-1.435-.644-1.435-1.435V96.352c0-.79.645-1.434 1.435-1.434h11.153c.79 0 1.434.644 1.434 1.434v11.152c0 .791-.644 1.435-1.434 1.435h-11.153z"/><path fill="#FFF" d="M412.038 95.396c.526 0 .956.43.956.956v11.152c0 .528-.43.956-.956.956h-11.153a.957.957 0 0 1-.956-.956V96.352c0-.526.43-.956.956-.956h11.153m0-.957h-11.153a1.913 1.913 0 0 0-1.912 1.912v11.152c0 1.057.857 1.912 1.912 1.912h11.153a1.912 1.912 0 0 0 1.912-1.912V96.352a1.914 1.914 0 0 0-1.912-1.913z"/><path fill="#271F3E" d="M417.667 108.938a1.435 1.435 0 0 1-1.434-1.435V96.352c0-.79.642-1.434 1.434-1.434h11.151c.792 0 1.435.644 1.435 1.434v11.152c0 .791-.643 1.435-1.435 1.435h-11.151z"/><path fill="#FFF" d="M428.818 95.396c.528 0 .956.43.956.956v11.152a.956.956 0 0 1-.956.956h-11.151a.956.956 0 0 1-.956-.956V96.352c0-.526.428-.956.956-.956h11.151m0-.957h-11.151a1.911 1.911 0 0 0-1.912 1.912v11.152a1.91 1.91 0 0 0 1.912 1.912h11.151a1.91 1.91 0 0 0 1.912-1.912V96.352a1.912 1.912 0 0 0-1.912-1.913z"/><path fill="#271F3E" d="M275.077 92.688a1.435 1.435 0 0 1-1.434-1.434V80.102c0-.791.643-1.434 1.434-1.434h11.153c.791 0 1.434.643 1.434 1.434v11.152c0 .791-.643 1.434-1.434 1.434h-11.153z"/><path fill="#FFF" d="M286.229 79.146c.527 0 .956.43.956.956v11.152a.957.957 0 0 1-.956.956h-11.153a.957.957 0 0 1-.956-.956V80.102c0-.526.429-.956.956-.956h11.153m0-.957h-11.153a1.912 1.912 0 0 0-1.912 1.912v11.152c0 1.056.856 1.912 1.912 1.912h11.153a1.912 1.912 0 0 0 1.912-1.912V80.102a1.913 1.913 0 0 0-1.912-1.913z"/><path fill="#271F3E" d="M291.805 92.688a1.435 1.435 0 0 1-1.434-1.434V80.102c0-.791.644-1.434 1.434-1.434h11.152c.791 0 1.434.643 1.434 1.434v11.152c0 .791-.643 1.434-1.434 1.434h-11.152z"/><path fill="#FFF" d="M302.958 79.146c.528 0 .956.43.956.956v11.152a.957.957 0 0 1-.956.956h-11.152a.957.957 0 0 1-.956-.956V80.102c0-.526.429-.956.956-.956h11.152m0-.957h-11.152a1.912 1.912 0 0 0-1.912 1.912v11.152c0 1.056.856 1.912 1.912 1.912h11.152a1.912 1.912 0 0 0 1.912-1.912V80.102a1.913 1.913 0 0 0-1.912-1.913z"/><path fill="#271F3E" d="M308.534 92.688a1.435 1.435 0 0 1-1.434-1.434V80.102c0-.791.643-1.434 1.434-1.434h11.152c.791 0 1.434.643 1.434 1.434v11.152c0 .791-.643 1.434-1.434 1.434h-11.152z"/><path fill="#FFF" d="M319.686 79.146c.527 0 .956.43.956.956v11.152a.957.957 0 0 1-.956.956h-11.152a.957.957 0 0 1-.956-.956V80.102c0-.526.429-.956.956-.956h11.152m0-.957h-11.152a1.912 1.912 0 0 0-1.912 1.912v11.152c0 1.056.856 1.912 1.912 1.912h11.152a1.912 1.912 0 0 0 1.912-1.912V80.102a1.913 1.913 0 0 0-1.912-1.913z"/><path fill="#271F3E" d="M325.262 92.688a1.435 1.435 0 0 1-1.434-1.434V80.102c0-.791.643-1.434 1.434-1.434h11.152c.791 0 1.434.643 1.434 1.434v11.152c0 .791-.643 1.434-1.434 1.434h-11.152z"/><path fill="#FFF" d="M336.415 79.146c.527 0 .956.43.956.956v11.152a.957.957 0 0 1-.956.956h-11.152a.957.957 0 0 1-.956-.956V80.102c0-.526.429-.956.956-.956h11.152m0-.957h-11.152a1.912 1.912 0 0 0-1.912 1.912v11.152c0 1.056.856 1.912 1.912 1.912h11.152a1.912 1.912 0 0 0 1.912-1.912V80.102a1.913 1.913 0 0 0-1.912-1.913z"/><path fill="#271F3E" d="M341.991 92.688a1.435 1.435 0 0 1-1.434-1.434V80.102c0-.791.643-1.434 1.434-1.434h11.151c.792 0 1.435.643 1.435 1.434v11.152c0 .791-.643 1.434-1.435 1.434h-11.151z"/><path fill="#FFF" d="M353.142 79.146c.529 0 .956.43.956.956v11.152a.956.956 0 0 1-.956.956h-11.151a.957.957 0 0 1-.956-.956V80.102c0-.526.428-.956.956-.956h11.151m0-.957h-11.151a1.912 1.912 0 0 0-1.912 1.912v11.152c0 1.056.856 1.912 1.912 1.912h11.151a1.91 1.91 0 0 0 1.912-1.912V80.102a1.912 1.912 0 0 0-1.912-1.913z"/><path fill="#271F3E" d="M358.719 92.688a1.435 1.435 0 0 1-1.434-1.434V80.102c0-.791.642-1.434 1.434-1.434h11.151c.792 0 1.435.643 1.435 1.434v11.152c0 .791-.643 1.434-1.435 1.434h-11.151z"/><path fill="#FFF" d="M369.871 79.146c.529 0 .956.43.956.956v11.152a.956.956 0 0 1-.956.956H358.72a.957.957 0 0 1-.956-.956V80.102c0-.526.428-.956.956-.956h11.151m0-.957H358.72a1.911 1.911 0 0 0-1.912 1.912v11.152c0 1.056.855 1.912 1.912 1.912h11.151a1.91 1.91 0 0 0 1.912-1.912V80.102a1.912 1.912 0 0 0-1.912-1.913z"/><path fill="#271F3E" d="M375.448 92.688a1.435 1.435 0 0 1-1.434-1.434V80.102c0-.791.642-1.434 1.434-1.434h11.151c.792 0 1.435.643 1.435 1.434v11.152c0 .791-.643 1.434-1.435 1.434h-11.151z"/><path fill="#FFF" d="M386.599 79.146c.528 0 .956.43.956.956v11.152a.957.957 0 0 1-.956.956h-11.151a.957.957 0 0 1-.956-.956V80.102c0-.526.428-.956.956-.956h11.151m0-.957h-11.151a1.911 1.911 0 0 0-1.912 1.912v11.152c0 1.056.855 1.912 1.912 1.912h11.151a1.911 1.911 0 0 0 1.912-1.912V80.102a1.912 1.912 0 0 0-1.912-1.913z"/><path fill="#271F3E" d="M392.176 92.688a1.435 1.435 0 0 1-1.434-1.434V80.102c0-.791.642-1.434 1.434-1.434h11.151c.792 0 1.435.643 1.435 1.434v11.152c0 .791-.643 1.434-1.435 1.434h-11.151z"/><path fill="#FFF" d="M403.328 79.146c.528 0 .956.43.956.956v11.152a.957.957 0 0 1-.956.956h-11.151a.957.957 0 0 1-.956-.956V80.102c0-.526.428-.956.956-.956h11.151m0-.957h-11.151a1.911 1.911 0 0 0-1.912 1.912v11.152c0 1.056.855 1.912 1.912 1.912h11.151a1.911 1.911 0 0 0 1.912-1.912V80.102a1.913 1.913 0 0 0-1.912-1.913z"/><path fill="#271F3E" d="M408.905 92.688a1.435 1.435 0 0 1-1.434-1.434V80.102c0-.791.642-1.434 1.434-1.434h11.151c.792 0 1.434.643 1.434 1.434v11.152c0 .791-.642 1.434-1.434 1.434h-11.151z"/><path fill="#FFF" d="M420.056 79.146c.528 0 .956.43.956.956v11.152a.957.957 0 0 1-.956.956h-11.151a.957.957 0 0 1-.956-.956V80.102c0-.526.428-.956.956-.956h11.151m0-.957h-11.151a1.911 1.911 0 0 0-1.912 1.912v11.152c0 1.056.855 1.912 1.912 1.912h11.151a1.911 1.911 0 0 0 1.912-1.912V80.102a1.912 1.912 0 0 0-1.912-1.913z"/><path fill="#271F3E" d="M425.633 92.688a1.435 1.435 0 0 1-1.435-1.434V80.102c0-.791.643-1.434 1.435-1.434h11.151c.792 0 1.434.643 1.434 1.434v11.152c0 .791-.642 1.434-1.434 1.434h-11.151z"/><path fill="#FFF" d="M436.785 79.146c.528 0 .956.43.956.956v11.152a.957.957 0 0 1-.956.956h-11.151a.957.957 0 0 1-.956-.956V80.102c0-.526.428-.956.956-.956h11.151m0-.957h-11.151a1.911 1.911 0 0 0-1.912 1.912v11.152c0 1.056.855 1.912 1.912 1.912h11.151a1.911 1.911 0 0 0 1.912-1.912V80.102a1.913 1.913 0 0 0-1.912-1.913z"/><path fill="#271F3E" d="M228.863 76.119a1.436 1.436 0 0 1-1.434-1.434V63.532c0-.79.643-1.434 1.434-1.434h19.755c.791 0 1.434.644 1.434 1.434v11.153c0 .79-.643 1.434-1.434 1.434h-19.755z"/><path fill="#FFF" d="M248.618 62.576c.528 0 .956.429.956.956v11.153a.956.956 0 0 1-.956.955h-19.755a.956.956 0 0 1-.956-.955V63.532c0-.527.428-.956.956-.956h19.755m0-.955h-19.755a1.911 1.911 0 0 0-1.912 1.911v11.153c0 1.056.856 1.911 1.912 1.911h19.755a1.911 1.911 0 0 0 1.912-1.911V63.532a1.912 1.912 0 0 0-1.912-1.911z"/><path fill="#271F3E" d="M228.863 92.369a1.435 1.435 0 0 1-1.434-1.434V80.421c0-.791.643-1.435 1.434-1.435h23.579c.791 0 1.434.644 1.434 1.435v10.515c0 .791-.643 1.434-1.434 1.434h-23.579z"/><path fill="#FFF" d="M252.442 79.465c.527 0 .956.43.956.956v10.515a.958.958 0 0 1-.956.956h-23.579a.957.957 0 0 1-.956-.956V80.421c0-.526.428-.956.956-.956h23.579m0-.956h-23.579a1.912 1.912 0 0 0-1.912 1.912v10.515c0 1.056.856 1.912 1.912 1.912h23.579a1.912 1.912 0 0 0 1.912-1.912V80.421a1.912 1.912 0 0 0-1.912-1.912z"/><path fill="#271F3E" d="M442.031 92.369a1.435 1.435 0 0 1-1.434-1.434V79.783c0-.791.643-1.434 1.434-1.434h24.218c.789 0 1.434.643 1.434 1.434v11.152c0 .791-.645 1.434-1.434 1.434h-24.218z"/><path fill="#FFF" d="M466.249 78.827c.526 0 .955.429.955.956v11.152a.958.958 0 0 1-.955.956h-24.218a.956.956 0 0 1-.955-.956V79.783c0-.527.427-.956.955-.956h24.218m0-.956h-24.218a1.91 1.91 0 0 0-1.911 1.912v11.152a1.91 1.91 0 0 0 1.911 1.912h24.218a1.912 1.912 0 0 0 1.911-1.912V79.783a1.913 1.913 0 0 0-1.911-1.912z"/><path fill="#271F3E" d="M229.182 108.62a1.436 1.436 0 0 1-1.434-1.435V96.353c0-.79.643-1.434 1.434-1.434h31.864c.791 0 1.434.644 1.434 1.434v10.833c0 .791-.643 1.435-1.434 1.435h-31.864z"/><path fill="#FFF" d="M261.045 95.396c.527 0 .956.429.956.956v10.833a.956.956 0 0 1-.956.956h-31.864a.957.957 0 0 1-.956-.956V96.353c0-.527.428-.956.956-.956h31.864m0-.956h-31.864a1.911 1.911 0 0 0-1.912 1.911v10.833c0 1.057.856 1.912 1.912 1.912h31.864a1.911 1.911 0 0 0 1.912-1.912V96.353a1.912 1.912 0 0 0-1.912-1.912z"/><path fill="#271F3E" d="M434.065 108.938c-.79 0-1.435-.644-1.435-1.435v-11.15c0-.79.645-1.434 1.435-1.434h31.864c.789 0 1.434.644 1.434 1.434v11.151c0 .791-.645 1.435-1.434 1.435h-31.864z"/><path fill="#FFF" d="M465.929 95.396c.526 0 .955.429.955.956v11.151a.956.956 0 0 1-.955.956h-31.864a.957.957 0 0 1-.956-.956v-11.15c0-.527.429-.956.956-.956h31.864m0-.956h-31.864a1.911 1.911 0 0 0-1.912 1.911v11.151c0 1.057.856 1.912 1.912 1.912h31.864a1.911 1.911 0 0 0 1.911-1.912v-11.15a1.912 1.912 0 0 0-1.911-1.912z"/><path fill="#271F3E" d="M279.526 127.42a1.436 1.436 0 0 1-1.434-1.434v-13.383c0-.791.644-1.435 1.434-1.435h14.976c.791 0 1.434.644 1.434 1.435v13.383c0 .79-.643 1.434-1.434 1.434h-14.976z"/><path fill="#FFF" d="M294.502 111.647c.527 0 .956.429.956.956v13.383a.956.956 0 0 1-.956.955h-14.976a.956.956 0 0 1-.956-.955v-13.383c0-.527.429-.956.956-.956h14.976m0-.956h-14.976a1.912 1.912 0 0 0-1.912 1.912v13.383c0 1.056.856 1.911 1.912 1.911h14.976a1.911 1.911 0 0 0 1.912-1.911v-13.383a1.913 1.913 0 0 0-1.912-1.912z"/><path fill="#271F3E" d="M383.401 127.42a1.437 1.437 0 0 1-1.434-1.434v-13.383c0-.791.645-1.435 1.434-1.435h14.978c.79 0 1.434.644 1.434 1.435v13.383c0 .79-.644 1.434-1.434 1.434h-14.978z"/><path fill="#FFF" d="M398.378 111.647c.526 0 .956.429.956.956v13.383c0 .527-.43.955-.956.955H383.4a.956.956 0 0 1-.955-.955v-13.383c0-.527.429-.956.955-.956h14.978m0-.956H383.4a1.912 1.912 0 0 0-1.911 1.912v13.383a1.91 1.91 0 0 0 1.911 1.911h14.978a1.912 1.912 0 0 0 1.912-1.911v-13.383a1.913 1.913 0 0 0-1.912-1.912z"/><path fill="#271F3E" d="M405.07 127.42a1.435 1.435 0 0 1-1.434-1.434v-13.383c0-.791.642-1.435 1.434-1.435h10.832c.792 0 1.435.644 1.435 1.435v13.383c0 .79-.643 1.434-1.435 1.434H405.07z"/><path fill="#FFF" d="M415.902 111.647c.528 0 .956.429.956.956v13.383a.956.956 0 0 1-.956.955H405.07a.956.956 0 0 1-.956-.955v-13.383c0-.527.428-.956.956-.956h10.832m0-.956H405.07a1.911 1.911 0 0 0-1.912 1.912v13.383a1.91 1.91 0 0 0 1.912 1.911h10.832a1.91 1.91 0 0 0 1.912-1.911v-13.383a1.913 1.913 0 0 0-1.912-1.912z"/><path fill="#271F3E" d="M421.638 127.42c-.79 0-1.435-.644-1.435-1.434v-5.1c0-.79.645-1.434 1.435-1.434h11.153c.789 0 1.434.644 1.434 1.434v5.1c0 .79-.645 1.434-1.434 1.434h-11.153z"/><path fill="#FFF" d="M432.792 119.932c.526 0 .956.428.956.955v5.1c0 .527-.43.955-.956.955h-11.153a.956.956 0 0 1-.956-.955v-5.1c0-.527.429-.955.956-.955h11.153m0-.956h-11.153a1.911 1.911 0 0 0-1.912 1.911v5.1c0 1.056.856 1.911 1.912 1.911h11.153a1.91 1.91 0 0 0 1.911-1.911v-5.1a1.912 1.912 0 0 0-1.911-1.911z"/><path fill="#271F3E" d="M438.293 127.42c-.839 0-1.52-.644-1.52-1.434v-13.383c0-.791.681-1.435 1.52-1.435h10.66c.839 0 1.522.644 1.522 1.435v13.383c0 .79-.684 1.434-1.522 1.434h-10.66z"/><path fill="#FFF" d="M448.954 111.647c.575 0 1.044.429 1.044.956v13.383c0 .527-.469.955-1.044.955h-10.66c-.575 0-1.042-.428-1.042-.955v-13.383c0-.527.467-.956 1.042-.956h10.66m0-.956h-10.66c-1.104 0-1.998.856-1.998 1.912v13.383c0 1.056.895 1.911 1.998 1.911h10.66c1.104 0 2-.855 2-1.911v-13.383c0-1.055-.897-1.912-2-1.912z"/><path fill="#271F3E" d="M455.184 127.42c-.838 0-1.521-.644-1.521-1.434v-5.1c0-.79.684-1.434 1.521-1.434h10.338c.838 0 1.521.644 1.521 1.434v5.1c0 .79-.684 1.434-1.521 1.434h-10.338z"/><path fill="#FFF" d="M465.522 119.932c.575 0 1.044.428 1.044.955v5.1c0 .527-.469.955-1.044.955h-10.338c-.575 0-1.044-.428-1.044-.955v-5.1c0-.527.469-.955 1.044-.955h10.338m0-.956h-10.338c-1.104 0-1.999.855-1.999 1.911v5.1c0 1.056.896 1.911 1.999 1.911h10.338c1.104 0 1.999-.855 1.999-1.911v-5.1c0-1.056-.896-1.911-1.999-1.911z"/><path fill="#271F3E" d="M300.237 127.42a1.436 1.436 0 0 1-1.434-1.434v-13.383c0-.791.643-1.435 1.434-1.435h77.748c.79 0 1.435.644 1.435 1.435v13.383c0 .79-.645 1.434-1.435 1.434h-77.748z"/><path fill="#FFF" d="M377.985 111.647c.526 0 .956.429.956.956v13.383c0 .527-.43.955-.956.955h-77.748a.956.956 0 0 1-.956-.955v-13.383c0-.527.428-.956.956-.956h77.748m0-.956h-77.748a1.912 1.912 0 0 0-1.912 1.912v13.383c0 1.056.856 1.911 1.912 1.911h77.748a1.912 1.912 0 0 0 1.912-1.911v-13.383a1.913 1.913 0 0 0-1.912-1.912z"/><path fill="#CDD0E0" d="M196.043 36.129h19.118v91.768h-19.118zm284.861 0h19.118v91.768h-19.118z"/><path opacity=".2" fill="#CDD0E0" d="M395.917 204.37a6.69 6.69 0 0 1-6.691 6.69H308.93a6.69 6.69 0 0 1-6.691-6.69v-53.531a6.69 6.69 0 0 1 6.691-6.691h80.296a6.69 6.69 0 0 1 6.691 6.691v53.531z"/><path fill="#CDD0E0" d="M389.225 211.539h-80.296c-3.953 0-7.169-3.216-7.169-7.169v-53.531a7.176 7.176 0 0 1 7.169-7.169h80.296a7.176 7.176 0 0 1 7.169 7.169v53.531a7.176 7.176 0 0 1-7.169 7.169zm-80.296-66.914a6.22 6.22 0 0 0-6.213 6.214v53.531a6.22 6.22 0 0 0 6.213 6.213h80.296a6.22 6.22 0 0 0 6.213-6.213v-53.531a6.22 6.22 0 0 0-6.213-6.214h-80.296z"/><path fill="#271F3E" d="M225.676 18.902c0 1.255.856 2.271 1.912 2.271h238.341c1.055 0 1.911-1.016 1.911-2.271v-6.054H225.676v6.054z"/><path fill="#FFF" d="M549.73 10.001a1.91 1.91 0 0 1-1.912 1.911H146.336a1.91 1.91 0 0 1-1.912-1.911s5.735-7.646 21.986-8.284c0 0 348.27-.637 363.246 0 14.976.637 20.074 8.284 20.074 8.284z"/><path fill="#CDD0E0" d="M547.818 13.347H146.336a3.35 3.35 0 0 1-3.346-3.346v-.479l.287-.383c.25-.334 6.337-8.198 23.076-8.856C167.956.28 322.427 0 428.826 0c62.51 0 96.453.096 100.892.283 15.526.661 20.981 8.585 21.205 8.922l.241.361v.435a3.35 3.35 0 0 1-3.346 3.346zm-401.794-2.984a.483.483 0 0 0 .312.115h401.482a.472.472 0 0 0 .344-.146c-1.38-1.579-6.729-6.68-18.565-7.183-4.397-.188-38.302-.282-100.771-.282-106.396 0-260.865.28-262.413.283-12.802.504-18.784 5.578-20.389 7.213z"/><linearGradient id="e" gradientUnits="userSpaceOnUse" x1="2.636" y1="193.819" x2="150.354" y2="46.101"><stop offset="0" stop-color="#f16b90"/><stop offset="1" stop-color="#f89e71"/></linearGradient><path fill="url(#e)" d="M139.491 202.61a5 5 0 0 1-5 5H18.498a5 5 0 0 1-5-5V37.309a5 5 0 0 1 5-5h115.993a5 5 0 0 1 5 5V202.61z"/><path fill="#CDD0E0" d="M134.491 209.11H18.498a6.508 6.508 0 0 1-6.5-6.5V37.309c0-3.584 2.916-6.5 6.5-6.5h115.993c3.584 0 6.5 2.916 6.5 6.5V202.61c0 3.584-2.916 6.5-6.5 6.5zM18.498 33.809c-1.93 0-3.5 1.57-3.5 3.5V202.61c0 1.93 1.57 3.5 3.5 3.5h115.993c1.93 0 3.5-1.57 3.5-3.5V37.309c0-1.93-1.57-3.5-3.5-3.5H18.498z"/><path fill="#CDD0E0" d="M25.498 64.058a2.25 2.25 0 0 1-2.249 2.25H2.25a2.25 2.25 0 0 1 0-4.5h20.999a2.25 2.25 0 0 1 2.249 2.25zm0 10a2.25 2.25 0 0 1-2.249 2.25H2.25a2.25 2.25 0 0 1 0-4.5h20.999a2.25 2.25 0 0 1 2.249 2.25zm0 10a2.25 2.25 0 0 1-2.249 2.25H2.25a2.25 2.25 0 0 1 0-4.5h20.999a2.25 2.25 0 0 1 2.249 2.25zm0 10a2.25 2.25 0 0 1-2.249 2.25H2.25a2.25 2.25 0 0 1 0-4.5h20.999a2.25 2.25 0 0 1 2.249 2.25zm0 10a2.25 2.25 0 0 1-2.249 2.25H2.25a2.25 2.25 0 0 1 0-4.5h20.999a2.25 2.25 0 0 1 2.249 2.25zm0 10a2.25 2.25 0 0 1-2.249 2.25H2.25a2.25 2.25 0 0 1 0-4.5h20.999a2.25 2.25 0 0 1 2.249 2.25zm0 10a2.25 2.25 0 0 1-2.249 2.25H2.25a2.25 2.25 0 0 1 0-4.5h20.999a2.25 2.25 0 0 1 2.249 2.25zm0 10a2.25 2.25 0 0 1-2.249 2.25H2.25a2.25 2.25 0 0 1 0-4.5h20.999a2.25 2.25 0 0 1 2.249 2.25zm0 10a2.25 2.25 0 0 1-2.249 2.25H2.25a2.25 2.25 0 0 1 0-4.5h20.999a2.25 2.25 0 0 1 2.249 2.25zm0 10a2.25 2.25 0 0 1-2.249 2.25H2.25a2.25 2.25 0 0 1 0-4.5h20.999a2.25 2.25 0 0 1 2.249 2.25zm0 10a2.25 2.25 0 0 1-2.249 2.25H2.25a2.25 2.25 0 0 1 0-4.5h20.999a2.25 2.25 0 0 1 2.249 2.25zm0 10a2.25 2.25 0 0 1-2.249 2.25H2.25a2.25 2.25 0 0 1 0-4.5h20.999a2.25 2.25 0 0 1 2.249 2.25z"/><path fill="#FFF" d="M111.251 97.724a5 5 0 0 1-5 5H45.584a5 5 0 0 1-5-5V73.058a5 5 0 0 1 5-5h60.667a5 5 0 0 1 5 5v24.666z"/><path fill="#CDD0E0" d="M106.251 104.224H45.584a6.508 6.508 0 0 1-6.5-6.5V73.058c0-3.584 2.916-6.5 6.5-6.5h60.667c3.584 0 6.5 2.916 6.5 6.5v24.666c0 3.584-2.916 6.5-6.5 6.5zM45.584 69.558c-1.93 0-3.5 1.57-3.5 3.5v24.666c0 1.93 1.57 3.5 3.5 3.5h60.667c1.93 0 3.5-1.57 3.5-3.5V73.058c0-1.93-1.57-3.5-3.5-3.5H45.584z"/><path fill="#271F3E" d="M129.174 227.462l-37.406 37.382-30.949-30.97c-1.879-1.879-1.85-4.951.063-6.863l30.48-30.459c1.914-1.91 4.986-1.938 6.865-.058l30.947 30.968z"/><path fill="#F16B90" d="M120.016 218.296l-21.789-21.802c-1.879-1.88-4.951-1.853-6.865.058l-30.48 30.459c-1.912 1.912-1.941 4.984-.063 6.863l9.191 9.199 50.006-24.777z"/><linearGradient id="f" gradientUnits="userSpaceOnUse" x1="98.44" y1="288.975" x2="204.142" y2="288.975"><stop offset="0" stop-color="#fdfaf8"/><stop offset="1" stop-color="#f2f2f2"/></linearGradient><path fill="url(#f)" d="M139.122 235.52L98.44 276.173c8.756 6.195 20.154 6.996 29.596 2.404l61.264 61.307c3.393 3.395 8.898 3.396 12.295.002 3.395-3.395 3.398-8.898.004-12.293l-60.895-60.938c5.474-9.713 4.947-21.894-1.582-31.135z"/><path fill="#CDD0E0" d="M194.766 342.93a10.125 10.125 0 0 1-7.211-2.99l-60.523-60.562a30.907 30.907 0 0 1-12.447 2.629c-6.387 0-12.506-1.939-17.695-5.609l-1.453-1.028 43.199-43.171 1.027 1.453c6.578 9.311 7.402 21.643 2.205 31.732l60.107 60.146c3.975 3.975 3.973 10.442-.004 14.416a10.128 10.128 0 0 1-7.205 2.984zm-67.109-67.169l62.02 62.059a7.148 7.148 0 0 0 5.09 2.11c1.92 0 3.727-.748 5.086-2.105 2.805-2.804 2.805-7.368.002-10.173l-61.701-61.742.559-.992c4.928-8.738 4.682-19.554-.514-28.039l-38.082 38.057c4.342 2.67 9.307 4.072 14.469 4.072 4.182 0 8.369-.961 12.111-2.779l.96-.468z"/><path fill="#EBE7E6" d="M143.141 235.376c1.617 1.615 1.482 4.371-.301 6.151l-38.078 38.052c-1.781 1.781-4.537 1.914-6.154.298 0 0-10.551-13.451-8.77-15.231l38.078-38.053c1.782-1.781 15.225 8.783 15.225 8.783z"/><path fill="#F1F2F2" d="M143.141 235.376c1.617 1.615 1.482 4.371-.301 6.151l-38.078 38.052c-1.781 1.781-4.537 1.914-6.154.298 0 0-10.551-13.451-8.77-15.231l38.078-38.053c1.782-1.781 15.225 8.783 15.225 8.783z"/><path fill="#CDD0E0" d="M101.413 282.508c-1.479 0-2.852-.558-3.865-1.569l-.119-.136c-11.371-14.497-9.465-16.403-8.65-17.218l38.078-38.053c.293-.293.822-.641 1.676-.641 3.428 0 12.758 7.121 15.537 9.305l.133.118c1.086 1.085 1.641 2.558 1.563 4.147-.074 1.536-.736 3.002-1.863 4.127l-38.078 38.052c-1.188 1.187-2.795 1.868-4.412 1.868zm-1.688-3.637c1.004.934 2.854.771 3.977-.353l38.078-38.053c.6-.598.949-1.36.988-2.149.033-.706-.189-1.35-.633-1.823-5.104-4.003-11.5-8.287-13.412-8.586l-37.574 37.549c.271 1.83 4.531 8.248 8.576 13.415z"/><path fill="#CDD0E0" d="M90.473 266.402l-32.008-32.028a6.239 6.239 0 0 1-1.83-4.496 6.4 6.4 0 0 1 1.895-4.492l30.477-30.457a6.4 6.4 0 0 1 4.547-1.891c1.682 0 3.26.651 4.439 1.833l32.01 32.03-39.53 39.501zm3.08-70.364c-.91 0-1.771.359-2.426 1.013L60.65 227.509a3.424 3.424 0 0 0-1.016 2.396c-.008.892.33 1.726.953 2.348l29.887 29.907 35.285-35.261-29.889-29.907a3.248 3.248 0 0 0-2.317-.954zm99.389 139.301a4.25 4.25 0 0 1-3.027-1.254 4.291 4.291 0 0 1 .002-6.054 4.253 4.253 0 0 1 3.027-1.253c1.145 0 2.219.445 3.027 1.255a4.245 4.245 0 0 1 1.252 3.026c0 1.145-.445 2.219-1.254 3.026s-1.883 1.254-3.027 1.254zm.002-5.561c-.342 0-.664.133-.906.375a1.284 1.284 0 0 0 0 1.812c.482.481 1.326.482 1.811-.001.242-.242.375-.563.375-.904s-.133-.664-.375-.906-.563-.376-.905-.376zm-59.142-91.207l2.122 2.121-31.819 31.818-2.12-2.12zm-4.951-4.949l2.121 2.121-31.818 31.819-2.121-2.122z"/></svg>