<svg xmlns="http://www.w3.org/2000/svg" width="743" height="317"><path fill="#FFF" d="M117.03 315.5h-18l-3-66h24z"/><path fill="#CDD0E0" d="M118.464 317H97.597l-3.136-69h27.14l-3.137 69zm-18-3h15.133l2.864-63H97.6l2.864 63z"/><path fill="#CDD0E0" d="M96.03 252.5l1.182 26h21.637l1.181-26z"/><path fill="#FFF" d="M644.03 315.5h-18l-3-66h24z"/><path fill="#CDD0E0" d="M645.464 317h-20.867l-3.136-69H648.6l-3.136 69zm-18-3h15.133l2.864-63H624.6l2.864 63z"/><path fill="#CDD0E0" d="M623.03 252.5l1.182 26h21.637l1.181-26z"/><path fill="#FFF" d="M1.5 236.5h740v26H1.5z"/><path fill="#CDD0E0" d="M743 264H0v-29h743v29zM3 261h737v-23H3v23z"/><path fill="#271F3E" d="M532.5 205.5c0 11.046-8.955 20-20 20h-282c-11.046 0-20-8.954-20-20v-168c0-11.046 8.954-20 20-20h282c11.045 0 20 8.954 20 20v168z"/><path fill="#CDD0E0" d="M512.5 227h-282c-11.855 0-21.5-9.645-21.5-21.5v-168c0-11.855 9.645-21.5 21.5-21.5h282c11.855 0 21.5 9.645 21.5 21.5v168c0 11.855-9.645 21.5-21.5 21.5zm-282-208c-10.201 0-18.5 8.299-18.5 18.5v168c0 10.201 8.299 18.5 18.5 18.5h282c10.201 0 18.5-8.299 18.5-18.5v-168c0-10.201-8.299-18.5-18.5-18.5h-282z"/><linearGradient id="a" gradientUnits="userSpaceOnUse" x1="257.084" y1="233.084" x2="485.917" y2="4.251"><stop offset="0" stop-color="#bc79b3"/><stop offset="1" stop-color="#7379ba"/></linearGradient><path fill="url(#a)" d="M224.5 36.833h294V200.5h-294z"/><path fill="#CDD0E0" d="M520 202H223V35.333h297V202zm-294-3h291V38.333H226V199z"/><path fill="#FFF" d="M574.25 230.5l-19 5h-368l-19-5v-12h406z"/><path fill="#CDD0E0" d="M555.444 237l-368.576-.049-20.119-5.295V217h409v14.656L555.444 237zm-367.999-3h367.611l17.694-4.656V220h-403v9.344L187.445 234z"/><path fill="#CDD0E0" d="M169.25 229.5l18 6h368l19.5-6zm235.438-8.833c0 1.519-.615 2.75-1.373 2.75h-63.63c-.759 0-1.374-1.231-1.374-2.75s.615-2.75 1.374-2.75h63.63c.758 0 1.373 1.231 1.373 2.75z"/><path fill="#FFF" d="M331.585 80.5h79v79h-79z"/><path fill="#CDD0E0" d="M412.085 161h-82V79h82v82zm-79-3h76V82h-76v76z"/><path d="M358.869 129.715l-2.483 8.952h-8.124l10.607-34.875h10.349l10.865 34.875h-8.537l-2.69-8.952h-9.987zm8.848-5.899l-2.173-7.399c-.621-2.069-1.242-4.657-1.76-6.726h-.104c-.518 2.069-1.034 4.708-1.604 6.726l-2.07 7.399h7.711zm24.53-17.488c0 2.173-1.604 3.932-4.242 3.932-2.484 0-4.088-1.759-4.088-3.932 0-2.225 1.655-3.933 4.191-3.933 2.536 0 4.087 1.708 4.139 3.933zm-8.123 32.339v-25.302h7.864v25.302h-7.864zM402.585 75.5h14v14h-14z" fill="#5E4B8B"/><path fill="#CDD0E0" d="M418.085 91h-17V74h17v17zm-14-3h11V77h-11v11z"/><path fill="#FFF" d="M93.585 117.5h-29l-27 69 16 50h44l31-45z"/><path fill="#CDD0E0" d="M98.373 238H52.49l-16.496-51.551L63.561 116h30.974l35.775 75.64L98.373 238zm-43.693-3h42.117l30.063-43.64L92.635 119H65.609l-26.433 67.551L54.68 235z"/><path fill="#CDD0E0" d="M45.824 192.022l44 7-.47 2.962-44.001-7z"/><path fill="#CDD0E0" d="M128.235 190.037l.675 2.922-39 9.006-.675-2.923z"/><path fill="#CDD0E0" d="M91.044 200.17l7.999 36-2.929.65-7.998-36z"/><path fill="#CDD0E0" d="M88.295 199.74l2.59 1.512-20.996 36-2.591-1.51z"/><path fill="#CDD0E0" d="M46.906 192.804l23.003 43-2.646 1.416-23.002-43.001zm31.153-75.54l12.996 83.004-2.964.464-12.996-83.004z"/><path fill="#CDD0E0" d="M75.19 116.93l2.776 1.133-31 75.997-2.778-1.133zm16.893.495l2.997.145-4.006 82.996-2.996-.145z"/><path fill="#CDD0E0" d="M38.575 185.375l8 7-1.976 2.258-8-7z"/><path fill="#E9EBF3" d="M40.658 191.307l14.022 43.818h11.402l-21.691-40.551z"/><path fill="#DADDEA" d="M48.333 195.331l20.309 37.97 18.543-31.789z"/><path fill="#E1E4EE" d="M87.784 198.944l-11.846-75.635-28.25 69.256z"/><path fill="#F2F4F9" d="M91.886 119H78.213l10.456 66.756z"/><path fill="#E1E4EE" d="M71.197 235.125h24.518l-6.764-30.437z"/><path fill="#E9EBF3" d="M98.303 232.814l26.856-38.984-33.787 7.797z"/><path fill="#271F3E" d="M76.585 89.5h6.482v27.768h-6.482z"/><path fill="#CDD0E0" d="M84.567 118.768h-9.482V88h9.482v30.768zm-6.482-3h3.482V91h-3.482v24.768z"/><path fill="#FFF" d="M139.067 99.5H20.942l6.125-93.625S43.692 1.5 79.567 1.5s53.375 4.375 53.375 4.375l6.125 93.625z"/><path fill="#CDD0E0" d="M140.668 101H19.34l6.3-96.301 1.044-.275C27.372 4.244 43.908 0 79.567 0c35.65 0 53.017 4.239 53.739 4.42l1.062.265 6.3 96.315zM22.543 98h114.922l-5.947-90.906C127.23 6.189 109.949 3 79.567 3c-30.293 0-46.92 3.171-51.076 4.083L22.543 98z"/><path fill="#5E4B8B" d="M706.419 213.125h-110.5v22.75h110.5c6.281 0 11.375-5.093 11.375-11.375s-5.094-11.375-11.375-11.375z"/><path fill="#CDD0E0" d="M706.419 237.375h-112v-25.75h112c7.1 0 12.875 5.775 12.875 12.875s-5.775 12.875-12.875 12.875zm-109-3h109c5.445 0 9.875-4.43 9.875-9.875s-4.43-9.875-9.875-9.875h-109v19.75z"/><path fill="#FFF" d="M595.919 219.896H703.71v9.207H595.919z"/><path fill="#CDD0E0" d="M705.21 230.604H594.419v-12.207H705.21v12.207zm-107.791-3H702.21v-6.207H597.419v6.207z"/><path fill="#F16B90" d="M706.419 190.125h-110.5v22.75h110.5c6.281 0 11.375-5.093 11.375-11.375s-5.094-11.375-11.375-11.375z"/><path fill="#CDD0E0" d="M706.419 214.375h-112v-25.75h112c7.1 0 12.875 5.775 12.875 12.875s-5.775 12.875-12.875 12.875zm-109-3h109c5.445 0 9.875-4.43 9.875-9.875s-4.43-9.875-9.875-9.875h-109v19.75z"/><path fill="#FFF" d="M595.919 196.896H703.71v9.207H595.919z"/><path fill="#CDD0E0" d="M705.21 207.604H594.419v-12.207H705.21v12.207zm-107.791-3H702.21v-6.207H597.419v6.207z"/><path fill="#271F3E" d="M607.294 167.125h110.5v22.75h-110.5c-6.281 0-11.375-5.093-11.375-11.375s5.094-11.375 11.375-11.375z"/><path fill="#CDD0E0" d="M719.294 191.375h-112c-7.1 0-12.875-5.775-12.875-12.875s5.775-12.875 12.875-12.875h112v25.75zm-112-22.75c-5.445 0-9.875 4.43-9.875 9.875s4.43 9.875 9.875 9.875h109v-19.75h-109z"/><path fill="#FFF" d="M610.003 173.896h107.791v9.207H610.003z"/><path fill="#CDD0E0" d="M719.294 184.604H608.503v-12.207h110.791v12.207zm-107.791-3h104.791v-6.207H611.503v6.207z"/><path fill="#5E4B8B" d="M531.492 235.501h-64.588l9.619-14.429h45.35z"/><path fill="#CDD0E0" d="M534.295 237.001h-70.193l11.619-17.429h46.955l11.619 17.429zm-64.588-3h58.982l-7.619-11.429h-43.744l-7.619 11.429z"/><path fill="#FDFAF8" d="M545.101 180.589c0-3.939-.494-7.763-1.41-11.418h-90.599a46.816 46.816 0 0 0-1.412 11.418c0 17.313 9.427 32.415 23.42 40.484h46.581c13.994-8.069 23.42-23.172 23.42-40.484z"/><path fill="#5E4B8B" d="M544.91 184.604c.113-1.325.19-2.66.19-4.015 0-3.939-.494-7.763-1.41-11.418h-90.599a46.816 46.816 0 0 0-1.412 11.418c0 1.413.086 2.804.209 4.185 24.739-.253 62.441-.309 93.022-.17z"/><path fill="#CDD0E0" d="M522.082 222.573h-47.383l-.349-.2c-14.909-8.598-24.171-24.608-24.171-41.784 0-3.969.49-7.934 1.457-11.783l.285-1.135h92.939l.284 1.136a48.485 48.485 0 0 1 1.455 11.782c0 17.177-9.262 33.187-24.171 41.784l-.346.2zm-46.577-3h45.771c13.781-8.109 22.325-23.01 22.325-38.984 0-3.331-.368-6.662-1.096-9.918h-88.228a45.388 45.388 0 0 0-1.098 9.918c.001 15.974 8.546 30.874 22.326 38.984z"/><path fill="#CDD0E0" d="M537.423 222.158c-3.674-3.007-5.339-5.896-5.088-8.832.469-5.491 7.522-9.486 15.689-14.112 4.904-2.777 9.975-5.649 14.023-9.049 3.539-2.972 4.993-6.601 4.094-10.221-.857-3.452-3.732-6.182-7.323-6.952-2.6-.555-7.722-.513-12.878 6.046l-2.359-1.854c4.502-5.726 10.283-8.327 15.866-7.125 4.704 1.009 8.475 4.605 9.606 9.162 1.173 4.722-.678 9.548-5.076 13.24-4.261 3.577-9.453 6.519-14.475 9.362-7.119 4.033-13.845 7.842-14.179 11.757-.158 1.851 1.188 3.955 3.999 6.255l-1.899 2.323zm-29.337-60.664h3v29.5h-3z"/><path fill="#DADDEA" d="M500.586 180.494h18v27.5h-18z"/><path fill="#CDD0E0" d="M520.086 209.494h-21v-30.5h21v30.5zm-18-3h15v-24.5h-15v24.5z"/><path fill="#E9EBF3" d="M622.636 110.099c-.682 5.272 3.729 10.189 9.85 10.979l48.026 6.2c6.119.791 11.633-2.845 12.313-8.118.27-2.082-.264-4.102-1.373-5.84l-66.004-8.52c-1.515 1.398-2.545 3.217-2.812 5.299z"/><path fill="#CDD0E0" d="M682.264 128.313c-.617 0-1.243-.041-1.86-.12l-48.027-6.2c-3.315-.428-6.299-1.953-8.398-4.294-2.156-2.404-3.132-5.375-2.746-8.365.305-2.358 1.439-4.505 3.282-6.208l.515-.476 67.395 8.701.378.591c1.349 2.113 1.901 4.478 1.598 6.838-.705 5.434-5.922 9.533-12.137 9.533zm-56.194-22.505c-1.036 1.128-1.677 2.467-1.862 3.909-.273 2.111.438 4.234 2.002 5.978 1.621 1.807 3.947 2.986 6.551 3.322l48.026 6.2c.49.063.987.096 1.477.096 4.712 0 8.65-2.974 9.16-6.918.186-1.442-.095-2.9-.811-4.254l-64.543-8.333z"/><path fill="#DADDEA" d="M689.136 108.302a3.812 3.812 0 0 1-4.267 3.291l-51.835-6.691a3.81 3.81 0 0 1-3.291-4.267 3.812 3.812 0 0 1 4.268-3.292l51.834 6.691a3.812 3.812 0 0 1 3.291 4.268z"/><path fill="#CDD0E0" d="M685.361 112.625c-.205 0-.412-.013-.62-.04l-51.835-6.691a4.816 4.816 0 0 1-4.155-5.386c.336-2.596 2.734-4.493 5.387-4.156l51.835 6.691a4.817 4.817 0 0 1 4.155 5.387 4.821 4.821 0 0 1-4.767 4.195zm-51.842-14.314a2.816 2.816 0 0 0-2.784 2.452 2.814 2.814 0 0 0 2.428 3.146l51.835 6.691a2.822 2.822 0 0 0 3.146-2.427 2.814 2.814 0 0 0-2.427-3.148l-51.835-6.691a2.974 2.974 0 0 0-.363-.023z"/><path fill="#FFF" d="M695.543 102.778c1.129-8.747-13.668-17.866-33.051-20.369-19.384-2.502-36.012 2.561-37.141 11.308a7.271 7.271 0 0 0-.034 1.46l69.89 9.022c.155-.463.272-.936.336-1.421z"/><path fill="#CDD0E0" d="M696.32 106.271l-72.331-9.338-.085-1.226a8.9 8.9 0 0 1 .043-1.754c1.024-7.929 12.63-13.256 28.879-13.256 3.246 0 6.591.219 9.941.652 9.581 1.237 18.393 4.097 24.813 8.053 6.774 4.175 10.16 9.146 9.533 13.996a8.887 8.887 0 0 1-.401 1.706l-.392 1.167zm-69.391-11.982l67.217 8.677c.427-3.547-2.536-7.556-8.139-11.009-6.065-3.738-14.455-6.449-23.624-7.632a74.786 74.786 0 0 0-9.557-.627c-14.177 0-25.05 4.45-25.897 10.591z"/><path fill="#E9EBF3" d="M622.713 156.455c0 5.316 5.003 9.627 11.175 9.627h48.424c6.172 0 11.175-4.311 11.175-9.627 0-2.099-.788-4.034-2.112-5.616h-66.551c-1.323 1.582-2.111 3.517-2.111 5.616z"/><path fill="#CDD0E0" d="M682.091 167.404h-48.425c-6.989 0-12.675-4.992-12.675-11.127 0-2.379.852-4.654 2.461-6.578l.45-.537h67.951l.45.537c1.609 1.923 2.461 4.198 2.461 6.579.001 6.134-5.685 11.126-12.673 11.126zm-56.752-15.242c-.884 1.251-1.348 2.661-1.348 4.115 0 4.482 4.34 8.127 9.675 8.127h48.425c5.334 0 9.674-3.646 9.674-8.127 0-1.455-.464-2.866-1.348-4.115h-65.078z"/><path fill="#DADDEA" d="M687.82 146.584a3.81 3.81 0 0 1-3.811 3.81h-52.265a3.81 3.81 0 1 1 0-7.621h52.265a3.81 3.81 0 0 1 3.811 3.811z"/><path fill="#CDD0E0" d="M684.01 151.395h-52.265a4.816 4.816 0 0 1-4.81-4.81 4.815 4.815 0 0 1 4.81-4.811h52.265a4.817 4.817 0 0 1 4.811 4.811 4.817 4.817 0 0 1-4.811 4.81zm-52.265-7.622a2.814 2.814 0 0 0-2.81 2.811 2.814 2.814 0 0 0 2.81 2.81h52.265a2.814 2.814 0 0 0 2.811-2.81 2.814 2.814 0 0 0-2.811-2.811h-52.265z"/><path fill="#FFF" d="M693.486 141.233c0-8.82-15.843-15.97-35.387-15.97s-35.388 7.15-35.388 15.97c0 .489.057.973.152 1.452h70.471c.096-.479.152-.963.152-1.452z"/><path fill="#CDD0E0" d="M694.343 144.006h-72.929l-.241-1.205a8.865 8.865 0 0 1-.182-1.746c0-9.796 16.203-17.47 36.888-17.47 20.684 0 36.886 7.674 36.886 17.47 0 .561-.061 1.148-.181 1.746l-.241 1.205zm-70.352-3h67.773c-.064-7.822-15.556-14.421-33.886-14.421-18.33 0-33.822 6.599-33.887 14.421z"/></svg>