<svg xmlns="http://www.w3.org/2000/svg" width="634.016" height="329.787"><path fill="#FFF" d="M380.249 162.167c0 5.97-4.84 10.81-10.811 10.81H260.263c-5.971 0-10.81-4.84-10.81-10.81l10.81-42.157h109.175l10.811 42.157z"/><path fill="#CDD0E0" d="M369.438 174.598H260.263c-6.854 0-12.431-5.576-12.431-12.431l.051-.403 11.121-43.375h111.691l11.174 43.778c.001 6.854-5.576 12.431-12.431 12.431zm-118.361-12.235c.104 4.977 4.185 8.993 9.187 8.993h109.175c5.002 0 9.082-4.016 9.186-8.993l-10.443-40.731H261.521l-10.444 40.731z"/><path fill="#CDD0E0" d="M371.6 134.783H258.101l-2.522 10.089h118.545z"/><path fill="#FFF" d="M629.784 8.614c-2.051-3.318-7.051-5.371-10.506-5.371H14.739c-3.455 0-8.455 2.053-10.505 5.371a6.637 6.637 0 0 0-.599 1.274c2.67-2.947 7.38-4.483 11.104-4.483h604.539c3.725 0 8.434 1.536 11.105 4.483a6.698 6.698 0 0 0-.599-1.274z"/><path fill="#271F3E" d="M628.596 12.874c-1.635-2.646-6.021-4.227-9.318-4.227H14.739c-3.297 0-7.684 1.581-9.318 4.227-.803 1.3-.816 2.686-.041 4.237.713 1.427 5.738 8.332 13.229 18.342 9.74 13.019 23.653 31.294 37.707 49.647a14766.02 14766.02 0 0 0 24.299 31.642h472.789c7.586-9.851 15.965-20.757 24.299-31.642 14.055-18.354 27.967-36.629 37.709-49.647 7.488-10.01 12.512-16.915 13.227-18.342.774-1.551.76-2.937-.043-4.237zm-89.529 100.625H94.95L28.975 16.214h576.066l-65.974 97.285z"/><linearGradient id="a" gradientUnits="userSpaceOnUse" x1="35.092" y1="64.856" x2="598.924" y2="64.856"><stop offset="0" stop-color="#7379ba"/><stop offset="1" stop-color="#bc79b3"/></linearGradient><path fill="url(#a)" d="M35.092 19.457l61.576 90.799h440.68l61.576-90.799z"/><path fill="#FFF" d="M83.571 119.984c3.291 4.276 8.562 11.12 8.879 11.53h449.117c.318-.411 5.588-7.254 8.879-11.53H83.571z"/><path fill="#CDD0E0" d="M632.542 6.909C629.768 2.422 623.639 0 619.278 0H14.739c-4.36 0-10.49 2.422-13.264 6.909C.124 9.098-.99 12.708 1.397 17.48c1.181 2.361 6.772 9.85 14.615 19.9 24.01 32.116 71.566 93.71 74.19 97.108l.485.63h452.64l.486-.63c2.623-3.397 50.18-64.992 74.189-97.108 7.844-10.05 13.434-17.539 14.615-19.9 2.389-4.772 1.276-8.382-.075-10.571zM84.818 119.984h465.628c-3.291 4.276-5.875 7.634-7.49 9.729-.602.78-1.07 1.391-1.389 1.802H92.45l-1.389-1.802-7.49-9.729h1.247zm468.585-3.242H80.613A14519.743 14519.743 0 0 1 56.314 85.1C42.261 66.747 28.348 48.471 18.608 35.453c-7.49-10.01-12.516-16.915-13.229-18.342-.775-1.551-.762-2.937.041-4.237 1.635-2.646 6.021-4.227 9.318-4.227h604.54c3.297 0 7.684 1.581 9.318 4.227.803 1.3.816 2.686.041 4.237-.715 1.427-5.738 8.332-13.227 18.342-9.742 13.019-23.654 31.294-37.709 49.647a14456.485 14456.485 0 0 1-24.298 31.642zM14.739 3.243h604.54c3.455 0 8.455 2.053 10.506 5.371.254.411.443.838.6 1.273-2.672-2.947-7.381-4.483-11.105-4.483H14.739c-3.724 0-8.434 1.536-11.104 4.483a6.57 6.57 0 0 1 .599-1.273c2.05-3.318 7.05-5.371 10.505-5.371z"/><path fill="#CDD0E0" d="M316.717 16.214H28.975l65.975 97.285h444.118l65.975-97.285H316.717zm.582 94.042H96.668L35.092 19.457h563.832l-61.576 90.799H317.299zm-7.635 12.967h10.81v4.324h-10.81z"/><path fill="#FFF" d="M426.386 307.206a6.808 6.808 0 0 1-6.809 6.808H213.581a6.807 6.807 0 0 1-6.808-6.808v-85.827a6.807 6.807 0 0 1 6.808-6.808h205.997a6.808 6.808 0 0 1 6.809 6.808v85.827z"/><path fill="#CDD0E0" d="M420.006 212.646H214.009c-4.593 0-8.329 3.736-8.329 8.328v85.828c0 4.592 3.736 8.328 8.329 8.328h205.997c4.594 0 8.33-3.736 8.33-8.328v-85.828c0-4.591-3.736-8.328-8.33-8.328zm0 99.443H214.009a5.292 5.292 0 0 1-5.287-5.286v-85.828a5.293 5.293 0 0 1 5.287-5.287h205.997a5.293 5.293 0 0 1 5.287 5.287v85.828a5.292 5.292 0 0 1-5.287 5.286z"/><g fill="#68CCF4"><path d="M223.92 236.148c0 .553-.383 1.002-.856 1.002h-8.556c-.473 0-.856-.449-.856-1.002v-3.256c0-.553.384-1.002.856-1.002h8.556c.473 0 .856.449.856 1.002v3.256z"/><path d="M223.064 237.49h-8.556c-.66 0-1.197-.602-1.197-1.342v-3.256c0-.74.537-1.342 1.197-1.342h8.556c.66 0 1.197.602 1.197 1.342v3.256c0 .741-.537 1.342-1.197 1.342zm-8.556-5.259c-.284 0-.516.296-.516.661v3.256c0 .365.232.662.516.662h8.556c.284 0 .516-.297.516-.662v-3.256c0-.365-.231-.661-.516-.661h-8.556z"/></g><g fill="#68CCF4"><path d="M238.946 236.148c0 .553-.383 1.002-.855 1.002h-8.557c-.473 0-.855-.449-.855-1.002v-3.256c0-.553.383-1.002.855-1.002h8.557c.472 0 .855.449.855 1.002v3.256z"/><path d="M238.091 237.49h-8.557c-.659 0-1.196-.602-1.196-1.342v-3.256c0-.74.537-1.342 1.196-1.342h8.557c.66 0 1.196.602 1.196 1.342v3.256c0 .741-.537 1.342-1.196 1.342zm-8.557-5.259c-.279 0-.515.304-.515.661v3.256c0 .358.236.662.515.662h8.557c.283 0 .515-.297.515-.662v-3.256c0-.365-.231-.661-.515-.661h-8.557z"/></g><g fill="#68CCF4"><path d="M253.973 236.148c0 .553-.383 1.002-.856 1.002h-8.556c-.473 0-.856-.449-.856-1.002v-3.256c0-.553.384-1.002.856-1.002h8.556c.473 0 .856.449.856 1.002v3.256z"/><path d="M253.117 237.49h-8.556c-.659 0-1.197-.602-1.197-1.342v-3.256c0-.74.538-1.342 1.197-1.342h8.556c.66 0 1.196.602 1.196 1.342v3.256c0 .741-.536 1.342-1.196 1.342zm-8.556-5.259c-.285 0-.516.296-.516.661v3.256c0 .365.231.662.516.662h8.556c.285 0 .516-.297.516-.662v-3.256c0-.365-.231-.661-.516-.661h-8.556z"/></g><g fill="#CDD0E0"><path d="M391.036 306.408c0 .415-.383.752-.855.752h-8.557c-.473 0-.855-.337-.855-.752v-2.441c0-.414.383-.751.855-.751h8.557c.473 0 .855.337.855.751v2.441z"/><path d="M390.18 307.5h-8.557c-.66 0-1.195-.49-1.195-1.092v-2.441c0-.602.535-1.091 1.195-1.091h8.557c.658 0 1.195.489 1.195 1.091v2.441c0 .602-.537 1.092-1.195 1.092zm-8.556-3.943c-.283 0-.516.184-.516.41v2.441c0 .227.232.411.516.411h8.557c.283 0 .516-.185.516-.411v-2.441c0-.227-.232-.41-.516-.41h-8.557z"/></g><g fill="#CDD0E0"><path d="M406.063 306.408c0 .415-.385.752-.855.752h-8.557c-.473 0-.855-.337-.855-.752v-2.441c0-.414.383-.751.855-.751h8.557c.471 0 .855.337.855.751v2.441z"/><path d="M405.208 307.5h-8.557c-.66 0-1.197-.49-1.197-1.092v-2.441c0-.602.537-1.091 1.197-1.091h8.557c.658 0 1.195.489 1.195 1.091v2.441c0 .602-.537 1.092-1.195 1.092zm-8.557-3.943c-.279 0-.516.188-.516.41v2.441c0 .223.236.411.516.411h8.557c.283 0 .514-.185.514-.411v-2.441c0-.227-.23-.41-.514-.41h-8.557z"/></g><g fill="#CDD0E0"><path d="M406.063 302.324c0 .414-.385.751-.855.751h-8.557c-.473 0-.855-.337-.855-.751v-2.441c0-.415.383-.752.855-.752h8.557c.471 0 .855.337.855.752v2.441z"/><path d="M405.208 303.416h-8.557c-.66 0-1.197-.49-1.197-1.092v-2.441c0-.602.537-1.092 1.197-1.092h8.557c.658 0 1.195.49 1.195 1.092v2.441c0 .602-.537 1.092-1.195 1.092zm-8.557-3.943c-.279 0-.516.188-.516.41v2.441c0 .223.236.41.516.41h8.557c.283 0 .514-.184.514-.41v-2.441c0-.227-.23-.41-.514-.41h-8.557z"/></g><g fill="#CDD0E0"><path d="M421.088 306.408c0 .415-.383.752-.855.752h-8.557c-.471 0-.855-.337-.855-.752v-2.441c0-.414.385-.751.855-.751h8.557c.473 0 .855.337.855.751v2.441z"/><path d="M420.233 307.5h-8.557c-.658 0-1.195-.49-1.195-1.092v-2.441c0-.602.537-1.091 1.195-1.091h8.557c.66 0 1.197.489 1.197 1.091v2.441c0 .602-.537 1.092-1.197 1.092zm-8.557-3.943c-.283 0-.514.184-.514.41v2.441c0 .227.23.411.514.411h8.557c.285 0 .516-.185.516-.411v-2.441c0-.227-.23-.41-.516-.41h-8.557z"/></g><g fill="#CDD0E0"><path d="M268.999 236.148c0 .553-.382 1.002-.855 1.002h-8.556c-.473 0-.856-.449-.856-1.002v-3.256c0-.553.383-1.002.856-1.002h8.556c.473 0 .855.449.855 1.002v3.256z"/><path d="M268.143 237.49h-8.556c-.66 0-1.196-.602-1.196-1.342v-3.256c0-.74.537-1.342 1.196-1.342h8.556c.66 0 1.196.602 1.196 1.342v3.256c0 .741-.536 1.342-1.196 1.342zm-8.556-5.259c-.285 0-.516.296-.516.661v3.256c0 .365.23.662.516.662h8.556c.284 0 .516-.297.516-.662v-3.256c0-.365-.231-.661-.516-.661h-8.556z"/></g><g fill="#CDD0E0"><path d="M284.026 236.148c0 .553-.384 1.002-.857 1.002h-8.555c-.473 0-.856-.449-.856-1.002v-3.256c0-.553.383-1.002.856-1.002h8.555c.473 0 .857.449.857 1.002v3.256z"/><path d="M283.169 237.49h-8.555c-.66 0-1.196-.602-1.196-1.342v-3.256c0-.74.536-1.342 1.196-1.342h8.555c.66 0 1.197.602 1.197 1.342v3.256c0 .741-.537 1.342-1.197 1.342zm-8.555-5.259c-.28 0-.516.304-.516.661v3.256c0 .358.236.662.516.662h8.555c.285 0 .517-.297.517-.662v-3.256c0-.365-.231-.661-.517-.661h-8.555z"/></g><g fill="#CDD0E0"><path d="M299.052 236.148c0 .553-.383 1.002-.856 1.002h-8.556c-.472 0-.855-.449-.855-1.002v-3.256c0-.553.383-1.002.855-1.002h8.556c.473 0 .856.449.856 1.002v3.256z"/><path d="M298.196 237.49h-8.556c-.659 0-1.196-.602-1.196-1.342v-3.256c0-.74.537-1.342 1.196-1.342h8.556c.66 0 1.196.602 1.196 1.342v3.256c0 .741-.537 1.342-1.196 1.342zm-8.556-5.259c-.279 0-.515.304-.515.661v3.256c0 .358.236.662.515.662h8.556c.284 0 .516-.297.516-.662v-3.256c0-.365-.232-.661-.516-.661h-8.556z"/></g><g fill="#CDD0E0"><path d="M314.079 236.148c0 .553-.383 1.002-.856 1.002h-8.556c-.473 0-.856-.449-.856-1.002v-3.256c0-.553.383-1.002.856-1.002h8.556c.473 0 .856.449.856 1.002v3.256z"/><path d="M313.223 237.49h-8.556c-.66 0-1.196-.602-1.196-1.342v-3.256c0-.74.537-1.342 1.196-1.342h8.556c.66 0 1.196.602 1.196 1.342v3.256c0 .741-.536 1.342-1.196 1.342zm-8.556-5.259c-.284 0-.516.296-.516.661v3.256c0 .365.232.662.516.662h8.556c.28 0 .516-.304.516-.662v-3.256c0-.357-.236-.661-.516-.661h-8.556z"/></g><g fill="#CDD0E0"><path d="M329.106 236.148c0 .553-.383 1.002-.855 1.002h-8.557c-.473 0-.855-.449-.855-1.002v-3.256c0-.553.383-1.002.855-1.002h8.557c.473 0 .855.449.855 1.002v3.256z"/><path d="M328.25 237.49h-8.557c-.66 0-1.197-.602-1.197-1.342v-3.256c0-.74.537-1.342 1.197-1.342h8.557c.658 0 1.195.602 1.195 1.342v3.256c.001.741-.536 1.342-1.195 1.342zm-8.556-5.259c-.281 0-.518.304-.518.661v3.256c0 .358.236.662.518.662h8.557c.283 0 .514-.297.514-.662v-3.256c0-.365-.23-.661-.514-.661h-8.557z"/></g><g fill="#CDD0E0"><path d="M344.131 236.148c0 .553-.383 1.002-.855 1.002h-8.555c-.473 0-.857-.449-.857-1.002v-3.256c0-.553.385-1.002.857-1.002h8.555c.473 0 .855.449.855 1.002v3.256z"/><path d="M343.276 237.49h-8.555c-.66 0-1.197-.602-1.197-1.342v-3.256c0-.74.537-1.342 1.197-1.342h8.555c.66 0 1.197.602 1.197 1.342v3.256c0 .741-.537 1.342-1.197 1.342zm-8.555-5.259c-.281 0-.518.304-.518.661v3.256c0 .358.236.662.518.662h8.555c.279 0 .516-.304.516-.662v-3.256c0-.357-.236-.661-.516-.661h-8.555z"/></g><g fill="#CDD0E0"><path d="M359.159 236.148c0 .553-.385 1.002-.857 1.002h-8.555c-.473 0-.855-.449-.855-1.002v-3.256c0-.553.383-1.002.855-1.002h8.555c.473 0 .857.449.857 1.002v3.256z"/><path d="M358.301 237.49h-8.555c-.66 0-1.197-.602-1.197-1.342v-3.256c0-.74.537-1.342 1.197-1.342h8.555c.66 0 1.197.602 1.197 1.342v3.256c.001.741-.537 1.342-1.197 1.342zm-8.554-5.259c-.283 0-.516.296-.516.661v3.256c0 .365.232.662.516.662h8.555c.281 0 .516-.304.516-.662v-3.256c0-.357-.234-.661-.516-.661h-8.555z"/></g><g fill="#CDD0E0"><path d="M374.184 236.148c0 .553-.383 1.002-.855 1.002h-8.557c-.473 0-.855-.449-.855-1.002v-3.256c0-.553.383-1.002.855-1.002h8.557c.473 0 .855.449.855 1.002v3.256z"/><path d="M373.329 237.49h-8.557c-.66 0-1.195-.602-1.195-1.342v-3.256c0-.74.535-1.342 1.195-1.342h8.557c.66 0 1.197.602 1.197 1.342v3.256c0 .741-.537 1.342-1.197 1.342zm-8.557-5.259c-.283 0-.516.296-.516.661v3.256c0 .365.232.662.516.662h8.557c.279 0 .516-.304.516-.662v-3.256c0-.357-.236-.661-.516-.661h-8.557z"/></g><g fill="#CDD0E0"><path d="M389.211 236.148c0 .553-.383 1.002-.857 1.002h-8.555c-.473 0-.855-.449-.855-1.002v-3.256c0-.553.383-1.002.855-1.002h8.555c.475 0 .857.449.857 1.002v3.256z"/><path d="M388.354 237.49h-8.555c-.66 0-1.197-.602-1.197-1.342v-3.256c0-.74.537-1.342 1.197-1.342h8.555c.66 0 1.197.602 1.197 1.342v3.256c0 .741-.537 1.342-1.197 1.342zm-8.555-5.259c-.279 0-.516.304-.516.661v3.256c0 .358.236.662.516.662h8.555c.285 0 .516-.297.516-.662v-3.256c0-.365-.23-.661-.516-.661h-8.555z"/></g><g fill="#CDD0E0"><path d="M404.237 236.148c0 .553-.383 1.002-.855 1.002h-8.557c-.471 0-.855-.449-.855-1.002v-3.256c0-.553.385-1.002.855-1.002h8.557c.473 0 .855.449.855 1.002v3.256z"/><path d="M403.381 237.49h-8.557c-.66 0-1.195-.602-1.195-1.342v-3.256c0-.74.535-1.342 1.195-1.342h8.557c.66 0 1.197.602 1.197 1.342v3.256c.001.741-.536 1.342-1.197 1.342zm-8.556-5.259c-.279 0-.516.304-.516.661v3.256c0 .358.236.662.516.662h8.557c.279 0 .516-.304.516-.662v-3.256c0-.357-.236-.661-.516-.661h-8.557z"/></g><g fill="#CDD0E0"><path d="M419.264 236.148c0 .553-.385 1.002-.857 1.002h-8.555c-.473 0-.857-.449-.857-1.002v-3.256c0-.553.385-1.002.857-1.002h8.555c.473 0 .857.449.857 1.002v3.256z"/><path d="M418.407 237.49h-8.555c-.66 0-1.195-.602-1.195-1.342v-3.256c0-.74.535-1.342 1.195-1.342h8.555c.66 0 1.197.602 1.197 1.342v3.256c0 .741-.537 1.342-1.197 1.342zm-8.555-5.259c-.279 0-.516.304-.516.661v3.256c0 .358.236.662.516.662h8.555c.281 0 .518-.304.518-.662v-3.256c0-.357-.236-.661-.518-.661h-8.555z"/></g><g fill="#CDD0E0"><path d="M223.723 251.253c0 .66-.534 1.195-1.195 1.195h-7.468c-.66 0-1.195-.535-1.195-1.195v-7.468c0-.659.535-1.195 1.195-1.195h7.468c.661 0 1.195.536 1.195 1.195v7.468z"/><path d="M222.528 252.789h-7.468a1.537 1.537 0 0 1-1.535-1.536v-7.468c0-.846.689-1.535 1.535-1.535h7.468c.846 0 1.535.689 1.535 1.535v7.468c0 .847-.688 1.536-1.535 1.536zm-7.467-9.858a.855.855 0 0 0-.854.854v7.468c0 .472.383.855.854.855h7.468a.856.856 0 0 0 .855-.855v-7.468a.855.855 0 0 0-.855-.854h-7.468zm23.37 8.322c0 .66-.536 1.195-1.196 1.195h-7.467c-.66 0-1.195-.535-1.195-1.195v-7.468c0-.659.536-1.195 1.195-1.195h7.467c.66 0 1.196.536 1.196 1.195v7.468z"/><path d="M237.235 252.789h-7.467a1.538 1.538 0 0 1-1.536-1.536v-7.468c0-.846.689-1.535 1.536-1.535h7.467c.847 0 1.536.689 1.536 1.535v7.468c0 .847-.689 1.536-1.536 1.536zm-7.467-9.858a.856.856 0 0 0-.855.854v7.468c0 .472.383.855.855.855h7.467a.857.857 0 0 0 .855-.855v-7.468a.856.856 0 0 0-.855-.854h-7.467zm23.37 8.322c0 .66-.536 1.195-1.195 1.195h-7.467a1.195 1.195 0 0 1-1.196-1.195v-7.468c0-.659.535-1.195 1.196-1.195h7.467c.659 0 1.195.536 1.195 1.195v7.468z"/><path d="M251.943 252.789h-7.467a1.538 1.538 0 0 1-1.536-1.536v-7.468c0-.846.688-1.535 1.536-1.535h7.467c.847 0 1.536.689 1.536 1.535v7.468c0 .847-.689 1.536-1.536 1.536zm-7.467-9.858a.856.856 0 0 0-.855.854v7.468c0 .472.384.855.855.855h7.467a.856.856 0 0 0 .854-.855v-7.468a.855.855 0 0 0-.854-.854h-7.467zm23.369 8.322c0 .66-.535 1.195-1.194 1.195h-7.468c-.66 0-1.195-.535-1.195-1.195v-7.468c0-.659.535-1.195 1.195-1.195h7.468c.66 0 1.194.536 1.194 1.195v7.468z"/><path d="M266.65 252.789h-7.468a1.538 1.538 0 0 1-1.536-1.536v-7.468c0-.846.689-1.535 1.536-1.535h7.468c.846 0 1.535.689 1.535 1.535v7.468c0 .847-.688 1.536-1.535 1.536zm-7.468-9.858a.855.855 0 0 0-.854.854v7.468c0 .472.383.855.854.855h7.468a.855.855 0 0 0 .854-.855v-7.468a.854.854 0 0 0-.854-.854h-7.468zm23.37 8.322c0 .66-.535 1.195-1.195 1.195h-7.468c-.66 0-1.194-.535-1.194-1.195v-7.468c0-.659.534-1.195 1.194-1.195h7.468c.66 0 1.195.536 1.195 1.195v7.468z"/><path d="M281.357 252.789h-7.468a1.537 1.537 0 0 1-1.535-1.536v-7.468c0-.846.689-1.535 1.535-1.535h7.468c.846 0 1.535.689 1.535 1.535v7.468c0 .847-.688 1.536-1.535 1.536zm-7.468-9.858a.855.855 0 0 0-.854.854v7.468c0 .472.383.855.854.855h7.468a.856.856 0 0 0 .854-.855v-7.468a.855.855 0 0 0-.854-.854h-7.468zm23.371 8.322c0 .66-.535 1.195-1.196 1.195h-7.468c-.66 0-1.195-.535-1.195-1.195v-7.468c0-.659.535-1.195 1.195-1.195h7.468c.661 0 1.196.536 1.196 1.195v7.468z"/><path d="M296.064 252.789h-7.468a1.537 1.537 0 0 1-1.535-1.536v-7.468c0-.846.688-1.535 1.535-1.535h7.468c.847 0 1.536.689 1.536 1.535v7.468c0 .847-.689 1.536-1.536 1.536zm-7.468-9.858a.855.855 0 0 0-.854.854v7.468c0 .472.383.855.854.855h7.468a.856.856 0 0 0 .855-.855v-7.468a.855.855 0 0 0-.855-.854h-7.468zm23.37 8.322c0 .66-.535 1.195-1.195 1.195h-7.467a1.195 1.195 0 0 1-1.196-1.195v-7.468c0-.659.535-1.195 1.196-1.195h7.467c.66 0 1.195.536 1.195 1.195v7.468z"/><path d="M310.771 252.789h-7.467a1.538 1.538 0 0 1-1.536-1.536v-7.468c0-.846.688-1.535 1.536-1.535h7.467c.847 0 1.536.689 1.536 1.535v7.468c0 .847-.689 1.536-1.536 1.536zm-7.467-9.858a.856.856 0 0 0-.855.854v7.468c0 .472.383.855.855.855h7.467a.857.857 0 0 0 .855-.855v-7.468a.856.856 0 0 0-.855-.854h-7.467zm23.37 8.322c0 .66-.535 1.195-1.195 1.195h-7.467c-.66 0-1.196-.535-1.196-1.195v-7.468c0-.659.536-1.195 1.196-1.195h7.467c.66 0 1.195.536 1.195 1.195v7.468z"/><path d="M325.479 252.789h-7.467a1.537 1.537 0 0 1-1.536-1.536v-7.468c0-.846.688-1.535 1.536-1.535h7.467c.848 0 1.535.689 1.535 1.535v7.468c0 .847-.687 1.536-1.535 1.536zm-7.467-9.858a.857.857 0 0 0-.856.854v7.468c0 .472.385.855.856.855h7.467a.855.855 0 0 0 .855-.855v-7.468a.855.855 0 0 0-.855-.854h-7.467zm23.367 8.322c0 .66-.533 1.195-1.193 1.195h-7.469c-.66 0-1.193-.535-1.193-1.195v-7.468c0-.659.533-1.195 1.193-1.195h7.469c.66 0 1.193.536 1.193 1.195v7.468z"/><path d="M340.186 252.789h-7.469a1.536 1.536 0 0 1-1.533-1.536v-7.468c0-.846.688-1.535 1.533-1.535h7.469c.848 0 1.535.689 1.535 1.535v7.468c0 .847-.687 1.536-1.535 1.536zm-7.469-9.858a.855.855 0 0 0-.854.854v7.468c0 .472.383.855.854.855h7.469a.857.857 0 0 0 .855-.855v-7.468a.856.856 0 0 0-.855-.854h-7.469zm23.371 8.322c0 .66-.535 1.195-1.195 1.195h-7.469c-.66 0-1.193-.535-1.193-1.195v-7.468c0-.659.533-1.195 1.193-1.195h7.469c.66 0 1.195.536 1.195 1.195v7.468z"/><path d="M354.893 252.789h-7.469a1.536 1.536 0 0 1-1.533-1.536v-7.468c0-.846.688-1.535 1.533-1.535h7.469c.848 0 1.535.689 1.535 1.535v7.468c0 .847-.687 1.536-1.535 1.536zm-7.469-9.858a.854.854 0 0 0-.852.854v7.468c0 .472.381.855.852.855h7.469a.855.855 0 0 0 .855-.855v-7.468a.855.855 0 0 0-.855-.854h-7.469zm23.371 8.322c0 .66-.535 1.195-1.195 1.195h-7.469a1.195 1.195 0 0 1-1.193-1.195v-7.468c0-.659.535-1.195 1.193-1.195h7.469c.66 0 1.195.536 1.195 1.195v7.468z"/><path d="M369.6 252.789h-7.469a1.536 1.536 0 0 1-1.533-1.536v-7.468c0-.846.688-1.535 1.533-1.535h7.469c.848 0 1.535.689 1.535 1.535v7.468c0 .847-.687 1.536-1.535 1.536zm-7.469-9.858a.855.855 0 0 0-.854.854v7.468c0 .472.383.855.854.855h7.469a.855.855 0 0 0 .855-.855v-7.468a.855.855 0 0 0-.855-.854h-7.469zm23.371 8.322c0 .66-.535 1.195-1.195 1.195h-7.467c-.66 0-1.197-.535-1.197-1.195v-7.468c0-.659.537-1.195 1.197-1.195h7.467c.66 0 1.195.536 1.195 1.195v7.468z"/><path d="M384.307 252.789h-7.467a1.536 1.536 0 0 1-1.535-1.536v-7.468c0-.846.688-1.535 1.535-1.535h7.467c.848 0 1.537.689 1.537 1.535v7.468c0 .847-.689 1.536-1.537 1.536zm-7.467-9.858a.855.855 0 0 0-.855.854v7.468c0 .472.383.855.855.855h7.467a.857.857 0 0 0 .855-.855v-7.468a.856.856 0 0 0-.855-.854h-7.467zm23.369 8.322c0 .66-.535 1.195-1.195 1.195h-7.467c-.66 0-1.195-.535-1.195-1.195v-7.468c0-.659.535-1.195 1.195-1.195h7.467c.66 0 1.195.536 1.195 1.195v7.468z"/><path d="M399.014 252.789h-7.467a1.536 1.536 0 0 1-1.535-1.536v-7.468c0-.846.688-1.535 1.535-1.535h7.467c.848 0 1.535.689 1.535 1.535v7.468c0 .847-.687 1.536-1.535 1.536zm-7.467-9.858a.856.856 0 0 0-.855.854v7.468c0 .472.385.855.855.855h7.467a.855.855 0 0 0 .855-.855v-7.468a.855.855 0 0 0-.855-.854h-7.467zm28.651 8.322c0 .66-.77 1.195-1.719 1.195h-10.732c-.949 0-1.719-.535-1.719-1.195v-7.468c0-.659.77-1.195 1.719-1.195h10.732c.949 0 1.719.536 1.719 1.195v7.468z"/><path d="M418.479 252.789h-10.732c-1.154 0-2.059-.676-2.059-1.536v-7.468c0-.861.904-1.535 2.059-1.535h10.732c1.156 0 2.059.674 2.059 1.535v7.468c0 .86-.903 1.536-2.059 1.536zm-10.732-9.858c-.748 0-1.379.392-1.379.854v7.468c0 .464.631.855 1.379.855h10.732c.748 0 1.379-.392 1.379-.855v-7.468c0-.463-.631-.854-1.379-.854h-10.732z"/></g><g fill="#8B78B7"><path d="M395.633 264.869c0 .659.535 1.195 1.193 1.195h7.469c.66 0 1.195-.536 1.195-1.195V257.4c0-.66-.535-1.194-1.195-1.194h-7.469c-.658 0-1.193.534-1.193 1.194v7.469z"/><path d="M404.295 266.404h-7.469a1.537 1.537 0 0 1-1.535-1.535V257.4c0-.846.689-1.535 1.535-1.535h7.469c.848 0 1.535.689 1.535 1.535v7.469a1.535 1.535 0 0 1-1.535 1.535zm-7.468-9.858a.855.855 0 0 0-.854.854v7.469c0 .471.383.854.854.854h7.469a.856.856 0 0 0 .855-.854V257.4a.856.856 0 0 0-.855-.854h-7.469zm-15.901 8.323c0 .659.535 1.195 1.195 1.195h7.467c.66 0 1.195-.536 1.195-1.195V257.4c0-.66-.535-1.194-1.195-1.194h-7.467c-.66 0-1.195.534-1.195 1.194v7.469z"/><path d="M389.588 266.404h-7.467a1.535 1.535 0 0 1-1.535-1.535V257.4c0-.846.688-1.535 1.535-1.535h7.467c.846 0 1.535.689 1.535 1.535v7.469a1.536 1.536 0 0 1-1.535 1.535zm-7.466-9.858a.855.855 0 0 0-.855.854v7.469c0 .471.383.854.855.854h7.467a.855.855 0 0 0 .854-.854V257.4a.855.855 0 0 0-.854-.854h-7.467zm-15.903 8.323c0 .659.533 1.195 1.195 1.195h7.467c.66 0 1.195-.536 1.195-1.195V257.4c0-.66-.535-1.194-1.195-1.194h-7.467c-.662 0-1.195.534-1.195 1.194v7.469z"/><path d="M374.881 266.404h-7.467a1.537 1.537 0 0 1-1.537-1.535V257.4c0-.846.689-1.535 1.537-1.535h7.467c.846 0 1.535.689 1.535 1.535v7.469a1.536 1.536 0 0 1-1.535 1.535zm-7.466-9.858a.855.855 0 0 0-.855.854v7.469c0 .471.383.854.855.854h7.467a.855.855 0 0 0 .854-.854V257.4a.855.855 0 0 0-.854-.854h-7.467zm-15.903 8.323c0 .659.535 1.195 1.193 1.195h7.469c.66 0 1.195-.536 1.195-1.195V257.4c0-.66-.535-1.194-1.195-1.194h-7.469c-.658 0-1.193.534-1.193 1.194v7.469z"/><path d="M360.174 266.404h-7.469a1.537 1.537 0 0 1-1.535-1.535V257.4c0-.846.689-1.535 1.535-1.535h7.469c.846 0 1.535.689 1.535 1.535v7.469c0 .847-.689 1.535-1.535 1.535zm-7.468-9.858a.855.855 0 0 0-.854.854v7.469c0 .471.383.854.854.854h7.469a.854.854 0 0 0 .854-.854V257.4a.854.854 0 0 0-.854-.854h-7.469zm-15.901 8.323c0 .659.535 1.195 1.195 1.195h7.467c.66 0 1.195-.536 1.195-1.195V257.4c0-.66-.535-1.194-1.195-1.194H338c-.66 0-1.195.534-1.195 1.194v7.469z"/><path d="M345.467 266.404H338a1.537 1.537 0 0 1-1.537-1.535V257.4c0-.846.689-1.535 1.537-1.535h7.467c.846 0 1.535.689 1.535 1.535v7.469c0 .847-.689 1.535-1.535 1.535zM338 256.546a.855.855 0 0 0-.855.854v7.469c0 .471.383.854.855.854h7.467a.855.855 0 0 0 .854-.854V257.4a.855.855 0 0 0-.854-.854H338zm-15.902 8.323c0 .659.535 1.195 1.195 1.195h7.467c.658 0 1.195-.536 1.195-1.195V257.4c0-.66-.537-1.194-1.195-1.194h-7.467c-.66 0-1.195.534-1.195 1.194v7.469z"/><path d="M330.76 266.404h-7.467a1.537 1.537 0 0 1-1.537-1.535V257.4c0-.846.689-1.535 1.537-1.535h7.467c.848 0 1.535.689 1.535 1.535v7.469c0 .847-.687 1.535-1.535 1.535zm-7.467-9.858a.855.855 0 0 0-.855.854v7.469c0 .471.383.854.855.854h7.467a.856.856 0 0 0 .855-.854V257.4a.856.856 0 0 0-.855-.854h-7.467zm-15.903 8.323c0 .659.535 1.195 1.195 1.195h7.468c.659 0 1.195-.536 1.195-1.195V257.4c0-.66-.536-1.194-1.195-1.194h-7.468c-.66 0-1.195.534-1.195 1.194v7.469z"/><path d="M316.053 266.404h-7.468a1.537 1.537 0 0 1-1.535-1.535V257.4c0-.846.688-1.535 1.535-1.535h7.468c.847 0 1.535.689 1.535 1.535v7.469c0 .847-.688 1.535-1.535 1.535zm-7.468-9.858a.856.856 0 0 0-.855.854v7.469c0 .471.384.854.855.854h7.468a.855.855 0 0 0 .854-.854V257.4a.855.855 0 0 0-.854-.854h-7.468zm-15.902 8.323c0 .659.534 1.195 1.194 1.195h7.468c.66 0 1.194-.536 1.194-1.195V257.4c0-.66-.535-1.194-1.194-1.194h-7.468c-.66 0-1.194.534-1.194 1.194v7.469z"/><path d="M301.346 266.404h-7.468a1.537 1.537 0 0 1-1.535-1.535V257.4c0-.846.688-1.535 1.535-1.535h7.468c.847 0 1.535.689 1.535 1.535v7.469c0 .847-.689 1.535-1.535 1.535zm-7.469-9.858a.855.855 0 0 0-.854.854v7.469c0 .471.383.854.854.854h7.468a.855.855 0 0 0 .854-.854V257.4a.854.854 0 0 0-.854-.854h-7.468zm-15.902 8.323c0 .659.535 1.195 1.196 1.195h7.467c.66 0 1.195-.536 1.195-1.195V257.4c0-.66-.535-1.194-1.195-1.194h-7.467c-.661 0-1.196.534-1.196 1.194v7.469z"/><path d="M286.638 266.404h-7.467a1.537 1.537 0 0 1-1.536-1.535V257.4c0-.846.688-1.535 1.536-1.535h7.467c.847 0 1.536.689 1.536 1.535v7.469c0 .847-.689 1.535-1.536 1.535zm-7.467-9.858a.856.856 0 0 0-.855.854v7.469c0 .471.384.854.855.854h7.467a.855.855 0 0 0 .854-.854V257.4a.855.855 0 0 0-.854-.854h-7.467zm-15.903 8.323c0 .659.536 1.195 1.195 1.195h7.468c.66 0 1.195-.536 1.195-1.195V257.4c0-.66-.535-1.194-1.195-1.194h-7.468c-.66 0-1.195.534-1.195 1.194v7.469z"/><path d="M271.931 266.404h-7.468a1.537 1.537 0 0 1-1.536-1.535V257.4c0-.846.689-1.535 1.536-1.535h7.468c.846 0 1.535.689 1.535 1.535v7.469c0 .847-.689 1.535-1.535 1.535zm-7.468-9.858a.856.856 0 0 0-.855.854v7.469c0 .471.384.854.855.854h7.468a.856.856 0 0 0 .855-.854V257.4a.856.856 0 0 0-.855-.854h-7.468zm-15.902 8.323c0 .659.535 1.195 1.195 1.195h7.467c.661 0 1.196-.536 1.196-1.195V257.4c0-.66-.535-1.194-1.196-1.194h-7.467c-.66 0-1.195.534-1.195 1.194v7.469z"/><path d="M257.224 266.404h-7.467a1.537 1.537 0 0 1-1.536-1.535V257.4c0-.846.689-1.535 1.536-1.535h7.467c.846 0 1.536.689 1.536 1.535v7.469a1.538 1.538 0 0 1-1.536 1.535zm-7.468-9.858a.855.855 0 0 0-.854.854v7.469c0 .471.383.854.854.854h7.467a.855.855 0 0 0 .855-.854V257.4a.855.855 0 0 0-.855-.854h-7.467zm-15.902 8.323c0 .659.535 1.195 1.194 1.195h7.468c.66 0 1.195-.536 1.195-1.195V257.4c0-.66-.535-1.194-1.195-1.194h-7.468c-.66 0-1.194.534-1.194 1.194v7.469z"/><path d="M242.517 266.404h-7.468a1.537 1.537 0 0 1-1.535-1.535V257.4c0-.846.688-1.535 1.535-1.535h7.468c.846 0 1.536.689 1.536 1.535v7.469c0 .847-.69 1.535-1.536 1.535zm-7.468-9.858a.855.855 0 0 0-.854.854v7.469c0 .471.383.854.854.854h7.468a.855.855 0 0 0 .854-.854V257.4a.855.855 0 0 0-.854-.854h-7.468zm-21.183 8.323c0 .659.77 1.195 1.718 1.195h10.734c.949 0 1.718-.536 1.718-1.195V257.4c0-.66-.769-1.194-1.718-1.194h-10.734c-.948 0-1.718.534-1.718 1.194v7.469z"/><path d="M226.318 266.404h-10.734c-1.154 0-2.058-.675-2.058-1.535V257.4c0-.86.904-1.535 2.058-1.535h10.734c1.154 0 2.058.675 2.058 1.535v7.469c0 .86-.904 1.535-2.058 1.535zm-10.735-9.858c-.746 0-1.377.392-1.377.854v7.469c0 .463.631.854 1.377.854h10.734c.747 0 1.377-.391 1.377-.854V257.4c0-.463-.631-.854-1.377-.854h-10.734z"/></g><g fill="#CDD0E0"><path d="M376.84 292.099c0 .661.535 1.196 1.197 1.196h7.467c.66 0 1.195-.535 1.195-1.196v-7.468c0-.658-.535-1.194-1.195-1.194h-7.467c-.662 0-1.197.536-1.197 1.194v7.468z"/><path d="M385.504 293.635h-7.467a1.538 1.538 0 0 1-1.537-1.536v-7.468c0-.846.689-1.535 1.537-1.535h7.467c.846 0 1.535.689 1.535 1.535v7.468a1.537 1.537 0 0 1-1.535 1.536zm-7.466-9.858a.854.854 0 0 0-.855.854v7.468c0 .472.383.855.855.855h7.467a.856.856 0 0 0 .854-.855v-7.468a.855.855 0 0 0-.854-.854h-7.467z"/></g><g fill="#CDD0E0"><path d="M362.133 292.099c0 .661.535 1.196 1.195 1.196h7.467c.66 0 1.195-.535 1.195-1.196v-7.468c0-.658-.535-1.194-1.195-1.194h-7.467c-.66 0-1.195.536-1.195 1.194v7.468z"/><path d="M370.795 293.635h-7.467a1.537 1.537 0 0 1-1.535-1.536v-7.468c0-.846.689-1.535 1.535-1.535h7.467c.848 0 1.537.689 1.537 1.535v7.468a1.538 1.538 0 0 1-1.537 1.536zm-7.466-9.858a.855.855 0 0 0-.854.854v7.468c0 .472.383.855.854.855h7.467a.855.855 0 0 0 .855-.855v-7.468a.855.855 0 0 0-.855-.854h-7.467z"/></g><g fill="#CDD0E0"><path d="M347.426 292.099c0 .661.535 1.196 1.195 1.196h7.469c.66 0 1.193-.535 1.193-1.196v-7.468c0-.658-.533-1.194-1.193-1.194h-7.469c-.66 0-1.195.536-1.195 1.194v7.468z"/><path d="M356.09 293.635h-7.469a1.536 1.536 0 0 1-1.535-1.536v-7.468c0-.846.688-1.535 1.535-1.535h7.469c.846 0 1.535.689 1.535 1.535v7.468c0 .846-.689 1.536-1.535 1.536zm-7.468-9.858a.855.855 0 0 0-.854.854v7.468c0 .472.383.855.854.855h7.469a.856.856 0 0 0 .854-.855v-7.468a.855.855 0 0 0-.854-.854h-7.469z"/></g><g fill="#CDD0E0"><path d="M332.719 292.099c0 .661.535 1.196 1.195 1.196h7.469c.658 0 1.193-.535 1.193-1.196v-7.468c0-.658-.535-1.194-1.193-1.194h-7.469c-.66 0-1.195.536-1.195 1.194v7.468z"/><path d="M341.383 293.635h-7.469a1.537 1.537 0 0 1-1.535-1.536v-7.468c0-.846.689-1.535 1.535-1.535h7.469c.846 0 1.535.689 1.535 1.535v7.468c0 .846-.689 1.536-1.535 1.536zm-7.468-9.858a.855.855 0 0 0-.854.854v7.468c0 .472.383.855.854.855h7.469a.856.856 0 0 0 .854-.855v-7.468a.855.855 0 0 0-.854-.854h-7.469z"/></g><g fill="#CDD0E0"><path d="M318.012 292.099c0 .661.535 1.196 1.195 1.196h7.467c.66 0 1.195-.535 1.195-1.196v-7.468c0-.658-.535-1.194-1.195-1.194h-7.467c-.66 0-1.195.536-1.195 1.194v7.468z"/><path d="M326.674 293.635h-7.467a1.537 1.537 0 0 1-1.535-1.536v-7.468c0-.846.689-1.535 1.535-1.535h7.467c.848 0 1.537.689 1.537 1.535v7.468c0 .846-.689 1.536-1.537 1.536zm-7.466-9.858a.855.855 0 0 0-.854.854v7.468c0 .472.383.855.854.855h7.467a.855.855 0 0 0 .855-.855v-7.468a.855.855 0 0 0-.855-.854h-7.467z"/></g><g fill="#CDD0E0"><path d="M303.305 292.099c0 .661.535 1.196 1.195 1.196h7.468c.66 0 1.194-.535 1.194-1.196v-7.468c0-.658-.534-1.194-1.194-1.194H304.5c-.66 0-1.195.536-1.195 1.194v7.468z"/><path d="M311.968 293.635H304.5a1.537 1.537 0 0 1-1.535-1.536v-7.468c0-.846.688-1.535 1.535-1.535h7.468c.847 0 1.536.689 1.536 1.535v7.468c0 .846-.689 1.536-1.536 1.536zm-7.468-9.858a.854.854 0 0 0-.854.854v7.468c0 .472.383.855.854.855h7.468a.856.856 0 0 0 .854-.855v-7.468a.855.855 0 0 0-.854-.854H304.5z"/></g><g fill="#CDD0E0"><path d="M288.598 292.099c0 .661.535 1.196 1.195 1.196h7.467c.661 0 1.195-.535 1.195-1.196v-7.468c0-.658-.534-1.194-1.195-1.194h-7.467c-.66 0-1.195.536-1.195 1.194v7.468z"/><path d="M297.26 293.635h-7.467a1.537 1.537 0 0 1-1.535-1.536v-7.468c0-.846.689-1.535 1.535-1.535h7.467c.847 0 1.536.689 1.536 1.535v7.468c0 .846-.689 1.536-1.536 1.536zm-7.467-9.858a.854.854 0 0 0-.854.854v7.468c0 .472.383.855.854.855h7.467a.855.855 0 0 0 .854-.855v-7.468a.854.854 0 0 0-.854-.854h-7.467z"/></g><g fill="#CDD0E0"><path d="M273.891 292.099c0 .661.535 1.196 1.195 1.196h7.468c.661 0 1.195-.535 1.195-1.196v-7.468c0-.658-.534-1.194-1.195-1.194h-7.468c-.66 0-1.195.536-1.195 1.194v7.468z"/><path d="M282.554 293.635h-7.468a1.537 1.537 0 0 1-1.535-1.536v-7.468c0-.846.688-1.535 1.535-1.535h7.468c.846 0 1.535.689 1.535 1.535v7.468c0 .846-.689 1.536-1.535 1.536zm-7.469-9.858a.855.855 0 0 0-.854.854v7.468c0 .472.384.855.854.855h7.468a.856.856 0 0 0 .854-.855v-7.468a.855.855 0 0 0-.854-.854h-7.468zm-15.901 8.322c0 .661.535 1.196 1.195 1.196h7.468c.659 0 1.194-.535 1.194-1.196v-7.468c0-.658-.535-1.194-1.194-1.194h-7.468c-.66 0-1.195.536-1.195 1.194v7.468z"/><path d="M267.847 293.635h-7.468a1.538 1.538 0 0 1-1.536-1.536v-7.468c0-.846.688-1.535 1.536-1.535h7.468c.846 0 1.535.689 1.535 1.535v7.468c0 .846-.689 1.536-1.535 1.536zm-7.468-9.858a.855.855 0 0 0-.854.854v7.468c0 .472.383.855.854.855h7.468a.856.856 0 0 0 .854-.855v-7.468a.855.855 0 0 0-.854-.854h-7.468zm-15.902 8.322c0 .661.535 1.196 1.195 1.196h7.467c.66 0 1.195-.535 1.195-1.196v-7.468c0-.658-.536-1.194-1.195-1.194h-7.467c-.661 0-1.195.536-1.195 1.194v7.468z"/><path d="M253.139 293.635h-7.467a1.538 1.538 0 0 1-1.536-1.536v-7.468c0-.846.688-1.535 1.536-1.535h7.467c.847 0 1.536.689 1.536 1.535v7.468c0 .846-.689 1.536-1.536 1.536zm-7.467-9.858a.855.855 0 0 0-.855.854v7.468c0 .472.384.855.855.855h7.467a.857.857 0 0 0 .855-.855v-7.468a.856.856 0 0 0-.855-.854h-7.467zm-15.903 8.322c0 .661.536 1.196 1.195 1.196h7.467c.661 0 1.196-.535 1.196-1.196v-7.468c0-.658-.536-1.194-1.196-1.194h-7.467c-.66 0-1.195.536-1.195 1.194v7.468z"/><path d="M238.432 293.635h-7.467a1.537 1.537 0 0 1-1.535-1.536v-7.468c0-.846.689-1.535 1.535-1.535h7.467c.847 0 1.536.689 1.536 1.535v7.468c0 .846-.69 1.536-1.536 1.536zm-7.468-9.858a.855.855 0 0 0-.854.854v7.468c0 .472.383.855.854.855h7.467a.856.856 0 0 0 .855-.855v-7.468a.856.856 0 0 0-.855-.854h-7.467z"/></g><g fill="#CDD0E0"><path d="M258.233 305.715c0 .66.634 1.195 1.416 1.195h8.843c.781 0 1.415-.535 1.415-1.195v-7.469c0-.659-.634-1.194-1.415-1.194h-8.843c-.782 0-1.416.535-1.416 1.194v7.469z"/><path d="M268.491 307.25h-8.843c-.969 0-1.756-.688-1.756-1.535v-7.469c0-.846.787-1.535 1.756-1.535h8.843c.968 0 1.755.689 1.755 1.535v7.469c.001.847-.787 1.535-1.755 1.535zm-8.843-9.857c-.593 0-1.075.383-1.075.854v7.469c0 .471.482.854 1.075.854h8.843c.592 0 1.074-.384 1.074-.854v-7.469c0-.471-.482-.854-1.074-.854h-8.843z"/></g><g fill="#CDD0E0"><path d="M243.526 305.715c0 .66.535 1.195 1.195 1.195h7.468c.659 0 1.194-.535 1.194-1.195v-7.469c0-.659-.535-1.194-1.194-1.194h-7.468c-.66 0-1.195.535-1.195 1.194v7.469z"/><path d="M252.189 307.25h-7.468a1.537 1.537 0 0 1-1.536-1.535v-7.469c0-.846.688-1.535 1.536-1.535h7.468c.846 0 1.535.689 1.535 1.535v7.469c0 .847-.688 1.535-1.535 1.535zm-7.468-9.857a.856.856 0 0 0-.855.854v7.469c0 .471.384.854.855.854h7.468c.47 0 .854-.384.854-.854v-7.469a.855.855 0 0 0-.854-.854h-7.468z"/></g><g fill="#CDD0E0"><path d="M361.399 305.715c0 .66-.635 1.195-1.416 1.195h-8.842c-.781 0-1.414-.535-1.414-1.195v-7.469c0-.659.633-1.194 1.414-1.194h8.842c.781 0 1.416.535 1.416 1.194v7.469z"/><path d="M359.983 307.25h-8.842c-.969 0-1.756-.688-1.756-1.535v-7.469c0-.846.787-1.535 1.756-1.535h8.842c.969 0 1.756.689 1.756 1.535v7.469c0 .847-.787 1.535-1.756 1.535zm-8.842-9.857c-.592 0-1.074.383-1.074.854v7.469c0 .471.482.854 1.074.854h8.842c.594 0 1.076-.384 1.076-.854v-7.469c0-.471-.482-.854-1.076-.854h-8.842z"/></g><g fill="#CDD0E0"><path d="M376.106 305.715c0 .66-.535 1.195-1.195 1.195h-7.469a1.195 1.195 0 0 1-1.193-1.195v-7.469c0-.659.535-1.194 1.193-1.194h7.469c.66 0 1.195.535 1.195 1.194v7.469z"/><path d="M374.911 307.25h-7.469a1.537 1.537 0 0 1-1.535-1.535v-7.469c0-.846.689-1.535 1.535-1.535h7.469c.848 0 1.535.689 1.535 1.535v7.469c0 .847-.688 1.535-1.535 1.535zm-7.469-9.857a.855.855 0 0 0-.854.854v7.469c0 .471.383.854.854.854h7.469a.855.855 0 0 0 .855-.854v-7.469a.855.855 0 0 0-.855-.854h-7.469z"/></g><g fill="#CDD0E0"><path d="M228.819 305.715c0 .66.535 1.195 1.195 1.195h7.467c.66 0 1.195-.535 1.195-1.195v-7.469c0-.659-.535-1.194-1.195-1.194h-7.467c-.66 0-1.195.535-1.195 1.194v7.469z"/><path d="M237.481 307.25h-7.467a1.537 1.537 0 0 1-1.536-1.535v-7.469c0-.846.689-1.535 1.536-1.535h7.467c.846 0 1.536.689 1.536 1.535v7.469c0 .847-.689 1.535-1.536 1.535zm-7.467-9.857a.855.855 0 0 0-.854.854v7.469c0 .471.383.854.854.854h7.467a.856.856 0 0 0 .855-.854v-7.469a.856.856 0 0 0-.855-.854h-7.467z"/></g><g fill="#CDD0E0"><path d="M214.112 305.715c0 .66.535 1.195 1.194 1.195h7.468c.661 0 1.195-.535 1.195-1.195v-7.469c0-.659-.535-1.194-1.195-1.194h-7.468c-.659 0-1.194.535-1.194 1.194v7.469z"/><path d="M222.774 307.25h-7.468a1.536 1.536 0 0 1-1.535-1.535v-7.469c0-.846.688-1.535 1.535-1.535h7.468c.846 0 1.536.689 1.536 1.535v7.469c0 .847-.689 1.535-1.536 1.535zm-7.467-9.857a.855.855 0 0 0-.854.854v7.469c0 .471.383.854.854.854h7.468a.856.856 0 0 0 .855-.854v-7.469a.855.855 0 0 0-.855-.854h-7.468z"/></g><g fill="#CDD0E0"><path d="M213.866 292.099c0 .661.621 1.196 1.388 1.196h8.671c.766 0 1.388-.535 1.388-1.196v-7.468c0-.658-.622-1.194-1.388-1.194h-8.671c-.767 0-1.388.536-1.388 1.194v7.468z"/><path d="M223.925 293.635h-8.671c-.953 0-1.728-.689-1.728-1.536v-7.468c0-.846.775-1.535 1.728-1.535h8.671c.953 0 1.728.689 1.728 1.535v7.468c0 .846-.775 1.536-1.728 1.536zm-8.672-9.858c-.577 0-1.047.383-1.047.854v7.468c0 .472.47.855 1.047.855h8.671c.577 0 1.047-.384 1.047-.855v-7.468c0-.471-.47-.854-1.047-.854h-8.671z"/></g><g fill="#CDD0E0"><path d="M420.198 257.4c0-.66-.535-1.194-1.195-1.194h-7.467c-.66 0-1.195.534-1.195 1.194v7.469c0 .659.535 1.195 1.195 1.195h1.67v11.557c0 1.125.377 2.037.842 2.037h5.25c.465 0 .842-.912.842-2.037v-12.396c.033-.113.059-.23.059-.355v-7.47z"/><path d="M419.297 279.999h-5.25c-.775 0-1.18-1.196-1.18-2.378v-11.217h-1.332a1.537 1.537 0 0 1-1.537-1.535V257.4c0-.846.689-1.535 1.537-1.535h7.467c.846 0 1.535.689 1.535 1.535v7.469c0 .129-.02.262-.061.404v12.348c.001 1.182-.403 2.378-1.179 2.378zm-7.761-23.453a.855.855 0 0 0-.855.854v7.469c0 .471.383.854.855.854h2.012v11.898c0 1.113.371 1.697.5 1.697h5.25c.129 0 .5-.584.5-1.697l.016-12.498a.836.836 0 0 0 .045-.254V257.4a.856.856 0 0 0-.855-.854h-7.468z"/></g><g fill="#CDD0E0"><path d="M399.038 278.484c0 .66.535 1.194 1.193 1.194h7.469c.66 0 1.195-.534 1.195-1.194v-7.469c0-.659-.535-1.194-1.195-1.194h-7.469c-.658 0-1.193.535-1.193 1.194v7.469z"/><path d="M407.7 280.02h-7.469a1.535 1.535 0 0 1-1.533-1.535v-7.469c0-.846.688-1.535 1.533-1.535h7.469c.848 0 1.535.689 1.535 1.535v7.469c0 .846-.688 1.535-1.535 1.535zm-7.469-9.858a.855.855 0 0 0-.854.854v7.469c0 .471.383.854.854.854h7.469a.855.855 0 0 0 .854-.854v-7.469a.855.855 0 0 0-.854-.854h-7.469z"/></g><g fill="#CDD0E0"><path d="M384.329 278.484c0 .66.535 1.194 1.195 1.194h7.469c.66 0 1.193-.534 1.193-1.194v-7.469c0-.659-.533-1.194-1.193-1.194h-7.469c-.66 0-1.195.535-1.195 1.194v7.469z"/><path d="M392.993 280.02h-7.469a1.535 1.535 0 0 1-1.533-1.535v-7.469c0-.846.688-1.535 1.533-1.535h7.469c.846 0 1.535.689 1.535 1.535v7.469c0 .846-.69 1.535-1.535 1.535zm-7.469-9.858a.855.855 0 0 0-.854.854v7.469c0 .471.383.854.854.854h7.469a.855.855 0 0 0 .854-.854v-7.469a.855.855 0 0 0-.854-.854h-7.469z"/></g><g fill="#CDD0E0"><path d="M369.622 278.484c0 .66.535 1.194 1.195 1.194h7.469c.66 0 1.193-.534 1.193-1.194v-7.469c0-.659-.533-1.194-1.193-1.194h-7.469c-.66 0-1.195.535-1.195 1.194v7.469z"/><path d="M378.286 280.02h-7.469a1.537 1.537 0 0 1-1.535-1.535v-7.469c0-.846.689-1.535 1.535-1.535h7.469c.848 0 1.535.689 1.535 1.535v7.469c0 .846-.688 1.535-1.535 1.535zm-7.469-9.858a.855.855 0 0 0-.854.854v7.469c0 .471.383.854.854.854h7.469a.855.855 0 0 0 .854-.854v-7.469a.855.855 0 0 0-.854-.854h-7.469z"/></g><g fill="#C778B2"><path d="M354.915 278.484c0 .66.535 1.194 1.195 1.194h7.469c.66 0 1.195-.534 1.195-1.194v-7.469c0-.659-.535-1.194-1.195-1.194h-7.469c-.66 0-1.195.535-1.195 1.194v7.469z"/><path d="M363.579 280.02h-7.469a1.537 1.537 0 0 1-1.535-1.535v-7.469c0-.846.689-1.535 1.535-1.535h7.469c.846 0 1.535.689 1.535 1.535v7.469c0 .846-.69 1.535-1.535 1.535zm-7.469-9.858a.855.855 0 0 0-.854.854v7.469c0 .471.383.854.854.854h7.469a.855.855 0 0 0 .854-.854v-7.469a.855.855 0 0 0-.854-.854h-7.469z"/></g><g fill="#C778B2"><path d="M340.208 278.484c0 .66.535 1.194 1.195 1.194h7.469c.658 0 1.193-.534 1.193-1.194v-7.469c0-.659-.535-1.194-1.193-1.194h-7.469c-.66 0-1.195.535-1.195 1.194v7.469z"/><path d="M348.872 280.02h-7.469a1.537 1.537 0 0 1-1.535-1.535v-7.469c0-.846.689-1.535 1.535-1.535h7.469c.846 0 1.535.689 1.535 1.535v7.469c0 .846-.69 1.535-1.535 1.535zm-7.469-9.858a.856.856 0 0 0-.855.854v7.469c0 .471.385.854.855.854h7.469a.856.856 0 0 0 .855-.854v-7.469a.856.856 0 0 0-.855-.854h-7.469z"/></g><g fill="#CDD0E0"><path d="M325.502 278.484c0 .66.535 1.194 1.193 1.194h7.469c.66 0 1.195-.534 1.195-1.194v-7.469c0-.659-.535-1.194-1.195-1.194h-7.469c-.658 0-1.193.535-1.193 1.194v7.469z"/><path d="M334.165 280.02h-7.469a1.537 1.537 0 0 1-1.535-1.535v-7.469c0-.846.689-1.535 1.535-1.535h7.469c.846 0 1.535.689 1.535 1.535v7.469c0 .846-.69 1.535-1.535 1.535zm-7.469-9.858a.856.856 0 0 0-.855.854v7.469c0 .471.385.854.855.854h7.469a.856.856 0 0 0 .855-.854v-7.469a.856.856 0 0 0-.855-.854h-7.469z"/></g><g fill="#CDD0E0"><path d="M310.793 278.484c0 .66.535 1.194 1.195 1.194h7.469c.66 0 1.195-.534 1.195-1.194v-7.469c0-.659-.535-1.194-1.195-1.194h-7.469c-.66 0-1.195.535-1.195 1.194v7.469z"/><path d="M319.458 280.02h-7.469a1.537 1.537 0 0 1-1.535-1.535v-7.469c0-.846.688-1.535 1.535-1.535h7.469c.846 0 1.535.689 1.535 1.535v7.469c0 .846-.69 1.535-1.535 1.535zm-7.469-9.858a.854.854 0 0 0-.854.854v7.469c0 .471.382.854.854.854h7.469a.855.855 0 0 0 .854-.854v-7.469a.855.855 0 0 0-.854-.854h-7.469z"/></g><g fill="#CDD0E0"><path d="M296.086 278.484c0 .66.535 1.194 1.195 1.194h7.467c.66 0 1.195-.534 1.195-1.194v-7.469c0-.659-.535-1.194-1.195-1.194h-7.467c-.661 0-1.195.535-1.195 1.194v7.469z"/><path d="M304.749 280.02h-7.467a1.536 1.536 0 0 1-1.535-1.535v-7.469c0-.846.688-1.535 1.535-1.535h7.467c.847 0 1.536.689 1.536 1.535v7.469c0 .846-.689 1.535-1.536 1.535zm-7.467-9.858a.854.854 0 0 0-.854.854v7.469c0 .471.383.854.854.854h7.467a.855.855 0 0 0 .854-.854v-7.469a.855.855 0 0 0-.854-.854h-7.467z"/></g><g fill="#CDD0E0"><path d="M281.379 278.484c0 .66.536 1.194 1.196 1.194h7.467c.661 0 1.195-.534 1.195-1.194v-7.469c0-.659-.534-1.194-1.195-1.194h-7.467c-.66 0-1.196.535-1.196 1.194v7.469z"/><path d="M290.042 280.02h-7.467a1.537 1.537 0 0 1-1.536-1.535v-7.469c0-.846.689-1.535 1.536-1.535h7.467c.846 0 1.536.689 1.536 1.535v7.469c0 .846-.69 1.535-1.536 1.535zm-7.467-9.858a.855.855 0 0 0-.855.854v7.469c0 .471.384.854.855.854h7.467a.855.855 0 0 0 .854-.854v-7.469a.855.855 0 0 0-.854-.854h-7.467z"/></g><g fill="#CDD0E0"><path d="M266.672 278.484c0 .66.535 1.194 1.195 1.194h7.468c.659 0 1.194-.534 1.194-1.194v-7.469c0-.659-.535-1.194-1.194-1.194h-7.468c-.66 0-1.195.535-1.195 1.194v7.469z"/><path d="M275.335 280.02h-7.468a1.537 1.537 0 0 1-1.536-1.535v-7.469c0-.846.689-1.535 1.536-1.535h7.468c.846 0 1.535.689 1.535 1.535v7.469c0 .846-.688 1.535-1.535 1.535zm-7.467-9.858a.855.855 0 0 0-.855.854v7.469c0 .471.383.854.855.854h7.468a.855.855 0 0 0 .854-.854v-7.469a.855.855 0 0 0-.854-.854h-7.468z"/></g><g fill="#CDD0E0"><path d="M251.965 278.484c0 .66.536 1.194 1.196 1.194h7.467c.66 0 1.195-.534 1.195-1.194v-7.469c0-.659-.535-1.194-1.195-1.194h-7.467c-.66 0-1.196.535-1.196 1.194v7.469z"/><path d="M260.628 280.02h-7.467a1.537 1.537 0 0 1-1.536-1.535v-7.469c0-.846.689-1.535 1.536-1.535h7.467c.846 0 1.536.689 1.536 1.535v7.469c0 .846-.69 1.535-1.536 1.535zm-7.467-9.858a.855.855 0 0 0-.855.854v7.469c0 .471.384.854.855.854h7.467a.855.855 0 0 0 .854-.854v-7.469a.855.855 0 0 0-.854-.854h-7.467z"/></g><g fill="#CDD0E0"><path d="M237.258 278.484c0 .66.535 1.194 1.194 1.194h7.468c.661 0 1.195-.534 1.195-1.194v-7.469c0-.659-.535-1.194-1.195-1.194h-7.468c-.659 0-1.194.535-1.194 1.194v7.469z"/><path d="M245.92 280.02h-7.468a1.536 1.536 0 0 1-1.535-1.535v-7.469c0-.846.688-1.535 1.535-1.535h7.468c.846 0 1.536.689 1.536 1.535v7.469c0 .846-.689 1.535-1.536 1.535zm-7.467-9.858a.855.855 0 0 0-.854.854v7.469c0 .471.383.854.854.854h7.468a.855.855 0 0 0 .855-.854v-7.469a.855.855 0 0 0-.855-.854h-7.468z"/></g><g fill="#CDD0E0"><path d="M213.866 278.484c0 .66 1.009 1.194 2.255 1.194h14.086c1.244 0 2.254-.534 2.254-1.194v-7.469c0-.659-1.01-1.194-2.254-1.194h-14.086c-1.246 0-2.255.535-2.255 1.194v7.469z"/><path d="M230.207 280.02h-14.086c-1.456 0-2.595-.675-2.595-1.535v-7.469c0-.861 1.14-1.535 2.595-1.535h14.086c1.454 0 2.595.674 2.595 1.535v7.469c-.001.86-1.141 1.535-2.595 1.535zm-14.086-9.858c-1.096 0-1.914.45-1.914.854v7.469c0 .402.818.854 1.914.854h14.086c1.095 0 1.914-.451 1.914-.854v-7.469c0-.403-.818-.854-1.914-.854h-14.086z"/></g><g fill="#67CBF4"><path d="M420.444 292.119c0 .719-.631 1.302-1.406 1.302h-26.234c-.775 0-1.406-.583-1.406-1.302v-7.38c0-.72.631-1.303 1.406-1.303h26.234c.775 0 1.406.583 1.406 1.303v7.38z"/><path d="M419.038 293.762h-26.234c-.963 0-1.746-.737-1.746-1.643v-7.38c0-.907.783-1.644 1.746-1.644h26.234c.963 0 1.746.736 1.746 1.644v7.38c0 .905-.784 1.643-1.746 1.643zm-26.235-9.985c-.586 0-1.066.431-1.066.962v7.38c0 .529.48.961 1.066.961h26.234c.588 0 1.064-.432 1.064-.961v-7.38c0-.531-.477-.962-1.064-.962h-26.234z"/></g><linearGradient id="b" gradientUnits="userSpaceOnUse" x1="274.758" y1="302.043" x2="345.106" y2="302.043"><stop offset="0" stop-color="#7379ba"/><stop offset="1" stop-color="#bc79b3"/></linearGradient><path fill="url(#b)" d="M345.106 305.734c0 .719-.611 1.301-1.363 1.301H276.12c-.752 0-1.362-.582-1.362-1.301v-7.38c0-.72.609-1.303 1.362-1.303h67.623c.752 0 1.363.583 1.363 1.303v7.38z"/><linearGradient id="c" gradientUnits="userSpaceOnUse" x1="274.418" y1="302.044" x2="345.446" y2="302.044"><stop offset="0" stop-color="#7379ba"/><stop offset="1" stop-color="#bc79b3"/></linearGradient><path fill="url(#c)" d="M343.743 307.377H276.12c-.938 0-1.703-.737-1.703-1.643v-7.38c0-.906.764-1.644 1.703-1.644h67.623c.939 0 1.703.737 1.703 1.644v7.38c0 .906-.764 1.643-1.703 1.643zm-67.623-9.984c-.563 0-1.021.432-1.021.962v7.38c0 .529.458.961 1.021.961h67.623c.564 0 1.023-.432 1.023-.961v-7.38c0-.53-.459-.962-1.023-.962H276.12z"/><linearGradient id="d" gradientUnits="userSpaceOnUse" x1="483.861" y1="307.116" x2="483.861" y2="220.12"><stop offset="0" stop-color="#f1f2f2"/><stop offset=".261" stop-color="#f5f5f6"/><stop offset="1" stop-color="#fff"/></linearGradient><path fill="url(#d)" d="M507.11 287.116c0 11.046-8.954 20-20 20h-6.497c-11.047 0-20-8.954-20-20V240.12c0-11.045 8.953-20 20-20h6.497c11.046 0 20 8.955 20 20v46.996z"/><path fill="#CDD0E0" d="M486.693 307.616h-6.497c-11.855 0-21.5-9.645-21.5-21.5V239.12c0-11.855 9.645-21.5 21.5-21.5h6.497c11.855 0 21.5 9.645 21.5 21.5v46.996c0 11.856-9.645 21.5-21.5 21.5zm-6.497-86.996c-10.201 0-18.5 8.299-18.5 18.5v46.996c0 10.201 8.299 18.5 18.5 18.5h6.497c10.201 0 18.5-8.299 18.5-18.5V239.12c0-10.201-8.299-18.5-18.5-18.5h-6.497z"/><path fill="#CDD0E0" d="M483.445 290.105a5.839 5.839 0 0 1-5.833-5.833 5.839 5.839 0 0 1 5.833-5.832 5.838 5.838 0 0 1 5.832 5.832 5.839 5.839 0 0 1-5.832 5.833zm0-8.665a2.836 2.836 0 0 0-2.833 2.832 2.836 2.836 0 0 0 2.833 2.833 2.836 2.836 0 0 0 2.832-2.833 2.836 2.836 0 0 0-2.832-2.832z"/><path fill="#FFF" d="M133.075 220.832c-23.458 0-42.542 19.085-42.542 42.543s19.084 42.543 42.542 42.543c23.458 0 42.542-19.085 42.542-42.543s-19.084-42.543-42.542-42.543z"/><path fill="#CDD0E0" d="M133.007 218.588c-24.792 0-44.961 20.169-44.961 44.961s20.169 44.962 44.961 44.962c24.792 0 44.962-20.17 44.962-44.962s-20.169-44.961-44.962-44.961zm0 86.856c-23.101 0-41.895-18.794-41.895-41.896s18.794-41.895 41.895-41.895 41.896 18.793 41.896 41.895-18.795 41.896-41.896 41.896z"/><path fill="#CDD0E0" d="M142.689 254.666c-13.219 0-23.974 10.756-23.974 23.975s10.755 23.975 23.974 23.975c13.22 0 23.975-10.756 23.975-23.975s-10.755-23.975-23.975-23.975z"/><path fill="#FFF" d="M108.778 264.434a3.794 3.794 0 0 1-3.793 3.793h-7.296a3.794 3.794 0 0 1 0-7.588h7.296a3.794 3.794 0 0 1 3.793 3.795z"/><path fill="#CDD0E0" d="M104.984 259.105h-7.296a5.334 5.334 0 0 0-5.327 5.328 5.333 5.333 0 0 0 5.327 5.326h7.296a5.333 5.333 0 0 0 5.327-5.326 5.334 5.334 0 0 0-5.327-5.328zm0 7.588h-7.296a2.263 2.263 0 0 1-2.26-2.26 2.264 2.264 0 0 1 2.26-2.262h7.296a2.261 2.261 0 0 1 0 4.522z"/><path fill="#FFF" d="M132.758 235.779c-15.149 0-27.475 12.325-27.475 27.475 0 15.148 12.326 27.475 27.475 27.475 15.149 0 27.474-12.326 27.474-27.475-.001-15.15-12.325-27.475-27.474-27.475z"/><radialGradient id="e" cx="135.711" cy="271.572" r="35.904" gradientTransform="matrix(1 0 0 1.0093 0 -2.518)" gradientUnits="userSpaceOnUse"><stop offset="0" stop-color="#5e4b8b"/><stop offset=".691" stop-color="#5e4b8b"/><stop offset=".731" stop-color="#5c4988"/><stop offset=".779" stop-color="#55447e"/><stop offset=".831" stop-color="#4a3c6e"/><stop offset=".887" stop-color="#3b2f58"/><stop offset=".944" stop-color="#271f3f"/><stop offset=".946" stop-color="#271f3e"/></radialGradient><path fill="url(#e)" d="M132.712 239.596c-13.045 0-23.658 10.613-23.658 23.658 0 13.044 10.613 23.657 23.658 23.657 13.044 0 23.657-10.613 23.657-23.657 0-13.045-10.613-23.658-23.657-23.658z"/><path fill="#CDD0E0" d="M132.712 233.951c-16.158 0-29.304 13.145-29.304 29.303 0 16.157 13.146 29.303 29.304 29.303 16.158 0 29.303-13.146 29.303-29.303.001-16.158-13.145-29.303-29.303-29.303zm0 55.539c-14.467 0-26.237-11.77-26.237-26.236s11.77-26.236 26.237-26.236c14.467 0 26.236 11.77 26.236 26.236s-11.769 26.236-26.236 26.236z"/><g fill="#CDD0E0"><path d="M61.509 325.364a2.862 2.862 0 0 1-2.035.937 2.866 2.866 0 0 1-2.062-.779 2.86 2.86 0 0 1-.906-2.01l-.626-20.037a2.861 2.861 0 0 1 .751-2.031 2.856 2.856 0 0 1 2.036-.937 2.883 2.883 0 0 1 2.969 2.788l.627 20.037a2.87 2.87 0 0 1-.754 2.032zm-4.059-23.173a1.76 1.76 0 0 0-.462 1.249l.627 20.037c.015.472.212.911.557 1.234s.794.493 1.267.479a1.76 1.76 0 0 0 1.251-.575c.313-.342.476-.785.462-1.248l-.627-20.038a1.77 1.77 0 0 0-3.075-1.138z"/><path d="M57.922 318.536l-.6-19.176a1.889 1.889 0 0 1 3.775-.118l.599 19.164.871-.029-.599-19.162a2.763 2.763 0 0 0-2.845-2.672 2.763 2.763 0 0 0-2.673 2.845l.601 19.18.871-.032zm-11.991-3.744a2.869 2.869 0 0 1-3.336.669 2.862 2.862 0 0 1-1.494-1.621 2.861 2.861 0 0 1 .091-2.202l8.43-18.188a2.87 2.87 0 0 1 3.823-1.402 2.885 2.885 0 0 1 1.402 3.824l-8.43 18.188a2.898 2.898 0 0 1-.486.732zm4.997-21.327a1.779 1.779 0 0 0-.299.451L42.2 312.104c-.199.429-.218.909-.056 1.353s.488.798.917.996a1.762 1.762 0 0 0 2.35-.861l8.429-18.188a1.774 1.774 0 0 0-.861-2.35 1.768 1.768 0 0 0-2.051.411z"/><path d="M44.691 307.826l8.067-17.406a1.892 1.892 0 0 1 2.508-.92 1.892 1.892 0 0 1 .919 2.508l-8.062 17.395.791.366 8.061-17.395a2.763 2.763 0 0 0-1.344-3.665 2.763 2.763 0 0 0-3.665 1.344l-8.069 17.41.794.363zm49.263 21.022a2.86 2.86 0 0 1-2.939.82l-19.234-5.651a2.865 2.865 0 0 1-1.716-1.384 2.86 2.86 0 0 1-.235-2.19c.125-.426.339-.806.636-1.131a2.864 2.864 0 0 1 2.939-.821l19.234 5.652a2.885 2.885 0 0 1 1.315 4.705zm-22.669-8.787a1.751 1.751 0 0 0-.389.693 1.76 1.76 0 0 0 .144 1.348 1.76 1.76 0 0 0 1.054.85l19.234 5.651a1.76 1.76 0 0 0 1.806-.504 1.77 1.77 0 0 0-.808-2.889l-19.233-5.652a1.758 1.758 0 0 0-1.808.503z"/><path d="M86.729 326.77l-18.406-5.408a1.89 1.89 0 0 1-1.28-2.344 1.89 1.89 0 0 1 2.344-1.28l18.395 5.406.245-.837-18.393-5.405a2.763 2.763 0 0 0-3.427 1.87 2.763 2.763 0 0 0 1.87 3.426l18.411 5.41c.078-.277.159-.555.241-.838zm-5.979-22.485a2.88 2.88 0 0 1-4.578-.429l-10.52-17.065a2.886 2.886 0 0 1 .94-3.962 2.86 2.86 0 0 1 2.175-.351 2.86 2.86 0 0 1 1.786 1.29l10.521 17.065a2.888 2.888 0 0 1-.324 3.452zm-13.955-20.199a1.776 1.776 0 0 0-.198 2.121l10.52 17.065c.249.402.638.684 1.098.793a1.763 1.763 0 0 0 1.716-.529c.529-.58.611-1.452.198-2.121l-10.521-17.064a1.753 1.753 0 0 0-1.097-.793 1.758 1.758 0 0 0-1.716.528z"/><path d="M74.923 298.833l-10.068-16.33a1.89 1.89 0 0 1 3.215-1.983l10.062 16.32.741-.458-10.06-16.318a2.762 2.762 0 0 0-3.798-.902 2.762 2.762 0 0 0-.901 3.798l10.07 16.335.739-.462z"/></g><path fill="#FFF" d="M496.096 165.479l7.206-4.806 58.351 87.506-7.206 4.805z"/><path fill="#5E4B8B" d="M521.261 186.991L503.59 160.49l-7.207 4.806 17.681 26.517c2.31-1.553 4.744-3.183 7.197-4.822zm34.837 64.907l4.838-3.225 3.445 5.169-4.838 3.224z"/><path fill="#CDD0E0" d="M564.495 248.507l-40.399-60.589.416-.278-20.271-30.4-11.107 7.406 2.053 3.078-4.646 3.099 16.594 24.885 4.646-3.098 1.641 2.461.415-.279 40.385 60.566 10.273-6.851zm-64.862-82.562l3.308-2.205 15.071 22.604c-1.114.745-2.219 1.484-3.303 2.211l-15.076-22.61zm21.396 24.022l38.353 57.518-4.139 2.76-38.347-57.51c1.354-.909 2.731-1.832 4.133-2.768zm-12.873.627l-12.503-18.75 1.578-1.053 12.503 18.75-1.578 1.053z"/></svg>