
<svg xmlns="http://www.w3.org/2000/svg" xmlns:xlink="http://www.w3.org/1999/xlink" width="739.031" height="367.264"><path fill="#FFF" d="M294.563 344.731H463.75v13.934H294.563z"/><path fill="#CDD0E0" d="M465.106 343.028v16.647H293.205v-16.647h171.901zm-2.714 13.934v-11.22H295.92v11.22h166.472z"/><path fill="#271F3E" d="M345.802 344.386h-51.239v13.933h51.268c-.018-4.475-.027-9.188-.029-13.933z"/><path fill="#CDD0E0" d="M347.193 359.676h-53.988v-16.647h53.952l.002 1.357c.002 4.743.012 9.453.028 13.928l.006 1.362zm-51.273-2.714h48.548c-.012-3.636-.02-7.41-.023-11.22H295.92v11.22z"/><path fill="#271F3E" d="M463.749 346.31h9.99v9.355h-9.99z"/><path fill="#CDD0E0" d="M475.097 344.953v12.068h-12.705v-12.068h12.705zm-2.715 9.355v-6.64h-7.275v6.64h7.275zm-174.03 5.383h2.715v5.64h-2.715zm42.183 0h2.714v5.64h-2.714z"/><path fill="#CDD0E0" d="M298.352 363.531h44.897v2.714h-44.897z"/><path fill="#FFF" d="M540.779 304.352a6.692 6.692 0 0 1-6.691 6.691H228.832a6.691 6.691 0 0 1-6.691-6.691V101.061a6.691 6.691 0 0 1 6.691-6.691h305.256a6.692 6.692 0 0 1 6.691 6.691v203.291z"/><path fill="#CDD0E0" d="M534.308 311.697H229.053c-4.48 0-8.125-3.646-8.125-8.125V100.281c0-4.479 3.645-8.125 8.125-8.125h305.255c4.479 0 8.126 3.646 8.126 8.125v203.291c0 4.48-3.647 8.125-8.126 8.125zM229.053 95.023a5.263 5.263 0 0 0-5.257 5.258v203.291a5.263 5.263 0 0 0 5.257 5.257h305.255a5.263 5.263 0 0 0 5.258-5.257V100.281a5.264 5.264 0 0 0-5.258-5.258H229.053z"/><defs><path id="a" d="M508.328 216.584a4.778 4.778 0 0 1-4.779 4.779h-243.44a4.778 4.778 0 0 1-4.779-4.779v-95.591c0-2.64 2.14-4.779 4.779-4.779h243.439c2.64 0 4.779 2.14 4.779 4.779v95.591z"/></defs><use xlink:href="#a" overflow="visible" fill="#CDD0E0"/><clipPath id="b"><use xlink:href="#a" overflow="visible"/></clipPath><path clip-path="url(#b)" fill="#CDD0E0" d="M255.33 116.214v105.149-105.149zm0 0h6.17v105.149h-6.17zm6.17 0h6.171v105.149H261.5zm6.171 0h6.17v105.149h-6.17zm6.171 0h6.171v105.149h-6.171zm6.171 0h6.17v105.149h-6.17zm6.17 0h6.171v105.149h-6.171zm6.171 0h6.17v105.149h-6.17zm6.171 0h6.171v105.149h-6.171zm6.171 0h6.17v105.149h-6.17zm6.17 0h6.17v105.149h-6.17zm6.171 0h6.171v105.149h-6.171zm6.171 0h6.17v105.149h-6.17zm6.17 0h6.171v105.149h-6.171zm6.171 0h6.171v105.149h-6.171zm6.171 0h6.171v105.149h-6.171zm6.171 0h6.17v105.149h-6.17zm6.17 0h6.17v105.149h-6.17zm6.17 0h6.171v105.149h-6.171zm6.171 0h6.17v105.149h-6.17zm6.17 0h6.171v105.149h-6.171zm6.171 0h6.172v105.149h-6.172zm6.172 0h6.171v105.149h-6.171zm6.171 0h6.17v105.149h-6.17z"/><path clip-path="url(#b)" fill="#CDD0E0" d="M397.256 116.214h6.171v105.149h-6.171zm6.171 0h6.17v105.149h-6.17zm6.17 0h6.171v105.149h-6.171zm6.171 0h6.17v105.149h-6.17zm6.17 0h6.171v105.149h-6.171z"/><path clip-path="url(#b)" fill="#CDD0E0" d="M428.108 116.214h6.171v105.149h-6.171zm6.171 0h6.172v105.149h-6.172zm6.172 0h6.171v105.149h-6.171zm6.171 0h6.17v105.149h-6.17z"/><path clip-path="url(#b)" fill="#CDD0E0" d="M452.792 116.214h6.171v105.149h-6.171zm6.171 0h6.17v105.149h-6.17zm6.17 0h6.171v105.149h-6.171zm6.171 0h6.171v105.149h-6.171zm6.171 0h6.17v105.149h-6.17zm6.17 0h6.171v105.149h-6.171z"/><path clip-path="url(#b)" fill="#CDD0E0" d="M489.815 116.214h6.172v105.149h-6.172zm6.172 0h6.171v105.149h-6.171zm6.171 0h6.17v105.149h-6.17zm6.17 105.149V116.214v105.149z"/><path fill="#271F3E" d="M263.295 130.394a1.436 1.436 0 0 1-1.434-1.434v-4.462c0-.79.643-1.434 1.434-1.434h11.153c.791 0 1.434.644 1.434 1.434v4.462c0 .79-.643 1.434-1.434 1.434h-11.153z"/><path fill="#FFF" d="M274.448 123.543c.527 0 .956.428.956.955v4.462a.958.958 0 0 1-.956.956h-11.153a.958.958 0 0 1-.956-.956v-4.462c0-.527.428-.955.956-.955h11.153m0-.956h-11.153a1.911 1.911 0 0 0-1.912 1.911v4.462c0 1.056.856 1.911 1.912 1.911h11.153a1.911 1.911 0 0 0 1.912-1.911v-4.462a1.911 1.911 0 0 0-1.912-1.911z"/><path fill="#271F3E" d="M280.648 130.394a1.436 1.436 0 0 1-1.434-1.434v-4.462c0-.79.643-1.434 1.434-1.434h11.154c.791 0 1.434.644 1.434 1.434v4.462c0 .79-.643 1.434-1.434 1.434h-11.154z"/><path fill="#FFF" d="M291.802 123.543c.527 0 .956.428.956.955v4.462a.957.957 0 0 1-.956.956h-11.154a.958.958 0 0 1-.956-.956v-4.462c0-.527.429-.955.956-.955h11.154m0-.956h-11.154a1.912 1.912 0 0 0-1.912 1.911v4.462c0 1.056.857 1.911 1.912 1.911h11.154a1.912 1.912 0 0 0 1.912-1.911v-4.462a1.912 1.912 0 0 0-1.912-1.911z"/><path fill="#271F3E" d="M298.002 130.394a1.436 1.436 0 0 1-1.434-1.434v-4.462c0-.79.644-1.434 1.434-1.434h11.153c.791 0 1.434.644 1.434 1.434v4.462c0 .79-.643 1.434-1.434 1.434h-11.153z"/><path fill="#FFF" d="M309.155 123.543c.527 0 .956.428.956.955v4.462a.957.957 0 0 1-.956.956h-11.153a.958.958 0 0 1-.956-.956v-4.462c0-.527.429-.955.956-.955h11.153m0-.956h-11.153a1.911 1.911 0 0 0-1.912 1.911v4.462c0 1.056.856 1.911 1.912 1.911h11.153a1.911 1.911 0 0 0 1.912-1.911v-4.462a1.911 1.911 0 0 0-1.912-1.911z"/><path fill="#271F3E" d="M315.356 130.394a1.436 1.436 0 0 1-1.434-1.434v-4.462c0-.79.643-1.434 1.434-1.434h11.152c.791 0 1.434.644 1.434 1.434v4.462c0 .79-.643 1.434-1.434 1.434h-11.152z"/><path fill="#FFF" d="M326.509 123.543c.527 0 .956.428.956.955v4.462a.958.958 0 0 1-.956.956h-11.152a.958.958 0 0 1-.956-.956v-4.462c0-.527.429-.955.956-.955h11.152m0-.956h-11.152a1.911 1.911 0 0 0-1.912 1.911v4.462c0 1.056.856 1.911 1.912 1.911h11.152a1.911 1.911 0 0 0 1.912-1.911v-4.462a1.912 1.912 0 0 0-1.912-1.911z"/><path fill="#271F3E" d="M332.709 130.394a1.436 1.436 0 0 1-1.434-1.434v-4.462c0-.79.643-1.434 1.434-1.434h11.152c.791 0 1.434.644 1.434 1.434v4.462c0 .79-.644 1.434-1.434 1.434h-11.152z"/><path fill="#FFF" d="M343.862 123.543c.527 0 .956.428.956.955v4.462a.958.958 0 0 1-.956.956H332.71a.957.957 0 0 1-.956-.956v-4.462c0-.527.428-.955.956-.955h11.152m0-.956H332.71a1.911 1.911 0 0 0-1.912 1.911v4.462c0 1.056.856 1.911 1.912 1.911h11.152a1.911 1.911 0 0 0 1.912-1.911v-4.462a1.912 1.912 0 0 0-1.912-1.911z"/><path fill="#271F3E" d="M350.063 130.394a1.436 1.436 0 0 1-1.434-1.434v-4.462c0-.79.643-1.434 1.434-1.434h11.153c.791 0 1.434.644 1.434 1.434v4.462c0 .79-.643 1.434-1.434 1.434h-11.153z"/><path fill="#FFF" d="M361.216 123.543c.527 0 .956.428.956.955v4.462a.958.958 0 0 1-.956.956h-11.153a.958.958 0 0 1-.956-.956v-4.462c0-.527.428-.955.956-.955h11.153m0-.956h-11.153a1.911 1.911 0 0 0-1.912 1.911v4.462c0 1.056.856 1.911 1.912 1.911h11.153a1.911 1.911 0 0 0 1.912-1.911v-4.462a1.912 1.912 0 0 0-1.912-1.911z"/><path fill="#271F3E" d="M367.416 130.394a1.436 1.436 0 0 1-1.434-1.434v-4.462c0-.79.643-1.434 1.434-1.434h11.153c.79 0 1.434.644 1.434 1.434v4.462c0 .79-.644 1.434-1.434 1.434h-11.153z"/><path fill="#FFF" d="M378.569 123.543c.526 0 .956.428.956.955v4.462c0 .526-.43.956-.956.956h-11.153a.958.958 0 0 1-.956-.956v-4.462c0-.527.429-.955.956-.955h11.153m0-.956h-11.153a1.911 1.911 0 0 0-1.912 1.911v4.462c0 1.056.856 1.911 1.912 1.911h11.153a1.912 1.912 0 0 0 1.912-1.911v-4.462a1.912 1.912 0 0 0-1.912-1.911z"/><path fill="#271F3E" d="M384.77 130.394c-.79 0-1.434-.644-1.434-1.434v-4.462c0-.79.644-1.434 1.434-1.434h11.153c.79 0 1.435.644 1.435 1.434v4.462c0 .79-.645 1.434-1.435 1.434H384.77z"/><path fill="#FFF" d="M395.923 123.543c.526 0 .956.428.956.955v4.462c0 .526-.43.956-.956.956H384.77a.959.959 0 0 1-.956-.956v-4.462c0-.527.43-.955.956-.955h11.153m0-.956H384.77a1.912 1.912 0 0 0-1.912 1.911v4.462c0 1.056.857 1.911 1.912 1.911h11.153a1.912 1.912 0 0 0 1.912-1.911v-4.462a1.912 1.912 0 0 0-1.912-1.911z"/><path fill="#271F3E" d="M402.123 130.394a1.436 1.436 0 0 1-1.434-1.434v-4.462c0-.79.643-1.434 1.434-1.434h11.152c.791 0 1.434.644 1.434 1.434v4.462c0 .79-.643 1.434-1.434 1.434h-11.152z"/><path fill="#FFF" d="M413.275 123.543c.528 0 .955.428.955.955v4.462a.956.956 0 0 1-.955.956h-11.152a.956.956 0 0 1-.955-.956v-4.462c0-.527.427-.955.955-.955h11.152m0-.956h-11.152a1.91 1.91 0 0 0-1.911 1.911v4.462a1.91 1.91 0 0 0 1.911 1.911h11.152a1.91 1.91 0 0 0 1.911-1.911v-4.462a1.909 1.909 0 0 0-1.911-1.911z"/><path fill="#271F3E" d="M419.478 130.394a1.436 1.436 0 0 1-1.435-1.434v-4.462c0-.79.643-1.434 1.435-1.434h11.151c.792 0 1.434.644 1.434 1.434v4.462c0 .79-.642 1.434-1.434 1.434h-11.151z"/><path fill="#FFF" d="M430.629 123.543c.528 0 .956.428.956.955v4.462a.957.957 0 0 1-.956.956h-11.151a.957.957 0 0 1-.956-.956v-4.462c0-.527.428-.955.956-.955h11.151m0-.956h-11.151a1.91 1.91 0 0 0-1.912 1.911v4.462a1.91 1.91 0 0 0 1.912 1.911h11.151a1.91 1.91 0 0 0 1.912-1.911v-4.462a1.91 1.91 0 0 0-1.912-1.911z"/><path fill="#271F3E" d="M436.829 130.394c-.79 0-1.434-.644-1.434-1.434v-4.462c0-.79.644-1.434 1.434-1.434h11.153c.79 0 1.435.644 1.435 1.434v4.462c0 .79-.645 1.434-1.435 1.434h-11.153z"/><path fill="#FFF" d="M447.982 123.543c.527 0 .956.428.956.955v4.462a.958.958 0 0 1-.956.956h-11.153a.959.959 0 0 1-.956-.956v-4.462c0-.527.43-.955.956-.955h11.153m0-.956h-11.153a1.91 1.91 0 0 0-1.911 1.911v4.462a1.91 1.91 0 0 0 1.911 1.911h11.153a1.911 1.911 0 0 0 1.912-1.911v-4.462a1.91 1.91 0 0 0-1.912-1.911z"/><path fill="#271F3E" d="M454.184 130.394c-.79 0-1.435-.644-1.435-1.434v-4.462c0-.79.645-1.434 1.435-1.434h11.153c.79 0 1.434.644 1.434 1.434v4.462c0 .79-.644 1.434-1.434 1.434h-11.153z"/><path fill="#FFF" d="M465.337 123.543c.526 0 .956.428.956.955v4.462c0 .526-.43.956-.956.956h-11.153a.958.958 0 0 1-.956-.956v-4.462c0-.527.429-.955.956-.955h11.153m0-.956h-11.153a1.911 1.911 0 0 0-1.912 1.911v4.462c0 1.056.856 1.911 1.912 1.911h11.153a1.91 1.91 0 0 0 1.911-1.911v-4.462a1.91 1.91 0 0 0-1.911-1.911z"/><path fill="#271F3E" d="M471.537 130.394c-.79 0-1.434-.644-1.434-1.434v-4.462c0-.79.644-1.434 1.434-1.434h11.151c.792 0 1.435.644 1.435 1.434v4.462c0 .79-.643 1.434-1.435 1.434h-11.151z"/><path fill="#FFF" d="M482.688 123.543c.528 0 .956.428.956.955v4.462a.957.957 0 0 1-.956.956h-11.151a.959.959 0 0 1-.956-.956v-4.462c0-.527.43-.955.956-.955h11.151m0-.956h-11.151a1.91 1.91 0 0 0-1.912 1.911v4.462a1.91 1.91 0 0 0 1.912 1.911h11.151a1.91 1.91 0 0 0 1.912-1.911v-4.462a1.91 1.91 0 0 0-1.912-1.911z"/><path fill="#271F3E" d="M488.891 130.394a1.436 1.436 0 0 1-1.434-1.434v-4.462c0-.79.643-1.434 1.434-1.434h11.152c.791 0 1.434.644 1.434 1.434v4.462c0 .79-.643 1.434-1.434 1.434h-11.152z"/><path fill="#FFF" d="M500.043 123.543c.528 0 .955.428.955.955v4.462a.956.956 0 0 1-.955.956h-11.152a.956.956 0 0 1-.955-.956v-4.462c0-.527.427-.955.955-.955h11.152m0-.956h-11.152a1.91 1.91 0 0 0-1.911 1.911v4.462a1.91 1.91 0 0 0 1.911 1.911h11.152a1.91 1.91 0 0 0 1.911-1.911v-4.462a1.91 1.91 0 0 0-1.911-1.911z"/><path fill="#271F3E" d="M262.977 147.28a1.435 1.435 0 0 1-1.434-1.434v-11.152c0-.791.643-1.435 1.434-1.435h11.152c.791 0 1.434.644 1.434 1.435v11.152c0 .791-.644 1.434-1.434 1.434h-11.152z"/><path fill="#FFF" d="M274.129 133.738c.527 0 .956.429.956.956v11.152a.958.958 0 0 1-.956.956h-11.152a.957.957 0 0 1-.956-.956v-11.152c0-.527.428-.956.956-.956h11.152m0-.956h-11.152a1.912 1.912 0 0 0-1.912 1.912v11.152c0 1.056.856 1.912 1.912 1.912h11.152a1.912 1.912 0 0 0 1.912-1.912v-11.152a1.913 1.913 0 0 0-1.912-1.912z"/><path fill="#271F3E" d="M279.717 147.28a1.435 1.435 0 0 1-1.434-1.434v-11.152c0-.791.643-1.435 1.434-1.435h11.153c.791 0 1.434.644 1.434 1.435v11.152c0 .791-.643 1.434-1.434 1.434h-11.153z"/><path fill="#FFF" d="M290.87 133.738c.527 0 .956.429.956.956v11.152a.957.957 0 0 1-.956.956h-11.153a.958.958 0 0 1-.956-.956v-11.152c0-.527.429-.956.956-.956h11.153m0-.956h-11.153a1.912 1.912 0 0 0-1.912 1.912v11.152c0 1.056.856 1.912 1.912 1.912h11.153a1.912 1.912 0 0 0 1.912-1.912v-11.152a1.914 1.914 0 0 0-1.912-1.912z"/><path fill="#271F3E" d="M296.458 147.28a1.435 1.435 0 0 1-1.434-1.434v-11.152c0-.791.644-1.435 1.434-1.435h11.152c.791 0 1.434.644 1.434 1.435v11.152c0 .791-.643 1.434-1.434 1.434h-11.152z"/><path fill="#FFF" d="M307.61 133.738c.528 0 .956.429.956.956v11.152a.957.957 0 0 1-.956.956h-11.152a.958.958 0 0 1-.956-.956v-11.152c0-.527.429-.956.956-.956h11.152m0-.956h-11.152a1.912 1.912 0 0 0-1.912 1.912v11.152c0 1.056.856 1.912 1.912 1.912h11.152a1.912 1.912 0 0 0 1.912-1.912v-11.152a1.913 1.913 0 0 0-1.912-1.912z"/><path fill="#271F3E" d="M313.198 147.28a1.435 1.435 0 0 1-1.434-1.434v-11.152c0-.791.643-1.435 1.434-1.435h11.153c.791 0 1.434.644 1.434 1.435v11.152c0 .791-.644 1.434-1.434 1.434h-11.153z"/><path fill="#FFF" d="M324.352 133.738c.527 0 .956.429.956.956v11.152a.958.958 0 0 1-.956.956h-11.153a.957.957 0 0 1-.956-.956v-11.152c0-.527.428-.956.956-.956h11.153m0-.956h-11.153a1.913 1.913 0 0 0-1.912 1.912v11.152c0 1.056.857 1.912 1.912 1.912h11.153a1.913 1.913 0 0 0 1.912-1.912v-11.152a1.915 1.915 0 0 0-1.912-1.912z"/><path fill="#271F3E" d="M329.939 147.28a1.435 1.435 0 0 1-1.434-1.434v-11.152c0-.791.643-1.435 1.434-1.435h11.153c.791 0 1.434.644 1.434 1.435v11.152c0 .791-.643 1.434-1.434 1.434h-11.153z"/><path fill="#FFF" d="M341.092 133.738c.527 0 .956.429.956.956v11.152a.957.957 0 0 1-.956.956h-11.153a.958.958 0 0 1-.956-.956v-11.152c0-.527.429-.956.956-.956h11.153m0-.956h-11.153a1.912 1.912 0 0 0-1.912 1.912v11.152c0 1.056.856 1.912 1.912 1.912h11.153a1.912 1.912 0 0 0 1.912-1.912v-11.152a1.913 1.913 0 0 0-1.912-1.912z"/><path fill="#271F3E" d="M346.68 147.28a1.435 1.435 0 0 1-1.434-1.434v-11.152c0-.791.644-1.435 1.434-1.435h11.152c.791 0 1.434.644 1.434 1.435v11.152c0 .791-.643 1.434-1.434 1.434H346.68z"/><path fill="#FFF" d="M357.833 133.738c.528 0 .956.429.956.956v11.152a.957.957 0 0 1-.956.956H346.68a.958.958 0 0 1-.956-.956v-11.152c0-.527.429-.956.956-.956h11.153m0-.956H346.68a1.912 1.912 0 0 0-1.912 1.912v11.152c0 1.056.856 1.912 1.912 1.912h11.152a1.912 1.912 0 0 0 1.912-1.912v-11.152a1.911 1.911 0 0 0-1.911-1.912z"/><path fill="#271F3E" d="M363.421 147.28a1.435 1.435 0 0 1-1.434-1.434v-11.152c0-.791.643-1.435 1.434-1.435h11.152c.79 0 1.435.644 1.435 1.435v11.152c0 .791-.645 1.434-1.435 1.434h-11.152z"/><path fill="#FFF" d="M374.573 133.738c.527 0 .956.429.956.956v11.152a.958.958 0 0 1-.956.956h-11.152a.957.957 0 0 1-.956-.956v-11.152c0-.527.428-.956.956-.956h11.152m0-.956h-11.152a1.912 1.912 0 0 0-1.912 1.912v11.152c0 1.056.856 1.912 1.912 1.912h11.152a1.912 1.912 0 0 0 1.912-1.912v-11.152a1.913 1.913 0 0 0-1.912-1.912z"/><path fill="#271F3E" d="M380.162 147.28a1.435 1.435 0 0 1-1.435-1.434v-11.152c0-.791.643-1.435 1.435-1.435h11.151c.792 0 1.434.644 1.434 1.435v11.152c0 .791-.642 1.434-1.434 1.434h-11.151z"/><path fill="#FFF" d="M391.313 133.738c.528 0 .956.429.956.956v11.152a.957.957 0 0 1-.956.956h-11.151a.957.957 0 0 1-.956-.956v-11.152c0-.527.428-.956.956-.956h11.151m0-.956h-11.151a1.911 1.911 0 0 0-1.912 1.912v11.152c0 1.056.855 1.912 1.912 1.912h11.151a1.911 1.911 0 0 0 1.912-1.912v-11.152a1.911 1.911 0 0 0-1.912-1.912z"/><path fill="#271F3E" d="M396.901 147.28c-.79 0-1.434-.643-1.434-1.434v-11.152c0-.791.644-1.435 1.434-1.435h11.153c.79 0 1.434.644 1.434 1.435v11.152c0 .791-.644 1.434-1.434 1.434h-11.153z"/><path fill="#FFF" d="M408.055 133.738c.526 0 .956.429.956.956v11.152c0 .526-.43.956-.956.956h-11.153a.959.959 0 0 1-.956-.956v-11.152c0-.527.43-.956.956-.956h11.153m0-.956h-11.153a1.913 1.913 0 0 0-1.912 1.912v11.152c0 1.056.857 1.912 1.912 1.912h11.153a1.913 1.913 0 0 0 1.912-1.912v-11.152a1.914 1.914 0 0 0-1.912-1.912z"/><path fill="#271F3E" d="M413.643 147.28a1.435 1.435 0 0 1-1.434-1.434v-11.152c0-.791.643-1.435 1.434-1.435h11.152c.791 0 1.434.644 1.434 1.435v11.152c0 .791-.643 1.434-1.434 1.434h-11.152z"/><path fill="#FFF" d="M424.795 133.738c.528 0 .955.429.955.956v11.152a.956.956 0 0 1-.955.956h-11.152a.957.957 0 0 1-.956-.956v-11.152c0-.527.428-.956.956-.956h11.152m0-.956h-11.152a1.91 1.91 0 0 0-1.911 1.912v11.152a1.91 1.91 0 0 0 1.911 1.912h11.152a1.91 1.91 0 0 0 1.911-1.912v-11.152a1.911 1.911 0 0 0-1.911-1.912z"/><path fill="#271F3E" d="M430.383 147.28c-.79 0-1.435-.643-1.435-1.434v-11.152c0-.791.645-1.435 1.435-1.435h11.153c.792 0 1.434.644 1.434 1.435v11.152c0 .791-.642 1.434-1.434 1.434h-11.153z"/><path fill="#FFF" d="M441.536 133.738c.528 0 .956.429.956.956v11.152a.957.957 0 0 1-.956.956h-11.153a.959.959 0 0 1-.956-.956v-11.152c0-.527.43-.956.956-.956h11.153m0-.956h-11.153a1.913 1.913 0 0 0-1.912 1.912v11.152c0 1.056.857 1.912 1.912 1.912h11.153a1.913 1.913 0 0 0 1.912-1.912v-11.152a1.913 1.913 0 0 0-1.912-1.912z"/><path fill="#271F3E" d="M447.124 147.28c-.79 0-1.434-.643-1.434-1.434v-11.152c0-.791.644-1.435 1.434-1.435h11.153c.79 0 1.434.644 1.434 1.435v11.152c0 .791-.644 1.434-1.434 1.434h-11.153z"/><path fill="#FFF" d="M458.277 133.738c.526 0 .956.429.956.956v11.152c0 .526-.43.956-.956.956h-11.153a.959.959 0 0 1-.956-.956v-11.152c0-.527.43-.956.956-.956h11.153m0-.956h-11.153a1.913 1.913 0 0 0-1.912 1.912v11.152c0 1.056.857 1.912 1.912 1.912h11.153a1.913 1.913 0 0 0 1.912-1.912v-11.152a1.913 1.913 0 0 0-1.912-1.912z"/><path fill="#271F3E" d="M463.865 147.28a1.435 1.435 0 0 1-1.434-1.434v-11.152c0-.791.643-1.435 1.434-1.435h11.152c.791 0 1.434.644 1.434 1.435v11.152c0 .791-.643 1.434-1.434 1.434h-11.152z"/><path fill="#FFF" d="M475.018 133.738c.528 0 .955.429.955.956v11.152a.956.956 0 0 1-.955.956h-11.152a.957.957 0 0 1-.956-.956v-11.152c0-.527.428-.956.956-.956h11.152m0-.956h-11.152a1.91 1.91 0 0 0-1.911 1.912v11.152a1.91 1.91 0 0 0 1.911 1.912h11.152a1.91 1.91 0 0 0 1.911-1.912v-11.152a1.912 1.912 0 0 0-1.911-1.912z"/><path fill="#271F3E" d="M480.605 147.28c-.79 0-1.435-.643-1.435-1.434v-11.152c0-.791.645-1.435 1.435-1.435h19.757c.789 0 1.434.644 1.434 1.435v11.152c0 .791-.645 1.434-1.434 1.434h-19.757z"/><path fill="#FFF" d="M500.362 133.738c.526 0 .955.429.955.956v11.152a.958.958 0 0 1-.955.956h-19.757a.959.959 0 0 1-.956-.956v-11.152c0-.527.43-.956.956-.956h19.757m0-.956h-19.757a1.913 1.913 0 0 0-1.912 1.912v11.152c0 1.056.857 1.912 1.912 1.912h19.757a1.912 1.912 0 0 0 1.911-1.912v-11.152a1.912 1.912 0 0 0-1.911-1.912z"/><path fill="#271F3E" d="M489.208 163.531a1.437 1.437 0 0 1-1.434-1.434v-11.153c0-.79.645-1.434 1.434-1.434h11.154c.789 0 1.434.644 1.434 1.434v11.153c0 .79-.645 1.434-1.434 1.434h-11.154z"/><path fill="#FFF" d="M500.362 149.988c.526 0 .955.429.955.956v11.153a.957.957 0 0 1-.955.955h-11.154a.958.958 0 0 1-.956-.955v-11.153c0-.527.43-.956.956-.956h11.154m0-.955h-11.154a1.91 1.91 0 0 0-1.911 1.911v11.153a1.91 1.91 0 0 0 1.911 1.911h11.154a1.91 1.91 0 0 0 1.911-1.911v-11.153a1.912 1.912 0 0 0-1.911-1.911z"/><path fill="#271F3E" d="M472.469 163.531a1.435 1.435 0 0 1-1.434-1.434v-11.153c0-.79.642-1.434 1.434-1.434h11.151c.792 0 1.435.644 1.435 1.434v11.153c0 .79-.643 1.434-1.435 1.434h-11.151z"/><path fill="#FFF" d="M483.62 149.988c.528 0 .956.429.956.956v11.153a.956.956 0 0 1-.956.955h-11.151a.956.956 0 0 1-.956-.955v-11.153c0-.527.428-.956.956-.956h11.151m0-.955h-11.151a1.91 1.91 0 0 0-1.912 1.911v11.153a1.91 1.91 0 0 0 1.912 1.911h11.151a1.91 1.91 0 0 0 1.912-1.911v-11.153a1.911 1.911 0 0 0-1.912-1.911z"/><path fill="#271F3E" d="M455.728 163.531c-.79 0-1.435-.644-1.435-1.434v-11.153c0-.79.645-1.434 1.435-1.434h11.153c.79 0 1.434.644 1.434 1.434v11.153c0 .79-.644 1.434-1.434 1.434h-11.153z"/><path fill="#FFF" d="M466.881 149.988c.526 0 .956.429.956.956v11.153c0 .526-.43.955-.956.955h-11.153a.958.958 0 0 1-.956-.955v-11.153c0-.527.43-.956.956-.956h11.153m0-.955h-11.153a1.911 1.911 0 0 0-1.912 1.911v11.153c0 1.056.856 1.911 1.912 1.911h11.153a1.912 1.912 0 0 0 1.912-1.911v-11.153a1.912 1.912 0 0 0-1.912-1.911z"/><path fill="#271F3E" d="M438.985 163.531a1.437 1.437 0 0 1-1.434-1.434v-11.153c0-.79.645-1.434 1.434-1.434h11.154c.791 0 1.434.644 1.434 1.434v11.153c0 .79-.643 1.434-1.434 1.434h-11.154z"/><path fill="#FFF" d="M450.14 149.988c.528 0 .955.429.955.956v11.153a.956.956 0 0 1-.955.955h-11.154a.958.958 0 0 1-.956-.955v-11.153c0-.527.43-.956.956-.956h11.154m0-.955h-11.154a1.91 1.91 0 0 0-1.911 1.911v11.153a1.91 1.91 0 0 0 1.911 1.911h11.154a1.91 1.91 0 0 0 1.911-1.911v-11.153a1.912 1.912 0 0 0-1.911-1.911z"/><path fill="#271F3E" d="M422.246 163.531a1.435 1.435 0 0 1-1.434-1.434v-11.153c0-.79.642-1.434 1.434-1.434h11.151c.792 0 1.435.644 1.435 1.434v11.153c0 .79-.643 1.434-1.435 1.434h-11.151z"/><path fill="#FFF" d="M433.397 149.988c.528 0 .956.429.956.956v11.153a.956.956 0 0 1-.956.955h-11.151a.956.956 0 0 1-.956-.955v-11.153c0-.527.428-.956.956-.956h11.151m0-.955h-11.151a1.91 1.91 0 0 0-1.912 1.911v11.153a1.91 1.91 0 0 0 1.912 1.911h11.151a1.91 1.91 0 0 0 1.912-1.911v-11.153a1.91 1.91 0 0 0-1.912-1.911z"/><path fill="#271F3E" d="M405.505 163.531c-.79 0-1.435-.644-1.435-1.434v-11.153c0-.79.645-1.434 1.435-1.434h11.153c.79 0 1.434.644 1.434 1.434v11.153c0 .79-.644 1.434-1.434 1.434h-11.153z"/><path fill="#FFF" d="M416.658 149.988c.526 0 .956.429.956.956v11.153c0 .526-.43.955-.956.955h-11.153a.958.958 0 0 1-.956-.955v-11.153c0-.527.43-.956.956-.956h11.153m0-.955h-11.153a1.911 1.911 0 0 0-1.912 1.911v11.153c0 1.056.856 1.911 1.912 1.911h11.153a1.912 1.912 0 0 0 1.912-1.911v-11.153a1.912 1.912 0 0 0-1.912-1.911z"/><path fill="#271F3E" d="M388.765 163.531a1.436 1.436 0 0 1-1.434-1.434v-11.153c0-.79.643-1.434 1.434-1.434h11.152c.791 0 1.434.644 1.434 1.434v11.153c0 .79-.643 1.434-1.434 1.434h-11.152z"/><path fill="#FFF" d="M399.917 149.988c.528 0 .955.429.955.956v11.153a.956.956 0 0 1-.955.955h-11.152a.956.956 0 0 1-.956-.955v-11.153c0-.527.428-.956.956-.956h11.152m0-.955h-11.152a1.91 1.91 0 0 0-1.911 1.911v11.153a1.91 1.91 0 0 0 1.911 1.911h11.152a1.91 1.91 0 0 0 1.911-1.911v-11.153a1.91 1.91 0 0 0-1.911-1.911z"/><path fill="#271F3E" d="M372.023 163.531c-.79 0-1.434-.644-1.434-1.434v-11.153c0-.79.644-1.434 1.434-1.434h11.153c.79 0 1.434.644 1.434 1.434v11.153c0 .79-.644 1.434-1.434 1.434h-11.153z"/><path fill="#FFF" d="M383.177 149.988c.526 0 .956.429.956.956v11.153c0 .526-.43.955-.956.955h-11.153a.956.956 0 0 1-.955-.955v-11.153c0-.527.428-.956.955-.956h11.153m0-.955h-11.153a1.91 1.91 0 0 0-1.911 1.911v11.153a1.91 1.91 0 0 0 1.911 1.911h11.153a1.912 1.912 0 0 0 1.912-1.911v-11.153a1.913 1.913 0 0 0-1.912-1.911z"/><path fill="#271F3E" d="M355.283 163.531a1.436 1.436 0 0 1-1.434-1.434v-11.153c0-.79.643-1.434 1.434-1.434h11.153c.791 0 1.434.644 1.434 1.434v11.153c0 .79-.643 1.434-1.434 1.434h-11.153z"/><path fill="#FFF" d="M366.436 149.988c.527 0 .956.429.956.956v11.153a.956.956 0 0 1-.956.955h-11.153a.957.957 0 0 1-.956-.955v-11.153c0-.527.429-.956.956-.956h11.153m0-.955h-11.153a1.911 1.911 0 0 0-1.912 1.911v11.153c0 1.056.856 1.911 1.912 1.911h11.153a1.911 1.911 0 0 0 1.912-1.911v-11.153a1.912 1.912 0 0 0-1.912-1.911z"/><path fill="#271F3E" d="M338.543 163.531a1.436 1.436 0 0 1-1.434-1.434v-11.153c0-.79.643-1.434 1.434-1.434h11.152c.791 0 1.434.644 1.434 1.434v11.153c0 .79-.644 1.434-1.434 1.434h-11.152z"/><path fill="#FFF" d="M349.695 149.988c.527 0 .956.429.956.956v11.153a.957.957 0 0 1-.956.955h-11.152a.956.956 0 0 1-.956-.955v-11.153c0-.527.428-.956.956-.956h11.152m0-.955h-11.152a1.911 1.911 0 0 0-1.912 1.911v11.153c0 1.056.856 1.911 1.912 1.911h11.152a1.911 1.911 0 0 0 1.912-1.911v-11.153a1.912 1.912 0 0 0-1.912-1.911z"/><path fill="#271F3E" d="M321.801 163.531a1.436 1.436 0 0 1-1.434-1.434v-11.153c0-.79.644-1.434 1.434-1.434h11.153c.791 0 1.434.644 1.434 1.434v11.153c0 .79-.643 1.434-1.434 1.434h-11.153z"/><path fill="#FFF" d="M332.955 149.988c.528 0 .956.429.956.956v11.153a.956.956 0 0 1-.956.955h-11.153a.957.957 0 0 1-.956-.955v-11.153c0-.527.429-.956.956-.956h11.153m0-.955h-11.153a1.912 1.912 0 0 0-1.912 1.911v11.153c0 1.056.857 1.911 1.912 1.911h11.153a1.912 1.912 0 0 0 1.912-1.911v-11.153a1.912 1.912 0 0 0-1.912-1.911z"/><path fill="#271F3E" d="M305.061 163.531a1.436 1.436 0 0 1-1.434-1.434v-11.153c0-.79.643-1.434 1.434-1.434h11.153c.791 0 1.434.644 1.434 1.434v11.153c0 .79-.643 1.434-1.434 1.434h-11.153z"/><path fill="#FFF" d="M316.213 149.988c.527 0 .956.429.956.956v11.153a.956.956 0 0 1-.956.955H305.06a.957.957 0 0 1-.956-.955v-11.153c0-.527.428-.956.956-.956h11.153m0-.955H305.06a1.911 1.911 0 0 0-1.912 1.911v11.153c0 1.056.856 1.911 1.912 1.911h11.153a1.911 1.911 0 0 0 1.912-1.911v-11.153a1.912 1.912 0 0 0-1.912-1.911z"/><path fill="#271F3E" d="M288.32 163.531a1.436 1.436 0 0 1-1.434-1.434v-11.153c0-.79.643-1.434 1.434-1.434h11.152c.791 0 1.434.644 1.434 1.434v11.153c0 .79-.644 1.434-1.434 1.434H288.32z"/><path fill="#FFF" d="M299.473 149.988c.527 0 .956.429.956.956v11.153a.957.957 0 0 1-.956.955H288.32a.956.956 0 0 1-.956-.955v-11.153c0-.527.428-.956.956-.956h11.153m0-.955H288.32a1.911 1.911 0 0 0-1.912 1.911v11.153c0 1.056.856 1.911 1.912 1.911h11.152a1.911 1.911 0 0 0 1.912-1.911v-11.153a1.91 1.91 0 0 0-1.911-1.911z"/><path fill="#271F3E" d="M292.462 180.1a1.435 1.435 0 0 1-1.434-1.434v-11.152c0-.791.643-1.434 1.434-1.434h11.153c.791 0 1.434.643 1.434 1.434v11.152c0 .791-.643 1.434-1.434 1.434h-11.153z"/><path fill="#FFF" d="M303.615 166.558c.527 0 .956.43.956.956v11.152a.957.957 0 0 1-.956.956h-11.153a.957.957 0 0 1-.956-.956v-11.152c0-.526.428-.956.956-.956h11.153m0-.956h-11.153a1.912 1.912 0 0 0-1.912 1.912v11.152c0 1.056.856 1.912 1.912 1.912h11.153a1.912 1.912 0 0 0 1.912-1.912v-11.152a1.913 1.913 0 0 0-1.912-1.912z"/><path fill="#271F3E" d="M300.746 196.351a1.436 1.436 0 0 1-1.434-1.435v-11.152c0-.79.643-1.434 1.434-1.434h11.152c.791 0 1.434.644 1.434 1.434v11.152c0 .791-.643 1.435-1.434 1.435h-11.152z"/><path fill="#FFF" d="M311.898 182.808c.527 0 .956.43.956.956v11.152a.957.957 0 0 1-.956.956h-11.152a.957.957 0 0 1-.956-.956v-11.152c0-.526.429-.956.956-.956h11.152m0-.956h-11.152a1.912 1.912 0 0 0-1.912 1.912v11.152c0 1.057.856 1.912 1.912 1.912h11.152a1.911 1.911 0 0 0 1.912-1.912v-11.152a1.91 1.91 0 0 0-1.912-1.912z"/><path fill="#271F3E" d="M263.188 215.15c-.813 0-1.475-.771-1.475-1.719v-12.813c0-.947.662-1.719 1.475-1.719h11.389c.813 0 1.475.771 1.475 1.719v12.813c0 .947-.662 1.719-1.475 1.719h-11.389z"/><path fill="#FFF" d="M274.576 199.378c.55 0 .997.556.997 1.24v12.813c0 .685-.447 1.24-.997 1.24h-11.389c-.55 0-.997-.556-.997-1.24v-12.813c0-.685.447-1.24.997-1.24h11.389m0-.956h-11.389c-1.079 0-1.953.984-1.953 2.196v12.813c0 1.213.875 2.196 1.953 2.196h11.389c1.078 0 1.953-.983 1.953-2.196v-12.813c0-1.212-.875-2.196-1.953-2.196z"/><path fill="#271F3E" d="M279.438 215.15c-.813 0-1.475-.771-1.475-1.719v-12.813c0-.947.662-1.719 1.475-1.719h11.389c.813 0 1.475.771 1.475 1.719v12.813c0 .947-.662 1.719-1.475 1.719h-11.389z"/><path fill="#FFF" d="M290.827 199.378c.55 0 .997.556.997 1.24v12.813c0 .685-.447 1.24-.997 1.24h-11.389c-.55 0-.997-.556-.997-1.24v-12.813c0-.685.447-1.24.997-1.24h11.389m0-.956h-11.389c-1.079 0-1.953.984-1.953 2.196v12.813c0 1.213.875 2.196 1.953 2.196h11.389c1.078 0 1.953-.983 1.953-2.196v-12.813c-.001-1.212-.875-2.196-1.953-2.196z"/><path fill="#271F3E" d="M296.644 215.15c-.813 0-1.475-.771-1.475-1.719v-12.813c0-.947.662-1.719 1.475-1.719h11.389c.813 0 1.475.771 1.475 1.719v12.813c0 .947-.662 1.719-1.475 1.719h-11.389z"/><path fill="#FFF" d="M308.033 199.378c.55 0 .997.556.997 1.24v12.813c0 .685-.447 1.24-.997 1.24h-11.389c-.55 0-.997-.556-.997-1.24v-12.813c0-.685.447-1.24.997-1.24h11.389m0-.956h-11.389c-1.078 0-1.953.984-1.953 2.196v12.813c0 1.213.875 2.196 1.953 2.196h11.389c1.078 0 1.953-.983 1.953-2.196v-12.813c0-1.212-.875-2.196-1.953-2.196z"/><path fill="#271F3E" d="M317.528 196.351a1.436 1.436 0 0 1-1.434-1.435v-11.152c0-.79.643-1.434 1.434-1.434h11.152c.791 0 1.434.644 1.434 1.434v11.152c0 .791-.644 1.435-1.434 1.435h-11.152z"/><path fill="#FFF" d="M328.68 182.808c.527 0 .956.43.956.956v11.152a.957.957 0 0 1-.956.956h-11.152a.956.956 0 0 1-.956-.956v-11.152c0-.526.428-.956.956-.956h11.152m0-.956h-11.152a1.912 1.912 0 0 0-1.912 1.912v11.152c0 1.057.856 1.912 1.912 1.912h11.152a1.911 1.911 0 0 0 1.912-1.912v-11.152a1.912 1.912 0 0 0-1.912-1.912z"/><path fill="#271F3E" d="M334.309 196.351a1.436 1.436 0 0 1-1.434-1.435v-11.152c0-.79.643-1.434 1.434-1.434h11.153c.791 0 1.434.644 1.434 1.434v11.152c0 .791-.643 1.435-1.434 1.435h-11.153z"/><path fill="#FFF" d="M345.462 182.808c.527 0 .956.43.956.956v11.152a.957.957 0 0 1-.956.956h-11.153a.957.957 0 0 1-.956-.956v-11.152c0-.526.428-.956.956-.956h11.153m0-.956h-11.153a1.912 1.912 0 0 0-1.912 1.912v11.152c0 1.057.856 1.912 1.912 1.912h11.153a1.911 1.911 0 0 0 1.912-1.912v-11.152a1.912 1.912 0 0 0-1.912-1.912z"/><path fill="#271F3E" d="M351.091 196.351a1.436 1.436 0 0 1-1.434-1.435v-11.152c0-.79.643-1.434 1.434-1.434h11.153c.791 0 1.434.644 1.434 1.434v11.152c0 .791-.643 1.435-1.434 1.435h-11.153z"/><path fill="#FFF" d="M362.244 182.808c.527 0 .956.43.956.956v11.152a.956.956 0 0 1-.956.956h-11.153a.957.957 0 0 1-.956-.956v-11.152c0-.526.428-.956.956-.956h11.153m0-.956h-11.153a1.912 1.912 0 0 0-1.912 1.912v11.152c0 1.057.856 1.912 1.912 1.912h11.153a1.911 1.911 0 0 0 1.912-1.912v-11.152a1.913 1.913 0 0 0-1.912-1.912z"/><path fill="#271F3E" d="M367.872 196.351a1.436 1.436 0 0 1-1.434-1.435v-11.152c0-.79.643-1.434 1.434-1.434h11.153c.792 0 1.435.644 1.435 1.434v11.152c0 .791-.643 1.435-1.435 1.435h-11.153z"/><path fill="#FFF" d="M379.024 182.808c.528 0 .956.43.956.956v11.152a.956.956 0 0 1-.956.956h-11.153a.957.957 0 0 1-.956-.956v-11.152c0-.526.429-.956.956-.956h11.153m0-.956h-11.153a1.913 1.913 0 0 0-1.912 1.912v11.152c0 1.057.857 1.912 1.912 1.912h11.153a1.911 1.911 0 0 0 1.912-1.912v-11.152a1.911 1.911 0 0 0-1.912-1.912z"/><path fill="#271F3E" d="M384.653 196.351a1.437 1.437 0 0 1-1.434-1.435v-11.152c0-.79.645-1.434 1.434-1.434h11.152c.791 0 1.434.644 1.434 1.434v11.152c0 .791-.643 1.435-1.434 1.435h-11.152z"/><path fill="#FFF" d="M395.806 182.808c.528 0 .956.43.956.956v11.152a.956.956 0 0 1-.956.956h-11.152a.956.956 0 0 1-.955-.956v-11.152c0-.526.429-.956.955-.956h11.152m0-.956h-11.152a1.91 1.91 0 0 0-1.911 1.912v11.152a1.91 1.91 0 0 0 1.911 1.912h11.152a1.91 1.91 0 0 0 1.911-1.912v-11.152a1.911 1.911 0 0 0-1.911-1.912z"/><path fill="#271F3E" d="M401.435 196.351c-.79 0-1.434-.644-1.434-1.435v-11.152c0-.79.644-1.434 1.434-1.434h11.153c.79 0 1.434.644 1.434 1.434v11.152c0 .791-.644 1.435-1.434 1.435h-11.153z"/><path fill="#FFF" d="M412.588 182.808c.526 0 .956.43.956.956v11.152c0 .528-.43.956-.956.956h-11.153a.957.957 0 0 1-.956-.956v-11.152c0-.526.43-.956.956-.956h11.153m0-.956h-11.153a1.913 1.913 0 0 0-1.912 1.912v11.152c0 1.057.857 1.912 1.912 1.912h11.153a1.912 1.912 0 0 0 1.912-1.912v-11.152a1.913 1.913 0 0 0-1.912-1.912z"/><path fill="#271F3E" d="M418.217 196.351a1.436 1.436 0 0 1-1.434-1.435v-11.152c0-.79.643-1.434 1.434-1.434h11.152c.791 0 1.434.644 1.434 1.434v11.152c0 .791-.643 1.435-1.434 1.435h-11.152z"/><path fill="#FFF" d="M429.369 182.808c.528 0 .955.43.955.956v11.152a.955.955 0 0 1-.955.956h-11.152a.956.956 0 0 1-.956-.956v-11.152c0-.526.428-.956.956-.956h11.152m0-.956h-11.152a1.91 1.91 0 0 0-1.911 1.912v11.152a1.91 1.91 0 0 0 1.911 1.912h11.152a1.91 1.91 0 0 0 1.911-1.912v-11.152a1.91 1.91 0 0 0-1.911-1.912z"/><path fill="#271F3E" d="M434.998 196.351c-.79 0-1.435-.644-1.435-1.435v-11.152c0-.79.645-1.434 1.435-1.434h11.153c.79 0 1.434.644 1.434 1.434v11.152c0 .791-.644 1.435-1.434 1.435h-11.153z"/><path fill="#FFF" d="M446.151 182.808c.526 0 .956.43.956.956v11.152c0 .528-.43.956-.956.956h-11.153a.957.957 0 0 1-.956-.956v-11.152c0-.526.43-.956.956-.956h11.153m0-.956h-11.153a1.913 1.913 0 0 0-1.912 1.912v11.152c0 1.057.857 1.912 1.912 1.912h11.153a1.912 1.912 0 0 0 1.912-1.912v-11.152a1.913 1.913 0 0 0-1.912-1.912z"/><path fill="#271F3E" d="M451.78 196.351a1.435 1.435 0 0 1-1.434-1.435v-11.152c0-.79.642-1.434 1.434-1.434h11.151c.792 0 1.435.644 1.435 1.434v11.152c0 .791-.643 1.435-1.435 1.435H451.78z"/><path fill="#FFF" d="M462.932 182.808c.528 0 .956.43.956.956v11.152a.956.956 0 0 1-.956.956H451.78a.956.956 0 0 1-.956-.956v-11.152c0-.526.428-.956.956-.956h11.152m0-.956H451.78a1.911 1.911 0 0 0-1.912 1.912v11.152a1.91 1.91 0 0 0 1.912 1.912h11.151a1.91 1.91 0 0 0 1.912-1.912v-11.152a1.91 1.91 0 0 0-1.911-1.912z"/><path fill="#271F3E" d="M309.19 180.1a1.435 1.435 0 0 1-1.434-1.434v-11.152c0-.791.643-1.434 1.434-1.434h11.153c.791 0 1.434.643 1.434 1.434v11.152c0 .791-.643 1.434-1.434 1.434H309.19z"/><path fill="#FFF" d="M320.343 166.558c.527 0 .956.43.956.956v11.152a.957.957 0 0 1-.956.956H309.19a.957.957 0 0 1-.956-.956v-11.152c0-.526.429-.956.956-.956h11.153m0-.956H309.19a1.912 1.912 0 0 0-1.912 1.912v11.152c0 1.056.856 1.912 1.912 1.912h11.153a1.912 1.912 0 0 0 1.912-1.912v-11.152a1.912 1.912 0 0 0-1.912-1.912z"/><path fill="#271F3E" d="M325.919 180.1a1.435 1.435 0 0 1-1.434-1.434v-11.152c0-.791.644-1.434 1.434-1.434h11.152c.791 0 1.434.643 1.434 1.434v11.152c0 .791-.643 1.434-1.434 1.434h-11.152z"/><path fill="#FFF" d="M337.071 166.558c.528 0 .956.43.956.956v11.152a.957.957 0 0 1-.956.956h-11.152a.957.957 0 0 1-.956-.956v-11.152c0-.526.429-.956.956-.956h11.152m0-.956h-11.152a1.912 1.912 0 0 0-1.912 1.912v11.152c0 1.056.856 1.912 1.912 1.912h11.152a1.912 1.912 0 0 0 1.912-1.912v-11.152a1.912 1.912 0 0 0-1.912-1.912z"/><path fill="#271F3E" d="M342.647 180.1a1.435 1.435 0 0 1-1.434-1.434v-11.152c0-.791.643-1.434 1.434-1.434H353.8c.791 0 1.434.643 1.434 1.434v11.152c0 .791-.643 1.434-1.434 1.434h-11.153z"/><path fill="#FFF" d="M353.8 166.558c.527 0 .956.43.956.956v11.152a.957.957 0 0 1-.956.956h-11.152a.957.957 0 0 1-.956-.956v-11.152c0-.526.429-.956.956-.956H353.8m0-.956h-11.152a1.912 1.912 0 0 0-1.912 1.912v11.152c0 1.056.856 1.912 1.912 1.912H353.8a1.912 1.912 0 0 0 1.912-1.912v-11.152a1.912 1.912 0 0 0-1.912-1.912z"/><path fill="#271F3E" d="M359.376 180.1a1.435 1.435 0 0 1-1.434-1.434v-11.152c0-.791.643-1.434 1.434-1.434h11.152c.791 0 1.435.643 1.435 1.434v11.152c0 .791-.644 1.434-1.435 1.434h-11.152z"/><path fill="#FFF" d="M370.528 166.558c.527 0 .956.43.956.956v11.152a.957.957 0 0 1-.956.956h-11.152a.957.957 0 0 1-.956-.956v-11.152c0-.526.429-.956.956-.956h11.152m0-.956h-11.152a1.912 1.912 0 0 0-1.912 1.912v11.152c0 1.056.856 1.912 1.912 1.912h11.152a1.912 1.912 0 0 0 1.912-1.912v-11.152a1.912 1.912 0 0 0-1.912-1.912z"/><path fill="#271F3E" d="M376.104 180.1a1.436 1.436 0 0 1-1.435-1.434v-11.152c0-.791.644-1.434 1.435-1.434h11.151c.792 0 1.435.643 1.435 1.434v11.152c0 .791-.643 1.434-1.435 1.434h-11.151z"/><path fill="#FFF" d="M387.256 166.558c.529 0 .956.43.956.956v11.152a.956.956 0 0 1-.956.956h-11.151a.957.957 0 0 1-.956-.956v-11.152c0-.526.428-.956.956-.956h11.151m0-.956h-11.151a1.912 1.912 0 0 0-1.912 1.912v11.152c0 1.056.856 1.912 1.912 1.912h11.151a1.91 1.91 0 0 0 1.912-1.912v-11.152a1.911 1.911 0 0 0-1.912-1.912z"/><path fill="#271F3E" d="M392.833 180.1a1.435 1.435 0 0 1-1.434-1.434v-11.152c0-.791.642-1.434 1.434-1.434h11.151c.792 0 1.435.643 1.435 1.434v11.152c0 .791-.643 1.434-1.435 1.434h-11.151z"/><path fill="#FFF" d="M403.984 166.558c.529 0 .956.43.956.956v11.152a.956.956 0 0 1-.956.956h-11.151a.957.957 0 0 1-.956-.956v-11.152c0-.526.428-.956.956-.956h11.151m0-.956h-11.151a1.911 1.911 0 0 0-1.912 1.912v11.152c0 1.056.855 1.912 1.912 1.912h11.151a1.91 1.91 0 0 0 1.912-1.912v-11.152a1.91 1.91 0 0 0-1.912-1.912z"/><path fill="#271F3E" d="M409.562 180.1a1.435 1.435 0 0 1-1.434-1.434v-11.152c0-.791.642-1.434 1.434-1.434h11.151c.792 0 1.435.643 1.435 1.434v11.152c0 .791-.643 1.434-1.435 1.434h-11.151z"/><path fill="#FFF" d="M420.713 166.558c.528 0 .956.43.956.956v11.152a.957.957 0 0 1-.956.956h-11.151a.957.957 0 0 1-.956-.956v-11.152c0-.526.428-.956.956-.956h11.151m0-.956h-11.151a1.911 1.911 0 0 0-1.912 1.912v11.152c0 1.056.855 1.912 1.912 1.912h11.151a1.911 1.911 0 0 0 1.912-1.912v-11.152a1.911 1.911 0 0 0-1.912-1.912z"/><path fill="#271F3E" d="M426.29 180.1a1.435 1.435 0 0 1-1.434-1.434v-11.152c0-.791.642-1.434 1.434-1.434h11.151c.792 0 1.435.643 1.435 1.434v11.152c0 .791-.643 1.434-1.435 1.434H426.29z"/><path fill="#FFF" d="M437.441 166.558c.528 0 .956.43.956.956v11.152a.957.957 0 0 1-.956.956H426.29a.957.957 0 0 1-.956-.956v-11.152c0-.526.428-.956.956-.956h11.151m0-.956H426.29a1.911 1.911 0 0 0-1.912 1.912v11.152c0 1.056.855 1.912 1.912 1.912h11.151a1.911 1.911 0 0 0 1.912-1.912v-11.152a1.91 1.91 0 0 0-1.912-1.912z"/><path fill="#271F3E" d="M443.019 180.1a1.435 1.435 0 0 1-1.434-1.434v-11.152c0-.791.642-1.434 1.434-1.434h11.151c.792 0 1.434.643 1.434 1.434v11.152c0 .791-.642 1.434-1.434 1.434h-11.151z"/><path fill="#FFF" d="M454.17 166.558c.528 0 .956.43.956.956v11.152a.957.957 0 0 1-.956.956h-11.151a.957.957 0 0 1-.956-.956v-11.152c0-.526.428-.956.956-.956h11.151m0-.956h-11.151a1.911 1.911 0 0 0-1.912 1.912v11.152c0 1.056.855 1.912 1.912 1.912h11.151a1.911 1.911 0 0 0 1.912-1.912v-11.152a1.911 1.911 0 0 0-1.912-1.912z"/><path fill="#271F3E" d="M459.747 180.1a1.435 1.435 0 0 1-1.435-1.434v-11.152c0-.791.643-1.434 1.435-1.434h11.151c.792 0 1.434.643 1.434 1.434v11.152c0 .791-.642 1.434-1.434 1.434h-11.151z"/><path fill="#FFF" d="M470.898 166.558c.528 0 .956.43.956.956v11.152a.957.957 0 0 1-.956.956h-11.151a.957.957 0 0 1-.956-.956v-11.152c0-.526.428-.956.956-.956h11.151m0-.956h-11.151a1.911 1.911 0 0 0-1.912 1.912v11.152c0 1.056.855 1.912 1.912 1.912h11.151a1.911 1.911 0 0 0 1.912-1.912v-11.152a1.91 1.91 0 0 0-1.912-1.912z"/><path fill="#271F3E" d="M262.977 163.531a1.436 1.436 0 0 1-1.434-1.434v-11.153c0-.79.643-1.434 1.434-1.434h19.755c.791 0 1.434.644 1.434 1.434v11.153c0 .79-.643 1.434-1.434 1.434h-19.755z"/><path fill="#FFF" d="M282.732 149.988c.528 0 .956.429.956.956v11.153a.956.956 0 0 1-.956.955h-19.755a.956.956 0 0 1-.956-.955v-11.153c0-.527.428-.956.956-.956h19.755m0-.955h-19.755a1.911 1.911 0 0 0-1.912 1.911v11.153c0 1.056.856 1.911 1.912 1.911h19.755a1.911 1.911 0 0 0 1.912-1.911v-11.153a1.912 1.912 0 0 0-1.912-1.911z"/><path fill="#271F3E" d="M262.977 179.781a1.435 1.435 0 0 1-1.434-1.434v-10.515c0-.791.643-1.435 1.434-1.435h23.579c.791 0 1.434.644 1.434 1.435v10.515c0 .791-.643 1.434-1.434 1.434h-23.579z"/><path fill="#FFF" d="M286.556 166.877c.527 0 .956.43.956.956v10.515a.958.958 0 0 1-.956.956h-23.579a.957.957 0 0 1-.956-.956v-10.515c0-.526.428-.956.956-.956h23.579m0-.956h-23.579a1.912 1.912 0 0 0-1.912 1.912v10.515c0 1.056.856 1.912 1.912 1.912h23.579a1.912 1.912 0 0 0 1.912-1.912v-10.515a1.913 1.913 0 0 0-1.912-1.912z"/><path fill="#271F3E" d="M476.145 179.781a1.435 1.435 0 0 1-1.434-1.434v-11.152c0-.791.643-1.434 1.434-1.434h24.218c.789 0 1.434.643 1.434 1.434v11.152c0 .791-.645 1.434-1.434 1.434h-24.218z"/><path fill="#FFF" d="M500.362 166.239c.526 0 .955.429.955.956v11.152a.958.958 0 0 1-.955.956h-24.218a.956.956 0 0 1-.955-.956v-11.152c0-.527.427-.956.955-.956h24.218m0-.956h-24.218a1.91 1.91 0 0 0-1.911 1.912v11.152a1.91 1.91 0 0 0 1.911 1.912h24.218a1.912 1.912 0 0 0 1.911-1.912v-11.152a1.912 1.912 0 0 0-1.911-1.912z"/><path fill="#271F3E" d="M263.295 196.032a1.436 1.436 0 0 1-1.434-1.435v-10.833c0-.79.643-1.434 1.434-1.434h31.864c.791 0 1.434.644 1.434 1.434v10.833c0 .791-.643 1.435-1.434 1.435h-31.864z"/><path fill="#FFF" d="M295.159 182.809c.527 0 .956.429.956.956v10.833a.956.956 0 0 1-.956.956h-31.864a.957.957 0 0 1-.956-.956v-10.833c0-.527.428-.956.956-.956h31.864m0-.955h-31.864a1.911 1.911 0 0 0-1.912 1.911v10.833c0 1.057.856 1.912 1.912 1.912h31.864a1.911 1.911 0 0 0 1.912-1.912v-10.833a1.911 1.911 0 0 0-1.912-1.911z"/><path fill="#271F3E" d="M468.179 196.351c-.79 0-1.435-.644-1.435-1.435v-11.151c0-.79.645-1.434 1.435-1.434h31.864c.789 0 1.434.644 1.434 1.434v11.151c0 .791-.645 1.435-1.434 1.435h-31.864z"/><path fill="#FFF" d="M500.043 182.809c.526 0 .955.429.955.956v11.151a.956.956 0 0 1-.955.956h-31.864a.957.957 0 0 1-.956-.956v-11.151c0-.527.429-.956.956-.956h31.864m0-.955h-31.864a1.911 1.911 0 0 0-1.912 1.911v11.151c0 1.057.856 1.912 1.912 1.912h31.864a1.911 1.911 0 0 0 1.911-1.912v-11.151a1.91 1.91 0 0 0-1.911-1.911z"/><path fill="#271F3E" d="M313.64 214.832a1.436 1.436 0 0 1-1.434-1.434v-13.383c0-.791.644-1.435 1.434-1.435h14.976c.791 0 1.434.644 1.434 1.435v13.383c0 .79-.643 1.434-1.434 1.434H313.64z"/><path fill="#FFF" d="M328.616 199.06c.527 0 .956.429.956.956v13.383a.956.956 0 0 1-.956.955H313.64a.956.956 0 0 1-.956-.955v-13.383c0-.527.429-.956.956-.956h14.976m0-.956H313.64a1.912 1.912 0 0 0-1.912 1.912v13.383c0 1.056.856 1.911 1.912 1.911h14.976a1.911 1.911 0 0 0 1.912-1.911v-13.383a1.912 1.912 0 0 0-1.912-1.912z"/><path fill="#271F3E" d="M417.515 214.832a1.437 1.437 0 0 1-1.434-1.434v-13.383c0-.791.645-1.435 1.434-1.435h14.978c.79 0 1.434.644 1.434 1.435v13.383c0 .79-.644 1.434-1.434 1.434h-14.978z"/><path fill="#FFF" d="M432.492 199.06c.526 0 .956.429.956.956v13.383c0 .527-.43.955-.956.955h-14.978a.956.956 0 0 1-.955-.955v-13.383c0-.527.429-.956.955-.956h14.978m0-.956h-14.978a1.912 1.912 0 0 0-1.911 1.912v13.383a1.91 1.91 0 0 0 1.911 1.911h14.978a1.912 1.912 0 0 0 1.912-1.911v-13.383a1.913 1.913 0 0 0-1.912-1.912z"/><path fill="#271F3E" d="M439.184 214.832a1.435 1.435 0 0 1-1.434-1.434v-13.383c0-.791.642-1.435 1.434-1.435h10.832c.792 0 1.435.644 1.435 1.435v13.383c0 .79-.643 1.434-1.435 1.434h-10.832z"/><path fill="#FFF" d="M450.016 199.06c.528 0 .956.429.956.956v13.383a.956.956 0 0 1-.956.955h-10.832a.956.956 0 0 1-.956-.955v-13.383c0-.527.428-.956.956-.956h10.832m0-.956h-10.832a1.911 1.911 0 0 0-1.912 1.912v13.383a1.91 1.91 0 0 0 1.912 1.911h10.832a1.91 1.91 0 0 0 1.912-1.911v-13.383a1.912 1.912 0 0 0-1.912-1.912z"/><path fill="#271F3E" d="M455.752 214.832c-.79 0-1.435-.644-1.435-1.434v-5.1c0-.79.645-1.434 1.435-1.434h11.153c.789 0 1.434.644 1.434 1.434v5.1c0 .79-.645 1.434-1.434 1.434h-11.153z"/><path fill="#FFF" d="M466.905 207.344c.526 0 .956.428.956.955v5.1c0 .527-.43.955-.956.955h-11.153a.956.956 0 0 1-.956-.955v-5.1c0-.527.429-.955.956-.955h11.153m0-.956h-11.153a1.911 1.911 0 0 0-1.912 1.911v5.1c0 1.056.856 1.911 1.912 1.911h11.153a1.91 1.91 0 0 0 1.911-1.911v-5.1a1.91 1.91 0 0 0-1.911-1.911z"/><path fill="#271F3E" d="M472.407 214.832c-.839 0-1.52-.644-1.52-1.434v-13.383c0-.791.681-1.435 1.52-1.435h10.66c.839 0 1.522.644 1.522 1.435v13.383c0 .79-.684 1.434-1.522 1.434h-10.66z"/><path fill="#FFF" d="M483.067 199.06c.575 0 1.044.429 1.044.956v13.383c0 .527-.469.955-1.044.955h-10.66c-.575 0-1.042-.428-1.042-.955v-13.383c0-.527.467-.956 1.042-.956h10.66m0-.956h-10.66c-1.104 0-1.998.856-1.998 1.912v13.383c0 1.056.895 1.911 1.998 1.911h10.66c1.104 0 2-.855 2-1.911v-13.383c0-1.056-.896-1.912-2-1.912z"/><path fill="#271F3E" d="M489.298 214.832c-.838 0-1.521-.644-1.521-1.434v-5.1c0-.79.684-1.434 1.521-1.434h10.338c.838 0 1.521.644 1.521 1.434v5.1c0 .79-.684 1.434-1.521 1.434h-10.338z"/><path fill="#FFF" d="M499.636 207.344c.575 0 1.044.428 1.044.955v5.1c0 .527-.469.955-1.044.955h-10.338c-.575 0-1.044-.428-1.044-.955v-5.1c0-.527.469-.955 1.044-.955h10.338m0-.956h-10.338c-1.104 0-1.999.855-1.999 1.911v5.1c0 1.056.896 1.911 1.999 1.911h10.338c1.104 0 1.999-.855 1.999-1.911v-5.1c0-1.056-.896-1.911-1.999-1.911z"/><path fill="#271F3E" d="M334.351 214.832a1.436 1.436 0 0 1-1.434-1.434v-13.383c0-.791.643-1.435 1.434-1.435h77.748c.79 0 1.435.644 1.435 1.435v13.383c0 .79-.645 1.434-1.435 1.434h-77.748z"/><path fill="#FFF" d="M412.099 199.06c.526 0 .956.429.956.956v13.383c0 .527-.43.955-.956.955h-77.748a.956.956 0 0 1-.956-.955v-13.383c0-.527.428-.956.956-.956h77.748m0-.956h-77.748a1.912 1.912 0 0 0-1.912 1.912v13.383c0 1.056.856 1.911 1.912 1.911h77.748a1.912 1.912 0 0 0 1.912-1.911v-13.383a1.913 1.913 0 0 0-1.912-1.912z"/><path fill="#CDD0E0" d="M230.157 123.541h19.118v91.768h-19.118zm284.861 0h19.118v91.768h-19.118z"/><path opacity=".2" fill="#CDD0E0" d="M430.03 291.782a6.69 6.69 0 0 1-6.691 6.69h-80.296a6.69 6.69 0 0 1-6.691-6.69v-53.531a6.69 6.69 0 0 1 6.691-6.691h80.296a6.69 6.69 0 0 1 6.691 6.691v53.531z"/><path fill="#CDD0E0" d="M423.339 298.951h-80.296c-3.953 0-7.169-3.216-7.169-7.169v-53.531a7.176 7.176 0 0 1 7.169-7.169h80.296a7.176 7.176 0 0 1 7.169 7.169v53.531a7.176 7.176 0 0 1-7.169 7.169zm-80.297-66.914a6.22 6.22 0 0 0-6.213 6.214v53.531a6.22 6.22 0 0 0 6.213 6.213h80.296a6.22 6.22 0 0 0 6.213-6.213v-53.531a6.22 6.22 0 0 0-6.213-6.214h-80.296z"/><path fill="#271F3E" d="M541.12 86.733c-2.922 6.269-15.513 5.709-15.513 5.709H239.285s-10.453 1.927-17.441-5.709l-31.831-76.358c0-3.153 3.49-5.709 7.795-5.709h366.383c4.305 0 7.795 2.556 7.795 5.709L541.12 86.733z"/><path fill="#CDD0E0" d="M236.283 94.159c-3.614 0-10.438-.833-15.545-6.413l-.177-.193-.101-.242-31.947-76.636v-.3c0-3.975 4.169-7.209 9.295-7.209h366.383c5.125 0 9.295 3.234 9.295 7.209v.292L542.51 87.296c-2.803 6.018-12.201 6.659-16.114 6.659-.543 0-.855-.015-.855-.015l-286.133.002c-.394.062-1.539.217-3.125.217zm-13.158-8.251c4.313 4.563 10.079 5.251 13.157 5.251 1.646 0 2.723-.19 2.733-.192l.269-.024h286.322c.083.002.346.013.789.013 5.367 0 11.695-1.275 13.364-4.855l30.713-75.985c-.209-2.166-3.001-3.948-6.282-3.948H197.808c-3.278 0-6.067 1.778-6.282 3.94l31.599 75.8z"/><path fill="#FFF" d="M570.895 5.776a11.98 11.98 0 0 0-3.793-.609H195.565c-1.33 0-2.609.205-3.776.593.947-2.188 2.29-4.26 3.776-4.26h371.537c1.486 0 2.836 2.079 3.793 4.276z"/><path fill="#CDD0E0" d="M567.102 3c.215 0 .525.251.879.694-.29-.019-.584-.027-.879-.027H195.565c-.294 0-.587.009-.877.027.353-.443.662-.694.877-.694h371.537m0-3H195.565c-4.366 0-6.47 9.103-6.47 9.103 1.43-1.472 3.792-2.436 6.47-2.436h371.537c2.696 0 5.074.977 6.501 2.465 0 0-2.137-9.132-6.501-9.132z"/><linearGradient id="c" gradientUnits="userSpaceOnUse" x1="328.473" y1="131.141" x2="417.748" y2="-51.899"><stop offset="0" stop-color="#7379ba"/><stop offset="1" stop-color="#69cef4"/></linearGradient><path fill="url(#c)" d="M207.411 15.347l26.043 69.45h295.162l27.007-69.45z"/><path fill="#CDD0E0" d="M259.79 103.314c0 1.255.856 2.271 1.912 2.271h238.341c1.055 0 1.911-1.016 1.911-2.271V97.26H259.79v6.054z"/><path fill="#271F3E" d="M259.79 96.314c0 1.255.856 2.271 1.912 2.271h238.341c1.055 0 1.911-1.016 1.911-2.271V90.26H259.79v6.054z"/><linearGradient id="d" gradientUnits="userSpaceOnUse" x1="581.875" y1="316.325" x2="727.188" y2="171.012"><stop offset="0" stop-color="#f16b90"/><stop offset="1" stop-color="#f89e71"/></linearGradient><path fill="url(#d)" d="M737.531 302.668a8 8 0 0 1-8 8h-150a8 8 0 0 1-8-8v-118a8 8 0 0 1 8-8h150a8 8 0 0 1 8 8v118z"/><path fill="#CDD0E0" d="M729.531 312.168h-150c-5.238 0-9.5-4.262-9.5-9.5v-118c0-5.238 4.262-9.5 9.5-9.5h150c5.238 0 9.5 4.262 9.5 9.5v118c0 5.238-4.261 9.5-9.5 9.5zm-150-134a6.508 6.508 0 0 0-6.5 6.5v118c0 3.584 2.916 6.5 6.5 6.5h150c3.584 0 6.5-2.916 6.5-6.5v-118c0-3.584-2.916-6.5-6.5-6.5h-150z"/><linearGradient id="e" gradientUnits="userSpaceOnUse" x1="1159.427" y1="450.553" x2="1159.427" y2="363.556" gradientTransform="rotate(-28.777 606.134 1262.5)"><stop offset="0" stop-color="#f1f2f2"/><stop offset=".261" stop-color="#f5f5f6"/><stop offset="1" stop-color="#fff"/></linearGradient><path fill="url(#e)" d="M710.973 255.752c5.317 9.682 1.78 21.84-7.902 27.157l-5.694 3.128c-9.683 5.317-21.841 1.779-27.158-7.902l-22.623-41.192c-5.317-9.681-1.78-21.841 7.902-27.158l5.694-3.128c9.683-5.317 21.842-1.778 27.158 7.902l22.623 41.193z"/><path fill="#CDD0E0" d="M702.946 283.549l-5.695 3.127c-10.392 5.707-23.487 1.896-29.194-8.495l-22.623-41.192c-5.708-10.392-1.896-23.487 8.494-29.194l5.695-3.128c10.392-5.707 23.487-1.896 29.194 8.495l22.624 41.192c5.707 10.391 1.896 23.487-8.495 29.195zm-47.574-73.126c-8.941 4.911-12.22 16.18-7.31 25.121l22.623 41.192c4.911 8.941 16.18 12.221 25.121 7.311l5.695-3.128c8.941-4.911 12.221-16.18 7.31-25.121l-22.623-41.192c-4.911-8.941-16.18-12.221-25.121-7.31l-5.695 3.127z"/><path fill="#CDD0E0" d="M691.67 269.764a5.839 5.839 0 0 1-7.921-2.305 5.839 5.839 0 0 1 2.305-7.92c2.819-1.548 6.372-.515 7.92 2.305s.514 6.372-2.304 7.92zm-4.172-7.596a2.837 2.837 0 0 0-1.119 3.847 2.834 2.834 0 0 0 3.847 1.119 2.836 2.836 0 0 0 1.118-3.847 2.837 2.837 0 0 0-3.846-1.119z"/><radialGradient id="f" cx="617.394" cy="100.668" r="48.792" gradientUnits="userSpaceOnUse"><stop offset="0" stop-color="#5eb6e6"/><stop offset="1" stop-color="#5e4b8b"/></radialGradient><path fill="url(#f)" d="M617.395 75.668l15.451-22.553-.756 27.327 25.756-9.163-16.675 21.663 26.224 7.726-26.224 7.726 16.675 21.663-25.756-9.163.756 27.327-15.451-22.553-15.452 22.553.756-27.327-25.756 9.163 16.675-21.663-26.223-7.726 26.223-7.726-16.675-21.663 25.756 9.163-.756-27.327z"/><path fill="#CDD0E0" d="M633.939 151.586l-16.545-24.148-16.545 24.148.81-29.261-27.579 9.812 17.855-23.196-28.08-8.272 28.08-8.272-17.855-23.198 27.579 9.812-.81-29.261 16.545 24.148 16.545-24.148-.81 29.261 27.579-9.812-17.855 23.196 28.08 8.272-28.08 8.272 17.855 23.196-27.579-9.812.81 29.263zm-16.544-27.688l14.357 20.957-.702-25.394 23.933 8.515-15.494-20.13 24.367-7.179-24.367-7.179 15.494-20.13-23.933 8.515.702-25.394-14.357 20.957-14.358-20.956.702 25.394-23.933-8.515 15.494 20.13-24.367 7.179 24.367 7.179-15.494 20.13 23.933-8.515-.702 25.394 14.358-20.958z"/><radialGradient id="g" cx="629.14" cy="100.435" r="48.98" gradientTransform="rotate(-.636 644.617 1156.497)" gradientUnits="userSpaceOnUse"><stop offset="0" stop-color="#7379ba"/><stop offset="1" stop-color="#69cef4"/></radialGradient><path fill="url(#g)" d="M625.499 77.018l21.928-16.326-9.574 25.607 27.335-.32-22.796 15.088 22.302 15.81-27.311-1.192 8.751 25.898-21.395-17.018-8.143 26.096-7.306-26.343-21.928 16.326 9.574-25.607-27.335.319 22.796-15.087-22.302-15.81 27.311 1.192-8.751-25.898 21.395 17.018 8.143-26.096z"/><path fill="#CDD0E0" d="M616.539 154.199l-7.822-28.207-23.479 17.48 10.25-27.419-29.27.343 24.41-16.156-23.881-16.929 29.244 1.277-9.37-27.731 22.909 18.222 8.72-27.942 7.822 28.207 23.479-17.48L639.3 85.283l29.27-.343-24.409 16.156 23.881 16.929-29.244-1.277 9.37 27.731-22.909-18.222-8.72 27.942zm-6.676-31.554l6.789 24.479 7.567-24.249 19.88 15.813-8.132-24.065 25.379 1.107-20.725-14.69 21.183-14.02-25.4.296 8.897-23.794-20.376 15.17-6.789-24.479-7.567 24.249-19.88-15.813 8.132 24.065-25.379-1.107 20.725 14.69-21.184 14.02 25.4-.296-8.896 23.794 20.376-15.17z"/><radialGradient id="h" cx="1029.137" cy="193.221" r="22.991" gradientTransform="rotate(-23.851 606.06 1122.031)" gradientUnits="userSpaceOnUse"><stop offset="0" stop-color="#f16b90"/><stop offset="1" stop-color="#f89e71"/></radialGradient><path fill="url(#h)" d="M621.214 90.445l10.245-7.564-4.507 11.91 12.735-.097-10.648 6.986 10.36 7.407-12.721-.607 4.028 12.082-9.934-7.968-3.842 12.142-3.355-12.285-10.245 7.564 4.506-11.911-12.733.098 10.647-6.986-10.36-7.406 12.72.606-4.027-12.081 9.934 7.967 3.842-12.143z"/><path fill="#CDD0E0" d="M616.859 128.273l-3.864-14.151-11.801 8.713 5.189-13.72-14.668.113 12.266-8.048-11.935-8.531 14.653.698-4.64-13.916 11.443 9.177 4.426-13.987 3.864 14.152 11.802-8.713-5.191 13.72 14.669-.111-12.266 8.046 11.935 8.532-14.654-.698 4.641 13.917-11.443-9.179-4.426 13.986zm-2.704-17.493L617 121.199l3.26-10.299 8.424 6.757-3.416-10.245 10.789.515-8.786-6.282 9.029-5.925-10.8.082 3.822-10.101-8.688 6.416-2.845-10.42-3.26 10.298-8.424-6.757 3.415 10.246-10.788-.515 8.786 6.281-9.029 5.925 10.799-.082-3.822 10.101 8.689-6.414z"/><path fill="#271F3E" d="M678.212 162.833l.222-27.469 14.182 1.335-.199 24.723z"/><path fill="#CDD0E0" d="M692.486 161.724l-2.29-.019.2-24.723 2.29.019z"/><path fill="#CDD0E0" d="M677.453 134.601l15.734 1.483-.21 26.133-15.761 1.564.237-29.18zm14.173 2.893l-12.635-1.188-.209 25.76 12.653-1.256.191-23.316z"/><path fill="#CDD0E0" d="M712.775 147.77l-20.11-4.742.356-1.511 20.11 4.742zm.305 4.537l-20.183 4.416-.332-1.518 20.183-4.415z"/><path fill="#CDD0E0" d="M712.911 146.81c.59-1.613 1.751-2.685 2.979-2.674.842.007 1.648.501 2.269 1.39.679.973 1.047 2.271 1.034 3.662a7.16 7.16 0 0 1-.192 1.615c-.481 2.003-1.792 3.391-3.191 3.381-.843-.007-1.65-.502-2.272-1.392a5.535 5.535 0 0 1-.778-1.688c-.508.104-1.053.213-1.521.303a7.243 7.243 0 0 0 1.029 2.275c.917 1.313 2.171 2.043 3.53 2.054 2.16.019 4.055-1.82 4.713-4.571a8.818 8.818 0 0 0 .237-1.964c.014-1.71-.452-3.331-1.315-4.561-.915-1.315-2.169-2.044-3.528-2.057-2.161-.017-4.057 1.82-4.713 4.57.571-.114 1.147-.232 1.719-.343z"/><path fill="#271F3E" d="M645.354 180.766l13.119-24.135 11.887 7.852-11.807 21.72z"/><path fill="#CDD0E0" d="M658.51 186.526l-2.01-1.093 11.805-21.724 2.012 1.093z"/><path fill="#CDD0E0" d="M657.968 155.496l13.188 8.711-12.483 22.961-14.645-6.033 13.94-25.639zm11.143 9.223l-10.587-6.994-12.306 22.634 11.755 4.845 11.138-20.485z"/><path fill="#CDD0E0" d="M682.917 183.7l-15.513-13.646 1.026-1.166 15.513 13.645zm-1.863 4.197l-19.889-5.6.42-1.493 19.89 5.599z"/><path fill="#CDD0E0" d="M683.513 182.954c1.278-1.148 2.808-1.546 3.887-.959.74.401 1.22 1.219 1.349 2.295.142 1.177-.146 2.496-.811 3.717a7.182 7.182 0 0 1-.931 1.335c-1.364 1.542-3.176 2.149-4.407 1.481-.739-.403-1.221-1.219-1.348-2.296a5.568 5.568 0 0 1 .105-1.856c-.497-.147-1.032-.309-1.485-.448a7.253 7.253 0 0 0-.163 2.492c.191 1.589.956 2.822 2.148 3.473 1.899 1.03 4.435.301 6.311-1.816a8.759 8.759 0 0 0 1.134-1.623c.817-1.502 1.167-3.15.986-4.643-.189-1.591-.954-2.825-2.146-3.475-1.9-1.031-4.436-.302-6.31 1.816.56.166 1.121.335 1.681.507z"/><linearGradient id="i" gradientUnits="userSpaceOnUse" x1="32.25" y1="213.685" x2="179.968" y2="65.966"><stop offset="0" stop-color="#f16b90"/><stop offset="1" stop-color="#f89e71"/></linearGradient><path fill="url(#i)" d="M169.105 222.477a5 5 0 0 1-5 5H48.112a5 5 0 0 1-5-5V57.175a5 5 0 0 1 5-5h115.993a5 5 0 0 1 5 5v165.302z"/><path fill="#CDD0E0" d="M164.105 228.977H48.112a6.508 6.508 0 0 1-6.5-6.5V57.175c0-3.584 2.916-6.5 6.5-6.5h115.993c3.584 0 6.5 2.916 6.5 6.5v165.302c0 3.584-2.916 6.5-6.5 6.5zM48.112 53.675c-1.93 0-3.5 1.57-3.5 3.5v165.302c0 1.93 1.57 3.5 3.5 3.5h115.993c1.93 0 3.5-1.57 3.5-3.5V57.175c0-1.93-1.57-3.5-3.5-3.5H48.112z"/><path fill="#CDD0E0" d="M55.112 83.924a2.25 2.25 0 0 1-2.249 2.25H31.864a2.25 2.25 0 0 1 0-4.5h20.999a2.25 2.25 0 0 1 2.249 2.25zm0 10a2.25 2.25 0 0 1-2.249 2.25H31.864a2.25 2.25 0 0 1 0-4.5h20.999a2.25 2.25 0 0 1 2.249 2.25zm0 10a2.25 2.25 0 0 1-2.249 2.25H31.864a2.25 2.25 0 0 1 0-4.5h20.999a2.25 2.25 0 0 1 2.249 2.25zm0 10a2.25 2.25 0 0 1-2.249 2.25H31.864a2.25 2.25 0 0 1 0-4.5h20.999a2.25 2.25 0 0 1 2.249 2.25zm0 10a2.25 2.25 0 0 1-2.249 2.25H31.864a2.25 2.25 0 0 1 0-4.5h20.999a2.25 2.25 0 0 1 2.249 2.25zm0 10a2.25 2.25 0 0 1-2.249 2.25H31.864a2.25 2.25 0 0 1 0-4.5h20.999a2.25 2.25 0 0 1 2.249 2.25zm0 10a2.25 2.25 0 0 1-2.249 2.25H31.864a2.25 2.25 0 0 1 0-4.5h20.999a2.25 2.25 0 0 1 2.249 2.25zm0 10a2.25 2.25 0 0 1-2.249 2.25H31.864a2.25 2.25 0 0 1 0-4.5h20.999a2.25 2.25 0 0 1 2.249 2.25zm0 10a2.25 2.25 0 0 1-2.249 2.25H31.864a2.25 2.25 0 0 1 0-4.5h20.999a2.25 2.25 0 0 1 2.249 2.25zm0 10a2.25 2.25 0 0 1-2.249 2.25H31.864a2.25 2.25 0 0 1 0-4.5h20.999a2.25 2.25 0 0 1 2.249 2.25zm0 10a2.25 2.25 0 0 1-2.249 2.25H31.864a2.25 2.25 0 0 1 0-4.5h20.999a2.25 2.25 0 0 1 2.249 2.25zm0 10a2.25 2.25 0 0 1-2.249 2.25H31.864a2.25 2.25 0 0 1 0-4.5h20.999a2.25 2.25 0 0 1 2.249 2.25z"/><path fill="#FFF" d="M140.865 117.59a5 5 0 0 1-5 5H75.199a5 5 0 0 1-5-5V92.924a5 5 0 0 1 5-5h60.667a5 5 0 0 1 5 5v24.666z"/><path fill="#CDD0E0" d="M135.865 124.09H75.199a6.508 6.508 0 0 1-6.5-6.5V92.924c0-3.584 2.916-6.5 6.5-6.5h60.667c3.584 0 6.5 2.916 6.5 6.5v24.666a6.509 6.509 0 0 1-6.501 6.5zM75.199 89.424c-1.93 0-3.5 1.57-3.5 3.5v24.666c0 1.93 1.57 3.5 3.5 3.5h60.667c1.93 0 3.5-1.57 3.5-3.5V92.924c0-1.93-1.57-3.5-3.5-3.5H75.199z"/><linearGradient id="j" gradientUnits="userSpaceOnUse" x1="423.925" y1="778.243" x2="567.8" y2="634.368" gradientTransform="rotate(-33.613 -440.516 1143.407)"><stop offset="0" stop-color="#bc79b3"/><stop offset="1" stop-color="#7379ba"/></linearGradient><path fill="url(#j)" d="M86.446 162.053L4.435 216.57a24.294 24.294 0 0 0-2.296 1.759l97.695 146.966a24.35 24.35 0 0 0 2.509-1.438l82.012-54.517c10.179-6.767 13.392-19.832 7.177-29.182l-75.399-113.426c-6.216-9.35-19.508-11.445-29.687-4.679z"/><path opacity=".2" fill="#5E4B8B" d="M37.716 270.044L138.4 203.115l29.543 44.442L67.26 314.485z"/><path fill="#271F3E" d="M63.484 178.486l15.237-10.13 97.91 147.29-15.238 10.129z"/><path fill="#CDD0E0" d="M178.117 315.238l-17.776 11.816-99.596-149.825 17.776-11.817 99.596 149.826zm-16.925 7.589l12.697-8.44-96.22-144.747-12.698 8.44 96.221 144.747z"/><path fill="#CDD0E0" d="M185.08 310.609l-82.012 54.518a25.384 25.384 0 0 1-2.668 1.529l-1.207.607L0 218.045l1.03-.877a25.532 25.532 0 0 1 2.441-1.867l82.012-54.517c10.864-7.222 25.128-4.931 31.799 5.104l75.4 113.426c6.671 10.035 3.261 24.074-7.602 31.295zm-84.861 52.69a19.22 19.22 0 0 0 1.161-.711l82.012-54.518c9.463-6.291 12.491-18.434 6.751-27.068l-75.399-113.426c-5.74-8.635-18.109-10.544-27.572-4.253L5.16 217.84c-.361.24-.724.502-1.105.796l96.164 144.663z"/></svg>