<svg xmlns="http://www.w3.org/2000/svg" width="515.937" height="183.392"><linearGradient id="a" gradientUnits="userSpaceOnUse" x1="-14.675" y1="163.942" x2="129.202" y2="20.065"><stop offset="0" stop-color="#bc79b3"/><stop offset="1" stop-color="#7379ba"/></linearGradient><path fill="url(#a)" d="M102.988 3.574H4.509c-.98 0-1.939.079-2.886.192v176.475c.946.113 1.905.191 2.886.191h98.479c12.223 0 22.131-9.102 22.131-20.329v-136.2c.001-11.227-9.908-20.329-22.131-20.329z"/><path opacity=".2" fill="#5E4B8B" d="M2.623 66.527H123.52v53.363H2.623z"/><path fill="#271F3E" d="M74.773 4.541h18.296v176.86H74.773z"/><path fill="#CDD0E0" d="M94.528 181.892H73.183V1.983h21.346v179.909zm-18.296-3.049h15.247V5.033H76.232v173.81z"/><path fill="#CDD0E0" d="M102.889 181.892H4.41c-.942 0-1.917-.064-3.068-.203L0 181.526V2.347l1.343-.16a25.375 25.375 0 0 1 3.067-.204h98.479c13.045 0 23.656 9.804 23.656 21.854v136.2c0 12.051-10.611 21.855-23.656 21.855zm-99.84-3.1c.479.034.926.051 1.361.051h98.479c11.363 0 20.607-8.437 20.607-18.805v-136.2c0-10.369-9.244-18.805-20.607-18.805H4.41c-.433 0-.88.017-1.361.051v173.708z"/><path fill="#FFF" d="M325.106 1.357h13.934v169.187h-13.934z"/><path fill="#CDD0E0" d="M340.743 171.901h-16.647V0h16.647v171.901zm-13.934-2.714h11.22V2.715h-11.22v166.472z"/><path fill="#271F3E" d="M339.385 52.596V1.357h-13.933v51.268c4.475-.017 9.188-.026 13.933-.029z"/><path fill="#CDD0E0" d="M324.095 53.988V0h16.647v53.953l-1.357.001c-4.743.003-9.453.012-13.928.029l-1.362.005zm2.714-51.273v48.548c3.636-.012 7.41-.02 11.22-.023V2.715h-11.22z"/><path fill="#271F3E" d="M328.106 170.544h9.355v9.99h-9.355z"/><path fill="#CDD0E0" d="M338.818 181.892H326.75v-12.705h12.068v12.705zm-9.355-2.715h6.64v-7.275h-6.64v7.275zM318.44 5.146h5.64v2.715h-5.64zm0 42.184h5.64v2.714h-5.64z"/><path fill="#CDD0E0" d="M317.526 5.146h2.714v44.898h-2.714z"/><path fill="#271F3E" d="M497.032 88.888a4.668 4.668 0 0 1-4.667 4.667H390.646a4.665 4.665 0 0 1-4.665-4.667V9.566a4.665 4.665 0 0 1 4.665-4.666h101.719a4.667 4.667 0 0 1 4.667 4.666v79.322z"/><path fill="#FFF" d="M497.032 9.566a4.667 4.667 0 0 0-4.667-4.666H390.646a4.665 4.665 0 0 0-4.665 4.666v20.531h111.051V9.566zM385.981 88.888a4.665 4.665 0 0 0 4.665 4.667h101.719a4.668 4.668 0 0 0 4.667-4.667v-4.666H385.981v4.666z"/><path fill="#CDD0E0" d="M492.13 94.542H390.412a5.896 5.896 0 0 1-5.888-5.888V9.333a5.895 5.895 0 0 1 5.888-5.888H492.13a5.895 5.895 0 0 1 5.889 5.888v79.322a5.896 5.896 0 0 1-5.889 5.887zM390.412 5.888a3.448 3.448 0 0 0-3.443 3.444v79.322a3.447 3.447 0 0 0 3.443 3.443H492.13a3.447 3.447 0 0 0 3.444-3.443V9.333a3.448 3.448 0 0 0-3.444-3.444H390.412z"/><circle fill="#FFF" cx="430.072" cy="61.125" r="34.995"/><linearGradient id="b" gradientUnits="userSpaceOnUse" x1="402.077" y1="61.125" x2="458.069" y2="61.125"><stop offset="0" stop-color="#5e4b8b"/><stop offset="1" stop-color="#271f3e"/></linearGradient><circle fill="url(#b)" cx="430.073" cy="61.125" r="27.996"/><linearGradient id="c" gradientUnits="userSpaceOnUse" x1="404.877" y1="61.125" x2="455.27" y2="61.125"><stop offset="0" stop-color="#271f3e"/><stop offset="1" stop-color="#5e4b8b"/></linearGradient><circle fill="url(#c)" cx="430.073" cy="61.125" r="25.197"/><linearGradient id="d" gradientUnits="userSpaceOnUse" x1="412.436" y1="61.124" x2="447.71" y2="61.124"><stop offset="0" stop-color="#5e4b8b"/><stop offset="1" stop-color="#271f3e"/></linearGradient><circle fill="url(#d)" cx="430.073" cy="61.125" r="17.637"/><linearGradient id="e" gradientUnits="userSpaceOnUse" x1="421.343" y1="69.855" x2="438.803" y2="52.395"><stop offset="0" stop-color="#7379ba"/><stop offset="1" stop-color="#69cef4"/></linearGradient><circle fill="url(#e)" cx="430.072" cy="61.125" r="12.346"/><circle fill="#67CBF4" cx="430.073" cy="61.125" r="6.173"/><path fill="#CDD0E0" d="M430.073 97.341c-19.971 0-36.217-16.246-36.217-36.216 0-19.97 16.246-36.217 36.217-36.217 19.97 0 36.217 16.247 36.217 36.217s-16.248 36.216-36.217 36.216zm0-69.989c-18.623 0-33.773 15.15-33.773 33.773 0 18.623 15.15 33.773 33.773 33.773 18.622 0 33.773-15.15 33.773-33.773 0-18.623-15.151-33.773-33.773-33.773z"/><path fill="#271F3E" d="M470.667 12.132H482.8v9.332h-12.133z"/><path fill="#CDD0E0" d="M484.021 22.686h-14.575V10.91h14.575v11.776zm-12.132-2.444h9.688v-6.888h-9.688v6.888zM395.078 0h23.33v4.666h-23.33z"/><circle opacity=".2" fill="#67CBF4" cx="434.384" cy="65.351" r="9.762"/><circle opacity=".2" fill="#FFF" cx="434.383" cy="65.351" r="4.881"/><path fill="#FFF" d="M286.617 167.917c0 6.823-5.53 12.353-12.353 12.353H173.595c-6.822 0-12.353-5.529-12.353-12.353V15.989c0-6.822 5.531-12.354 12.353-12.354h100.669c6.822 0 12.353 5.532 12.353 12.354v151.928z"/><path fill="#CDD0E0" d="M274.264 181.892H173.596c-7.706 0-13.975-6.269-13.975-13.975V15.989c0-7.707 6.27-13.976 13.975-13.976h100.668c7.705 0 13.975 6.27 13.975 13.976v151.928c0 7.706-6.27 13.975-13.975 13.975zM173.596 5.258c-5.917 0-10.729 4.813-10.729 10.73v151.928c0 5.916 4.813 10.73 10.729 10.73h100.668c5.917 0 10.73-4.814 10.73-10.73V15.989c0-5.917-4.813-10.73-10.73-10.73H173.596z"/><path fill="#271F3E" d="M173.087 25.704h101.685v131.974H173.087z"/><circle fill="#CDD0E0" cx="223.93" cy="14.723" r="4.057"/><path fill="#CDD0E0" d="M223.93 174.544c-3.412 0-6.186-2.775-6.186-6.187s2.774-6.187 6.186-6.187c3.411 0 6.186 2.775 6.186 6.187s-2.775 6.187-6.186 6.187zm0-9.128c-1.622 0-2.941 1.319-2.941 2.941s1.319 2.94 2.941 2.94c1.622 0 2.941-1.318 2.941-2.94s-1.32-2.941-2.941-2.941z"/><linearGradient id="f" gradientUnits="userSpaceOnUse" x1="188.272" y1="121.482" x2="259.589" y2="50.165"><stop offset="0" stop-color="#7379ba"/><stop offset="1" stop-color="#69cef4"/></linearGradient><path fill="url(#f)" d="M261.428 117.571a5 5 0 0 1-5 5h-64.997a5 5 0 0 1-5-5V54.075a5 5 0 0 1 5-5h64.997a5 5 0 0 1 5 5v63.496z"/><path fill="#FFF" d="M261.428 54.075a5 5 0 0 0-5-5h-64.997a5 5 0 0 0-5 5v10.75h74.997v-10.75z"/><linearGradient id="g" gradientUnits="userSpaceOnUse" x1="199.915" y1="146.838" x2="247.944" y2="98.809"><stop offset="0" stop-color="#bc79b3"/><stop offset="1" stop-color="#7379ba"/></linearGradient><path fill="url(#g)" d="M249.183 144.204a3.368 3.368 0 0 1-3.367 3.367h-43.771a3.368 3.368 0 0 1-3.368-3.367v-42.762a3.368 3.368 0 0 1 3.368-3.367h43.771a3.368 3.368 0 0 1 3.367 3.367v42.762z"/><path fill="#FFF" d="M249.183 101.442a3.368 3.368 0 0 0-3.367-3.367h-43.771a3.368 3.368 0 0 0-3.368 3.367v7.239h50.507v-7.239zm-6.753 36.788a2.478 2.478 0 0 0-2.467-2.489h-32.066c-1.362 0-2.467 1.115-2.467 2.489v5.351h37v-5.351z"/><linearGradient id="h" gradientUnits="userSpaceOnUse" x1="211.18" y1="162.728" x2="236.68" y2="137.228"><stop offset="0" stop-color="#f16b90"/><stop offset="1" stop-color="#f89e71"/></linearGradient><path fill="url(#h)" d="M205.43 142.978h37v14h-37z"/><path fill="#CDD0E0" d="M276.395 159.3H171.464V24.081h104.931V159.3zm-101.686-3.245h98.439V27.327h-98.439v128.728z"/><path fill="#271F3E" d="M514.292 176.251a5.812 5.812 0 0 0-1.937-3.184l-31.204-25.814c-.379-.313-1.384-1.145-98.045-6.186-2.495-.158-4.499 1.58-4.594 3.885-.095 2.318 1.774 4.246 4.254 4.387 30.997 1.883 89.317 5.461 94.041 5.879l30.93 25.586c.847.701 1.853 1.088 2.835 1.088 1.33 0 2.499-.682 3.207-1.867.634-1.061.821-2.436.513-3.774z"/><path fill="#CDD0E0" d="M510.573 183.392c-1.33 0-2.676-.509-3.792-1.433l-30.565-25.284c-7.224-.563-63.865-4.035-93.539-5.838-3.301-.188-5.79-2.799-5.662-5.945.131-3.171 2.837-5.532 6.188-5.32 97.135 5.065 98.075 5.841 98.904 6.525l31.206 25.814a7.324 7.324 0 0 1 2.443 4.007c.393 1.707.142 3.485-.688 4.875-.986 1.651-2.625 2.599-4.495 2.599zm-127.781-40.834c-1.527 0-2.723 1.057-2.78 2.457-.062 1.491 1.187 2.733 2.84 2.827 30.462 1.851 89.319 5.46 94.088 5.882l.465.041 31.289 25.883c.579.48 1.246.744 1.879.744.8 0 1.481-.403 1.919-1.137.437-.731.561-1.704.339-2.668a4.313 4.313 0 0 0-1.43-2.363l-31.049-25.686c-2.267-.533-21.32-2.009-97.323-5.973a4.183 4.183 0 0 0-.237-.007z"/><path fill="#271F3E" d="M501.795 141.06c-.092 0-.183.002-.271.008-96.666 5.041-97.67 5.873-98.048 6.186l-31.204 25.814a5.825 5.825 0 0 0-1.938 3.184c-.306 1.338-.119 2.713.514 3.773.709 1.186 1.877 1.867 3.206 1.867.983 0 1.99-.387 2.835-1.086l30.931-25.588c4.724-.418 63.045-3.996 94.037-5.879 2.482-.141 4.354-2.068 4.257-4.387-.091-2.219-1.947-3.892-4.319-3.892z"/><path fill="#CDD0E0" d="M374.054 183.392c-1.868 0-3.506-.946-4.493-2.598-.829-1.389-1.08-3.166-.688-4.877.361-1.579 1.229-3.002 2.445-4.006l31.203-25.813c.828-.685 1.767-1.461 98.926-6.528.099-.006.223-.01.349-.01 3.191 0 5.692 2.293 5.817 5.332.131 3.146-2.36 5.758-5.671 5.945-29.672 1.803-86.315 5.277-93.529 5.838l-30.567 25.287c-1.115.922-2.462 1.43-3.792 1.43zm30.223-34.854l-31.048 25.686a4.322 4.322 0 0 0-1.433 2.362c-.221.965-.097 1.938.34 2.67.438.732 1.119 1.136 1.918 1.136.634 0 1.301-.264 1.879-.741l31.29-25.886.465-.041c4.752-.42 63.616-4.031 94.078-5.881 1.662-.095 2.911-1.336 2.849-2.828-.058-1.422-1.244-2.455-2.819-2.455-.058 0-.115.002-.171.005-76.021 3.964-95.079 5.44-97.348 5.973z"/><path opacity=".5" fill="#FDFAF8" d="M436.346 165.7c0 5.523-4.478 10-10 10h-35.498c-5.522 0-10-4.477-10-10v-20.498c0-5.523 4.478-10 10-10h35.498c5.522 0 10 4.477 10 10V165.7zm66 0c0 5.523-4.478 10-10 10h-35.498c-5.522 0-10-4.477-10-10v-20.498c0-5.523 4.478-10 10-10h35.498c5.522 0 10 4.477 10 10V165.7z"/><path fill="#271F3E" d="M456.848 178.7c-7.168 0-13-5.832-13-13v-20.498c0-.412.021-.83.064-1.25h-4.631c.043.42.064.838.064 1.25V165.7c0 7.168-5.832 13-13 13h-35.498c-7.168 0-13-5.832-13-13v-20.498c0-.596.045-1.199.134-1.809a6.484 6.484 0 0 1-3.883-5.941v-.5c0-3.584 2.916-6.5 6.5-6.5h121.993c3.584 0 6.5 2.916 6.5 6.5v.5a6.48 6.48 0 0 1-3.88 5.939c.089.609.134 1.215.134 1.811V165.7c0 7.168-5.832 13-13 13h-35.497zm-6.884-34.748a6.833 6.833 0 0 0-.116 1.25V165.7c0 3.859 3.141 7 7 7h35.498c3.859 0 7-3.141 7-7v-20.498c0-.418-.039-.836-.116-1.25h-49.266zm-66 0a6.833 6.833 0 0 0-.116 1.25V165.7c0 3.859 3.141 7 7 7h35.498c3.859 0 7-3.141 7-7v-20.498c0-.418-.039-.836-.116-1.25h-49.266z"/><path fill="#CDD0E0" d="M502.592 131.952a5 5 0 0 1 5 5v.5a4.992 4.992 0 0 1-4.115 4.91c.232.91.369 1.858.369 2.84V165.7c0 6.342-5.159 11.5-11.5 11.5h-35.498c-6.341 0-11.5-5.158-11.5-11.5v-20.498c0-.949.129-1.867.347-2.75H437.5c.218.883.347 1.801.347 2.75V165.7c0 6.342-5.159 11.5-11.5 11.5h-35.498c-6.341 0-11.5-5.158-11.5-11.5v-20.498c0-.981.137-1.93.369-2.84a4.992 4.992 0 0 1-4.118-4.91v-.5a5 5 0 0 1 5-5h121.992M456.848 174.2h35.498c4.687 0 8.5-3.813 8.5-8.5v-20.498c0-.963-.169-1.887-.466-2.75h-51.566a8.434 8.434 0 0 0-.466 2.75V165.7c0 4.688 3.814 8.5 8.5 8.5m-66 0h35.498c4.687 0 8.5-3.813 8.5-8.5v-20.498c0-.963-.169-1.887-.466-2.75h-51.566a8.434 8.434 0 0 0-.466 2.75V165.7c0 4.688 3.814 8.5 8.5 8.5m111.744-45.248H380.599c-4.411 0-8 3.59-8 8v.5a7.98 7.98 0 0 0 3.783 6.792c-.022.321-.034.641-.034.958V165.7c0 7.995 6.505 14.5 14.5 14.5h35.498c7.995 0 14.5-6.505 14.5-14.5v-20.248h1.502V165.7c0 7.995 6.505 14.5 14.5 14.5h35.498c7.995 0 14.5-6.505 14.5-14.5v-20.498c0-.318-.012-.639-.034-.96a7.978 7.978 0 0 0 3.78-6.79v-.5c0-4.41-3.589-8-8-8zm-51.244 16.5h46.498V165.7c0 3.033-2.467 5.5-5.5 5.5h-35.498a5.506 5.506 0 0 1-5.5-5.5v-20.248zm-66 0h46.498V165.7c0 3.033-2.467 5.5-5.5 5.5h-35.498a5.506 5.506 0 0 1-5.5-5.5v-20.248z"/></svg>