<svg xmlns="http://www.w3.org/2000/svg" width="743" height="301"><path fill="#FFF" d="M117.03 299.5h-18l-3-66h24z"/><path fill="#CDD0E0" d="M118.464 301H97.597l-3.136-69h27.14l-3.137 69zm-18-3h15.133l2.864-63H97.6l2.864 63z"/><path fill="#CDD0E0" d="M96.03 236.5l1.182 26h21.637l1.181-26z"/><path fill="#FFF" d="M644.03 299.5h-18l-3-66h24z"/><path fill="#CDD0E0" d="M645.464 301h-20.867l-3.136-69H648.6l-3.136 69zm-18-3h15.133l2.864-63H624.6l2.864 63z"/><path fill="#CDD0E0" d="M623.03 236.5l1.182 26h21.637l1.181-26z"/><path fill="#FFF" d="M1.5 220.5h740v26H1.5z"/><path fill="#CDD0E0" d="M743 248H0v-29h743v29zM3 245h737v-23H3v23z"/><path fill="#271F3E" d="M532.5 189.5c0 11.046-8.955 20-20 20h-282c-11.046 0-20-8.954-20-20v-168c0-11.046 8.954-20 20-20h282c11.045 0 20 8.954 20 20v168z"/><path fill="#CDD0E0" d="M512.5 211h-282c-11.855 0-21.5-9.645-21.5-21.5v-168C209 9.645 218.645 0 230.5 0h282C524.355 0 534 9.645 534 21.5v168c0 11.855-9.645 21.5-21.5 21.5zM230.5 3C220.299 3 212 11.299 212 21.5v168c0 10.201 8.299 18.5 18.5 18.5h282c10.201 0 18.5-8.299 18.5-18.5v-168C531 11.299 522.701 3 512.5 3h-282z"/><linearGradient id="a" gradientUnits="userSpaceOnUse" x1="257.084" y1="217.084" x2="485.918" y2="-11.749"><stop offset="0" stop-color="#f89e71"/><stop offset="1" stop-color="#f16b90"/></linearGradient><path fill="url(#a)" d="M224.5 20.833h294V184.5h-294z"/><path fill="#CDD0E0" d="M520 186H223V19.333h297V186zm-294-3h291V22.333H226V183z"/><path fill="#FFF" d="M574.25 214.5l-19 5h-368l-19-5v-12h406z"/><path fill="#CDD0E0" d="M555.444 221l-368.576-.049-20.119-5.295V201h409v14.656L555.444 221zm-367.999-3h367.611l17.694-4.656V204h-403v9.344L187.445 218z"/><path fill="#CDD0E0" d="M169.25 213.5l18 6h368l19.5-6zm235.438-8.833c0 1.519-.615 2.75-1.373 2.75h-63.63c-.759 0-1.374-1.231-1.374-2.75s.615-2.75 1.374-2.75h63.63c.758 0 1.373 1.231 1.373 2.75z"/><path fill="#5E4B8B" d="M368.216 78.951h14v14h-14z"/><path fill="#CDD0E0" d="M383.716 94.451h-17v-17h17v17zm-14-3h11v-11h-11v11z"/><path fill="#271F3E" d="M296.215 83.951h79v79h-79z"/><path fill="#CDD0E0" d="M376.716 164.451h-82v-82h82v82zm-79.001-3h76v-76h-76v76z"/><path fill="#FFF" d="M366.252 43.304h79v79h-79z"/><path fill="#CDD0E0" d="M446.752 123.804h-82v-82h82v82zm-79-3h76v-76h-76v76z"/><path d="M393.536 92.519l-2.483 8.952h-8.124l10.607-34.875h10.349l10.865 34.875h-8.537l-2.69-8.952h-9.987zm8.848-5.899l-2.173-7.399c-.621-2.069-1.242-4.657-1.76-6.726h-.104c-.518 2.069-1.034 4.708-1.604 6.726l-2.07 7.399h7.711zm24.53-17.489c0 2.173-1.604 3.932-4.242 3.932-2.484 0-4.088-1.759-4.088-3.932 0-2.225 1.655-3.933 4.191-3.933 2.536.001 4.087 1.708 4.139 3.933zm-8.123 32.339V76.168h7.864v25.302h-7.864z" fill="#271F3E"/><path fill="#FFF" d="M437.252 38.304h14v14h-14z"/><path fill="#CDD0E0" d="M452.752 53.804h-17v-17h17v17zm-14-3h11v-11h-11v11zm-123.061 57.243c2.19-.372 5.265-.652 9.598-.652 4.378 0 7.5.838 9.596 2.516 2.05 1.583 3.354 4.193 3.354 7.267 0 3.075-.978 5.73-2.889 7.454-2.422 2.236-6.009 3.308-10.202 3.308-.932 0-1.77-.047-2.422-.187v11.274h-7.035v-30.98zm7.035 14.256c.606.14 1.304.186 2.376.186 3.774 0 6.103-1.91 6.103-5.078 0-2.888-2.002-4.612-5.59-4.612-1.398 0-2.376.093-2.889.233v9.271zm18.771 10.574c1.305.792 4.007 1.677 6.103 1.677 2.143 0 3.028-.699 3.028-1.863 0-1.212-.698-1.771-3.308-2.655-4.751-1.584-6.568-4.146-6.522-6.849 0-4.286 3.634-7.5 9.271-7.5 2.656 0 4.985.652 6.383 1.351l-1.212 4.892c-1.024-.559-3.028-1.304-4.938-1.304-1.724 0-2.702.699-2.702 1.817 0 1.118.885 1.677 3.68 2.655 4.333 1.491 6.103 3.727 6.149 7.035 0 4.286-3.308 7.407-9.83 7.407-2.981 0-5.637-.698-7.361-1.63l1.259-5.033z"/><path fill="#FFF" d="M28.985 195.269c0 13.571 9.401 24.573 20.999 24.573h58.083c11.597 0 20.999-11.002 20.999-24.573 0-13.572-9.402-24.573-20.999-24.573H49.984c-11.598-.001-20.999 11-20.999 24.573z"/><path fill="#CDD0E0" d="M27.485 195.417c0-14.377 10.093-26.073 22.499-26.073h58.083c12.406 0 22.499 11.696 22.499 26.073s-10.093 26.074-22.499 26.074H49.984c-12.406 0-22.499-11.697-22.499-26.074zm22.499-23.073c-10.752 0-19.499 10.351-19.499 23.073 0 12.724 8.747 23.074 19.499 23.074h58.083c10.752 0 19.499-10.351 19.499-23.074s-8.747-23.073-19.499-23.073H49.984z"/><path fill="#F2F4F9" d="M80.099 117.969l2.389 5.699a38.152 38.152 0 0 0 3.069 4.861c3.687-2.788 7.696-5.209 12.028-7.069 5.207-2.238 10.92-3.654 16.795-3.718 1.094-.017 2.084.526 2.727 1.366.648.852.95 1.985.832 3.194-.117 1.209-.604 2.28-1.227 3.034-.629.767-1.395 1.229-2.235 1.242l-.409.007c-4.524.107-9.086 1.264-13.39 3.165-3.206 1.412-6.271 3.23-9.154 5.346 5.917 5.388 14.212 10.436 25.575 14.915 3.297-3.57 7.18-6.708 11.619-9.021.97-.509 2.097-.475 3.05-.017.964.467 1.746 1.339 2.188 2.473.443 1.132.492 2.306.279 3.26-.215.967-.689 1.729-1.432 2.119l-.361.192c-2.168 1.167-4.202 2.623-6.088 4.288 10.488 3.378 23.096 6.35 38.236 8.79v-.001c8.877-12.503 15.6-23.576 20.549-33.422-2.512.178-4.975.605-7.327 1.332l-.392.124c-.799.256-1.674.06-2.514-.466-.831-.517-1.633-1.376-2.129-2.485-.496-1.111-.57-2.278-.229-3.294.343-1.002 1.109-1.829 2.153-2.163 4.761-1.542 9.721-2.108 14.577-1.957a116.789 116.789 0 0 0 3.551-9.428c-3.387-.761-5.804-2.657-5.509-4.421.317-1.891 3.636-2.914 7.412-2.281.003.001.007.002.008.001 1.1-4.546 1.693-8.725 1.842-12.563-3.529.572-6.976 1.482-10.231 2.776-4.373 1.736-8.396 4.178-11.646 7.327l-.293.287c-.597.59-1.465.811-2.453.723-.975-.085-2.078-.489-3.023-1.253s-1.541-1.773-1.693-2.834c-.146-1.047.16-2.134.939-2.902 4.165-4.144 9.18-7.223 14.426-9.366 4.365-1.783 8.902-2.944 13.476-3.617a37.986 37.986 0 0 0-1.313-5.598l-2.388-5.699c-3.339-6.301-7.812-10.714-12.698-13.563a56.62 56.62 0 0 0-6.144 4.623c-3.907 3.396-7.233 7.364-9.466 11.77l-.195.401c-.406.82-1.173 1.378-2.156 1.67a5.395 5.395 0 0 1-3.296-.089c-1.147-.404-2.035-1.188-2.513-2.193a3.766 3.766 0 0 1 .022-3.259c2.786-5.721 6.843-10.561 11.386-14.601a63.667 63.667 0 0 1 2.387-1.996c-4.898-.879-9.747-.519-13.916.819a64.265 64.265 0 0 0-5.182 1.898c-12.711 5.327-16.764 12.753-20.652 23.056-10.071-4.452-18.209-6.771-30.919-1.445a65.194 65.194 0 0 0-4.988 2.361c-3.877 2.035-7.534 5.239-10.341 9.349a60.05 60.05 0 0 1 3.096-.301c6.066-.408 12.361.096 18.395 2.12a3.777 3.777 0 0 1 2.34 2.27c.381 1.046.314 2.229-.201 3.33a5.398 5.398 0 0 1-2.248 2.412c-.896.495-1.832.65-2.702.365l-.423-.141c-4.706-1.499-9.869-1.911-15.029-1.508-2.537.201-5.08.59-7.603 1.138-1.063 4.171-1.305 8.81-.415 13.781a4.26 4.26 0 0 1 2.001-.129c1.848.309 3.162 1.659 2.936 3.015-.228 1.361-1.91 2.209-3.76 1.901zm33.662-17.135c.317-1.892 3.636-2.914 7.414-2.281 3.777.631 6.582 2.678 6.268 4.57-.318 1.892-3.637 2.913-7.414 2.282-3.779-.633-6.583-2.677-6.268-4.571z"/><path fill="#CDD0E0" d="M165.062 163.278c-14.613-2.355-27.553-5.33-38.457-8.842l-2.509-.808 1.976-1.744c2.033-1.796 4.178-3.306 6.38-4.491l.364-.193c.391-.206.578-.722.667-1.12.167-.745.089-1.613-.214-2.387-.3-.77-.813-1.362-1.441-1.667-.556-.268-1.187-.276-1.707-.003-4.047 2.108-7.818 5.038-11.209 8.707l-.696.754-.954-.376c-10.932-4.308-19.691-9.422-26.037-15.2l-1.354-1.234 1.478-1.085c3.068-2.249 6.242-4.103 9.436-5.509 4.701-2.075 9.396-3.183 13.967-3.292l.416-.008c.443-.007.842-.381 1.102-.695.486-.59.811-1.4.891-2.226.08-.822-.109-1.582-.53-2.136-.38-.495-.921-.779-1.52-.779h-.001c-5.346.059-10.803 1.269-16.219 3.595-4.008 1.722-7.949 4.039-11.715 6.889l-1.211.916-.902-1.222a39.763 39.763 0 0 1-3.189-5.055l-3.494-8.326 2.682.449c1.045.176 1.963-.256 2.031-.664.064-.389-.582-1.102-1.705-1.289a2.717 2.717 0 0 0-1.291.077l-1.635.529-.303-1.692c-.886-4.953-.738-9.804.438-14.417l.229-.897.905-.197a58.442 58.442 0 0 1 7.804-1.166c5.643-.443 10.958.092 15.619 1.578l.419.14c.44.145.943.059 1.515-.258a3.88 3.88 0 0 0 1.609-1.733c.343-.729.396-1.502.153-2.167a2.29 2.29 0 0 0-1.412-1.372c-5.33-1.788-11.359-2.475-17.813-2.047-.877.061-1.811.151-3.025.294l-3.273.386 1.86-2.722c2.869-4.198 6.632-7.597 10.884-9.829a66.488 66.488 0 0 1 5.104-2.416c5.126-2.148 9.807-3.192 14.31-3.192 5.576 0 10.641 1.583 16.35 4.021 3.541-9.077 7.931-16.999 20.912-22.439a66.494 66.494 0 0 1 5.304-1.945c4.534-1.452 9.667-1.758 14.64-.865l3.25.583-2.578 2.064a59.782 59.782 0 0 0-2.328 1.947c-4.854 4.315-8.566 9.071-11.037 14.142a2.28 2.28 0 0 0-.014 1.952c.31.649.898 1.154 1.656 1.421.76.267 1.628.29 2.372.067.617-.184 1.034-.486 1.236-.895l.205-.417c2.214-4.372 5.517-8.485 9.819-12.226a58.57 58.57 0 0 1 6.305-4.743l.775-.508.801.467c5.539 3.226 10.003 7.988 13.27 14.156l2.445 5.82.045.123a39.668 39.668 0 0 1 1.367 5.818l.238 1.5-1.502.221c-4.666.686-9.082 1.87-13.125 3.521-5.457 2.229-10.146 5.271-13.941 9.048-.41.403-.596.995-.507 1.619.099.692.508 1.359 1.153 1.881.643.521 1.448.858 2.211.926.562.047 1.017-.051 1.268-.297l.301-.297c3.277-3.177 7.361-5.748 12.137-7.643 3.246-1.293 6.795-2.256 10.544-2.864l1.81-.294-.07 1.832c-.154 4.011-.788 8.337-1.883 12.858l-.277 1.146h-1.395l-.119-.034a11.682 11.682 0 0 0-1.871-.153c-2.465 0-3.667.805-3.736 1.215-.094.566 1.359 2.036 4.359 2.711l1.607.362-.51 1.566a118.926 118.926 0 0 1-3.597 9.549l-.401.944-1.025-.032c-4.922-.144-9.728.479-14.076 1.888-.551.176-.983.62-1.187 1.214-.224.663-.161 1.445.176 2.2.339.757.905 1.423 1.554 1.827.486.304.894.427 1.273.305l.395-.123c2.379-.736 4.957-1.206 7.664-1.397l2.631-.187-1.185 2.356c-5.147 10.243-12.101 21.555-20.665 33.618l-.541.762-.926-.149zm13.908-32.138l-.381.119c-1.188.38-2.514.164-3.766-.62-1.158-.722-2.118-1.839-2.704-3.146-.647-1.448-.746-3.006-.278-4.392.516-1.506 1.65-2.639 3.109-3.104 4.365-1.414 9.109-2.073 14.053-2.053a117.08 117.08 0 0 0 2.617-6.892c-3.418-1.179-5.451-3.39-5.068-5.684.379-2.26 3.008-3.72 6.695-3.72.346 0 .696.013 1.049.039.707-3.165 1.174-6.214 1.391-9.101-2.853.568-5.561 1.359-8.07 2.358-4.409 1.749-8.162 4.107-11.147 7l-.293.289c-.889.875-2.166 1.283-3.638 1.147-1.361-.12-2.723-.683-3.832-1.582-1.235-.997-2.029-2.343-2.236-3.79-.221-1.556.293-3.118 1.365-4.175 4.074-4.052 9.092-7.313 14.918-9.692 3.822-1.561 7.951-2.726 12.297-3.47a35.265 35.265 0 0 0-.979-3.838l-2.335-5.574c-2.839-5.337-6.638-9.514-11.302-12.43a55.074 55.074 0 0 0-5.199 3.978c-4.007 3.484-7.072 7.292-9.102 11.301l-.199.405c-.582 1.174-1.645 2.018-3.066 2.439-1.34.404-2.863.367-4.227-.11-1.519-.534-2.715-1.586-3.375-2.972a5.234 5.234 0 0 1 .033-4.553c2.601-5.339 6.475-10.338 11.516-14.863-3.426-.217-6.786.189-9.852 1.17a63.702 63.702 0 0 0-5.061 1.856c-12.598 5.279-16.3 12.852-19.83 22.202l-.56 1.483-1.45-.641c-6.134-2.713-11.047-4.394-16.582-4.394-4.097 0-8.398.968-13.15 2.96a62.688 62.688 0 0 0-4.871 2.306c-2.879 1.511-5.514 3.626-7.747 6.202 6.757-.422 13.057.328 18.668 2.212 1.495.492 2.721 1.678 3.28 3.181.521 1.431.433 3.021-.252 4.481a6.86 6.86 0 0 1-2.88 3.086c-1.296.716-2.656.886-3.901.478l-.406-.136c-4.268-1.359-9.205-1.851-14.455-1.44a55.07 55.07 0 0 0-6.48.915c-.771 3.479-.906 7.107-.402 10.816h.004c.33 0 .664.027.993.083 2.705.453 4.536 2.536 4.167 4.743-.247 1.477-1.424 2.605-3.033 3.029l1.541 3.677a35.78 35.78 0 0 0 2.051 3.39c3.58-2.579 7.308-4.707 11.098-6.334 5.781-2.484 11.625-3.775 17.436-3.839 1.507 0 2.918.713 3.872 1.959.883 1.161 1.284 2.67 1.132 4.246-.139 1.425-.693 2.79-1.561 3.842-.946 1.151-2.112 1.77-3.367 1.789l-.402.008c-4.168.1-8.48 1.121-12.82 3.037-2.469 1.087-4.932 2.463-7.34 4.101 5.756 4.869 13.399 9.241 22.766 13.017 3.441-3.574 7.243-6.458 11.311-8.576 1.328-.698 2.998-.716 4.402-.041 1.316.639 2.357 1.804 2.931 3.276.522 1.333.646 2.801.348 4.133-.324 1.455-1.083 2.534-2.193 3.118l-.353.187a29.65 29.65 0 0 0-3.693 2.371c9.954 3.035 21.523 5.641 34.447 7.757 7.551-10.693 13.805-20.767 18.625-29.996a29.813 29.813 0 0 0-4.277.972zm-58.478-24.554c-4.742-.793-7.967-3.501-7.499-6.299.379-2.26 3.007-3.719 6.696-3.719.799 0 1.621.069 2.444.207 4.741.793 7.966 3.5 7.499 6.298-.379 2.26-3.007 3.721-6.694 3.721-.8 0-1.622-.07-2.446-.208zm-4.54-5.804c-.095.565 1.554 2.263 5.036 2.845.66.11 1.316.167 1.95.167 2.465 0 3.666-.806 3.735-1.216.094-.565-1.554-2.262-5.035-2.844-.66-.11-1.315-.166-1.949-.166-2.467 0-3.668.805-3.737 1.214z"/><path fill="#CDD0E0" d="M78.171 170.263h3c0-50.16 22.597-90.968 50.372-90.968v-3c-14.433 0-27.927 9.885-37.996 27.834-9.915 17.675-15.376 41.162-15.376 66.134z"/><path fill="#F2F4F9" d="M595.357 85.12h22.576V219.5h-22.576z"/><path fill="#CDD0E0" d="M619.434 221h-25.576V83.62h25.576V221zm-22.577-3h19.576V86.62h-19.576V218z"/><path fill="#E1E4EE" d="M617.934 109.846h15.051V219.5h-15.051z"/><path fill="#CDD0E0" d="M634.484 221h-18.051V108.346h18.051V221zm-15.05-3h12.051V111.346h-12.051V218z"/><path fill="#FFF" d="M651.26 109.846h15.051V219.5H651.26z"/><path fill="#CDD0E0" d="M667.811 221H649.76V108.346h18.051V221zm-15.051-3h12.051V111.346H652.76V218z"/><path fill="#E9EBF3" d="M633.388 96.945h17.469V219.5h-17.469z"/><path fill="#CDD0E0" d="M652.356 221h-20.469V95.445h20.469V221zm-17.468-3h14.469V98.445h-14.469V218z"/><path fill="#F2F4F9" d="M661.31 89.699l16.865-4.554 35.032 129.729-16.864 4.554z"/><path fill="#CDD0E0" d="M695.302 221.293L659.484 88.664l19.762-5.337 35.816 132.63-19.76 5.336zm-32.14-130.515l34.253 126.836 13.97-3.772-34.252-126.837-13.971 3.773z"/><path fill="#271F3E" d="M601.126 214.018a4.667 4.667 0 0 1-4.667 4.666H494.74a4.665 4.665 0 0 1-4.665-4.666v-79.322a4.665 4.665 0 0 1 4.665-4.666h101.719a4.667 4.667 0 0 1 4.667 4.666v79.322z"/><path fill="#FFF" d="M601.126 134.695a4.667 4.667 0 0 0-4.667-4.666H494.74a4.665 4.665 0 0 0-4.665 4.666v20.531h111.051v-20.531zm-111.051 79.323a4.665 4.665 0 0 0 4.665 4.666h101.719a4.667 4.667 0 0 0 4.667-4.666v-4.666H490.075v4.666z"/><path fill="#CDD0E0" d="M596.225 219.67H494.506a5.895 5.895 0 0 1-5.888-5.887v-79.322a5.895 5.895 0 0 1 5.888-5.888h101.719a5.895 5.895 0 0 1 5.889 5.888v79.322a5.896 5.896 0 0 1-5.889 5.887zm-101.719-88.653a3.448 3.448 0 0 0-3.443 3.444v79.322a3.448 3.448 0 0 0 3.443 3.443h101.719a3.448 3.448 0 0 0 3.444-3.443v-79.322a3.448 3.448 0 0 0-3.444-3.444H494.506z"/><circle fill="#FFF" cx="534.167" cy="186.254" r="34.995"/><linearGradient id="b" gradientUnits="userSpaceOnUse" x1="506.171" y1="186.254" x2="562.163" y2="186.254"><stop offset="0" stop-color="#5e4b8b"/><stop offset="1" stop-color="#271f3e"/></linearGradient><circle fill="url(#b)" cx="534.167" cy="186.254" r="27.996"/><linearGradient id="c" gradientUnits="userSpaceOnUse" x1="508.971" y1="186.254" x2="559.364" y2="186.254"><stop offset="0" stop-color="#271f3e"/><stop offset="1" stop-color="#5e4b8b"/></linearGradient><circle fill="url(#c)" cx="534.167" cy="186.254" r="25.197"/><linearGradient id="d" gradientUnits="userSpaceOnUse" x1="516.53" y1="186.254" x2="551.805" y2="186.254"><stop offset="0" stop-color="#5e4b8b"/><stop offset="1" stop-color="#271f3e"/></linearGradient><circle fill="url(#d)" cx="534.167" cy="186.254" r="17.637"/><linearGradient id="e" gradientUnits="userSpaceOnUse" x1="525.438" y1="194.984" x2="542.898" y2="177.524"><stop offset="0" stop-color="#7379ba"/><stop offset="1" stop-color="#69cef4"/></linearGradient><circle fill="url(#e)" cx="534.167" cy="186.254" r="12.346"/><circle fill="#67CBF4" cx="534.167" cy="186.254" r="6.173"/><path fill="#CDD0E0" d="M534.167 222.471c-19.971 0-36.217-16.247-36.217-36.217 0-19.971 16.246-36.217 36.217-36.217 19.97 0 36.217 16.247 36.217 36.217s-16.247 36.217-36.217 36.217zm0-69.991c-18.623 0-33.773 15.15-33.773 33.773s15.15 33.773 33.773 33.773c18.622 0 33.773-15.15 33.773-33.773s-15.151-33.773-33.773-33.773z"/><path fill="#271F3E" d="M574.761 137.261h12.133v9.332h-12.133z"/><path fill="#CDD0E0" d="M588.115 147.815H573.54v-11.776h14.575v11.776zm-12.132-2.444h9.688v-6.888h-9.688v6.888zm-76.811-20.242h23.33v4.666h-23.33z"/><circle opacity=".2" fill="#67CBF4" cx="538.478" cy="190.48" r="9.762"/><circle opacity=".2" fill="#FFF" cx="538.478" cy="190.48" r="4.881"/><path fill="#271F3E" d="M277.444 216.299a5.812 5.812 0 0 0-1.937-3.184l-31.204-25.813c-.379-.313-1.384-1.145-98.045-6.186-2.495-.158-4.499 1.58-4.594 3.885-.095 2.318 1.774 4.246 4.254 4.387 30.997 1.884 89.317 5.462 94.041 5.88l30.93 25.584c.847.701 1.853 1.088 2.835 1.088 1.33 0 2.499-.682 3.207-1.867.633-1.061.821-2.436.513-3.774z"/><path fill="#CDD0E0" d="M273.725 223.439c-1.33 0-2.676-.508-3.792-1.432l-30.565-25.285c-7.224-.563-63.865-4.035-93.539-5.838-3.301-.188-5.79-2.799-5.662-5.945.131-3.17 2.837-5.531 6.188-5.32 97.135 5.066 98.075 5.842 98.904 6.525l31.206 25.816a7.314 7.314 0 0 1 2.443 4.006c.393 1.707.142 3.484-.688 4.875-.987 1.651-2.625 2.598-4.495 2.598zm-127.781-40.833c-1.527 0-2.723 1.056-2.78 2.456-.062 1.492 1.187 2.734 2.84 2.828 30.462 1.85 89.319 5.461 94.088 5.883l.465.041 31.289 25.881c.579.48 1.246.744 1.879.744.8 0 1.481-.402 1.919-1.137.437-.73.561-1.703.339-2.668a4.313 4.313 0 0 0-1.43-2.363l-31.049-25.685c-2.267-.534-21.32-2.009-97.323-5.973a4.183 4.183 0 0 0-.237-.007z"/><path fill="#271F3E" d="M264.947 181.108c-.092 0-.183.002-.271.008-96.666 5.041-97.67 5.873-98.048 6.186l-31.204 25.813a5.825 5.825 0 0 0-1.938 3.184c-.306 1.338-.119 2.713.514 3.773.709 1.186 1.877 1.867 3.206 1.867.983 0 1.99-.387 2.835-1.086l30.931-25.586c4.724-.418 63.045-3.996 94.037-5.88 2.482-.141 4.354-2.068 4.257-4.387-.091-2.218-1.948-3.892-4.319-3.892z"/><path fill="#CDD0E0" d="M137.206 223.439c-1.868 0-3.506-.945-4.493-2.598-.829-1.389-1.08-3.166-.688-4.877a7.336 7.336 0 0 1 2.445-4.006l31.203-25.813c.828-.686 1.767-1.461 98.926-6.528.099-.007.223-.01.349-.01 3.191 0 5.692 2.292 5.817 5.331.131 3.146-2.36 5.758-5.671 5.945-29.672 1.803-86.315 5.277-93.529 5.838l-30.567 25.287c-1.115.924-2.462 1.431-3.792 1.431zm30.223-34.853l-31.048 25.686a4.325 4.325 0 0 0-1.433 2.363c-.221.965-.097 1.938.34 2.67.438.732 1.119 1.135 1.918 1.135.634 0 1.301-.264 1.879-.74l31.29-25.885.465-.041c4.752-.422 63.616-4.032 94.078-5.883 1.662-.094 2.911-1.336 2.849-2.827-.058-1.423-1.244-2.455-2.819-2.455-.058 0-.115.001-.171.005-76.021 3.964-95.079 5.439-97.348 5.972z"/><path opacity=".5" fill="#FDFAF8" d="M199.498 205.748c0 5.523-4.478 10-10 10H154c-5.522 0-10-4.477-10-10V185.25c0-5.522 4.478-10 10-10h35.498c5.522 0 10 4.478 10 10v20.498zm66 0c0 5.523-4.478 10-10 10H220c-5.522 0-10-4.477-10-10V185.25c0-5.522 4.478-10 10-10h35.498c5.522 0 10 4.478 10 10v20.498z"/><path fill="#271F3E" d="M220 218.748c-7.168 0-13-5.83-13-13V185.25c0-.412.021-.829.064-1.25h-4.631c.043.421.064.838.064 1.25v20.498c0 7.17-5.832 13-13 13H154c-7.168 0-13-5.83-13-13V185.25c0-.595.045-1.199.134-1.809a6.483 6.483 0 0 1-3.883-5.941v-.499c0-3.584 2.916-6.5 6.5-6.5h121.993c3.584 0 6.5 2.916 6.5 6.5v.499a6.481 6.481 0 0 1-3.88 5.94c.089.609.134 1.215.134 1.81v20.498c0 7.17-5.832 13-13 13H220zM213.116 184a6.85 6.85 0 0 0-.116 1.25v20.498c0 3.861 3.141 7 7 7h35.498c3.859 0 7-3.139 7-7V185.25a6.85 6.85 0 0 0-.116-1.25h-49.266zm-66 0a6.85 6.85 0 0 0-.116 1.25v20.498c0 3.861 3.141 7 7 7h35.498c3.859 0 7-3.139 7-7V185.25a6.85 6.85 0 0 0-.116-1.25h-49.266z"/><path fill="#CDD0E0" d="M265.744 172.001a5 5 0 0 1 5 5v.499a4.99 4.99 0 0 1-4.115 4.91c.232.91.369 1.859.369 2.84v20.498c0 6.342-5.159 11.5-11.5 11.5H220c-6.341 0-11.5-5.158-11.5-11.5V185.25c0-.949.129-1.867.347-2.75h-8.195c.218.883.347 1.801.347 2.75v20.498c0 6.342-5.159 11.5-11.5 11.5H154c-6.341 0-11.5-5.158-11.5-11.5V185.25c0-.98.137-1.929.369-2.839a4.993 4.993 0 0 1-4.118-4.911v-.499a5 5 0 0 1 5-5h121.993M220 214.248h35.498c4.687 0 8.5-3.813 8.5-8.5V185.25c0-.963-.169-1.887-.466-2.75h-51.566a8.434 8.434 0 0 0-.466 2.75v20.498c0 4.688 3.813 8.5 8.5 8.5m-66 0h35.498c4.687 0 8.5-3.813 8.5-8.5V185.25c0-.963-.169-1.887-.466-2.75h-51.566a8.434 8.434 0 0 0-.466 2.75v20.498c0 4.688 3.813 8.5 8.5 8.5m111.744-45.247H143.751c-4.411 0-8 3.589-8 8v.499a7.982 7.982 0 0 0 3.783 6.793c-.022.32-.034.641-.034.957v20.498c0 7.996 6.505 14.5 14.5 14.5h35.498c7.995 0 14.5-6.504 14.5-14.5V185.5h1.502v20.248c0 7.996 6.505 14.5 14.5 14.5h35.498c7.995 0 14.5-6.504 14.5-14.5V185.25c0-.317-.012-.638-.034-.959a7.981 7.981 0 0 0 3.78-6.791v-.499c0-4.411-3.589-8-8-8zM214.5 185.5h46.498v20.248c0 3.033-2.467 5.5-5.5 5.5H220a5.506 5.506 0 0 1-5.5-5.5V185.5zm-66 0h46.498v20.248c0 3.033-2.467 5.5-5.5 5.5H154a5.506 5.506 0 0 1-5.5-5.5V185.5z"/></svg>