<?xml version="1.0" encoding="utf-8"?>
<!-- Generator: Adobe Illustrator 17.0.0, SVG Export Plug-In . SVG Version: 6.00 Build 0)  -->
<!DOCTYPE svg PUBLIC "-//W3C//DTD SVG 1.1//EN" "http://www.w3.org/Graphics/SVG/1.1/DTD/svg11.dtd">
<svg version="1.1" xmlns="http://www.w3.org/2000/svg" xmlns:xlink="http://www.w3.org/1999/xlink" x="0px" y="0px" width="2048px"
	 height="2048px" viewBox="0 0 2048 2048" enable-background="new 0 0 2048 2048" xml:space="preserve">
<g id="Layer_2" display="none">
	
		<rect x="51.2" y="51.2" display="inline" fill="none" stroke="#000000" stroke-width="2" stroke-miterlimit="10" width="1945.6" height="1945.6"/>
</g>
<g id="Layer_1">
	<path fill="#3377BC" d="M1766.439,430.4c-2.167-3.085-4.37-6.133-6.647-9.182C1594.743,196.6,1331.378,51.2,1034.629,51.2
		c-479.904,0-872.583,380.302-903.029,860.978c73.122-134.933,407.039-491.253,850.51-491.253s402.154,418.057,402.154,418.057
		H689.511c12.854-164.644,131.627-305.417,131.627-305.417c-490.922,199.535-468.886,702.687-468.886,702.687
		c11.973,235.123,89.025,397.674,191.455,509.983c242.615,266.046,627.544,250.327,627.544,250.327
		c346.624,0,580.277-139.634,580.277-139.634V1534.47v-85.132c0,0-200.783,141.323-530.697,146.832
		c-549.978-11.018-523.425-415.045-523.425-415.045H1916.21c0.036-0.037,0.036-0.073,0.036-0.147V964.623
		C1916.246,964.623,1927.117,657.296,1766.439,430.4z"/>
</g>
</svg>
