
<svg xmlns="http://www.w3.org/2000/svg" viewBox="0 0 100 125"><path class="html-svg" style="text-indent:0;text-transform:none;block-progression:tb" d="M56.906 22.877c-1.268.049-2.451.992-2.78 2.218l-14 48c-.574 1.543.4 3.472 1.981 3.927 1.582.456 3.432-.66 3.768-2.27l14-48c.555-1.818-1.07-3.938-2.969-3.875zm-24.812 9c-.615-.014-1.228.276-1.688.5l-24 15a3.058 3.058 0 0 0-1.414 2.546c0 1.014.554 2.011 1.414 2.547l24 15c1.334.835 3.306.38 4.14-.953.835-1.333.381-3.306-.952-4.14L13.656 49.939 33.594 37.47c1.129-.656 1.727-2.109 1.39-3.37-.34-1.262-1.584-2.22-2.89-2.223zm35.781.03c-1.282.04-2.483.993-2.81 2.234-.328 1.24.245 2.663 1.341 3.33l19.938 12.468-19.938 12.438c-1.333.834-1.787 2.807-.953 4.14.835 1.334 2.807 1.788 4.14.953l24-15a3.058 3.058 0 0 0 1.415-2.547c0-1.014-.554-2.01-1.414-2.546l-24-15a3.022 3.022 0 0 0-1.719-.47z" fill="#00ffd4" fill-opacity="1" overflow="visible" color="#00ffd4"/></svg>