
<svg xmlns="http://www.w3.org/2000/svg" viewBox="0 0 91.566 113.402"><g fill="#00ffd4"><path d="M89.442 67.336l-.411 1.063c-6.984 13.6-19.359 21.945-37.012 22.313-8.252.17-16.115-1.948-21.251-4.25-11.086-4.98-20.408-14.217-25.501-24.084-7.303-14.146-8.621-33.824 6.566-48.522.234 0-1.842 3.188-1.608 3.188l-.418 1.36C-1.136 52.666 32.582 82.028 65.357 78.67c7.877-.808 17.922-5.121 24.085-11.334zM90.738 24.566c-1.282 2.94-8.663 8.493-11.922 9.187-12.906 2.748-21.173-3.372-25.501-10.335-.645-1.041-1.835-3.882-2.047-4.604C49.589 13.104 50.361 4.47 55.37 0c-1.509 4.25-1.728 9.187-.935 12.396.482 1.941 1.948 5.327 3.414 7.459 2.671 3.882 4.363 4.824 7.792 6.885 1.544.928 3.202 1.672 3.917 1.877 3.251.957 10.115 3.479 21.18-4.051z"/><path d="M69.608 53.169c8.245.057 16.859-3.797 21.959-9.209-4.463 11.327-17.383 18.609-34.709 16.292-14.508-1.94-28.328-16.539-29.752-31.167-1.041-10.647 2.671-17.001 8.784-24.707-2.125 4.031-2.918 7.14-3.117 9.124C30.45 36.53 51.169 53.049 69.608 53.169z"/></g></svg>