<?xml version="1.0" encoding="UTF-8" standalone="no"?><!-- Generator: Gravit.io --><svg xmlns="http://www.w3.org/2000/svg" xmlns:xlink="http://www.w3.org/1999/xlink" style="isolation:isolate" viewBox="0 0 59.6 42.1" width="59.6pt" height="42.1pt"><defs><clipPath id="_clipPath_3c0MBqLxZEe571i77qhfV5XKEGbVJEnI"><rect width="59.6" height="42.1"/></clipPath></defs><g clip-path="url(#_clipPath_3c0MBqLxZEe571i77qhfV5XKEGbVJEnI)"><g><g><g><g><linearGradient id="_lgradient_0" x1="2.612072992700712" y1="0.48091304347823716" x2="-2.0578686131387056" y2="0.4809130434782366" gradientTransform="matrix(13.7,0,0,2.3,0,19.9)" gradientUnits="userSpaceOnUse"><stop offset="0%" stop-opacity="1" style="stop-color:rgb(200,149,49)"/><stop offset="100%" stop-opacity="1" style="stop-color:rgb(82,62,0)"/></linearGradient><rect x="0" y="19.9" width="13.7" height="2.3" transform="matrix(1,0,0,1,0,0)" fill="url(#_lgradient_0)"/></g><g><g><linearGradient id="_lgradient_1" x1="2.6340917978951794" y1="0.49655551525724895" x2="-6.060223237293929" y2="0.4965555152572479" gradientTransform="matrix(20.264,0,0,14.906,18.3,21.494)" gradientUnits="userSpaceOnUse"><stop offset="0%" stop-opacity="1" style="stop-color:rgb(200,149,49)"/><stop offset="100%" stop-opacity="1" style="stop-color:rgb(82,62,0)"/></linearGradient><path d=" M 38.5 35.8 C 38.4 36.6 37.2 36.6 37.3 35.8 C 38.3 26.5 25.7 23.4 18.9 22.7 C 18.1 22.6 18.1 21.4 18.9 21.5 C 26.2 22.2 39.6 25.7 38.5 35.8 Z " fill="url(#_lgradient_1)"/></g><g><linearGradient id="_lgradient_2" x1="7.017598100821277" y1="0.4857203477751355" x2="-23.954486541446112" y2="0.48572034777513173" gradientTransform="matrix(5.688,0,0,4.646,31.758,37.502)" gradientUnits="userSpaceOnUse"><stop offset="0%" stop-opacity="1" style="stop-color:rgb(200,149,49)"/><stop offset="100%" stop-opacity="1" style="stop-color:rgb(82,62,0)"/></linearGradient><path d=" M 36.4 37.7 C 36.9 37.1 37.8 38 37.3 38.6 C 36.1 40.2 34.4 41.4 32.5 42.1 C 31.8 42.4 31.4 41.2 32.2 40.9 C 33.8 40.2 35.3 39.1 36.4 37.7 Z " fill="url(#_lgradient_2)"/></g><g><linearGradient id="_lgradient_3" x1="2.639026716563463" y1="0.5001849329566239" x2="-6.055288318625645" y2="0.5001849329566228" gradientTransform="matrix(20.264,0,0,14.905,18.2,5.7)" gradientUnits="userSpaceOnUse"><stop offset="0%" stop-opacity="1" style="stop-color:rgb(200,149,49)"/><stop offset="100%" stop-opacity="1" style="stop-color:rgb(82,62,0)"/></linearGradient><path d=" M 37.2 6.3 C 37.1 5.5 38.3 5.5 38.4 6.3 C 39.5 16.3 26.1 19.9 18.8 20.6 C 18 20.7 18 19.4 18.8 19.4 C 25.6 18.7 38.3 15.6 37.2 6.3 Z " fill="url(#_lgradient_3)"/></g><g><linearGradient id="_lgradient_4" x1="6.964596994804554" y1="0.5011126251134349" x2="-23.734695295068995" y2="0.5011126251134311" gradientTransform="matrix(5.739,0,0,4.62,31.708,-0.022)" gradientUnits="userSpaceOnUse"><stop offset="0%" stop-opacity="1" style="stop-color:rgb(200,149,49)"/><stop offset="100%" stop-opacity="1" style="stop-color:rgb(82,62,0)"/></linearGradient><path d=" M 32.5 0 C 34.4 0.7 36.1 1.9 37.3 3.5 C 37.8 4.1 36.9 5 36.4 4.4 C 35.3 3 33.8 1.9 32.1 1.3 C 31.4 1 31.7 -0.2 32.5 0 Z " fill="url(#_lgradient_4)"/></g><g><linearGradient id="_lgradient_5" x1="1.5387923681256908" y1="0.5022865853658535" x2="-6.3705005611672245" y2="0.5022865853658525" gradientTransform="matrix(22.275,0,0,16.4,37.4,13.2)" gradientUnits="userSpaceOnUse"><stop offset="0%" stop-opacity="1" style="stop-color:rgb(200,149,49)"/><stop offset="100%" stop-opacity="1" style="stop-color:rgb(82,62,0)"/></linearGradient><path d=" M 51.4 27.2 C 52.8 25.8 53.6 24 53.7 22.1 C 53.7 22.1 53.7 22.1 53.8 22.1 C 55.5 22.1 57.3 22.1 59 22.1 C 59.9 22.1 59.9 20.7 59 20.7 C 57.3 20.7 55.5 20.7 53.8 20.7 C 53.8 20.7 53.8 20.7 53.7 20.7 C 53.4 16.5 49.9 13.2 45.6 13.2 C 41.1 13.2 37.4 16.9 37.4 21.4 C 37.4 23.6 38.3 25.7 39.8 27.2 C 41.3 28.7 43.3 29.6 45.6 29.6 C 47.8 29.6 49.9 28.7 51.4 27.2 Z  M 52 21.4 C 52 23.1 51.3 24.7 50.1 25.9 C 48.9 27.1 47.3 27.8 45.6 27.8 C 42.1 27.8 39.3 25 39.3 21.5 C 39.3 18 42.1 15.2 45.6 15.2 C 47.3 15.2 48.9 15.9 50.1 17.1 C 51.3 18.1 52 19.7 52 21.4 Z " fill="url(#_lgradient_5)"/></g><g><linearGradient id="_lgradient_6" x1="20.615764696107107" y1="0.47908474441003435" x2="-119.75716640018723" y2="0.47908474441001714" gradientTransform="matrix(1.255,0,0,1.214,45.802,23.643)" gradientUnits="userSpaceOnUse"><stop offset="0%" stop-opacity="1" style="stop-color:rgb(200,149,49)"/><stop offset="100%" stop-opacity="1" style="stop-color:rgb(82,62,0)"/></linearGradient><path d=" M 46 24.7 C 45.4 24.1 46.3 23.3 46.9 23.8 C 47.4 24.4 46.6 25.2 46 24.7 Z " fill="url(#_lgradient_6)"/></g><g><linearGradient id="_lgradient_7" x1="20.552082327851366" y1="0.4806881782107162" x2="-121.02878591058422" y2="0.48068817821069887" gradientTransform="matrix(1.244,0,0,1.204,46.102,17.743)" gradientUnits="userSpaceOnUse"><stop offset="0%" stop-opacity="1" style="stop-color:rgb(200,149,49)"/><stop offset="100%" stop-opacity="1" style="stop-color:rgb(82,62,0)"/></linearGradient><path d=" M 46.3 18.8 C 45.7 18.2 46.6 17.4 47.2 17.9 C 47.7 18.4 46.8 19.3 46.3 18.8 Z " fill="url(#_lgradient_7)"/></g></g></g></g></g></g></svg>