<?xml version="1.0" encoding="UTF-8" standalone="no"?><!-- Generator: Gravit.io -->
<svg xmlns="http://www.w3.org/2000/svg" xmlns:xlink="http://www.w3.org/1999/xlink" style="isolation:isolate" viewBox="0 0 50 20" width="50pt" height="20pt">
   <defs>
      <clipPath id="_clipPath_Sx5n5HRHEjPZBsUmEnQ4DBjSo0LjMYSc">
         <rect width="50" height="20"/>
      </clipPath>
   </defs>
   <g clip-path="url(#_clipPath_Sx5n5HRHEjPZBsUmEnQ4DBjSo0LjMYSc)">
      <g>
         <g>
            <g>
               <g>
                  <linearGradient id="_lgradient_8" x1="-1.6116715328466893" y1="0.49791304347827037" x2="3.058277372262784" y2="0.49791304347827037" gradientTransform="matrix(13.476,0,0,2.3,45.224,19.9)" gradientUnits="userSpaceOnUse">
                     <stop offset="0%" stop-opacity="1" style="stop-color:rgb(200,149,49)"/>
                     <stop offset="100%" stop-opacity="1" style="stop-color:rgb(82,62,0)"/>
                  </linearGradient>
                  <rect x="45.224" y="19.9" width="13.476" height="2.3" transform="matrix(1,0,0,1,0,0)" fill="url(#_lgradient_8)"/>
               </g>
               <g>
                  <g>
                     <linearGradient id="_lgradient_9" x1="-1.6338154424497626" y1="0.5001773250600378" x2="7.060494657820694" y2="0.5001773250600378" gradientTransform="matrix(19.933,0,0,14.906,20.766,5.7)" gradientUnits="userSpaceOnUse">
                        <stop offset="0%" stop-opacity="1" style="stop-color:rgb(200,149,49)"/>
                        <stop offset="100%" stop-opacity="1" style="stop-color:rgb(82,62,0)"/>
                     </linearGradient>
                     <path d=" M 20.829 6.3 C 20.927 5.5 22.108 5.5 22.009 6.3 C 21.026 15.6 33.42 18.7 40.109 19.4 C 40.896 19.5 40.896 20.7 40.109 20.6 C 32.928 19.8 19.747 16.3 20.829 6.3 Z " fill="url(#_lgradient_9)"/>
                  </g>
                  <g>
                     <linearGradient id="_lgradient_10" x1="-5.9636211943463895" y1="0.5010741370824198" x2="24.73565367051902" y2="0.5010741370824198" gradientTransform="matrix(5.645,0,0,4.62,21.865,-0.022)" gradientUnits="userSpaceOnUse">
                        <stop offset="0%" stop-opacity="1" style="stop-color:rgb(200,149,49)"/>
                        <stop offset="100%" stop-opacity="1" style="stop-color:rgb(82,62,0)"/>
                     </linearGradient>
                     <path d=" M 22.895 4.4 C 22.403 5 21.518 4.1 22.009 3.5 C 23.19 1.9 24.862 0.7 26.731 0 C 27.518 -0.2 27.813 1 27.124 1.2 C 25.452 1.8 23.977 3 22.895 4.4 Z " fill="url(#_lgradient_10)"/>
                  </g>
                  <g>
                     <linearGradient id="_lgradient_11" x1="-1.638750361118046" y1="0.4965478138430539" x2="7.055559739152411" y2="0.4965478138430539" gradientTransform="matrix(19.933,0,0,14.905,20.865,21.495)" gradientUnits="userSpaceOnUse">
                        <stop offset="0%" stop-opacity="1" style="stop-color:rgb(200,149,49)"/>
                        <stop offset="100%" stop-opacity="1" style="stop-color:rgb(82,62,0)"/>
                     </linearGradient>
                     <path d=" M 22.108 35.8 C 22.206 36.6 21.026 36.6 20.927 35.8 C 19.845 25.8 33.026 22.2 40.207 21.5 C 40.994 21.4 40.994 22.7 40.207 22.7 C 33.518 23.4 21.026 26.5 22.108 35.8 Z " fill="url(#_lgradient_11)"/>
                  </g>
                  <g>
                     <linearGradient id="_lgradient_12" x1="-6.055617913465464" y1="0.5072172585835446" x2="25.02641564840435" y2="0.5072172585835446" gradientTransform="matrix(5.576,0,0,4.645,21.964,37.402)" gradientUnits="userSpaceOnUse">
                        <stop offset="0%" stop-opacity="1" style="stop-color:rgb(200,149,49)"/>
                        <stop offset="100%" stop-opacity="1" style="stop-color:rgb(82,62,0)"/>
                     </linearGradient>
                     <path d=" M 26.829 42 C 24.96 41.3 23.288 40.1 22.108 38.5 C 21.616 37.9 22.501 37 22.993 37.6 C 24.075 39 25.551 40.1 27.223 40.7 C 27.813 41.1 27.518 42.3 26.829 42 Z " fill="url(#_lgradient_12)"/>
                  </g>
                  <g>
                     <linearGradient id="_lgradient_13" x1="-0.5385409652076276" y1="0.5008414634146325" x2="7.370747474747477" y2="0.5008414634146325" gradientTransform="matrix(21.911,0,0,16.4,0,12.4)" gradientUnits="userSpaceOnUse">
                        <stop offset="0%" stop-opacity="1" style="stop-color:rgb(200,149,49)"/>
                        <stop offset="100%" stop-opacity="1" style="stop-color:rgb(82,62,0)"/>
                     </linearGradient>
                     <path d=" M 8.14 14.8 C 6.763 16.2 5.976 18 5.877 19.9 C 5.877 19.9 5.877 19.9 5.779 19.9 C 4.107 19.9 2.336 19.9 0.664 19.9 C -0.221 19.9 -0.221 21.3 0.664 21.3 C 2.336 21.3 4.107 21.3 5.779 21.3 C 5.779 21.3 5.779 21.3 5.877 21.3 C 6.172 25.5 9.615 28.8 13.845 28.8 C 18.272 28.8 21.911 25.1 21.911 20.6 C 21.911 18.4 21.026 16.3 19.55 14.8 C 18.075 13.3 16.107 12.4 13.845 12.4 C 11.681 12.5 9.615 13.3 8.14 14.8 Z  M 7.55 20.6 C 7.55 18.9 8.238 17.3 9.419 16.1 C 10.599 14.9 12.173 14.2 13.845 14.2 C 17.288 14.2 20.042 17 20.042 20.5 C 20.042 24 17.288 26.8 13.845 26.8 C 12.173 26.8 10.599 26.1 9.419 24.9 C 8.238 23.9 7.55 22.4 7.55 20.6 Z " fill="url(#_lgradient_13)"/>
                  </g>
                  <g>
                     <linearGradient id="_lgradient_14" x1="-19.611302835254275" y1="0.49763249066718274" x2="120.76154858495356" y2="0.49763249066718274" gradientTransform="matrix(1.235,0,0,1.255,12.412,17.202)" gradientUnits="userSpaceOnUse">
                        <stop offset="0%" stop-opacity="1" style="stop-color:rgb(200,149,49)"/>
                        <stop offset="100%" stop-opacity="1" style="stop-color:rgb(82,62,0)"/>
                     </linearGradient>
                     <path d=" M 13.452 17.4 C 14.042 18 13.156 18.8 12.566 18.3 C 12.074 17.7 12.861 16.8 13.452 17.4 Z " fill="url(#_lgradient_14)"/>
                  </g>
                  <g>
                     <linearGradient id="_lgradient_15" x1="-19.54758207179367" y1="0.5001821254402579" x2="122.03320580492681" y2="0.5001821254402579" gradientTransform="matrix(1.224,0,0,1.255,12.127,23.102)" gradientUnits="userSpaceOnUse">
                        <stop offset="0%" stop-opacity="1" style="stop-color:rgb(200,149,49)"/>
                        <stop offset="100%" stop-opacity="1" style="stop-color:rgb(82,62,0)"/>
                     </linearGradient>
                     <path d=" M 13.156 23.3 C 13.747 23.9 12.861 24.7 12.271 24.2 C 11.779 23.6 12.665 22.7 13.156 23.3 Z " fill="url(#_lgradient_15)"/>
                  </g>
               </g>
            </g>
         </g>
      </g>
   </g>
</svg>