<svg xmlns="http://www.w3.org/2000/svg" viewBox="0 0 65.34 65.35"><defs><style>.cls-1{fill:#c99631;}</style></defs><title>180924_S&amp;amp;S_Website Landing page</title><g id="Layer_1" data-name="Layer 1"><path class="cls-1" d="M56,60.78l.47.13a3,3,0,0,0,.89.13,3.16,3.16,0,0,0,2.25-.93L63,56.69a3.19,3.19,0,0,0,0-4.5L49.91,39.06a3.19,3.19,0,0,0-4.5,0L42,42.47a3.21,3.21,0,0,0-.8,3.14l.13.47-.34.35-1.29,1.29a2.07,2.07,0,0,1-1.51.5c-2.64,0-7.74-2.44-13.18-7.88-6.83-6.83-8.9-13.16-7.38-14.68l1.29-1.29.35-.35.47.13a3,3,0,0,0,.89.13,3.16,3.16,0,0,0,2.25-.93l3.41-3.42a3.17,3.17,0,0,0,0-4.5L13.15,2.3a3.19,3.19,0,0,0-4.5,0L5.24,5.71a3.19,3.19,0,0,0-.81,3.14l.14.47-.35.35L3.11,10.8c-3.43,3.82-4,9.92-1.74,17.2S8.7,43.08,15.48,49.86,30,61.65,37.34,64a27.19,27.19,0,0,0,8.08,1.38c4,0,7.2-1.18,9.53-3.51l.72-.72ZM6.89,7.37,10.31,4l.59-.59.59.59L24.63,17.09l.59.59-.59.59-3.42,3.42-.53.53-.58-.46-.1-.08,0,0-6.51-6.52L6.89,8.56,6.3,8ZM53.66,59.82l-.37.36A10.82,10.82,0,0,1,45.42,63a24.59,24.59,0,0,1-7.37-1.28c-7-2.2-14.39-7-20.91-13.53S5.81,34.25,3.61,27.29C1.48,20.59,2,15.17,5.16,12.05l.36-.36.59-.6.6.6L16.9,21.88l.59.59-.59.59L16,24c-3.45,3.45,1.23,11.85,7.38,18,5.19,5.19,11,8.54,14.86,8.54a4.27,4.27,0,0,0,3.14-1.16l.94-.94.59-.59.59.59,10.2,10.2.59.59Zm-10-14.51-.59-.59.59-.59,3.42-3.41.59-.6.59.6L61.38,53.85l.6.59-.6.59c-3.65,3.66-3.65,3.66-4,3.66H57l-.25-.24Z"/><path class="cls-1" d="M35.74,10.2a1.17,1.17,0,0,0,0,2.34A17.07,17.07,0,0,1,52.8,29.6a1.18,1.18,0,0,0,2.35,0A19.41,19.41,0,0,0,35.74,10.2Z"/><path class="cls-1" d="M56.67,8.67A29.4,29.4,0,0,0,35.74,0a1.17,1.17,0,0,0,0,2.34A27.28,27.28,0,0,1,63,29.6a1.17,1.17,0,1,0,2.34,0A29.42,29.42,0,0,0,56.67,8.67Z"/><path class="cls-1" d="M35.74,20.39a1.18,1.18,0,0,0-1.17,1.17,1.17,1.17,0,0,0,1.17,1.18,6.6,6.6,0,0,1,4.85,2,6.69,6.69,0,0,1,2,4.85,1.18,1.18,0,0,0,.35.83,1.16,1.16,0,0,0,.83.34A1.17,1.17,0,0,0,45,29.6a9.22,9.22,0,0,0-9.21-9.21Z"/></g></svg>